<svg width="80" height="80" viewBox="0 0 80 80" fill="none" xmlns="http://www.w3.org/2000/svg">
<rect width="80" height="80" rx="40" fill="#614CE1"/>
<rect width="80" height="80" rx="40" fill="white" fill-opacity="0.8"/>
<path fill-rule="evenodd" clip-rule="evenodd" d="M56.7678 35.7322C57.2366 36.2011 57.5 36.837 57.5 37.5V57.5H22.5V25C22.5 24.337 22.7634 23.7011 23.2322 23.2322C23.7011 22.7634 24.337 22.5 25 22.5H45C45.663 22.5 46.2989 22.7634 46.7678 23.2322C47.2366 23.7011 47.5 24.337 47.5 25V35H55C55.663 35 56.2989 35.2634 56.7678 35.7322ZM45 25H25V55H45V25ZM47.5 37.5V55H55V37.5H47.5ZM32.5 30H30V35H32.5V30ZM32.5 37.5H30V42.5H32.5V37.5ZM37.5 30H40V35H37.5V30ZM40 37.5H37.5V42.5H40V37.5ZM30 45H32.5V50H30V45ZM40 45H37.5V50H40V45Z" fill="#614CE1"/>
</svg>
