<svg width="80" height="80" viewBox="0 0 80 80" fill="none" xmlns="http://www.w3.org/2000/svg">
<rect width="80" height="80" rx="40" fill="#614CE1"/>
<rect width="80" height="80" rx="40" fill="white" fill-opacity="0.8"/>
<path d="M55 27.5H25C24.337 27.5 23.7011 27.7634 23.2322 28.2322C22.7634 28.7011 22.5 29.337 22.5 30V50C22.5 50.663 22.7634 51.2989 23.2322 51.7678C23.7011 52.2366 24.337 52.5 25 52.5H55C55.663 52.5 56.2989 52.2366 56.7678 51.7678C57.2366 51.2989 57.5 50.663 57.5 50V30C57.5 29.337 57.2366 28.7011 56.7678 28.2322C56.2989 27.7634 55.663 27.5 55 27.5ZM52.25 30L40 38.475L27.75 30H52.25ZM25 50V31.1375L39.2875 41.025C39.4967 41.1702 39.7453 41.2479 40 41.2479C40.2547 41.2479 40.5033 41.1702 40.7125 41.025L55 31.1375V50H25Z" fill="#614CE1"/>
</svg>
