<svg width="80" height="80" viewBox="0 0 80 80" fill="none" xmlns="http://www.w3.org/2000/svg">
<rect width="80" height="80" rx="40" fill="#614CE1"/>
<rect width="80" height="80" rx="40" fill="white" fill-opacity="0.8"/>
<path d="M52.4999 56.25H52.2874C27.7249 54.8375 24.2374 34.1125 23.7499 27.7875C23.7107 27.2957 23.7688 26.801 23.921 26.3318C24.0733 25.8625 24.3166 25.4279 24.6371 25.0528C24.9576 24.6778 25.3489 24.3696 25.7887 24.146C26.2285 23.9225 26.7081 23.7879 27.1999 23.75H34.0874C34.5881 23.7495 35.0774 23.8994 35.492 24.1802C35.9065 24.461 36.2272 24.8598 36.4124 25.325L38.3124 30C38.4954 30.4544 38.5408 30.9526 38.443 31.4326C38.3452 31.9126 38.1086 32.3533 37.7624 32.7L35.0999 35.3875C35.5158 37.7509 36.6477 39.9296 38.3423 41.6287C40.037 43.3278 42.2126 44.4654 44.5749 44.8875L47.2874 42.2C47.6393 41.8577 48.0842 41.6266 48.5665 41.5354C49.0489 41.4443 49.5474 41.4972 49.9999 41.6875L54.7124 43.575C55.1706 43.7661 55.5615 44.0893 55.8353 44.5033C56.1091 44.9174 56.2535 45.4036 56.2499 45.9V52.5C56.2499 53.4946 55.8549 54.4484 55.1516 55.1517C54.4483 55.8549 53.4945 56.25 52.4999 56.25ZM27.4999 26.25C27.1684 26.25 26.8505 26.3817 26.6161 26.6161C26.3816 26.8505 26.2499 27.1685 26.2499 27.5V27.6C26.8249 35 30.5124 52.5 52.4249 53.75C52.5892 53.7601 52.7538 53.7378 52.9093 53.6842C53.0649 53.6306 53.2083 53.5468 53.3314 53.4376C53.4545 53.3285 53.5549 53.1961 53.6267 53.048C53.6985 52.9 53.7404 52.7393 53.7499 52.575V45.9L49.0374 44.0125L45.4499 47.575L44.8499 47.5C33.9749 46.1375 32.4999 35.2625 32.4999 35.15L32.4249 34.55L35.9749 30.9625L34.0999 26.25H27.4999Z" fill="#614CE1"/>
</svg>
