<svg xmlns="http://www.w3.org/2000/svg" xmlns:xlink="http://www.w3.org/1999/xlink" width="200" zoomAndPan="magnify" viewBox="0 0 150 44.999999" height="60" preserveAspectRatio="xMidYMid meet" version="1.0"><defs><g/><clipPath id="5d69c8e8ee"><path d="M 9.464844 9.140625 L 15.679688 9.140625 L 15.679688 40.539062 L 9.464844 40.539062 Z M 9.464844 9.140625 " clip-rule="nonzero"/></clipPath><clipPath id="58eff18ce8"><path d="M 9.464844 34.328125 L 40.867188 34.328125 L 40.867188 40.539062 L 9.464844 40.539062 Z M 9.464844 34.328125 " clip-rule="nonzero"/></clipPath><clipPath id="43b881b9b7"><path d="M 9.464844 9.140625 L 40.867188 9.140625 L 40.867188 15.351562 L 9.464844 15.351562 Z M 9.464844 9.140625 " clip-rule="nonzero"/></clipPath><clipPath id="7a94c872cf"><path d="M 34.65625 9.140625 L 40.867188 9.140625 L 40.867188 40.539062 L 34.65625 40.539062 Z M 34.65625 9.140625 " clip-rule="nonzero"/></clipPath><clipPath id="5467375697"><path d="M 22.0625 9.140625 L 28.273438 9.140625 L 28.273438 34.328125 L 22.0625 34.328125 Z M 22.0625 9.140625 " clip-rule="nonzero"/></clipPath><clipPath id="e11da402c5"><path d="M 34.65625 9.140625 L 40.867188 9.140625 L 40.867188 15.351562 L 34.65625 15.351562 Z M 34.65625 9.140625 " clip-rule="nonzero"/></clipPath><clipPath id="54f8f32e2c"><path d="M 34.84375 9.289062 L 40.675781 9.289062 L 40.675781 15.207031 L 34.84375 15.207031 Z M 34.84375 9.289062 " clip-rule="nonzero"/></clipPath><clipPath id="18513106e9"><path d="M 9.652344 9.289062 L 15.488281 9.289062 L 15.488281 15.207031 L 9.652344 15.207031 Z M 9.652344 9.289062 " clip-rule="nonzero"/></clipPath><clipPath id="c2385c8e6b"><path d="M 10.734375 10.382812 L 14.40625 10.382812 L 14.40625 14.109375 L 10.734375 14.109375 Z M 10.734375 10.382812 " clip-rule="nonzero"/></clipPath><clipPath id="ee3a892b62"><path d="M 4.5 4.5 L 7.570312 4.5 L 7.570312 7.570312 L 4.5 7.570312 Z M 4.5 4.5 " clip-rule="nonzero"/></clipPath><clipPath id="d4ecd6e24d"><path d="M 17.304688 5.351562 L 19.527344 5.351562 L 19.527344 7.570312 L 17.304688 7.570312 Z M 17.304688 5.351562 " clip-rule="nonzero"/></clipPath><clipPath id="b2e04583a0"><path d="M 5.042969 10.382812 L 6.445312 10.382812 L 6.445312 11.785156 L 5.042969 11.785156 Z M 5.042969 10.382812 " clip-rule="nonzero"/></clipPath></defs><g fill="#40d298" fill-opacity="1"><g transform="translate(45.634769, 25.884939)"><g><path d="M 10.078125 0 L 0.609375 0 L 0.609375 -1.96875 L 7.25 -11.484375 L 0.859375 -11.484375 L 0.859375 -13.609375 L 9.953125 -13.609375 L 9.953125 -11.484375 L 3.265625 -2.015625 L 10.078125 -2.015625 Z M 10.078125 0 "/></g></g></g><g fill="#40d298" fill-opacity="1"><g transform="translate(56.335189, 25.884939)"><g><path d="M 10.0625 0 L 7.515625 0 L 6.71875 -3.5625 L 3.578125 -3.5625 L 2.828125 0 L 0.40625 0 L 3.59375 -13.609375 L 6.609375 -13.609375 Z M 6.203125 -5.828125 L 5.09375 -10.03125 L 4.078125 -5.828125 Z M 6.203125 -5.828125 "/></g></g></g><g fill="#40d298" fill-opacity="1"><g transform="translate(66.588136, 25.884939)"><g><path d="M 11.9375 0 L 9.796875 0 L 9.796875 -7.203125 L 7.53125 0 L 5.890625 0 L 3.65625 -7.171875 L 3.65625 0 L 1.515625 0 L 1.515625 -13.609375 L 3.65625 -13.609375 L 6.71875 -4.609375 L 9.796875 -13.609375 L 11.9375 -13.609375 Z M 11.9375 0 "/></g></g></g><g fill="#40d298" fill-opacity="1"><g transform="translate(80.090132, 25.884939)"><g><path d="M 11.9375 0 L 9.796875 0 L 9.796875 -7.203125 L 7.53125 0 L 5.890625 0 L 3.65625 -7.171875 L 3.65625 0 L 1.515625 0 L 1.515625 -13.609375 L 3.65625 -13.609375 L 6.71875 -4.609375 L 9.796875 -13.609375 L 11.9375 -13.609375 Z M 11.9375 0 "/></g></g></g><g fill="#40d298" fill-opacity="1"><g transform="translate(93.592128, 25.884939)"><g><path d="M 6.65625 0.375 L 5.96875 -1.265625 C 6.394531 -1.316406 6.742188 -1.476562 7.015625 -1.75 C 7.296875 -2.019531 7.4375 -2.5 7.4375 -3.1875 L 7.4375 -4.28125 C 6.78125 -3.957031 6.097656 -3.796875 5.390625 -3.796875 C 4.054688 -3.796875 2.976562 -4.175781 2.15625 -4.9375 C 1.34375 -5.707031 0.9375 -6.738281 0.9375 -8.03125 L 0.9375 -13.609375 L 3.078125 -13.609375 L 3.078125 -8.234375 C 3.078125 -6.671875 3.847656 -5.890625 5.390625 -5.890625 C 5.546875 -5.890625 5.691406 -5.894531 5.828125 -5.90625 C 5.960938 -5.925781 6.082031 -5.945312 6.1875 -5.96875 C 6.300781 -6 6.40625 -6.023438 6.5 -6.046875 C 6.59375 -6.078125 6.679688 -6.113281 6.765625 -6.15625 C 6.847656 -6.195312 6.914062 -6.226562 6.96875 -6.25 C 7.019531 -6.28125 7.070312 -6.320312 7.125 -6.375 C 7.1875 -6.425781 7.226562 -6.460938 7.25 -6.484375 C 7.28125 -6.515625 7.316406 -6.554688 7.359375 -6.609375 L 7.4375 -6.671875 L 7.4375 -13.609375 L 9.578125 -13.609375 L 9.578125 -3.03125 C 9.578125 -2.007812 9.351562 -1.210938 8.90625 -0.640625 C 8.46875 -0.0664062 7.71875 0.269531 6.65625 0.375 Z M 6.65625 0.375 "/></g></g></g><g fill="#40d298" fill-opacity="1"><g transform="translate(104.253645, 25.884939)"><g/></g></g><g fill="#40d298" fill-opacity="1"><g transform="translate(109.662221, 25.884939)"><g><path d="M 10.078125 0 L 0.609375 0 L 0.609375 -1.96875 L 7.25 -11.484375 L 0.859375 -11.484375 L 0.859375 -13.609375 L 9.953125 -13.609375 L 9.953125 -11.484375 L 3.265625 -2.015625 L 10.078125 -2.015625 Z M 10.078125 0 "/></g></g></g><g fill="#40d298" fill-opacity="1"><g transform="translate(120.362641, 25.884939)"><g><path d="M 10.0625 0 L 7.515625 0 L 6.71875 -3.5625 L 3.578125 -3.5625 L 2.828125 0 L 0.40625 0 L 3.59375 -13.609375 L 6.609375 -13.609375 Z M 6.203125 -5.828125 L 5.09375 -10.03125 L 4.078125 -5.828125 Z M 6.203125 -5.828125 "/></g></g></g><g fill="#40d298" fill-opacity="1"><g transform="translate(130.615588, 25.884939)"><g><path d="M 4.53125 0 L 2.390625 0 L 2.390625 -11.515625 L 1.1875 -11.5625 L 1.1875 -13.609375 L 4.53125 -13.609375 Z M 4.53125 0 "/></g></g></g><g fill="#40d298" fill-opacity="1"><g transform="translate(136.7051, 25.884939)"><g><path d="M 3.65625 0 L 1.515625 0 L 1.515625 -13.609375 L 8.015625 -13.609375 L 8.015625 -11.484375 L 3.65625 -11.484375 L 3.65625 -8.03125 L 6.375 -8.03125 L 5.6875 -5.984375 L 3.65625 -5.984375 Z M 3.65625 0 "/></g></g></g><g clip-path="url(#5d69c8e8ee)"><path fill="#40d298" d="M 9.464844 9.140625 L 15.679688 9.140625 L 15.679688 40.535156 L 9.464844 40.535156 Z M 9.464844 9.140625 " fill-opacity="1" fill-rule="nonzero"/></g><g clip-path="url(#58eff18ce8)"><path fill="#c8c8c8" d="M 40.867188 34.328125 L 40.867188 40.539062 L 9.46875 40.539062 L 9.46875 34.328125 Z M 40.867188 34.328125 " fill-opacity="1" fill-rule="nonzero"/></g><g clip-path="url(#43b881b9b7)"><path fill="#40d298" d="M 40.867188 9.140625 L 40.867188 15.351562 L 9.46875 15.351562 L 9.46875 9.140625 Z M 40.867188 9.140625 " fill-opacity="1" fill-rule="nonzero"/></g><path stroke-linecap="butt" transform="matrix(0.032143, -0.032143, 0.032143, 0.032143, 10.5241, 13.779668)" fill="none" stroke-linejoin="miter" d="M 0.0258438 7.974343 L 225.641483 8.035107 " stroke="#40d298" stroke-width="16" stroke-opacity="1" stroke-miterlimit="4"/><path stroke-linecap="butt" transform="matrix(-0.034652, -0.0294208, 0.0294208, -0.034652, 13.327864, 12.884373)" fill="none" stroke-linejoin="miter" d="M 0.0362873 8.017921 L 225.675166 7.967513 " stroke="#40d298" stroke-width="16" stroke-opacity="1" stroke-miterlimit="4"/><g clip-path="url(#7a94c872cf)"><path fill="#c8c8c8" d="M 34.65625 9.140625 L 40.867188 9.140625 L 40.867188 40.535156 L 34.65625 40.535156 Z M 34.65625 9.140625 " fill-opacity="1" fill-rule="nonzero"/></g><g clip-path="url(#5467375697)"><path fill="#40d298" d="M 22.0625 9.140625 L 28.273438 9.140625 L 28.273438 34.324219 L 22.0625 34.324219 Z M 22.0625 9.140625 " fill-opacity="1" fill-rule="nonzero"/></g><g clip-path="url(#e11da402c5)"><path fill="#ffffff" d="M 34.65625 9.140625 L 40.867188 9.140625 L 40.867188 15.351562 L 34.65625 15.351562 Z M 34.65625 9.140625 " fill-opacity="1" fill-rule="nonzero"/></g><g clip-path="url(#54f8f32e2c)"><path fill="#40d298" d="M 34.84375 9.289062 L 40.675781 9.289062 L 40.675781 15.210938 L 34.84375 15.210938 Z M 34.84375 9.289062 " fill-opacity="1" fill-rule="nonzero"/></g><g clip-path="url(#18513106e9)"><path fill="#ffffff" d="M 9.652344 9.289062 L 15.488281 9.289062 L 15.488281 15.210938 L 9.652344 15.210938 Z M 9.652344 9.289062 " fill-opacity="1" fill-rule="nonzero"/></g><g clip-path="url(#c2385c8e6b)"><path fill="#40d298" d="M 10.734375 10.382812 L 14.40625 10.382812 L 14.40625 14.113281 L 10.734375 14.113281 Z M 10.734375 10.382812 " fill-opacity="1" fill-rule="nonzero"/></g><g clip-path="url(#ee3a892b62)"><path fill="#40d298" d="M 4.5 4.5 L 7.570312 4.5 L 7.570312 7.570312 L 4.5 7.570312 Z M 4.5 4.5 " fill-opacity="1" fill-rule="nonzero"/></g><g fill="#ffffff" fill-opacity="1"><g transform="translate(35.402419, 14.018668)"><g><path d="M 4.359375 -3.265625 C 4.359375 -3.953125 3.875 -4.015625 3.359375 -4.015625 L 0.359375 -4.015625 L 0.359375 -3.0625 L 3 -3.0625 C 3.21875 -3.0625 3.359375 -3.046875 3.359375 -2.8125 L 3.359375 -2.734375 C 3.359375 -2.484375 3.21875 -2.484375 3 -2.484375 L 1.375 -2.484375 C 0.84375 -2.484375 0.359375 -2.4375 0.359375 -1.734375 L 0.359375 0 L 4.359375 0 L 4.359375 -0.953125 L 1.34375 -0.953125 L 1.34375 -1.296875 C 1.34375 -1.53125 1.5 -1.53125 1.71875 -1.53125 L 3.359375 -1.53125 C 3.875 -1.53125 4.359375 -1.578125 4.359375 -2.296875 Z M 4.359375 -3.265625 "/></g></g></g><g clip-path="url(#d4ecd6e24d)"><path fill="#40d298" d="M 17.304688 5.351562 L 19.527344 5.351562 L 19.527344 7.570312 L 17.304688 7.570312 Z M 17.304688 5.351562 " fill-opacity="1" fill-rule="nonzero"/></g><g clip-path="url(#b2e04583a0)"><path fill="#40d298" d="M 5.042969 10.382812 L 6.445312 10.382812 L 6.445312 11.785156 L 5.042969 11.785156 Z M 5.042969 10.382812 " fill-opacity="1" fill-rule="nonzero"/></g><g fill="#383838" fill-opacity="1"><g transform="translate(44.851146, 37.567905)"><g><path d="M 2.859375 0.0625 C 2.421875 0.0625 2.023438 -0.0078125 1.671875 -0.15625 C 1.316406 -0.3125 1.039062 -0.53125 0.84375 -0.8125 C 0.644531 -1.09375 0.546875 -1.421875 0.546875 -1.796875 L 1.6875 -1.796875 C 1.71875 -1.515625 1.828125 -1.28125 2.015625 -1.09375 C 2.210938 -0.914062 2.492188 -0.828125 2.859375 -0.828125 C 3.222656 -0.828125 3.507812 -0.914062 3.71875 -1.09375 C 3.925781 -1.28125 4.03125 -1.515625 4.03125 -1.796875 C 4.03125 -2.015625 3.960938 -2.191406 3.828125 -2.328125 C 3.703125 -2.460938 3.546875 -2.566406 3.359375 -2.640625 C 3.171875 -2.722656 2.90625 -2.804688 2.5625 -2.890625 C 2.132812 -3.003906 1.785156 -3.117188 1.515625 -3.234375 C 1.253906 -3.347656 1.03125 -3.523438 0.84375 -3.765625 C 0.65625 -4.015625 0.5625 -4.34375 0.5625 -4.75 C 0.5625 -5.125 0.65625 -5.453125 0.84375 -5.734375 C 1.03125 -6.015625 1.289062 -6.226562 1.625 -6.375 C 1.96875 -6.53125 2.363281 -6.609375 2.8125 -6.609375 C 3.4375 -6.609375 3.953125 -6.445312 4.359375 -6.125 C 4.765625 -5.8125 4.988281 -5.382812 5.03125 -4.84375 L 3.84375 -4.84375 C 3.832031 -5.070312 3.722656 -5.269531 3.515625 -5.4375 C 3.304688 -5.613281 3.03125 -5.703125 2.6875 -5.703125 C 2.382812 -5.703125 2.132812 -5.625 1.9375 -5.46875 C 1.75 -5.3125 1.65625 -5.085938 1.65625 -4.796875 C 1.65625 -4.585938 1.710938 -4.421875 1.828125 -4.296875 C 1.953125 -4.171875 2.109375 -4.066406 2.296875 -3.984375 C 2.484375 -3.910156 2.742188 -3.832031 3.078125 -3.75 C 3.503906 -3.625 3.851562 -3.503906 4.125 -3.390625 C 4.394531 -3.273438 4.625 -3.09375 4.8125 -2.84375 C 5.007812 -2.59375 5.109375 -2.257812 5.109375 -1.84375 C 5.109375 -1.519531 5.019531 -1.207031 4.84375 -0.90625 C 4.664062 -0.613281 4.40625 -0.378906 4.0625 -0.203125 C 3.71875 -0.0234375 3.316406 0.0625 2.859375 0.0625 Z M 2.859375 0.0625 "/></g></g></g><g fill="#383838" fill-opacity="1"><g transform="translate(51.959328, 37.567905)"><g><path d="M 1.78125 -5.65625 L 1.78125 -3.75 L 4.03125 -3.75 L 4.03125 -2.875 L 1.78125 -2.875 L 1.78125 -0.875 L 4.3125 -0.875 L 4.3125 0 L 0.703125 0 L 0.703125 -6.53125 L 4.3125 -6.53125 L 4.3125 -5.65625 Z M 1.78125 -5.65625 "/></g></g></g><g fill="#383838" fill-opacity="1"><g transform="translate(58.31642, 37.567905)"><g><path d="M 3.6875 0.0625 C 3.070312 0.0625 2.507812 -0.078125 2 -0.359375 C 1.488281 -0.640625 1.082031 -1.035156 0.78125 -1.546875 C 0.488281 -2.054688 0.34375 -2.632812 0.34375 -3.28125 C 0.34375 -3.914062 0.488281 -4.484375 0.78125 -4.984375 C 1.082031 -5.492188 1.488281 -5.890625 2 -6.171875 C 2.507812 -6.460938 3.070312 -6.609375 3.6875 -6.609375 C 4.289062 -6.609375 4.847656 -6.460938 5.359375 -6.171875 C 5.867188 -5.890625 6.269531 -5.492188 6.5625 -4.984375 C 6.863281 -4.484375 7.015625 -3.914062 7.015625 -3.28125 C 7.015625 -2.632812 6.863281 -2.054688 6.5625 -1.546875 C 6.269531 -1.035156 5.867188 -0.640625 5.359375 -0.359375 C 4.847656 -0.078125 4.289062 0.0625 3.6875 0.0625 Z M 3.6875 -0.859375 C 4.113281 -0.859375 4.492188 -0.957031 4.828125 -1.15625 C 5.171875 -1.351562 5.4375 -1.632812 5.625 -2 C 5.820312 -2.363281 5.921875 -2.789062 5.921875 -3.28125 C 5.921875 -3.757812 5.820312 -4.179688 5.625 -4.546875 C 5.4375 -4.910156 5.171875 -5.1875 4.828125 -5.375 C 4.492188 -5.570312 4.113281 -5.671875 3.6875 -5.671875 C 3.25 -5.671875 2.859375 -5.570312 2.515625 -5.375 C 2.179688 -5.1875 1.921875 -4.910156 1.734375 -4.546875 C 1.546875 -4.179688 1.453125 -3.757812 1.453125 -3.28125 C 1.453125 -2.789062 1.546875 -2.363281 1.734375 -2 C 1.921875 -1.632812 2.179688 -1.351562 2.515625 -1.15625 C 2.859375 -0.957031 3.25 -0.859375 3.6875 -0.859375 Z M 3.6875 -0.859375 "/></g></g></g><g fill="#383838" fill-opacity="1"><g transform="translate(67.11455, 37.567905)"><g/></g></g><g fill="#383838" fill-opacity="1"><g transform="translate(70.993043, 37.567905)"><g><path d="M 4.09375 0 L 2.59375 -2.609375 L 1.78125 -2.609375 L 1.78125 0 L 0.703125 0 L 0.703125 -6.53125 L 2.953125 -6.53125 C 3.453125 -6.53125 3.875 -6.441406 4.21875 -6.265625 C 4.570312 -6.085938 4.832031 -5.851562 5 -5.5625 C 5.175781 -5.269531 5.265625 -4.941406 5.265625 -4.578125 C 5.265625 -4.148438 5.140625 -3.757812 4.890625 -3.40625 C 4.648438 -3.0625 4.269531 -2.828125 3.75 -2.703125 L 5.375 0 Z M 1.78125 -3.46875 L 2.953125 -3.46875 C 3.359375 -3.46875 3.660156 -3.566406 3.859375 -3.765625 C 4.066406 -3.960938 4.171875 -4.234375 4.171875 -4.578125 C 4.171875 -4.910156 4.066406 -5.171875 3.859375 -5.359375 C 3.660156 -5.554688 3.359375 -5.65625 2.953125 -5.65625 L 1.78125 -5.65625 Z M 1.78125 -3.46875 "/></g></g></g><g fill="#383838" fill-opacity="1"><g transform="translate(78.364102, 37.567905)"><g><path d="M 4.640625 -1.328125 L 1.90625 -1.328125 L 1.4375 0 L 0.3125 0 L 2.65625 -6.53125 L 3.890625 -6.53125 L 6.234375 0 L 5.109375 0 Z M 4.34375 -2.203125 L 3.28125 -5.234375 L 2.203125 -2.203125 Z M 4.34375 -2.203125 "/></g></g></g><g fill="#383838" fill-opacity="1"><g transform="translate(86.345427, 37.567905)"><g><path d="M 6.0625 0 L 5 0 L 1.78125 -4.875 L 1.78125 0 L 0.703125 0 L 0.703125 -6.53125 L 1.78125 -6.53125 L 5 -1.671875 L 5 -6.53125 L 6.0625 -6.53125 Z M 6.0625 0 "/></g></g></g><g fill="#383838" fill-opacity="1"><g transform="translate(94.552079, 37.567905)"><g><path d="M 4.296875 0 L 1.78125 -2.921875 L 1.78125 0 L 0.703125 0 L 0.703125 -6.53125 L 1.78125 -6.53125 L 1.78125 -3.546875 L 4.3125 -6.53125 L 5.65625 -6.53125 L 2.8125 -3.265625 L 5.703125 0 Z M 4.296875 0 "/></g></g></g><g fill="#383838" fill-opacity="1"><g transform="translate(101.932528, 37.567905)"><g/></g></g><g fill="#383838" fill-opacity="1"><g transform="translate(105.811018, 37.567905)"><g><path d="M 1.78125 -5.65625 L 1.78125 -3.75 L 4.03125 -3.75 L 4.03125 -2.875 L 1.78125 -2.875 L 1.78125 -0.875 L 4.3125 -0.875 L 4.3125 0 L 0.703125 0 L 0.703125 -6.53125 L 4.3125 -6.53125 L 4.3125 -5.65625 Z M 1.78125 -5.65625 "/></g></g></g><g fill="#383838" fill-opacity="1"><g transform="translate(112.168108, 37.567905)"><g><path d="M 3.703125 -3.265625 L 5.734375 0 L 4.53125 0 L 3.046875 -2.359375 L 1.671875 0 L 0.484375 0 L 2.5 -3.265625 L 0.46875 -6.53125 L 1.671875 -6.53125 L 3.15625 -4.140625 L 4.546875 -6.53125 L 5.734375 -6.53125 Z M 3.703125 -3.265625 "/></g></g></g><g fill="#383838" fill-opacity="1"><g transform="translate(119.802052, 37.567905)"><g><path d="M 5.265625 -4.578125 C 5.265625 -4.242188 5.1875 -3.929688 5.03125 -3.640625 C 4.875 -3.347656 4.625 -3.109375 4.28125 -2.921875 C 3.9375 -2.734375 3.492188 -2.640625 2.953125 -2.640625 L 1.78125 -2.640625 L 1.78125 0 L 0.703125 0 L 0.703125 -6.53125 L 2.953125 -6.53125 C 3.453125 -6.53125 3.875 -6.441406 4.21875 -6.265625 C 4.570312 -6.097656 4.832031 -5.863281 5 -5.5625 C 5.175781 -5.269531 5.265625 -4.941406 5.265625 -4.578125 Z M 2.953125 -3.515625 C 3.359375 -3.515625 3.660156 -3.609375 3.859375 -3.796875 C 4.066406 -3.984375 4.171875 -4.242188 4.171875 -4.578125 C 4.171875 -5.296875 3.765625 -5.65625 2.953125 -5.65625 L 1.78125 -5.65625 L 1.78125 -3.515625 Z M 2.953125 -3.515625 "/></g></g></g><g fill="#383838" fill-opacity="1"><g transform="translate(126.82573, 37.567905)"><g><path d="M 1.78125 -5.65625 L 1.78125 -3.75 L 4.03125 -3.75 L 4.03125 -2.875 L 1.78125 -2.875 L 1.78125 -0.875 L 4.3125 -0.875 L 4.3125 0 L 0.703125 0 L 0.703125 -6.53125 L 4.3125 -6.53125 L 4.3125 -5.65625 Z M 1.78125 -5.65625 "/></g></g></g><g fill="#383838" fill-opacity="1"><g transform="translate(133.182819, 37.567905)"><g><path d="M 4.09375 0 L 2.59375 -2.609375 L 1.78125 -2.609375 L 1.78125 0 L 0.703125 0 L 0.703125 -6.53125 L 2.953125 -6.53125 C 3.453125 -6.53125 3.875 -6.441406 4.21875 -6.265625 C 4.570312 -6.085938 4.832031 -5.851562 5 -5.5625 C 5.175781 -5.269531 5.265625 -4.941406 5.265625 -4.578125 C 5.265625 -4.148438 5.140625 -3.757812 4.890625 -3.40625 C 4.648438 -3.0625 4.269531 -2.828125 3.75 -2.703125 L 5.375 0 Z M 1.78125 -3.46875 L 2.953125 -3.46875 C 3.359375 -3.46875 3.660156 -3.566406 3.859375 -3.765625 C 4.066406 -3.960938 4.171875 -4.234375 4.171875 -4.578125 C 4.171875 -4.910156 4.066406 -5.171875 3.859375 -5.359375 C 3.660156 -5.554688 3.359375 -5.65625 2.953125 -5.65625 L 1.78125 -5.65625 Z M 1.78125 -3.46875 "/></g></g></g><g fill="#383838" fill-opacity="1"><g transform="translate(140.553876, 37.567905)"><g><path d="M 4.921875 -6.53125 L 4.921875 -5.65625 L 3.1875 -5.65625 L 3.1875 0 L 2.109375 0 L 2.109375 -5.65625 L 0.359375 -5.65625 L 0.359375 -6.53125 Z M 4.921875 -6.53125 "/></g></g></g><path stroke-linecap="butt" transform="matrix(0.75, 0, 0, 0.75, 45.620548, 39.751726)" fill="none" stroke-linejoin="miter" d="M 0.000728264 0.497699 L 22.297605 0.497699 " stroke="#4285f3" stroke-width="1" stroke-opacity="1" stroke-miterlimit="4"/><path stroke-linecap="butt" transform="matrix(0.75, 0, 0, 0.75, 62.343814, 39.751726)" fill="none" stroke-linejoin="miter" d="M -0.0000849115 0.497699 L 22.296792 0.497699 " stroke="#e94335" stroke-width="1" stroke-opacity="1" stroke-miterlimit="4"/><path stroke-linecap="butt" transform="matrix(0.75, 0, 0, 0.75, 79.067077, 39.751726)" fill="none" stroke-linejoin="miter" d="M -0.000894887 0.497699 L 22.295982 0.497699 " stroke="#fabc05" stroke-width="1" stroke-opacity="1" stroke-miterlimit="4"/><path stroke-linecap="butt" transform="matrix(0.75, 0, 0, 0.75, 95.330196, 39.751726)" fill="none" stroke-linejoin="miter" d="M 0.0024465 0.497699 L 22.299323 0.497699 " stroke="#4184f4" stroke-width="1" stroke-opacity="1" stroke-miterlimit="4"/><path stroke-linecap="butt" transform="matrix(0.75, 0, 0, 0.75, 112.053458, 39.751726)" fill="none" stroke-linejoin="miter" d="M 0.00163972 0.497699 L 22.298516 0.497699 " stroke="#34a853" stroke-width="1" stroke-opacity="1" stroke-miterlimit="4"/><path stroke-linecap="butt" transform="matrix(0.75, 0, 0, 0.75, 128.776721, 39.751726)" fill="none" stroke-linejoin="miter" d="M 0.000829748 0.497699 L 22.297706 0.497699 " stroke="#e94335" stroke-width="1" stroke-opacity="1" stroke-miterlimit="4"/></svg>