<svg width="80" height="80" viewBox="0 0 80 80" fill="none" xmlns="http://www.w3.org/2000/svg">
<rect width="80" height="80" rx="40" fill="#614CE1"/>
<rect width="80" height="80" rx="40" fill="white" fill-opacity="0.8"/>
<path fill-rule="evenodd" clip-rule="evenodd" d="M41.25 23.2375L54.6375 36.6125C54.7547 36.7287 54.8477 36.867 54.9111 37.0193C54.9746 37.1716 55.0072 37.335 55.0072 37.5C55.0072 37.665 54.9746 37.8284 54.9111 37.9807C54.8477 38.133 54.7547 38.2713 54.6375 38.3875L52.1375 40.8875L50.3625 39.1125L51.9875 37.5L39.4875 25H30V27.5H27.5V25C27.5 24.337 27.7634 23.7011 28.2322 23.2322C28.7011 22.7634 29.337 22.5 30 22.5H39.4875C40.1495 22.5028 40.7833 22.768 41.25 23.2375ZM40 57.5C39.8355 57.5009 39.6724 57.4694 39.5201 57.4072C39.3678 57.345 39.2293 57.2533 39.1125 57.1375L25.7375 43.75C25.268 43.2833 25.0028 42.6495 25 41.9875V32.5C25 31.837 25.2634 31.2011 25.7322 30.7322C26.2011 30.2634 26.837 30 27.5 30H36.9875C37.6495 30.0028 38.2833 30.268 38.75 30.7375L52.1375 44.1125C52.2547 44.2287 52.3477 44.367 52.4111 44.5193C52.4746 44.6716 52.5072 44.835 52.5072 45C52.5072 45.165 52.4746 45.3284 52.4111 45.4807C52.3477 45.633 52.2547 45.7713 52.1375 45.8875L40.8875 57.1375C40.7707 57.2533 40.6322 57.345 40.4799 57.4072C40.3276 57.4694 40.1645 57.5009 40 57.5ZM27.5 32.5V41.9875L40 54.4875L49.4875 45L36.9875 32.5H27.5ZM32.5 40C33.8807 40 35 38.8807 35 37.5C35 36.1193 33.8807 35 32.5 35C31.1193 35 30 36.1193 30 37.5C30 38.8807 31.1193 40 32.5 40Z" fill="#614CE1"/>
</svg>
