<svg width="81" height="80" viewBox="0 0 81 80" fill="none" xmlns="http://www.w3.org/2000/svg">
<rect x="0.666748" width="80" height="80" rx="40" fill="#614CE1"/>
<rect x="0.666748" width="80" height="80" rx="40" fill="white" fill-opacity="0.8"/>
<path fill-rule="evenodd" clip-rule="evenodd" d="M32.7501 25.632C32.1335 25.2199 31.4084 25 30.6667 25C29.6722 25 28.7184 25.3951 28.0151 26.0983C27.3118 26.8016 26.9167 27.7554 26.9167 28.75C26.9167 29.4917 27.1367 30.2167 27.5487 30.8334C27.9608 31.4501 28.5465 31.9307 29.2317 32.2145C29.9169 32.4984 30.6709 32.5726 31.3983 32.4279C32.1258 32.2832 32.794 31.9261 33.3184 31.4017C33.8428 30.8772 34.2 30.209 34.3447 29.4816C34.4894 28.7542 34.4151 28.0002 34.1313 27.3149C33.8475 26.6297 33.3668 26.044 32.7501 25.632ZM27.1944 23.5533C28.2222 22.8666 29.4306 22.5 30.6667 22.5C32.3243 22.5 33.9141 23.1585 35.0862 24.3306C36.2583 25.5027 36.9167 27.0924 36.9167 28.75C36.9167 29.9861 36.5502 31.1945 35.8634 32.2223C35.1767 33.2501 34.2006 34.0512 33.0585 34.5242C31.9165 34.9973 30.6598 35.1211 29.4474 34.8799C28.2351 34.6388 27.1214 34.0435 26.2473 33.1694C25.3733 32.2953 24.778 31.1817 24.5368 29.9693C24.2957 28.7569 24.4195 27.5003 24.8925 26.3582C25.3655 25.2162 26.1666 24.2401 27.1944 23.5533ZM52.7501 35.632C52.1335 35.2199 51.4084 35 50.6667 35C49.6722 35 48.7184 35.3951 48.0151 36.0983C47.3118 36.8016 46.9167 37.7554 46.9167 38.75C46.9167 39.4917 47.1367 40.2167 47.5487 40.8334C47.9608 41.4501 48.5465 41.9307 49.2317 42.2145C49.9169 42.4984 50.6709 42.5726 51.3983 42.4279C52.1258 42.2833 52.794 41.9261 53.3184 41.4017C53.8428 40.8772 54.2 40.209 54.3447 39.4816C54.4894 38.7542 54.4151 38.0002 54.1313 37.3149C53.8475 36.6297 53.3668 36.044 52.7501 35.632ZM47.1944 33.5533C48.2222 32.8666 49.4306 32.5 50.6667 32.5C52.3244 32.5 53.9141 33.1585 55.0862 34.3306C56.2583 35.5027 56.9167 37.0924 56.9167 38.75C56.9167 39.9861 56.5502 41.1945 55.8634 42.2223C55.1767 43.2501 54.2006 44.0512 53.0585 44.5242C51.9165 44.9973 50.6598 45.1211 49.4474 44.8799C48.2351 44.6388 47.1214 44.0435 46.2473 43.1694C45.3733 42.2953 44.778 41.1817 44.5368 39.9693C44.2957 38.7569 44.4195 37.5003 44.8925 36.3582C45.3655 35.2162 46.1666 34.2401 47.1944 33.5533ZM56.9167 57.5H59.4167V53.75C59.4167 52.0924 58.7583 50.5027 57.5862 49.3306C56.4141 48.1585 54.8244 47.5 53.1667 47.5H48.1667C46.5091 47.5 44.9194 48.1585 43.7473 49.3306C42.5752 50.5027 41.9167 52.0924 41.9167 53.75V57.5H44.4167V53.75C44.4167 52.7554 44.8118 51.8016 45.5151 51.0983C46.2184 50.3951 47.1722 50 48.1667 50H53.1667C54.1613 50 55.1151 50.3951 55.8184 51.0983C56.5217 51.8016 56.9167 52.7554 56.9167 53.75V57.5ZM39.4167 47.5H36.9167V43.75C36.9167 42.7554 36.5217 41.8016 35.8184 41.0983C35.1151 40.3951 34.1613 40 33.1667 40H28.1667C27.1722 40 26.2184 40.3951 25.5151 41.0983C24.8118 41.8016 24.4167 42.7554 24.4167 43.75V47.5H21.9167V43.75C21.9167 42.0924 22.5752 40.5027 23.7473 39.3306C24.9194 38.1585 26.5091 37.5 28.1667 37.5H33.1667C34.8244 37.5 36.4141 38.1585 37.5862 39.3306C38.7583 40.5027 39.4167 42.0924 39.4167 43.75V47.5Z" fill="#614CE1"/>
</svg>
