<svg width="81" height="80" viewBox="0 0 81 80" fill="none" xmlns="http://www.w3.org/2000/svg">
<rect x="0.333496" width="80" height="80" rx="40" fill="#614CE1"/>
<rect x="0.333496" width="80" height="80" rx="40" fill="white" fill-opacity="0.8"/>
<path fill-rule="evenodd" clip-rule="evenodd" d="M40.3335 50L32.721 39.25C31.475 37.7788 30.6726 35.9839 30.4072 34.0744C30.1418 32.1648 30.4244 30.2191 31.2221 28.4639C32.0198 26.7088 33.2997 25.2164 34.9128 24.1605C36.5259 23.1046 38.4058 22.5288 40.3335 22.5C43.0057 22.5264 45.5585 23.6107 47.4328 25.5155C49.3071 27.4203 50.3502 29.9902 50.3335 32.6625C50.3345 34.9937 49.5409 37.2556 48.0835 39.075L40.3335 50ZM40.3335 25C38.3233 25.0231 36.4045 25.843 34.9983 27.2796C33.5921 28.7163 32.8135 30.6523 32.8335 32.6625C32.8419 34.4973 33.502 36.2694 34.696 37.6625L40.3335 45.65L46.121 37.5C47.2211 36.1268 47.8246 34.422 47.8335 32.6625C47.8535 30.6523 47.0749 28.7163 45.6687 27.2796C44.2625 25.843 42.3437 25.0231 40.3335 25ZM40.3335 33.75C41.7142 33.75 42.8335 32.6307 42.8335 31.25C42.8335 29.8693 41.7142 28.75 40.3335 28.75C38.9528 28.75 37.8335 29.8693 37.8335 31.25C37.8335 32.6307 38.9528 33.75 40.3335 33.75ZM52.8335 35H55.3335C55.9965 35 56.6324 35.2634 57.1013 35.7322C57.5701 36.2011 57.8335 36.837 57.8335 37.5V55C57.8335 55.663 57.5701 56.2989 57.1013 56.7678C56.6324 57.2366 55.9965 57.5 55.3335 57.5H25.3335C24.6705 57.5 24.0346 57.2366 23.5657 56.7678C23.0969 56.2989 22.8335 55.663 22.8335 55V37.5C22.8335 36.837 23.0969 36.2011 23.5657 35.7322C24.0346 35.2634 24.6705 35 25.3335 35H27.8335V37.5H25.3335V55H55.3335V37.5H52.8335V35Z" fill="#614CE1"/>
</svg>
