<svg width="81" height="80" viewBox="0 0 81 80" fill="none" xmlns="http://www.w3.org/2000/svg">
<rect x="0.833984" width="80" height="80" rx="40" fill="url(#paint0_linear_970_7324)"/>
<path fill-rule="evenodd" clip-rule="evenodd" d="M48.334 35H55.834C56.4968 34.9993 57.1323 34.7357 57.601 34.267C58.0697 33.7983 58.3333 33.1628 58.334 32.5V25C58.3333 24.3372 58.0697 23.7017 57.601 23.233C57.1323 22.7643 56.4968 22.5007 55.834 22.5H25.834C25.1712 22.5007 24.5357 22.7643 24.067 23.233C23.5983 23.7017 23.3347 24.3372 23.334 25V32.5C23.3347 33.1628 23.5983 33.7983 24.067 34.267C24.5357 34.7357 25.1712 34.9993 25.834 35H30.834V32.5H25.834V25H55.834V32.5H48.334V35ZM53.334 45V46.25H50.834V43.75C50.834 43.4185 50.7023 43.1005 50.4679 42.8661C50.2334 42.6317 49.9155 42.5 49.584 42.5C49.2525 42.5 48.9345 42.6317 48.7001 42.8661C48.4657 43.1005 48.334 43.4185 48.334 43.75V46.25H45.834V42.5C45.834 42.1685 45.7023 41.8505 45.4679 41.6161C45.2334 41.3817 44.9155 41.25 44.584 41.25C44.2525 41.25 43.9345 41.3817 43.7001 41.6161C43.4657 41.8505 43.334 42.1685 43.334 42.5V46.25H40.834V32.5C40.834 32.1685 40.7023 31.8505 40.4679 31.6161C40.2334 31.3817 39.9155 31.25 39.584 31.25C39.2525 31.25 38.9345 31.3817 38.7001 31.6161C38.4657 31.8505 38.334 32.1685 38.334 32.5V51.1194L31.584 46.499C31.3981 46.3599 31.1773 46.2753 30.946 46.2546C30.7148 46.2339 30.4824 46.278 30.2749 46.3819C30.0673 46.4858 29.8927 46.6454 29.7707 46.8429C29.6487 47.0403 29.584 47.2679 29.584 47.5C29.5837 47.6634 29.6158 47.8252 29.6783 47.9762C29.7408 48.1271 29.8326 48.2642 29.9484 48.3795L37.9217 55.6525L36.2369 57.5L28.1881 50.1577C27.5186 49.4915 27.1253 48.5972 27.0867 47.6535C27.0482 46.7098 27.3673 45.7863 27.9802 45.0677C28.5931 44.3491 29.4547 43.8883 30.3927 43.7776C31.3307 43.6668 32.2759 43.9142 33.0394 44.4703L33.0404 44.469L35.834 46.3806V32.5C35.834 31.5054 36.2291 30.5516 36.9323 29.8483C37.6356 29.1451 38.5894 28.75 39.584 28.75C40.5785 28.75 41.5324 29.1451 42.2356 29.8483C42.9389 30.5516 43.334 31.5054 43.334 32.5V38.9807C43.7342 38.8323 44.1571 38.7542 44.584 38.75C45.216 38.7512 45.8374 38.9125 46.3903 39.2188C46.9431 39.5252 47.4093 39.9665 47.7455 40.5017C48.5774 40.0172 49.5656 39.8767 50.4996 40.1102C51.4336 40.3437 52.2395 40.9327 52.7455 41.7517C53.3041 41.4271 53.9379 41.2541 54.584 41.25C55.5782 41.2511 56.5314 41.6465 57.2344 42.3496C57.9374 43.0526 58.3329 44.0058 58.334 45V57.5H55.834V45C55.834 44.6685 55.7023 44.3505 55.4679 44.1161C55.2334 43.8817 54.9155 43.75 54.584 43.75C54.2525 43.75 53.9345 43.8817 53.7001 44.1161C53.4657 44.3505 53.334 44.6685 53.334 45Z" fill="white"/>
<defs>
<linearGradient id="paint0_linear_970_7324" x1="-1.9602" y1="80" x2="80.1743" y2="80.5973" gradientUnits="userSpaceOnUse">
<stop stop-color="#FFCF55"/>
<stop offset="0.917747" stop-color="#FF6354"/>
</linearGradient>
</defs>
</svg>
