<svg width="80" height="80" viewBox="0 0 80 80" fill="none" xmlns="http://www.w3.org/2000/svg">
<rect width="80" height="80" rx="40" fill="url(#paint0_linear_970_8721)"/>
<path d="M56.8423 43.9L49.6006 40L56.8423 36.1C57.041 35.993 57.207 35.8342 57.3227 35.6404C57.4384 35.4467 57.4994 35.2252 57.4994 34.9996C57.4994 34.7739 57.4384 34.5525 57.3227 34.3587C57.207 34.165 57.041 34.0062 56.8423 33.8991L40.5923 25.1491C40.4103 25.0509 40.2066 24.9994 39.9997 24.9994C39.7928 24.9994 39.5892 25.0509 39.4071 25.1491L23.1571 33.8991C22.9584 34.0062 22.7925 34.165 22.6768 34.3587C22.5611 34.5525 22.5 34.7739 22.5 34.9996C22.5 35.2252 22.5611 35.4467 22.6768 35.6404C22.7925 35.8342 22.9584 35.993 23.1571 36.1L30.3988 40L23.1571 43.9C22.9584 44.007 22.7925 44.1659 22.6768 44.3596C22.5611 44.5533 22.5 44.7748 22.5 45.0005C22.5 45.2261 22.5611 45.4476 22.6768 45.6413C22.7925 45.835 22.9584 45.9939 23.1571 46.1009L39.4071 54.8509C39.5892 54.949 39.7928 55.0004 39.9997 55.0004C40.2066 55.0004 40.4102 54.949 40.5923 54.8509L56.8423 46.1009C57.041 45.9939 57.207 45.835 57.3227 45.6413C57.4384 45.4476 57.4994 45.2261 57.4994 45.0005C57.4994 44.7748 57.4384 44.5533 57.3227 44.3596C57.207 44.1659 57.041 44.007 56.8423 43.9ZM39.9997 27.6699L53.613 35L39.9997 42.3304L26.3865 35L39.9997 27.6699ZM39.9997 52.3304L26.3865 45L33.0356 41.4198L39.4071 44.85C39.5892 44.9481 39.7928 44.9995 39.9997 44.9995C40.2066 44.9995 40.4102 44.9481 40.5923 44.85L46.9638 41.4193L53.613 45L39.9997 52.3304Z" fill="white"/>
<defs>
<linearGradient id="paint0_linear_970_8721" x1="-2.79419" y1="80" x2="79.3403" y2="80.5973" gradientUnits="userSpaceOnUse">
<stop stop-color="#FFCF55"/>
<stop offset="0.917747" stop-color="#FF6354"/>
</linearGradient>
</defs>
</svg>
