<svg width="81" height="80" viewBox="0 0 81 80" fill="none" xmlns="http://www.w3.org/2000/svg">
<rect x="0.167969" width="80" height="80" rx="40" fill="url(#paint0_linear_970_7839)"/>
<path d="M57.668 38.75H50.0805C49.8001 36.5504 48.7973 34.5062 47.2295 32.9382C45.6616 31.3702 43.6175 30.3672 41.418 30.0866V22.5H38.918V30.0866C36.7184 30.3672 34.6743 31.3702 33.1065 32.9382C31.5386 34.5062 30.5358 36.5504 30.2555 38.75H22.668V41.25H30.2555C30.5358 43.4496 31.5386 45.4938 33.1065 47.0618C34.6743 48.6298 36.7184 49.6328 38.918 49.9134V57.5H41.418V49.9134C43.6176 49.6329 45.6619 48.63 47.2298 47.0619C48.7978 45.4939 49.8007 43.4497 50.0811 41.25H57.668V38.75ZM40.168 47.5C38.6846 47.5 37.2346 47.0601 36.0012 46.236C34.7678 45.4119 33.8065 44.2406 33.2389 42.8701C32.6712 41.4997 32.5227 39.9917 32.8121 38.5368C33.1015 37.082 33.8158 35.7456 34.8647 34.6967C35.9136 33.6478 37.2499 32.9335 38.7048 32.6441C40.1596 32.3547 41.6676 32.5032 43.0381 33.0709C44.4085 33.6386 45.5799 34.5999 46.404 35.8332C47.2281 37.0666 47.668 38.5166 47.668 40C47.6658 41.9885 46.8749 43.8948 45.4689 45.3009C44.0628 46.7069 42.1564 47.4978 40.168 47.5V47.5Z" fill="white"/>
<defs>
<linearGradient id="paint0_linear_970_7839" x1="-2.62622" y1="80" x2="79.5083" y2="80.5973" gradientUnits="userSpaceOnUse">
<stop stop-color="#FFCF55"/>
<stop offset="0.917747" stop-color="#FF6354"/>
</linearGradient>
</defs>
</svg>
