<svg width="80" height="80" viewBox="0 0 80 80" fill="none" xmlns="http://www.w3.org/2000/svg">
<rect y="0.000244141" width="80" height="80" rx="40" fill="#BCBFDB"/>
<rect y="0.000244141" width="80" height="80" rx="40" fill="white" fill-opacity="0.8"/>
<path fill-rule="evenodd" clip-rule="evenodd" d="M25.9722 30.4076C26.7944 30.957 27.7611 31.2502 28.75 31.2502C30.0756 31.2488 31.3465 30.7215 32.2839 29.7841C33.2213 28.8468 33.7485 27.5759 33.75 26.2502C33.75 25.2613 33.4568 24.2946 32.9074 23.4724C32.3579 22.6501 31.5771 22.0093 30.6634 21.6308C29.7498 21.2524 28.7445 21.1534 27.7746 21.3463C26.8046 21.5392 25.9137 22.0155 25.2145 22.7147C24.5152 23.414 24.039 24.3049 23.8461 25.2748C23.6531 26.2447 23.7522 27.25 24.1306 28.1637C24.509 29.0773 25.1499 29.8582 25.9722 30.4076ZM27.3611 24.1716C27.7722 23.8969 28.2555 23.7502 28.75 23.7502C29.4128 23.7509 30.0483 24.0146 30.517 24.4832C30.9857 24.9519 31.2493 25.5874 31.25 26.2502C31.25 26.7447 31.1034 27.228 30.8287 27.6392C30.554 28.0503 30.1635 28.3707 29.7067 28.5599C29.2499 28.7492 28.7472 28.7987 28.2623 28.7022C27.7773 28.6057 27.3319 28.3676 26.9822 28.018C26.6326 27.6684 26.3945 27.2229 26.298 26.738C26.2016 26.253 26.2511 25.7504 26.4403 25.2935C26.6295 24.8367 26.95 24.4463 27.3611 24.1716ZM45 57.5002H41.25C40.5872 57.4995 39.9517 57.2359 39.483 56.7672C39.0143 56.2986 38.7507 55.6631 38.75 55.0002V48.7502H41.25V55.0002H45V48.7502H47.5V43.7502C47.4996 43.4188 47.3678 43.1011 47.1335 42.8668C46.8991 42.6324 46.5814 42.5006 46.25 42.5002H35.3491L32.8491 35.0002H25C24.6686 35.0006 24.3509 35.1324 24.1165 35.3668C23.8822 35.6011 23.7504 35.9188 23.75 36.2502V43.7502H26.25V55.0002H31.25V46.2502H33.75V55.0002C33.7493 55.6631 33.4857 56.2986 33.017 56.7672C32.5483 57.2359 31.9128 57.4995 31.25 57.5002H26.25C25.5872 57.4995 24.9517 57.2359 24.483 56.7672C24.0143 56.2986 23.7507 55.6631 23.75 55.0002V46.2502C23.0872 46.2495 22.4517 45.9859 21.983 45.5172C21.5143 45.0486 21.2507 44.4131 21.25 43.7502V36.2502C21.2511 35.256 21.6465 34.3028 22.3496 33.5998C23.0526 32.8968 24.0058 32.5013 25 32.5002H32.8491C33.3739 32.4998 33.8855 32.6647 34.3113 32.9715C34.7371 33.2784 35.0554 33.7115 35.221 34.2095L37.1509 40.0002H46.25C47.2442 40.0013 48.1974 40.3968 48.9004 41.0998C49.6035 41.8028 49.9989 42.756 50 43.7502V48.7502C49.9993 49.4131 49.7357 50.0486 49.267 50.5172C48.7983 50.9859 48.1628 51.2495 47.5 51.2502V55.0002C47.4993 55.6631 47.2357 56.2986 46.767 56.7672C46.2983 57.2359 45.6628 57.4995 45 57.5002ZM55 57.5002H52.5V43.7502H56.25V36.2502C56.2496 35.9188 56.1178 35.6011 55.8835 35.3668C55.6491 35.1324 55.3314 35.0006 55 35.0002H50V32.5002H55C55.9942 32.5013 56.9474 32.8968 57.6504 33.5998C58.3535 34.3028 58.7489 35.256 58.75 36.2502V43.7502C58.7493 44.4131 58.4857 45.0486 58.017 45.5172C57.5483 45.9859 56.9128 46.2495 56.25 46.2502H55V57.5002ZM51.25 31.2502C50.2611 31.2502 49.2944 30.957 48.4722 30.4076C47.6499 29.8582 47.009 29.0773 46.6306 28.1637C46.2522 27.25 46.1532 26.2447 46.3461 25.2748C46.539 24.3049 47.0152 23.414 47.7145 22.7147C48.4137 22.0155 49.3046 21.5392 50.2746 21.3463C51.2445 21.1534 52.2498 21.2524 53.1634 21.6308C54.077 22.0093 54.8579 22.6501 55.4074 23.4724C55.9568 24.2946 56.25 25.2613 56.25 26.2502C56.2485 27.5759 55.7213 28.8468 54.7839 29.7841C53.8465 30.7215 52.5756 31.2488 51.25 31.2502ZM51.25 23.7502C50.7556 23.7502 50.2722 23.8969 49.8611 24.1716C49.45 24.4463 49.1295 24.8367 48.9403 25.2935C48.7511 25.7504 48.7016 26.253 48.798 26.738C48.8945 27.2229 49.1326 27.6684 49.4822 28.018C49.8319 28.3676 50.2773 28.6057 50.7623 28.7022C51.2472 28.7987 51.7499 28.7492 52.2067 28.5599C52.6635 28.3707 53.054 28.0503 53.3287 27.6392C53.6034 27.228 53.75 26.7447 53.75 26.2502C53.7493 25.5874 53.4857 24.9519 53.017 24.4832C52.5483 24.0146 51.9128 23.7509 51.25 23.7502ZM40.6944 38.0129C41.4138 38.4937 42.2597 38.7502 43.125 38.7502C44.2849 38.7489 45.3969 38.2875 46.2171 37.4673C47.0373 36.6472 47.4986 35.5352 47.5 34.3752C47.5 33.51 47.2434 32.6641 46.7627 31.9446C46.282 31.2252 45.5987 30.6644 44.7992 30.3333C43.9998 30.0021 43.1202 29.9155 42.2715 30.0843C41.4228 30.2531 40.6433 30.6698 40.0314 31.2817C39.4196 31.8935 39.0029 32.6731 38.8341 33.5217C38.6653 34.3704 38.7519 35.2501 39.083 36.0495C39.4142 36.8489 39.9749 37.5322 40.6944 38.0129ZM42.0833 32.8162C42.3917 32.6102 42.7542 32.5002 43.125 32.5002C43.6221 32.5008 44.0987 32.6985 44.4502 33.05C44.8017 33.4016 44.9994 33.8781 45 34.3752C45 34.7461 44.89 35.1086 44.684 35.4169C44.478 35.7253 44.1851 35.9656 43.8425 36.1075C43.4999 36.2494 43.1229 36.2866 42.7592 36.2142C42.3955 36.1419 42.0614 35.9633 41.7992 35.7011C41.537 35.4388 41.3584 35.1048 41.286 34.741C41.2137 34.3773 41.2508 34.0003 41.3927 33.6577C41.5346 33.3151 41.775 33.0223 42.0833 32.8162Z" fill="#FF6354"/>
</svg>
