<svg width="80" height="80" viewBox="0 0 80 80" fill="none" xmlns="http://www.w3.org/2000/svg">
<rect y="0.000244141" width="80" height="80" rx="40" fill="#BCBFDB"/>
<rect y="0.000244141" width="80" height="80" rx="40" fill="white" fill-opacity="0.8"/>
<path fill-rule="evenodd" clip-rule="evenodd" d="M25 46.2502H35V48.7502H25C24.337 48.7502 23.7011 48.4869 23.2322 48.018C22.7634 47.5492 22.5 46.9133 22.5 46.2502V25.0002C22.5 24.3372 22.7634 23.7013 23.2322 23.2325C23.7011 22.7636 24.337 22.5002 25 22.5002H47.5C48.163 22.5002 48.7989 22.7636 49.2678 23.2325C49.7366 23.7013 50 24.3372 50 25.0002V35.0002H47.5V25.0002H25V46.2502ZM53.6125 51.8376L57.5 55.7251L55.725 57.5001L51.8375 53.6126C50.3043 54.7008 48.4184 55.1735 46.5532 54.937C44.688 54.7006 42.9797 53.7722 41.7666 52.3358C40.5535 50.8995 39.9241 49.0599 40.0031 47.1814C40.0821 45.303 40.8638 43.5227 42.1932 42.1933C43.5226 40.8639 45.3029 40.0822 47.1813 40.0032C49.0598 39.9242 50.8994 40.5536 52.3357 41.7667C53.7721 42.9798 54.7005 44.6881 54.9369 46.5533C55.1734 48.4185 54.7007 50.3044 53.6125 51.8376ZM44.7222 51.6574C45.5444 52.2069 46.5111 52.5001 47.5 52.5001C48.8261 52.5001 50.0979 51.9733 51.0355 51.0356C51.9732 50.098 52.5 48.8262 52.5 47.5001C52.5 46.5112 52.2068 45.5445 51.6573 44.7222C51.1079 43.9 50.327 43.2591 49.4134 42.8807C48.4998 42.5023 47.4945 42.4032 46.5246 42.5962C45.5546 42.7891 44.6637 43.2653 43.9645 43.9646C43.2652 44.6638 42.789 45.5547 42.5961 46.5246C42.4032 47.4946 42.5022 48.4999 42.8806 49.4135C43.259 50.3271 43.8999 51.108 44.7222 51.6574Z" fill="#FF6354"/>
</svg>
