<svg width="80" height="80" viewBox="0 0 80 80" fill="none" xmlns="http://www.w3.org/2000/svg">
<rect y="0.000244141" width="80" height="80" rx="40" fill="#BCBFDB"/>
<rect y="0.000244141" width="80" height="80" rx="40" fill="white" fill-opacity="0.8"/>
<path fill-rule="evenodd" clip-rule="evenodd" d="M29.4556 45.0644L40 57.5002L50.5488 45.0592C50.6046 44.993 50.9796 44.5 50.9796 44.5L50.9815 44.4969C52.7819 42.125 53.7545 39.228 53.75 36.2502C53.75 32.6035 52.3014 29.1062 49.7227 26.5275C47.1441 23.9489 43.6467 22.5002 40 22.5002C36.3533 22.5002 32.8559 23.9489 30.2773 26.5275C27.6987 29.1062 26.25 32.6035 26.25 36.2502C26.2458 39.2292 27.219 42.1273 29.0204 44.5C29.0204 44.5 29.3958 44.993 29.4556 45.0644ZM31.0758 43.0729C31.0401 43.0259 31.016 42.9942 31.0156 42.994C29.5431 41.0544 28.7472 38.6855 28.75 36.2502C28.75 33.2666 29.9353 30.4051 32.0451 28.2953C34.1548 26.1855 37.0163 25.0002 40 25.0002C42.9837 25.0002 45.8452 26.1855 47.955 28.2953C50.0648 30.4051 51.25 33.2666 51.25 36.2502C51.2529 38.6841 50.4576 41.0518 48.986 42.9905C48.9854 42.9915 48.6924 43.3786 48.6375 43.4476L40 53.6351L31.3739 43.462C31.3264 43.4029 31.1648 43.1902 31.0758 43.0729ZM36.5277 41.4469C37.5555 42.1337 38.7639 42.5002 40 42.5002C41.657 42.4984 43.2456 41.8393 44.4173 40.6676C45.589 39.4959 46.2481 37.9073 46.25 36.2502C46.25 35.0141 45.8834 33.8057 45.1967 32.7779C44.5099 31.7501 43.5338 30.949 42.3918 30.476C41.2497 30.003 39.9931 29.8792 38.7807 30.1203C37.5683 30.3615 36.4547 30.9568 35.5806 31.8308C34.7065 32.7049 34.1113 33.8186 33.8701 35.0309C33.6289 36.2433 33.7527 37.5 34.2258 38.642C34.6988 39.7841 35.4999 40.7602 36.5277 41.4469ZM37.9166 33.1322C38.5333 32.7202 39.2583 32.5002 40 32.5002C40.9942 32.5013 41.9474 32.8968 42.6504 33.5998C43.3535 34.3028 43.7489 35.256 43.75 36.2502C43.75 36.9919 43.5301 37.717 43.118 38.3336C42.706 38.9503 42.1203 39.431 41.4351 39.7148C40.7498 39.9986 39.9958 40.0729 39.2684 39.9282C38.541 39.7835 37.8728 39.4263 37.3484 38.9019C36.8239 38.3775 36.4668 37.7093 36.3221 36.9818C36.1774 36.2544 36.2516 35.5004 36.5355 34.8152C36.8193 34.13 37.2999 33.5443 37.9166 33.1322Z" fill="#FF6354"/>
</svg>
