<svg width="80" height="80" viewBox="0 0 80 80" fill="none" xmlns="http://www.w3.org/2000/svg">
<rect y="0.000244141" width="80" height="80" rx="40" fill="#BCBFDB"/>
<rect y="0.000244141" width="80" height="80" rx="40" fill="white" fill-opacity="0.8"/>
<path fill-rule="evenodd" clip-rule="evenodd" d="M54.6339 33.3841C54.3995 33.6185 54.0815 33.7502 53.75 33.7502H52.5V50.0002H55V52.5002H25V50.0002H27.5V33.7502H26.25C25.9185 33.7502 25.6005 33.6185 25.3661 33.3841C25.1317 33.1497 25 32.8317 25 32.5002V28.7502C25.0001 28.4933 25.0794 28.2427 25.227 28.0324C25.3746 27.8222 25.5834 27.6625 25.825 27.5752L39.575 22.5752C39.8496 22.4759 40.1504 22.4759 40.425 22.5752L54.175 27.5752C54.4166 27.6625 54.6254 27.8222 54.773 28.0324C54.9206 28.2427 54.9999 28.4933 55 28.7502V32.5002C55 32.8317 54.8683 33.1497 54.6339 33.3841ZM40 25.0752L27.5 29.6252V31.2502H52.5V29.6252L40 25.0752ZM37.5 33.7502V50.0002H42.5V33.7502H37.5ZM35 33.7502H30V50.0002H35V33.7502ZM45 50.0002H50V33.7502H45V50.0002ZM22.5 57.5003V55.0003H57.5V57.5003H22.5Z" fill="#FF6354"/>
</svg>
