<svg width="80" height="80" viewBox="0 0 80 80" fill="none" xmlns="http://www.w3.org/2000/svg">
<rect width="80" height="80" rx="40" fill="#614CE1"/>
<path fill-rule="evenodd" clip-rule="evenodd" d="M55 22.5H40C39.3372 22.5007 38.7017 22.7643 38.233 23.233C37.7643 23.7017 37.5007 24.3372 37.5 25V37.5H25C24.3372 37.5007 23.7017 37.7643 23.233 38.233C22.7643 38.7017 22.5007 39.3372 22.5 40V57.5H57.5V25C57.4992 24.3372 57.2356 23.7017 56.7669 23.2331C56.2983 22.7644 55.6628 22.5008 55 22.5ZM31.25 55V46.25H36.25V55H31.25ZM55 55H38.75V45C38.75 44.6685 38.6183 44.3505 38.3839 44.1161C38.1495 43.8817 37.8315 43.75 37.5 43.75H30C29.6685 43.75 29.3505 43.8817 29.1161 44.1161C28.8817 44.3505 28.75 44.6685 28.75 45V55H25V40H40V25H55V55ZM45 30H42.5V32.5H45V30ZM50 30H52.5V32.5H50V30ZM45 37.5H42.5V40H45V37.5ZM50 37.5H52.5V40H50V37.5ZM45 44.9995H42.5V47.4995H45V44.9995ZM50 44.9995H52.5V47.4995H50V44.9995Z" fill="white"/>
</svg>
