<svg width="80" height="80" viewBox="0 0 80 80" fill="none" xmlns="http://www.w3.org/2000/svg">
<rect width="80" height="80" rx="40" fill="#614CE1"/>
<path fill-rule="evenodd" clip-rule="evenodd" d="M39.4074 42.3496C39.5894 42.4481 39.7931 42.4996 40 42.4996C40.207 42.4996 40.4106 42.4481 40.5926 42.3496L56.8426 33.5996C57.0413 33.4926 57.2073 33.3338 57.323 33.14C57.4387 32.9463 57.4997 32.7248 57.4997 32.4992C57.4997 32.2735 57.4387 32.0521 57.323 31.8583C57.2073 31.6646 57.0413 31.5058 56.8426 31.3987L40.5926 22.6487C40.4106 22.5505 40.2069 22.499 40 22.499C39.7931 22.499 39.5895 22.5505 39.4074 22.6487L23.1574 31.3987C22.9587 31.5058 22.7928 31.6646 22.6771 31.8583C22.5614 32.0521 22.5003 32.2735 22.5003 32.4992C22.5003 32.7248 22.5614 32.9463 22.6771 33.14C22.7928 33.3338 22.9587 33.4926 23.1574 33.5996L39.4074 42.3496ZM40 39.83L26.3868 32.4996L40 25.1694L53.6133 32.4996L40 39.83ZM40 49.9998C39.793 49.9998 39.5894 49.9482 39.4074 49.8498L23.1573 41.0998L24.3426 38.8998L40 47.3302L55.6574 38.8998L56.8426 41.1007L40.5926 49.8507C40.4105 49.9488 40.2068 50 40 49.9998ZM40 57.4998C39.793 57.4998 39.5894 57.4482 39.4074 57.3498L23.1573 48.5998L24.3426 46.3998L40 54.8302L55.6574 46.3998L56.8426 48.6007L40.5926 57.3507C40.4105 57.4488 40.2068 57.5 40 57.4998Z" fill="white"/>
</svg>
