<svg width="80" height="80" viewBox="0 0 80 80" fill="none" xmlns="http://www.w3.org/2000/svg">
<rect width="80" height="80" rx="40" fill="#614CE1"/>
<path fill-rule="evenodd" clip-rule="evenodd" d="M29.4556 45.0641L40 57.5L50.5488 45.059C50.6046 44.9927 50.9796 44.4998 50.9796 44.4998L50.9815 44.4966C52.7819 42.1248 53.7545 39.2278 53.75 36.25C53.75 32.6033 52.3014 29.1059 49.7227 26.5273C47.1441 23.9487 43.6467 22.5 40 22.5C36.3533 22.5 32.8559 23.9487 30.2773 26.5273C27.6987 29.1059 26.25 32.6033 26.25 36.25C26.2458 39.229 27.219 42.1271 29.0204 44.4998C29.0204 44.4998 29.3958 44.9928 29.4556 45.0641ZM31.0758 43.0727C31.0401 43.0257 31.016 42.994 31.0156 42.9938C29.5431 41.0542 28.7472 38.6852 28.75 36.25C28.75 33.2663 29.9353 30.4048 32.0451 28.295C34.1548 26.1853 37.0163 25 40 25C42.9837 25 45.8452 26.1853 47.955 28.295C50.0648 30.4048 51.25 33.2663 51.25 36.25C51.2529 38.6839 50.4576 41.0516 48.986 42.9902C48.9854 42.9913 48.6924 43.3784 48.6375 43.4474L40 53.6349L31.3739 43.4618C31.3264 43.4027 31.1648 43.19 31.0758 43.0727ZM36.5277 41.4467C37.5555 42.1334 38.7639 42.5 40 42.5C41.657 42.4981 43.2456 41.839 44.4173 40.6673C45.589 39.4956 46.2481 37.907 46.25 36.25C46.25 35.0139 45.8834 33.8055 45.1967 32.7777C44.5099 31.7499 43.5338 30.9488 42.3918 30.4758C41.2497 30.0027 39.9931 29.8789 38.7807 30.1201C37.5683 30.3613 36.4547 30.9565 35.5806 31.8306C34.7065 32.7047 34.1113 33.8183 33.8701 35.0307C33.6289 36.2431 33.7527 37.4997 34.2258 38.6418C34.6988 39.7838 35.4999 40.7599 36.5277 41.4467ZM37.9166 33.132C38.5333 32.7199 39.2583 32.5 40 32.5C40.9942 32.5011 41.9474 32.8965 42.6504 33.5996C43.3535 34.3026 43.7489 35.2558 43.75 36.25C43.75 36.9917 43.5301 37.7167 43.118 38.3334C42.706 38.9501 42.1203 39.4307 41.4351 39.7146C40.7498 39.9984 39.9958 40.0726 39.2684 39.9279C38.541 39.7833 37.8728 39.4261 37.3484 38.9017C36.8239 38.3772 36.4668 37.709 36.3221 36.9816C36.1774 36.2542 36.2516 35.5002 36.5355 34.8149C36.8193 34.1297 37.2999 33.544 37.9166 33.132Z" fill="white"/>
</svg>
