<svg width="80" height="80" viewBox="0 0 80 80" fill="none" xmlns="http://www.w3.org/2000/svg">
<rect width="80" height="80" rx="40" fill="#614CE1"/>
<path fill-rule="evenodd" clip-rule="evenodd" d="M47.2221 31.6574C48.0444 32.2068 49.0111 32.5 50 32.5C51.3257 32.4986 52.5966 31.9714 53.534 31.034C54.4714 30.0966 54.9986 28.8257 55 27.5C55 26.5111 54.7068 25.5444 54.1573 24.7222C53.6079 23.8999 52.827 23.259 51.9134 22.8806C50.9998 22.5022 49.9945 22.4031 49.0245 22.5961C48.0546 22.789 47.1637 23.2652 46.4645 23.9645C45.7652 24.6637 45.289 25.5546 45.0961 26.5246C44.9031 27.4945 45.0022 28.4998 45.3806 29.4134C45.759 30.3271 46.3999 31.1079 47.2221 31.6574ZM48.6111 25.4213C49.0222 25.1466 49.5055 25 50 25C50.6628 25.0008 51.2982 25.2644 51.7669 25.7331C52.2356 26.2018 52.4992 26.8372 52.5 27.5C52.5 27.9945 52.3534 28.4778 52.0787 28.8889C51.804 29.3001 51.4135 29.6205 50.9567 29.8097C50.4999 29.9989 49.9972 30.0484 49.5123 29.952C49.0273 29.8555 48.5819 29.6174 48.2322 29.2678C47.8826 28.9181 47.6445 28.4727 47.548 27.9877C47.4516 27.5028 47.5011 27.0001 47.6903 26.5433C47.8795 26.0865 48.1999 25.696 48.6111 25.4213ZM42.5 40H45V37.5C45.0003 37.1686 45.1321 36.8508 45.3664 36.6164C45.6008 36.3821 45.9186 36.2503 46.25 36.25H53.75C54.0814 36.2503 54.3992 36.3821 54.6336 36.6164C54.8679 36.8508 54.9997 37.1686 55 37.5V40H57.5V37.5C57.4989 36.5058 57.1035 35.5526 56.4004 34.8496C55.6974 34.1465 54.7442 33.7511 53.75 33.75H46.25C45.2558 33.7511 44.3026 34.1465 43.5996 34.8496C42.8965 35.5526 42.5011 36.5058 42.5 37.5V40ZM47.2221 50.4074C48.0444 50.9568 49.0111 51.25 50 51.25C51.3257 51.2487 52.5967 50.7215 53.5341 49.7841C54.4715 48.8467 54.9987 47.5757 55 46.25C55 45.2611 54.7068 44.2944 54.1573 43.4722C53.6079 42.6499 52.827 42.009 51.9134 41.6306C50.9998 41.2522 49.9945 41.1532 49.0245 41.3461C48.0546 41.539 47.1637 42.0152 46.4645 42.7145C45.7652 43.4137 45.289 44.3046 45.0961 45.2746C44.9031 46.2445 45.0022 47.2498 45.3806 48.1634C45.759 49.0771 46.3999 49.8579 47.2221 50.4074ZM48.6111 44.1713C49.0222 43.8966 49.5055 43.75 50 43.75C50.6628 43.7509 51.2981 44.0146 51.7668 44.4832C52.2354 44.9519 52.4991 45.5872 52.5 46.25C52.5 46.7445 52.3534 47.2278 52.0787 47.6389C51.804 48.0501 51.4135 48.3705 50.9567 48.5597C50.4999 48.7489 49.9972 48.7984 49.5123 48.702C49.0273 48.6055 48.5819 48.3674 48.2322 48.0178C47.8826 47.6681 47.6445 47.2227 47.548 46.7377C47.4516 46.2528 47.5011 45.7501 47.6903 45.2933C47.8795 44.8365 48.1999 44.446 48.6111 44.1713ZM45 58.75H42.5V56.25C42.5011 55.2558 42.8965 54.3026 43.5996 53.5996C44.3026 52.8965 45.2558 52.5011 46.25 52.5H53.75C54.7442 52.5011 55.6974 52.8965 56.4004 53.5996C57.1035 54.3026 57.4989 55.2558 57.5 56.25V58.75H55V56.25C54.9998 55.9185 54.868 55.6007 54.6337 55.3663C54.3993 55.132 54.0815 55.0002 53.75 55H46.25C45.9185 55.0002 45.6007 55.132 45.3663 55.3663C45.132 55.6007 45.0002 55.9185 45 56.25V58.75ZM22.5 58.75H25V56.25C25.0003 55.9186 25.1321 55.6008 25.3664 55.3664C25.6008 55.1321 25.9186 55.0003 26.25 55H33.75C34.0814 55.0003 34.3992 55.1321 34.6336 55.3664C34.8679 55.6008 34.9997 55.9186 35 56.25V58.75H37.5V56.25C37.4989 55.2558 37.1035 54.3026 36.4004 53.5996C35.6974 52.8965 34.7442 52.5011 33.75 52.5H26.25C25.2558 52.5011 24.3026 52.8965 23.5996 53.5996C22.8965 54.3026 22.5011 55.2558 22.5 56.25V58.75ZM27.2222 50.4074C28.0444 50.9568 29.0111 51.25 30 51.25C31.3257 51.2486 32.5966 50.7214 33.534 49.784C34.4714 48.8466 34.9986 47.5757 35 46.25C35 45.2611 34.7068 44.2944 34.1574 43.4722C33.6079 42.6499 32.8271 42.009 31.9134 41.6306C30.9998 41.2522 29.9945 41.1532 29.0246 41.3461C28.0546 41.539 27.1637 42.0152 26.4645 42.7145C25.7652 43.4137 25.289 44.3046 25.0961 45.2746C24.9031 46.2445 25.0022 47.2498 25.3806 48.1634C25.759 49.0771 26.3999 49.8579 27.2222 50.4074ZM28.6111 44.1713C29.0222 43.8966 29.5055 43.75 30 43.75C30.6628 43.7508 31.2983 44.0144 31.7669 44.4831C32.2356 44.9518 32.4992 45.5872 32.5 46.25C32.5 46.7445 32.3534 47.2278 32.0787 47.6389C31.804 48.0501 31.4135 48.3705 30.9567 48.5597C30.4999 48.7489 29.9972 48.7984 29.5123 48.702C29.0273 48.6055 28.5819 48.3674 28.2322 48.0178C27.8826 47.6681 27.6445 47.2227 27.548 46.7377C27.4516 46.2528 27.5011 45.7501 27.6903 45.2933C27.8795 44.8365 28.2 44.446 28.6111 44.1713ZM22.5 40H25V37.5C25.0004 37.1686 25.1323 36.8509 25.3666 36.6166C25.6009 36.3823 25.9186 36.2504 26.25 36.25H33.75C34.0814 36.2504 34.3991 36.3823 34.6334 36.6166C34.8677 36.8509 34.9996 37.1686 35 37.5V40H37.5V37.5C37.4989 36.5058 37.1035 35.5526 36.4004 34.8496C35.6974 34.1465 34.7442 33.7511 33.75 33.75H26.25C25.2558 33.7511 24.3026 34.1465 23.5996 34.8496C22.8965 35.5526 22.5011 36.5058 22.5 37.5V40ZM27.2222 31.6574C28.0444 32.2068 29.0111 32.5 30 32.5C31.3256 32.4985 32.5965 31.9713 33.5339 31.0339C34.4713 30.0965 34.9985 28.8256 35 27.5C35 26.5111 34.7068 25.5444 34.1574 24.7222C33.6079 23.8999 32.8271 23.259 31.9134 22.8806C30.9998 22.5022 29.9945 22.4031 29.0246 22.5961C28.0546 22.789 27.1637 23.2652 26.4645 23.9645C25.7652 24.6637 25.289 25.5546 25.0961 26.5246C24.9031 27.4945 25.0022 28.4998 25.3806 29.4134C25.759 30.3271 26.3999 31.1079 27.2222 31.6574ZM28.6111 25.4213C29.0222 25.1466 29.5055 25 30 25C30.6628 25.0007 31.2983 25.2643 31.767 25.733C32.2357 26.2017 32.4993 26.8372 32.5 27.5C32.5 27.9945 32.3534 28.4778 32.0787 28.8889C31.804 29.3001 31.4135 29.6205 30.9567 29.8097C30.4999 29.9989 29.9972 30.0484 29.5123 29.952C29.0273 29.8555 28.5819 29.6174 28.2322 29.2678C27.8826 28.9181 27.6445 28.4727 27.548 27.9877C27.4516 27.5028 27.5011 27.0001 27.6903 26.5433C27.8795 26.0865 28.2 25.696 28.6111 25.4213Z" fill="white"/>
</svg>
