<svg width="105" height="38" viewBox="0 0 105 38" fill="none" xmlns="http://www.w3.org/2000/svg">
<path d="M8 6H24L16 22H0L8 6Z" fill="#614CE1"/>
<path opacity="0.4" d="M10 16H26L18 32H2L10 16Z" fill="#614CE1"/>
<path d="M36.517 30V7.6H50.597V11.44H40.741V16.848H49.829V20.688H40.741V30H36.517ZM53.0987 30V7.6H57.1307V30H53.0987ZM67.0067 30.256C65.7694 30.256 64.6814 29.9787 63.7427 29.424C62.8254 28.848 62.1107 28.0587 61.5987 27.056C61.0867 26.0533 60.8307 24.9013 60.8307 23.6V14.128H64.8627V23.28C64.8627 24.4747 65.1507 25.3707 65.7267 25.968C66.3241 26.5653 67.1667 26.864 68.2547 26.864C69.4921 26.864 70.4521 26.4587 71.1347 25.648C71.8174 24.816 72.1587 23.664 72.1587 22.192V14.128H76.1907V30H72.2227V27.92H71.6467C71.3907 28.4533 70.9107 28.976 70.2067 29.488C69.5027 30 68.4361 30.256 67.0067 30.256ZM78.6295 30L84.3895 22L78.6935 14.128H83.3655L86.9815 19.408H87.5575L91.1735 14.128H95.8455L90.1495 22L95.9095 30H91.1735L87.5575 24.656H86.9815L83.3655 30H78.6295ZM98.335 30V14.128H102.367V30H98.335ZM100.351 12.272C99.6257 12.272 99.007 12.0373 98.495 11.568C98.0043 11.0987 97.759 10.48 97.759 9.712C97.759 8.944 98.0043 8.32533 98.495 7.856C99.007 7.38667 99.6257 7.152 100.351 7.152C101.098 7.152 101.716 7.38667 102.207 7.856C102.698 8.32533 102.943 8.944 102.943 9.712C102.943 10.48 102.698 11.0987 102.207 11.568C101.716 12.0373 101.098 12.272 100.351 12.272Z" fill="#BCBFDB"/>
<path d="M36.517 30V7.6H50.597V11.44H40.741V16.848H49.829V20.688H40.741V30H36.517ZM53.0987 30V7.6H57.1307V30H53.0987ZM67.0067 30.256C65.7694 30.256 64.6814 29.9787 63.7427 29.424C62.8254 28.848 62.1107 28.0587 61.5987 27.056C61.0867 26.0533 60.8307 24.9013 60.8307 23.6V14.128H64.8627V23.28C64.8627 24.4747 65.1507 25.3707 65.7267 25.968C66.3241 26.5653 67.1667 26.864 68.2547 26.864C69.4921 26.864 70.4521 26.4587 71.1347 25.648C71.8174 24.816 72.1587 23.664 72.1587 22.192V14.128H76.1907V30H72.2227V27.92H71.6467C71.3907 28.4533 70.9107 28.976 70.2067 29.488C69.5027 30 68.4361 30.256 67.0067 30.256ZM78.6295 30L84.3895 22L78.6935 14.128H83.3655L86.9815 19.408H87.5575L91.1735 14.128H95.8455L90.1495 22L95.9095 30H91.1735L87.5575 24.656H86.9815L83.3655 30H78.6295ZM98.335 30V14.128H102.367V30H98.335ZM100.351 12.272C99.6257 12.272 99.007 12.0373 98.495 11.568C98.0043 11.0987 97.759 10.48 97.759 9.712C97.759 8.944 98.0043 8.32533 98.495 7.856C99.007 7.38667 99.6257 7.152 100.351 7.152C101.098 7.152 101.716 7.38667 102.207 7.856C102.698 8.32533 102.943 8.944 102.943 9.712C102.943 10.48 102.698 11.0987 102.207 11.568C101.716 12.0373 101.098 12.272 100.351 12.272Z" fill="black" fill-opacity="0.8"/>
</svg>
