<svg width="105" height="38" viewBox="0 0 105 38" fill="none" xmlns="http://www.w3.org/2000/svg">
<path d="M8.00537 6H24.0054L16.0054 22H0.00537109L8.00537 6Z" fill="url(#paint0_linear_769_9763)"/>
<path opacity="0.4" d="M10.0054 16H26.0054L18.0054 32H2.00537L10.0054 16Z" fill="url(#paint1_linear_769_9763)"/>
<path d="M36.5224 30V7.6H50.6024V11.44H40.7464V16.848H49.8344V20.688H40.7464V30H36.5224ZM53.1041 30V7.6H57.1361V30H53.1041ZM67.0121 30.256C65.7748 30.256 64.6868 29.9787 63.7481 29.424C62.8308 28.848 62.1161 28.0587 61.6041 27.056C61.0921 26.0533 60.8361 24.9013 60.8361 23.6V14.128H64.8681V23.28C64.8681 24.4747 65.1561 25.3707 65.7321 25.968C66.3295 26.5653 67.1721 26.864 68.2601 26.864C69.4975 26.864 70.4575 26.4587 71.1401 25.648C71.8228 24.816 72.1641 23.664 72.1641 22.192V14.128H76.1961V30H72.2281V27.92H71.6521C71.3961 28.4533 70.9161 28.976 70.2121 29.488C69.5081 30 68.4415 30.256 67.0121 30.256ZM78.6349 30L84.3949 22L78.6989 14.128H83.3709L86.9869 19.408H87.5629L91.1789 14.128H95.8509L90.1549 22L95.9149 30H91.1789L87.5629 24.656H86.9869L83.3709 30H78.6349ZM98.3404 30V14.128H102.372V30H98.3404ZM100.356 12.272C99.631 12.272 99.0124 12.0373 98.5004 11.568C98.0097 11.0987 97.7644 10.48 97.7644 9.712C97.7644 8.944 98.0097 8.32533 98.5004 7.856C99.0124 7.38667 99.631 7.152 100.356 7.152C101.103 7.152 101.722 7.38667 102.212 7.856C102.703 8.32533 102.948 8.944 102.948 9.712C102.948 10.48 102.703 11.0987 102.212 11.568C101.722 12.0373 101.103 12.272 100.356 12.272Z" fill="white"/>
<defs>
<linearGradient id="paint0_linear_769_9763" x1="3.22488" y1="19.7561" x2="16.0477" y2="0.657281" gradientUnits="userSpaceOnUse">
<stop stop-color="#614CE1"/>
<stop offset="1" stop-color="#8DFFA6"/>
</linearGradient>
<linearGradient id="paint1_linear_769_9763" x1="5.22488" y1="29.7561" x2="18.0477" y2="10.6573" gradientUnits="userSpaceOnUse">
<stop stop-color="#614CE1"/>
<stop offset="1" stop-color="#8DFFA6"/>
</linearGradient>
</defs>
</svg>
