<svg width="84" height="24" viewBox="0 0 84 24" fill="none" xmlns="http://www.w3.org/2000/svg">
<g clip-path="url(#clip0_653_11663)">
<path d="M10.4339 23.6436H2.94786L10.4551 12.2979H17.9623L10.4339 23.6436ZM7.69818 0.591797H15.375L7.69818 12.2979H0.00012207L7.69818 0.591797ZM33.2524 10.4742C33.2524 11.174 33.0827 11.8314 32.7434 12.4252C32.4253 13.0402 31.8951 13.5279 31.1953 13.8885C30.4955 14.2702 29.626 14.4398 28.5445 14.4398H26.3602V19.4446H23.7517V6.44486H28.5445C29.5411 6.44486 30.4106 6.61454 31.1104 6.97502C31.8103 7.31432 32.3404 7.80212 32.701 8.41712C33.0615 9.01088 33.2524 9.68948 33.2524 10.4742ZM28.4384 12.3403C29.1594 12.3403 29.6896 12.1707 30.0501 11.8526C30.3894 11.5133 30.5803 11.0467 30.5803 10.4529C30.5803 9.18056 29.8805 8.54432 28.4596 8.54432H26.3813V12.3192H28.4384V12.3403ZM36.9635 10.7286C37.3028 10.1773 37.727 9.75314 38.2783 9.43502C38.8297 9.1169 39.4447 8.96846 40.1446 8.96846V11.7042H39.4447C38.6176 11.7042 38.0026 11.895 37.5785 12.2767C37.1756 12.6585 36.9635 13.3371 36.9635 14.2914V19.4446H34.3551V9.1169H36.9635V10.7286ZM45.7219 19.6143C44.7252 19.6143 43.8345 19.4022 43.0286 18.9568C42.244 18.5115 41.6078 17.8753 41.1412 17.0695C40.6959 16.2636 40.4626 15.3305 40.4626 14.2702C40.4626 13.2098 40.6959 12.2767 41.1625 11.4709C41.629 10.665 42.2652 10.05 43.0923 9.6047C43.8982 9.15932 44.81 8.92604 45.7855 8.92604C46.7822 8.92604 47.6729 9.15932 48.4788 9.6047C49.2847 10.05 49.9208 10.665 50.3874 11.4709C50.854 12.2767 51.0872 13.2098 51.0872 14.2702C51.0872 15.3305 50.854 16.2636 50.3662 17.0695C49.8997 17.8753 49.2422 18.5115 48.4364 18.9568C47.6305 19.4022 46.7398 19.6143 45.7219 19.6143ZM45.7219 17.3451C46.1885 17.3451 46.6338 17.2391 47.0367 17.0058C47.4608 16.7725 47.8002 16.4121 48.0334 15.9667C48.2879 15.5002 48.4151 14.9488 48.4151 14.2914C48.4151 13.3159 48.1607 12.5524 47.6305 12.0435C47.1215 11.5133 46.4854 11.2376 45.7431 11.2376C45.0009 11.2376 44.3647 11.5133 43.8557 12.0435C43.3679 12.5736 43.1135 13.3159 43.1135 14.2914C43.1135 15.2669 43.3468 16.0303 43.8345 16.5605C44.3647 17.0695 44.9797 17.3451 45.7219 17.3451ZM54.8833 17.3875H57.6825V19.4658H52.2748V4.83315H54.8833V17.3875ZM59.7184 7.8869C59.2518 7.8869 58.8701 7.73846 58.5732 7.46276C58.2763 7.16588 58.1279 6.8054 58.1279 6.36002C58.1279 5.91469 58.2763 5.57539 58.5732 5.27849C58.8913 4.9816 59.273 4.83315 59.7184 4.83315C60.1848 4.83315 60.5664 4.9816 60.8634 5.27849C61.1814 5.55418 61.3302 5.91469 61.3302 6.36002C61.3302 6.8054 61.1814 7.16588 60.8634 7.46276C60.5454 7.7597 60.1848 7.8869 59.7184 7.8869ZM61.0122 9.1169V19.4446H58.3823V9.1169H61.0122ZM68.5614 8.96846C69.7914 8.96846 70.7886 9.35018 71.5518 10.1349C72.315 10.8983 72.6972 11.9799 72.6972 13.3795V19.4446H70.0884V13.74C70.0884 12.9129 69.8766 12.2979 69.4734 11.8526C69.0708 11.4072 68.4978 11.174 67.7982 11.174C67.077 11.174 66.5046 11.4072 66.0804 11.8526C65.6772 12.2979 65.4654 12.9129 65.4654 13.74V19.4446H62.8356V9.1169H65.4444V10.4105C65.7834 9.96518 66.2286 9.62588 66.759 9.37142C67.3104 9.09572 67.9044 8.96846 68.5614 8.96846ZM84 14.0581C84 14.4398 83.979 14.7579 83.9154 15.0548H76.3656C76.4292 15.7971 76.6836 16.3908 77.1504 16.815C77.6166 17.2391 78.168 17.4512 78.8466 17.4512C79.8222 17.4512 80.5008 17.0271 80.925 16.2H83.7456C83.4486 17.1967 82.8762 18.0238 82.0278 18.66C81.1794 19.2961 80.1402 19.6143 78.9102 19.6143C77.9136 19.6143 77.0232 19.4022 76.2174 18.9568C75.4326 18.5115 74.8176 17.8753 74.3724 17.0695C73.9482 16.2636 73.7148 15.3305 73.7148 14.2702C73.7148 13.2098 73.9272 12.2555 74.3724 11.4496C74.8176 10.6438 75.4116 10.0288 76.1958 9.58346C76.9806 9.13814 77.8716 8.92604 78.8892 8.92604C79.8648 8.92604 80.7552 9.13814 81.519 9.56228C82.3038 9.98642 82.8972 10.5802 83.3214 11.3649C83.7882 12.1707 84 13.0614 84 14.0581ZM81.3066 13.3159C81.2856 12.6372 81.0522 12.1071 80.586 11.7042C80.1192 11.3012 79.5468 11.0892 78.8466 11.0892C78.2106 11.0892 77.6592 11.28 77.214 11.6829C76.7898 12.0646 76.5144 12.616 76.4082 13.2946H81.3066V13.3159Z" fill="#BCBFDB"/>
<path d="M10.4339 23.6436H2.94786L10.4551 12.2979H17.9623L10.4339 23.6436ZM7.69818 0.591797H15.375L7.69818 12.2979H0.00012207L7.69818 0.591797ZM33.2524 10.4742C33.2524 11.174 33.0827 11.8314 32.7434 12.4252C32.4253 13.0402 31.8951 13.5279 31.1953 13.8885C30.4955 14.2702 29.626 14.4398 28.5445 14.4398H26.3602V19.4446H23.7517V6.44486H28.5445C29.5411 6.44486 30.4106 6.61454 31.1104 6.97502C31.8103 7.31432 32.3404 7.80212 32.701 8.41712C33.0615 9.01088 33.2524 9.68948 33.2524 10.4742ZM28.4384 12.3403C29.1594 12.3403 29.6896 12.1707 30.0501 11.8526C30.3894 11.5133 30.5803 11.0467 30.5803 10.4529C30.5803 9.18056 29.8805 8.54432 28.4596 8.54432H26.3813V12.3192H28.4384V12.3403ZM36.9635 10.7286C37.3028 10.1773 37.727 9.75314 38.2783 9.43502C38.8297 9.1169 39.4447 8.96846 40.1446 8.96846V11.7042H39.4447C38.6176 11.7042 38.0026 11.895 37.5785 12.2767C37.1756 12.6585 36.9635 13.3371 36.9635 14.2914V19.4446H34.3551V9.1169H36.9635V10.7286ZM45.7219 19.6143C44.7252 19.6143 43.8345 19.4022 43.0286 18.9568C42.244 18.5115 41.6078 17.8753 41.1412 17.0695C40.6959 16.2636 40.4626 15.3305 40.4626 14.2702C40.4626 13.2098 40.6959 12.2767 41.1625 11.4709C41.629 10.665 42.2652 10.05 43.0923 9.6047C43.8982 9.15932 44.81 8.92604 45.7855 8.92604C46.7822 8.92604 47.6729 9.15932 48.4788 9.6047C49.2847 10.05 49.9208 10.665 50.3874 11.4709C50.854 12.2767 51.0872 13.2098 51.0872 14.2702C51.0872 15.3305 50.854 16.2636 50.3662 17.0695C49.8997 17.8753 49.2422 18.5115 48.4364 18.9568C47.6305 19.4022 46.7398 19.6143 45.7219 19.6143ZM45.7219 17.3451C46.1885 17.3451 46.6338 17.2391 47.0367 17.0058C47.4608 16.7725 47.8002 16.4121 48.0334 15.9667C48.2879 15.5002 48.4151 14.9488 48.4151 14.2914C48.4151 13.3159 48.1607 12.5524 47.6305 12.0435C47.1215 11.5133 46.4854 11.2376 45.7431 11.2376C45.0009 11.2376 44.3647 11.5133 43.8557 12.0435C43.3679 12.5736 43.1135 13.3159 43.1135 14.2914C43.1135 15.2669 43.3468 16.0303 43.8345 16.5605C44.3647 17.0695 44.9797 17.3451 45.7219 17.3451ZM54.8833 17.3875H57.6825V19.4658H52.2748V4.83315H54.8833V17.3875ZM59.7184 7.8869C59.2518 7.8869 58.8701 7.73846 58.5732 7.46276C58.2763 7.16588 58.1279 6.8054 58.1279 6.36002C58.1279 5.91469 58.2763 5.57539 58.5732 5.27849C58.8913 4.9816 59.273 4.83315 59.7184 4.83315C60.1848 4.83315 60.5664 4.9816 60.8634 5.27849C61.1814 5.55418 61.3302 5.91469 61.3302 6.36002C61.3302 6.8054 61.1814 7.16588 60.8634 7.46276C60.5454 7.7597 60.1848 7.8869 59.7184 7.8869ZM61.0122 9.1169V19.4446H58.3823V9.1169H61.0122ZM68.5614 8.96846C69.7914 8.96846 70.7886 9.35018 71.5518 10.1349C72.315 10.8983 72.6972 11.9799 72.6972 13.3795V19.4446H70.0884V13.74C70.0884 12.9129 69.8766 12.2979 69.4734 11.8526C69.0708 11.4072 68.4978 11.174 67.7982 11.174C67.077 11.174 66.5046 11.4072 66.0804 11.8526C65.6772 12.2979 65.4654 12.9129 65.4654 13.74V19.4446H62.8356V9.1169H65.4444V10.4105C65.7834 9.96518 66.2286 9.62588 66.759 9.37142C67.3104 9.09572 67.9044 8.96846 68.5614 8.96846ZM84 14.0581C84 14.4398 83.979 14.7579 83.9154 15.0548H76.3656C76.4292 15.7971 76.6836 16.3908 77.1504 16.815C77.6166 17.2391 78.168 17.4512 78.8466 17.4512C79.8222 17.4512 80.5008 17.0271 80.925 16.2H83.7456C83.4486 17.1967 82.8762 18.0238 82.0278 18.66C81.1794 19.2961 80.1402 19.6143 78.9102 19.6143C77.9136 19.6143 77.0232 19.4022 76.2174 18.9568C75.4326 18.5115 74.8176 17.8753 74.3724 17.0695C73.9482 16.2636 73.7148 15.3305 73.7148 14.2702C73.7148 13.2098 73.9272 12.2555 74.3724 11.4496C74.8176 10.6438 75.4116 10.0288 76.1958 9.58346C76.9806 9.13814 77.8716 8.92604 78.8892 8.92604C79.8648 8.92604 80.7552 9.13814 81.519 9.56228C82.3038 9.98642 82.8972 10.5802 83.3214 11.3649C83.7882 12.1707 84 13.0614 84 14.0581ZM81.3066 13.3159C81.2856 12.6372 81.0522 12.1071 80.586 11.7042C80.1192 11.3012 79.5468 11.0892 78.8466 11.0892C78.2106 11.0892 77.6592 11.28 77.214 11.6829C76.7898 12.0646 76.5144 12.616 76.4082 13.2946H81.3066V13.3159Z" fill="black" fill-opacity="0.8"/>
<path d="M10.4339 23.6436H2.94786L10.4551 12.2979H17.9623L10.4339 23.6436ZM7.69818 0.591797H15.375L7.69818 12.2979H0.00012207L7.69818 0.591797ZM33.2524 10.4742C33.2524 11.174 33.0827 11.8314 32.7434 12.4252C32.4253 13.0402 31.8951 13.5279 31.1953 13.8885C30.4955 14.2702 29.626 14.4398 28.5445 14.4398H26.3602V19.4446H23.7517V6.44486H28.5445C29.5411 6.44486 30.4106 6.61454 31.1104 6.97502C31.8103 7.31432 32.3404 7.80212 32.701 8.41712C33.0615 9.01088 33.2524 9.68948 33.2524 10.4742ZM28.4384 12.3403C29.1594 12.3403 29.6896 12.1707 30.0501 11.8526C30.3894 11.5133 30.5803 11.0467 30.5803 10.4529C30.5803 9.18056 29.8805 8.54432 28.4596 8.54432H26.3813V12.3192H28.4384V12.3403ZM36.9635 10.7286C37.3028 10.1773 37.727 9.75314 38.2783 9.43502C38.8297 9.1169 39.4447 8.96846 40.1446 8.96846V11.7042H39.4447C38.6176 11.7042 38.0026 11.895 37.5785 12.2767C37.1756 12.6585 36.9635 13.3371 36.9635 14.2914V19.4446H34.3551V9.1169H36.9635V10.7286ZM45.7219 19.6143C44.7252 19.6143 43.8345 19.4022 43.0286 18.9568C42.244 18.5115 41.6078 17.8753 41.1412 17.0695C40.6959 16.2636 40.4626 15.3305 40.4626 14.2702C40.4626 13.2098 40.6959 12.2767 41.1625 11.4709C41.629 10.665 42.2652 10.05 43.0923 9.6047C43.8982 9.15932 44.81 8.92604 45.7855 8.92604C46.7822 8.92604 47.6729 9.15932 48.4788 9.6047C49.2847 10.05 49.9208 10.665 50.3874 11.4709C50.854 12.2767 51.0872 13.2098 51.0872 14.2702C51.0872 15.3305 50.854 16.2636 50.3662 17.0695C49.8997 17.8753 49.2422 18.5115 48.4364 18.9568C47.6305 19.4022 46.7398 19.6143 45.7219 19.6143ZM45.7219 17.3451C46.1885 17.3451 46.6338 17.2391 47.0367 17.0058C47.4608 16.7725 47.8002 16.4121 48.0334 15.9667C48.2879 15.5002 48.4151 14.9488 48.4151 14.2914C48.4151 13.3159 48.1607 12.5524 47.6305 12.0435C47.1215 11.5133 46.4854 11.2376 45.7431 11.2376C45.0009 11.2376 44.3647 11.5133 43.8557 12.0435C43.3679 12.5736 43.1135 13.3159 43.1135 14.2914C43.1135 15.2669 43.3468 16.0303 43.8345 16.5605C44.3647 17.0695 44.9797 17.3451 45.7219 17.3451ZM54.8833 17.3875H57.6825V19.4658H52.2748V4.83315H54.8833V17.3875ZM59.7184 7.8869C59.2518 7.8869 58.8701 7.73846 58.5732 7.46276C58.2763 7.16588 58.1279 6.8054 58.1279 6.36002C58.1279 5.91469 58.2763 5.57539 58.5732 5.27849C58.8913 4.9816 59.273 4.83315 59.7184 4.83315C60.1848 4.83315 60.5664 4.9816 60.8634 5.27849C61.1814 5.55418 61.3302 5.91469 61.3302 6.36002C61.3302 6.8054 61.1814 7.16588 60.8634 7.46276C60.5454 7.7597 60.1848 7.8869 59.7184 7.8869ZM61.0122 9.1169V19.4446H58.3823V9.1169H61.0122ZM68.5614 8.96846C69.7914 8.96846 70.7886 9.35018 71.5518 10.1349C72.315 10.8983 72.6972 11.9799 72.6972 13.3795V19.4446H70.0884V13.74C70.0884 12.9129 69.8766 12.2979 69.4734 11.8526C69.0708 11.4072 68.4978 11.174 67.7982 11.174C67.077 11.174 66.5046 11.4072 66.0804 11.8526C65.6772 12.2979 65.4654 12.9129 65.4654 13.74V19.4446H62.8356V9.1169H65.4444V10.4105C65.7834 9.96518 66.2286 9.62588 66.759 9.37142C67.3104 9.09572 67.9044 8.96846 68.5614 8.96846ZM84 14.0581C84 14.4398 83.979 14.7579 83.9154 15.0548H76.3656C76.4292 15.7971 76.6836 16.3908 77.1504 16.815C77.6166 17.2391 78.168 17.4512 78.8466 17.4512C79.8222 17.4512 80.5008 17.0271 80.925 16.2H83.7456C83.4486 17.1967 82.8762 18.0238 82.0278 18.66C81.1794 19.2961 80.1402 19.6143 78.9102 19.6143C77.9136 19.6143 77.0232 19.4022 76.2174 18.9568C75.4326 18.5115 74.8176 17.8753 74.3724 17.0695C73.9482 16.2636 73.7148 15.3305 73.7148 14.2702C73.7148 13.2098 73.9272 12.2555 74.3724 11.4496C74.8176 10.6438 75.4116 10.0288 76.1958 9.58346C76.9806 9.13814 77.8716 8.92604 78.8892 8.92604C79.8648 8.92604 80.7552 9.13814 81.519 9.56228C82.3038 9.98642 82.8972 10.5802 83.3214 11.3649C83.7882 12.1707 84 13.0614 84 14.0581ZM81.3066 13.3159C81.2856 12.6372 81.0522 12.1071 80.586 11.7042C80.1192 11.3012 79.5468 11.0892 78.8466 11.0892C78.2106 11.0892 77.6592 11.28 77.214 11.6829C76.7898 12.0646 76.5144 12.616 76.4082 13.2946H81.3066V13.3159Z" fill="#BCBFDB"/>
<path d="M10.4339 23.6436H2.94786L10.4551 12.2979H17.9623L10.4339 23.6436ZM7.69818 0.591797H15.375L7.69818 12.2979H0.00012207L7.69818 0.591797ZM33.2524 10.4742C33.2524 11.174 33.0827 11.8314 32.7434 12.4252C32.4253 13.0402 31.8951 13.5279 31.1953 13.8885C30.4955 14.2702 29.626 14.4398 28.5445 14.4398H26.3602V19.4446H23.7517V6.44486H28.5445C29.5411 6.44486 30.4106 6.61454 31.1104 6.97502C31.8103 7.31432 32.3404 7.80212 32.701 8.41712C33.0615 9.01088 33.2524 9.68948 33.2524 10.4742ZM28.4384 12.3403C29.1594 12.3403 29.6896 12.1707 30.0501 11.8526C30.3894 11.5133 30.5803 11.0467 30.5803 10.4529C30.5803 9.18056 29.8805 8.54432 28.4596 8.54432H26.3813V12.3192H28.4384V12.3403ZM36.9635 10.7286C37.3028 10.1773 37.727 9.75314 38.2783 9.43502C38.8297 9.1169 39.4447 8.96846 40.1446 8.96846V11.7042H39.4447C38.6176 11.7042 38.0026 11.895 37.5785 12.2767C37.1756 12.6585 36.9635 13.3371 36.9635 14.2914V19.4446H34.3551V9.1169H36.9635V10.7286ZM45.7219 19.6143C44.7252 19.6143 43.8345 19.4022 43.0286 18.9568C42.244 18.5115 41.6078 17.8753 41.1412 17.0695C40.6959 16.2636 40.4626 15.3305 40.4626 14.2702C40.4626 13.2098 40.6959 12.2767 41.1625 11.4709C41.629 10.665 42.2652 10.05 43.0923 9.6047C43.8982 9.15932 44.81 8.92604 45.7855 8.92604C46.7822 8.92604 47.6729 9.15932 48.4788 9.6047C49.2847 10.05 49.9208 10.665 50.3874 11.4709C50.854 12.2767 51.0872 13.2098 51.0872 14.2702C51.0872 15.3305 50.854 16.2636 50.3662 17.0695C49.8997 17.8753 49.2422 18.5115 48.4364 18.9568C47.6305 19.4022 46.7398 19.6143 45.7219 19.6143ZM45.7219 17.3451C46.1885 17.3451 46.6338 17.2391 47.0367 17.0058C47.4608 16.7725 47.8002 16.4121 48.0334 15.9667C48.2879 15.5002 48.4151 14.9488 48.4151 14.2914C48.4151 13.3159 48.1607 12.5524 47.6305 12.0435C47.1215 11.5133 46.4854 11.2376 45.7431 11.2376C45.0009 11.2376 44.3647 11.5133 43.8557 12.0435C43.3679 12.5736 43.1135 13.3159 43.1135 14.2914C43.1135 15.2669 43.3468 16.0303 43.8345 16.5605C44.3647 17.0695 44.9797 17.3451 45.7219 17.3451ZM54.8833 17.3875H57.6825V19.4658H52.2748V4.83315H54.8833V17.3875ZM59.7184 7.8869C59.2518 7.8869 58.8701 7.73846 58.5732 7.46276C58.2763 7.16588 58.1279 6.8054 58.1279 6.36002C58.1279 5.91469 58.2763 5.57539 58.5732 5.27849C58.8913 4.9816 59.273 4.83315 59.7184 4.83315C60.1848 4.83315 60.5664 4.9816 60.8634 5.27849C61.1814 5.55418 61.3302 5.91469 61.3302 6.36002C61.3302 6.8054 61.1814 7.16588 60.8634 7.46276C60.5454 7.7597 60.1848 7.8869 59.7184 7.8869ZM61.0122 9.1169V19.4446H58.3823V9.1169H61.0122ZM68.5614 8.96846C69.7914 8.96846 70.7886 9.35018 71.5518 10.1349C72.315 10.8983 72.6972 11.9799 72.6972 13.3795V19.4446H70.0884V13.74C70.0884 12.9129 69.8766 12.2979 69.4734 11.8526C69.0708 11.4072 68.4978 11.174 67.7982 11.174C67.077 11.174 66.5046 11.4072 66.0804 11.8526C65.6772 12.2979 65.4654 12.9129 65.4654 13.74V19.4446H62.8356V9.1169H65.4444V10.4105C65.7834 9.96518 66.2286 9.62588 66.759 9.37142C67.3104 9.09572 67.9044 8.96846 68.5614 8.96846ZM84 14.0581C84 14.4398 83.979 14.7579 83.9154 15.0548H76.3656C76.4292 15.7971 76.6836 16.3908 77.1504 16.815C77.6166 17.2391 78.168 17.4512 78.8466 17.4512C79.8222 17.4512 80.5008 17.0271 80.925 16.2H83.7456C83.4486 17.1967 82.8762 18.0238 82.0278 18.66C81.1794 19.2961 80.1402 19.6143 78.9102 19.6143C77.9136 19.6143 77.0232 19.4022 76.2174 18.9568C75.4326 18.5115 74.8176 17.8753 74.3724 17.0695C73.9482 16.2636 73.7148 15.3305 73.7148 14.2702C73.7148 13.2098 73.9272 12.2555 74.3724 11.4496C74.8176 10.6438 75.4116 10.0288 76.1958 9.58346C76.9806 9.13814 77.8716 8.92604 78.8892 8.92604C79.8648 8.92604 80.7552 9.13814 81.519 9.56228C82.3038 9.98642 82.8972 10.5802 83.3214 11.3649C83.7882 12.1707 84 13.0614 84 14.0581ZM81.3066 13.3159C81.2856 12.6372 81.0522 12.1071 80.586 11.7042C80.1192 11.3012 79.5468 11.0892 78.8466 11.0892C78.2106 11.0892 77.6592 11.28 77.214 11.6829C76.7898 12.0646 76.5144 12.616 76.4082 13.2946H81.3066V13.3159Z" fill="black" fill-opacity="0.8"/>
<path d="M7.69686 0.591797H15.4022L7.69686 12.2999H0L7.69686 0.591797Z" fill="#BCBFDB"/>
<path d="M7.69686 0.591797H15.4022L7.69686 12.2999H0L7.69686 0.591797Z" fill="black" fill-opacity="0.8"/>
<path d="M10.5592 11.9365H18.2644L10.5592 23.6446H2.8623L10.5592 11.9365Z" fill="#BCBFDB"/>
<path d="M10.5592 11.9365H18.2644L10.5592 23.6446H2.8623L10.5592 11.9365Z" fill="black" fill-opacity="0.8"/>
</g>
<defs>
<clipPath id="clip0_653_11663">
<rect width="84" height="24" fill="white"/>
</clipPath>
</defs>
</svg>
