<svg width="96" height="24" viewBox="0 0 96 24" fill="none" xmlns="http://www.w3.org/2000/svg">
<g clip-path="url(#clip0_1850_1895)">
<path d="M43.4711 17.9763C42.6332 17.9763 41.8535 17.8331 41.1322 17.5466C40.4327 17.257 39.7952 16.8357 39.2546 16.3056C38.7252 15.7766 38.3038 15.1497 38.0137 14.4599C37.7165 13.7492 37.568 12.9854 37.568 12.1684C37.568 11.3516 37.7165 10.5932 38.0137 9.89314C38.3105 9.18219 38.7243 8.56731 39.2546 8.04734C39.7851 7.52743 40.4056 7.1245 41.1163 6.83824C41.8376 6.54113 42.6172 6.39258 43.4552 6.39258C44.3463 6.39258 45.1368 6.53582 45.8263 6.82232C46.4178 7.06423 46.9452 7.38206 47.4084 7.77573C47.5482 7.89483 47.5503 8.10651 47.4211 8.23701L46.2258 9.44352C46.0945 9.57614 45.8804 9.57134 45.7384 9.4501C45.4879 9.23787 45.2063 9.06528 44.9034 8.93842C44.4895 8.75801 44.007 8.66784 43.4552 8.66784C42.9674 8.66784 42.5167 8.75273 42.1029 8.92251C41.6997 9.08167 41.3497 9.31509 41.0526 9.62283C40.7664 9.93031 40.5383 10.3017 40.3685 10.7364C40.2093 11.1715 40.1298 11.6487 40.1298 12.1684C40.1298 12.6989 40.2093 13.1815 40.3685 13.6166C40.5383 14.0513 40.7664 14.4227 41.0526 14.7302C41.3501 15.0382 41.7075 15.282 42.1029 15.4464C42.5167 15.6159 42.9674 15.7008 43.4552 15.7008C44.0282 15.7008 44.5267 15.6106 44.9511 15.4305C45.2599 15.3006 45.5477 15.1254 45.8047 14.9105C45.9454 14.7922 46.1555 14.7891 46.2852 14.919L47.4935 16.1271C47.6256 16.2592 47.6216 16.4754 47.4776 16.594C46.9941 16.9905 46.4535 17.3117 45.874 17.5466C45.1843 17.8331 44.3834 17.9763 43.4711 17.9763ZM34.6035 17.8013C34.5164 17.8011 34.4329 17.7665 34.3712 17.7049C34.3096 17.6433 34.2749 17.5597 34.2749 17.4725V6.89609C34.275 6.80896 34.3097 6.72547 34.3713 6.66391C34.4329 6.60234 34.5164 6.56773 34.6035 6.56766H36.4443C36.5314 6.56773 36.615 6.60238 36.6766 6.664C36.7382 6.72562 36.7729 6.80918 36.773 6.89637V17.4725C36.7729 17.5597 36.7382 17.6433 36.6766 17.7049C36.615 17.7665 36.5314 17.8011 36.4443 17.8013H34.6035ZM48.3156 17.4725C48.3157 17.5597 48.3503 17.6433 48.412 17.7049C48.4735 17.7665 48.5571 17.8011 48.6443 17.8013H50.485C50.4967 17.8013 50.5081 17.8007 50.5195 17.7994C50.5306 17.8007 50.5421 17.8013 50.5537 17.8013H56.0542C56.1413 17.8011 56.2249 17.7665 56.2865 17.7049C56.3482 17.6433 56.3828 17.5597 56.3828 17.4725V15.9658C56.3828 15.8787 56.3482 15.7951 56.2865 15.7335C56.2249 15.6719 56.1413 15.6372 56.0542 15.6372H50.8137V13.1072H55.4974C55.6788 13.1072 55.8258 12.9603 55.8258 12.7786V11.3514C55.8258 11.1699 55.6788 11.0229 55.4974 11.0229H50.8137V8.71557H55.9746C56.0617 8.7155 56.1453 8.68087 56.207 8.61922C56.2685 8.55765 56.3032 8.47406 56.3033 8.3869V6.89637C56.3032 6.80923 56.2685 6.72574 56.2068 6.66418C56.1453 6.60261 56.0617 6.56799 55.9746 6.56792H50.5537C50.5421 6.56792 50.5306 6.56845 50.5195 6.56978C50.5081 6.56857 50.4965 6.56796 50.485 6.56792H48.6443C48.5571 6.56799 48.4735 6.60265 48.412 6.66427C48.3503 6.72589 48.3157 6.80945 48.3156 6.89657V17.4725Z" fill="#BCBFDB"/>
<path d="M43.4711 17.9763C42.6332 17.9763 41.8535 17.8331 41.1322 17.5466C40.4327 17.257 39.7952 16.8357 39.2546 16.3056C38.7252 15.7766 38.3038 15.1497 38.0137 14.4599C37.7165 13.7492 37.568 12.9854 37.568 12.1684C37.568 11.3516 37.7165 10.5932 38.0137 9.89314C38.3105 9.18219 38.7243 8.56731 39.2546 8.04734C39.7851 7.52743 40.4056 7.1245 41.1163 6.83824C41.8376 6.54113 42.6172 6.39258 43.4552 6.39258C44.3463 6.39258 45.1368 6.53582 45.8263 6.82232C46.4178 7.06423 46.9452 7.38206 47.4084 7.77573C47.5482 7.89483 47.5503 8.10651 47.4211 8.23701L46.2258 9.44352C46.0945 9.57614 45.8804 9.57134 45.7384 9.4501C45.4879 9.23787 45.2063 9.06528 44.9034 8.93842C44.4895 8.75801 44.007 8.66784 43.4552 8.66784C42.9674 8.66784 42.5167 8.75273 42.1029 8.92251C41.6997 9.08167 41.3497 9.31509 41.0526 9.62283C40.7664 9.93031 40.5383 10.3017 40.3685 10.7364C40.2093 11.1715 40.1298 11.6487 40.1298 12.1684C40.1298 12.6989 40.2093 13.1815 40.3685 13.6166C40.5383 14.0513 40.7664 14.4227 41.0526 14.7302C41.3501 15.0382 41.7075 15.282 42.1029 15.4464C42.5167 15.6159 42.9674 15.7008 43.4552 15.7008C44.0282 15.7008 44.5267 15.6106 44.9511 15.4305C45.2599 15.3006 45.5477 15.1254 45.8047 14.9105C45.9454 14.7922 46.1555 14.7891 46.2852 14.919L47.4935 16.1271C47.6256 16.2592 47.6216 16.4754 47.4776 16.594C46.9941 16.9905 46.4535 17.3117 45.874 17.5466C45.1843 17.8331 44.3834 17.9763 43.4711 17.9763ZM34.6035 17.8013C34.5164 17.8011 34.4329 17.7665 34.3712 17.7049C34.3096 17.6433 34.2749 17.5597 34.2749 17.4725V6.89609C34.275 6.80896 34.3097 6.72547 34.3713 6.66391C34.4329 6.60234 34.5164 6.56773 34.6035 6.56766H36.4443C36.5314 6.56773 36.615 6.60238 36.6766 6.664C36.7382 6.72562 36.7729 6.80918 36.773 6.89637V17.4725C36.7729 17.5597 36.7382 17.6433 36.6766 17.7049C36.615 17.7665 36.5314 17.8011 36.4443 17.8013H34.6035ZM48.3156 17.4725C48.3157 17.5597 48.3503 17.6433 48.412 17.7049C48.4735 17.7665 48.5571 17.8011 48.6443 17.8013H50.485C50.4967 17.8013 50.5081 17.8007 50.5195 17.7994C50.5306 17.8007 50.5421 17.8013 50.5537 17.8013H56.0542C56.1413 17.8011 56.2249 17.7665 56.2865 17.7049C56.3482 17.6433 56.3828 17.5597 56.3828 17.4725V15.9658C56.3828 15.8787 56.3482 15.7951 56.2865 15.7335C56.2249 15.6719 56.1413 15.6372 56.0542 15.6372H50.8137V13.1072H55.4974C55.6788 13.1072 55.8258 12.9603 55.8258 12.7786V11.3514C55.8258 11.1699 55.6788 11.0229 55.4974 11.0229H50.8137V8.71557H55.9746C56.0617 8.7155 56.1453 8.68087 56.207 8.61922C56.2685 8.55765 56.3032 8.47406 56.3033 8.3869V6.89637C56.3032 6.80923 56.2685 6.72574 56.2068 6.66418C56.1453 6.60261 56.0617 6.56799 55.9746 6.56792H50.5537C50.5421 6.56792 50.5306 6.56845 50.5195 6.56978C50.5081 6.56857 50.4965 6.56796 50.485 6.56792H48.6443C48.5571 6.56799 48.4735 6.60265 48.412 6.66427C48.3503 6.72589 48.3157 6.80945 48.3156 6.89657V17.4725Z" fill="black" fill-opacity="0.8"/>
<path d="M43.4711 17.9763C42.6332 17.9763 41.8535 17.8331 41.1322 17.5466C40.4327 17.257 39.7952 16.8357 39.2546 16.3056C38.7252 15.7766 38.3038 15.1497 38.0137 14.4599C37.7165 13.7492 37.568 12.9854 37.568 12.1684C37.568 11.3516 37.7165 10.5932 38.0137 9.89314C38.3105 9.18219 38.7243 8.56731 39.2546 8.04734C39.7851 7.52743 40.4056 7.1245 41.1163 6.83824C41.8376 6.54113 42.6172 6.39258 43.4552 6.39258C44.3463 6.39258 45.1368 6.53582 45.8263 6.82232C46.4178 7.06423 46.9452 7.38206 47.4084 7.77573C47.5482 7.89483 47.5503 8.10651 47.4211 8.23701L46.2258 9.44352C46.0945 9.57614 45.8804 9.57134 45.7384 9.4501C45.4879 9.23787 45.2063 9.06528 44.9034 8.93842C44.4895 8.75801 44.007 8.66784 43.4552 8.66784C42.9674 8.66784 42.5167 8.75273 42.1029 8.92251C41.6997 9.08167 41.3497 9.31509 41.0526 9.62283C40.7664 9.93031 40.5383 10.3017 40.3685 10.7364C40.2093 11.1715 40.1298 11.6487 40.1298 12.1684C40.1298 12.6989 40.2093 13.1815 40.3685 13.6166C40.5383 14.0513 40.7664 14.4227 41.0526 14.7302C41.3501 15.0382 41.7075 15.282 42.1029 15.4464C42.5167 15.6159 42.9674 15.7008 43.4552 15.7008C44.0282 15.7008 44.5267 15.6106 44.9511 15.4305C45.2599 15.3006 45.5477 15.1254 45.8047 14.9105C45.9454 14.7922 46.1555 14.7891 46.2852 14.919L47.4935 16.1271C47.6256 16.2592 47.6216 16.4754 47.4776 16.594C46.9941 16.9905 46.4535 17.3117 45.874 17.5466C45.1843 17.8331 44.3834 17.9763 43.4711 17.9763ZM34.6035 17.8013C34.5164 17.8011 34.4329 17.7665 34.3712 17.7049C34.3096 17.6433 34.2749 17.5597 34.2749 17.4725V6.89609C34.275 6.80896 34.3097 6.72547 34.3713 6.66391C34.4329 6.60234 34.5164 6.56773 34.6035 6.56766H36.4443C36.5314 6.56773 36.615 6.60238 36.6766 6.664C36.7382 6.72562 36.7729 6.80918 36.773 6.89637V17.4725C36.7729 17.5597 36.7382 17.6433 36.6766 17.7049C36.615 17.7665 36.5314 17.8011 36.4443 17.8013H34.6035ZM48.3156 17.4725C48.3157 17.5597 48.3503 17.6433 48.412 17.7049C48.4735 17.7665 48.5571 17.8011 48.6443 17.8013H50.485C50.4967 17.8013 50.5081 17.8007 50.5195 17.7994C50.5306 17.8007 50.5421 17.8013 50.5537 17.8013H56.0542C56.1413 17.8011 56.2249 17.7665 56.2865 17.7049C56.3482 17.6433 56.3828 17.5597 56.3828 17.4725V15.9658C56.3828 15.8787 56.3482 15.7951 56.2865 15.7335C56.2249 15.6719 56.1413 15.6372 56.0542 15.6372H50.8137V13.1072H55.4974C55.6788 13.1072 55.8258 12.9603 55.8258 12.7786V11.3514C55.8258 11.1699 55.6788 11.0229 55.4974 11.0229H50.8137V8.71557H55.9746C56.0617 8.7155 56.1453 8.68087 56.207 8.61922C56.2685 8.55765 56.3032 8.47406 56.3033 8.3869V6.89637C56.3032 6.80923 56.2685 6.72574 56.2068 6.66418C56.1453 6.60261 56.0617 6.56799 55.9746 6.56792H50.5537C50.5421 6.56792 50.5306 6.56845 50.5195 6.56978C50.5081 6.56857 50.4965 6.56796 50.485 6.56792H48.6443C48.5571 6.56799 48.4735 6.60265 48.412 6.66427C48.3503 6.72589 48.3157 6.80945 48.3156 6.89657V17.4725Z" fill="#BCBFDB"/>
<path d="M43.4711 17.9763C42.6332 17.9763 41.8535 17.8331 41.1322 17.5466C40.4327 17.257 39.7952 16.8357 39.2546 16.3056C38.7252 15.7766 38.3038 15.1497 38.0137 14.4599C37.7165 13.7492 37.568 12.9854 37.568 12.1684C37.568 11.3516 37.7165 10.5932 38.0137 9.89314C38.3105 9.18219 38.7243 8.56731 39.2546 8.04734C39.7851 7.52743 40.4056 7.1245 41.1163 6.83824C41.8376 6.54113 42.6172 6.39258 43.4552 6.39258C44.3463 6.39258 45.1368 6.53582 45.8263 6.82232C46.4178 7.06423 46.9452 7.38206 47.4084 7.77573C47.5482 7.89483 47.5503 8.10651 47.4211 8.23701L46.2258 9.44352C46.0945 9.57614 45.8804 9.57134 45.7384 9.4501C45.4879 9.23787 45.2063 9.06528 44.9034 8.93842C44.4895 8.75801 44.007 8.66784 43.4552 8.66784C42.9674 8.66784 42.5167 8.75273 42.1029 8.92251C41.6997 9.08167 41.3497 9.31509 41.0526 9.62283C40.7664 9.93031 40.5383 10.3017 40.3685 10.7364C40.2093 11.1715 40.1298 11.6487 40.1298 12.1684C40.1298 12.6989 40.2093 13.1815 40.3685 13.6166C40.5383 14.0513 40.7664 14.4227 41.0526 14.7302C41.3501 15.0382 41.7075 15.282 42.1029 15.4464C42.5167 15.6159 42.9674 15.7008 43.4552 15.7008C44.0282 15.7008 44.5267 15.6106 44.9511 15.4305C45.2599 15.3006 45.5477 15.1254 45.8047 14.9105C45.9454 14.7922 46.1555 14.7891 46.2852 14.919L47.4935 16.1271C47.6256 16.2592 47.6216 16.4754 47.4776 16.594C46.9941 16.9905 46.4535 17.3117 45.874 17.5466C45.1843 17.8331 44.3834 17.9763 43.4711 17.9763ZM34.6035 17.8013C34.5164 17.8011 34.4329 17.7665 34.3712 17.7049C34.3096 17.6433 34.2749 17.5597 34.2749 17.4725V6.89609C34.275 6.80896 34.3097 6.72547 34.3713 6.66391C34.4329 6.60234 34.5164 6.56773 34.6035 6.56766H36.4443C36.5314 6.56773 36.615 6.60238 36.6766 6.664C36.7382 6.72562 36.7729 6.80918 36.773 6.89637V17.4725C36.7729 17.5597 36.7382 17.6433 36.6766 17.7049C36.615 17.7665 36.5314 17.8011 36.4443 17.8013H34.6035ZM48.3156 17.4725C48.3157 17.5597 48.3503 17.6433 48.412 17.7049C48.4735 17.7665 48.5571 17.8011 48.6443 17.8013H50.485C50.4967 17.8013 50.5081 17.8007 50.5195 17.7994C50.5306 17.8007 50.5421 17.8013 50.5537 17.8013H56.0542C56.1413 17.8011 56.2249 17.7665 56.2865 17.7049C56.3482 17.6433 56.3828 17.5597 56.3828 17.4725V15.9658C56.3828 15.8787 56.3482 15.7951 56.2865 15.7335C56.2249 15.6719 56.1413 15.6372 56.0542 15.6372H50.8137V13.1072H55.4974C55.6788 13.1072 55.8258 12.9603 55.8258 12.7786V11.3514C55.8258 11.1699 55.6788 11.0229 55.4974 11.0229H50.8137V8.71557H55.9746C56.0617 8.7155 56.1453 8.68087 56.207 8.61922C56.2685 8.55765 56.3032 8.47406 56.3033 8.3869V6.89637C56.3032 6.80923 56.2685 6.72574 56.2068 6.66418C56.1453 6.60261 56.0617 6.56799 55.9746 6.56792H50.5537C50.5421 6.56792 50.5306 6.56845 50.5195 6.56978C50.5081 6.56857 50.4965 6.56796 50.485 6.56792H48.6443C48.5571 6.56799 48.4735 6.60265 48.412 6.66427C48.3503 6.72589 48.3157 6.80945 48.3156 6.89657V17.4725Z" fill="black" fill-opacity="0.8"/>
<path fill-rule="evenodd" clip-rule="evenodd" d="M59.5474 17.801C59.5304 17.801 59.5137 17.7996 59.4972 17.7973C59.4806 17.7997 59.4638 17.8009 59.4471 17.801H57.6382C57.551 17.801 57.4674 17.7664 57.4058 17.7047C57.3442 17.6431 57.3095 17.5595 57.3095 17.4723V6.8958C57.3095 6.71461 57.4565 6.56738 57.6382 6.56738H59.4471C59.4641 6.56738 59.4811 6.56871 59.4972 6.5711C59.5138 6.5686 59.5306 6.56736 59.5474 6.56738H62.1306C62.8519 6.56738 63.462 6.70002 63.9605 6.96526C64.4698 7.23056 64.8569 7.58577 65.1221 8.03114C65.3871 8.47685 65.5198 8.97022 65.5198 9.51111C65.5198 10.2006 65.2972 10.7839 64.8516 11.2611C64.6598 11.467 64.4284 11.645 64.1576 11.7954C64.5372 11.9817 64.8587 12.2172 65.1221 12.5024C65.6418 13.0541 65.9017 13.733 65.9017 14.5392C65.9017 15.1543 65.7479 15.7111 65.4402 16.2099C65.1433 16.6977 64.7083 17.085 64.1355 17.3713C63.5735 17.6577 62.8943 17.801 62.0988 17.801H59.5474ZM59.7758 15.8597H61.8603C62.3482 15.8597 62.7301 15.7164 63.0058 15.4302C63.2816 15.1437 63.4196 14.7936 63.4196 14.38C63.4196 14.0935 63.3559 13.8391 63.2286 13.6163C63.1013 13.3934 62.9209 13.2184 62.6877 13.091C62.4649 12.9637 62.189 12.9001 61.8603 12.9001H59.7758V15.8597ZM61.6534 11.0067H59.7758V8.50867H61.6534C62.067 8.50867 62.4012 8.61475 62.6558 8.82698C62.9102 9.0283 63.0376 9.33605 63.0376 9.74961C63.0376 10.1741 62.9102 10.4924 62.6558 10.7046C62.4012 10.9059 62.067 11.0067 61.6534 11.0067Z" fill="#BCBFDB"/>
<path fill-rule="evenodd" clip-rule="evenodd" d="M59.5474 17.801C59.5304 17.801 59.5137 17.7996 59.4972 17.7973C59.4806 17.7997 59.4638 17.8009 59.4471 17.801H57.6382C57.551 17.801 57.4674 17.7664 57.4058 17.7047C57.3442 17.6431 57.3095 17.5595 57.3095 17.4723V6.8958C57.3095 6.71461 57.4565 6.56738 57.6382 6.56738H59.4471C59.4641 6.56738 59.4811 6.56871 59.4972 6.5711C59.5138 6.5686 59.5306 6.56736 59.5474 6.56738H62.1306C62.8519 6.56738 63.462 6.70002 63.9605 6.96526C64.4698 7.23056 64.8569 7.58577 65.1221 8.03114C65.3871 8.47685 65.5198 8.97022 65.5198 9.51111C65.5198 10.2006 65.2972 10.7839 64.8516 11.2611C64.6598 11.467 64.4284 11.645 64.1576 11.7954C64.5372 11.9817 64.8587 12.2172 65.1221 12.5024C65.6418 13.0541 65.9017 13.733 65.9017 14.5392C65.9017 15.1543 65.7479 15.7111 65.4402 16.2099C65.1433 16.6977 64.7083 17.085 64.1355 17.3713C63.5735 17.6577 62.8943 17.801 62.0988 17.801H59.5474ZM59.7758 15.8597H61.8603C62.3482 15.8597 62.7301 15.7164 63.0058 15.4302C63.2816 15.1437 63.4196 14.7936 63.4196 14.38C63.4196 14.0935 63.3559 13.8391 63.2286 13.6163C63.1013 13.3934 62.9209 13.2184 62.6877 13.091C62.4649 12.9637 62.189 12.9001 61.8603 12.9001H59.7758V15.8597ZM61.6534 11.0067H59.7758V8.50867H61.6534C62.067 8.50867 62.4012 8.61475 62.6558 8.82698C62.9102 9.0283 63.0376 9.33605 63.0376 9.74961C63.0376 10.1741 62.9102 10.4924 62.6558 10.7046C62.4012 10.9059 62.067 11.0067 61.6534 11.0067Z" fill="black" fill-opacity="0.8"/>
<path fill-rule="evenodd" clip-rule="evenodd" d="M59.5474 17.801C59.5304 17.801 59.5137 17.7996 59.4972 17.7973C59.4806 17.7997 59.4638 17.8009 59.4471 17.801H57.6382C57.551 17.801 57.4674 17.7664 57.4058 17.7047C57.3442 17.6431 57.3095 17.5595 57.3095 17.4723V6.8958C57.3095 6.71461 57.4565 6.56738 57.6382 6.56738H59.4471C59.4641 6.56738 59.4811 6.56871 59.4972 6.5711C59.5138 6.5686 59.5306 6.56736 59.5474 6.56738H62.1306C62.8519 6.56738 63.462 6.70002 63.9605 6.96526C64.4698 7.23056 64.8569 7.58577 65.1221 8.03114C65.3871 8.47685 65.5198 8.97022 65.5198 9.51111C65.5198 10.2006 65.2972 10.7839 64.8516 11.2611C64.6598 11.467 64.4284 11.645 64.1576 11.7954C64.5372 11.9817 64.8587 12.2172 65.1221 12.5024C65.6418 13.0541 65.9017 13.733 65.9017 14.5392C65.9017 15.1543 65.7479 15.7111 65.4402 16.2099C65.1433 16.6977 64.7083 17.085 64.1355 17.3713C63.5735 17.6577 62.8943 17.801 62.0988 17.801H59.5474ZM59.7758 15.8597H61.8603C62.3482 15.8597 62.7301 15.7164 63.0058 15.4302C63.2816 15.1437 63.4196 14.7936 63.4196 14.38C63.4196 14.0935 63.3559 13.8391 63.2286 13.6163C63.1013 13.3934 62.9209 13.2184 62.6877 13.091C62.4649 12.9637 62.189 12.9001 61.8603 12.9001H59.7758V15.8597ZM61.6534 11.0067H59.7758V8.50867H61.6534C62.067 8.50867 62.4012 8.61475 62.6558 8.82698C62.9102 9.0283 63.0376 9.33605 63.0376 9.74961C63.0376 10.1741 62.9102 10.4924 62.6558 10.7046C62.4012 10.9059 62.067 11.0067 61.6534 11.0067Z" fill="#BCBFDB"/>
<path fill-rule="evenodd" clip-rule="evenodd" d="M59.5474 17.801C59.5304 17.801 59.5137 17.7996 59.4972 17.7973C59.4806 17.7997 59.4638 17.8009 59.4471 17.801H57.6382C57.551 17.801 57.4674 17.7664 57.4058 17.7047C57.3442 17.6431 57.3095 17.5595 57.3095 17.4723V6.8958C57.3095 6.71461 57.4565 6.56738 57.6382 6.56738H59.4471C59.4641 6.56738 59.4811 6.56871 59.4972 6.5711C59.5138 6.5686 59.5306 6.56736 59.5474 6.56738H62.1306C62.8519 6.56738 63.462 6.70002 63.9605 6.96526C64.4698 7.23056 64.8569 7.58577 65.1221 8.03114C65.3871 8.47685 65.5198 8.97022 65.5198 9.51111C65.5198 10.2006 65.2972 10.7839 64.8516 11.2611C64.6598 11.467 64.4284 11.645 64.1576 11.7954C64.5372 11.9817 64.8587 12.2172 65.1221 12.5024C65.6418 13.0541 65.9017 13.733 65.9017 14.5392C65.9017 15.1543 65.7479 15.7111 65.4402 16.2099C65.1433 16.6977 64.7083 17.085 64.1355 17.3713C63.5735 17.6577 62.8943 17.801 62.0988 17.801H59.5474ZM59.7758 15.8597H61.8603C62.3482 15.8597 62.7301 15.7164 63.0058 15.4302C63.2816 15.1437 63.4196 14.7936 63.4196 14.38C63.4196 14.0935 63.3559 13.8391 63.2286 13.6163C63.1013 13.3934 62.9209 13.2184 62.6877 13.091C62.4649 12.9637 62.189 12.9001 61.8603 12.9001H59.7758V15.8597ZM61.6534 11.0067H59.7758V8.50867H61.6534C62.067 8.50867 62.4012 8.61475 62.6558 8.82698C62.9102 9.0283 63.0376 9.33605 63.0376 9.74961C63.0376 10.1741 62.9102 10.4924 62.6558 10.7046C62.4012 10.9059 62.067 11.0067 61.6534 11.0067Z" fill="black" fill-opacity="0.8"/>
<path d="M66.707 17.4725C66.7071 17.5597 66.7418 17.6432 66.8034 17.7048C66.865 17.7665 66.9486 17.8011 67.0358 17.8012H68.8766C68.8882 17.8012 68.8999 17.8006 68.9109 17.7993C68.9218 17.8006 68.9335 17.8012 68.9451 17.8012H74.4459C74.6277 17.8012 74.7744 17.654 74.7744 17.4725V15.9657C74.7744 15.7843 74.6277 15.6371 74.4459 15.6371H69.2057V13.1071H73.8891C73.9762 13.1071 74.0599 13.0724 74.1209 13.0108C74.1826 12.9492 74.2176 12.8656 74.2176 12.7785V11.3513C74.2176 11.2642 74.1826 11.1807 74.1209 11.1192C74.0592 11.0576 73.9762 11.023 73.8891 11.0229H69.2057V8.71554H74.3664C74.5481 8.71554 74.6948 8.56859 74.6948 8.38687V6.89627C74.6948 6.71509 74.5481 6.56787 74.3664 6.56787H68.9451C68.9335 6.56787 68.9218 6.5684 68.9109 6.56972C68.8999 6.56852 68.8882 6.56791 68.8766 6.56787H67.0358C66.9486 6.56794 66.865 6.60259 66.8034 6.66421C66.7418 6.72584 66.7071 6.80939 66.707 6.89654V17.4725Z" fill="#BCBFDB"/>
<path d="M66.707 17.4725C66.7071 17.5597 66.7418 17.6432 66.8034 17.7048C66.865 17.7665 66.9486 17.8011 67.0358 17.8012H68.8766C68.8882 17.8012 68.8999 17.8006 68.9109 17.7993C68.9218 17.8006 68.9335 17.8012 68.9451 17.8012H74.4459C74.6277 17.8012 74.7744 17.654 74.7744 17.4725V15.9657C74.7744 15.7843 74.6277 15.6371 74.4459 15.6371H69.2057V13.1071H73.8891C73.9762 13.1071 74.0599 13.0724 74.1209 13.0108C74.1826 12.9492 74.2176 12.8656 74.2176 12.7785V11.3513C74.2176 11.2642 74.1826 11.1807 74.1209 11.1192C74.0592 11.0576 73.9762 11.023 73.8891 11.0229H69.2057V8.71554H74.3664C74.5481 8.71554 74.6948 8.56859 74.6948 8.38687V6.89627C74.6948 6.71509 74.5481 6.56787 74.3664 6.56787H68.9451C68.9335 6.56787 68.9218 6.5684 68.9109 6.56972C68.8999 6.56852 68.8882 6.56791 68.8766 6.56787H67.0358C66.9486 6.56794 66.865 6.60259 66.8034 6.66421C66.7418 6.72584 66.7071 6.80939 66.707 6.89654V17.4725Z" fill="black" fill-opacity="0.8"/>
<path d="M66.707 17.4725C66.7071 17.5597 66.7418 17.6432 66.8034 17.7048C66.865 17.7665 66.9486 17.8011 67.0358 17.8012H68.8766C68.8882 17.8012 68.8999 17.8006 68.9109 17.7993C68.9218 17.8006 68.9335 17.8012 68.9451 17.8012H74.4459C74.6277 17.8012 74.7744 17.654 74.7744 17.4725V15.9657C74.7744 15.7843 74.6277 15.6371 74.4459 15.6371H69.2057V13.1071H73.8891C73.9762 13.1071 74.0599 13.0724 74.1209 13.0108C74.1826 12.9492 74.2176 12.8656 74.2176 12.7785V11.3513C74.2176 11.2642 74.1826 11.1807 74.1209 11.1192C74.0592 11.0576 73.9762 11.023 73.8891 11.0229H69.2057V8.71554H74.3664C74.5481 8.71554 74.6948 8.56859 74.6948 8.38687V6.89627C74.6948 6.71509 74.5481 6.56787 74.3664 6.56787H68.9451C68.9335 6.56787 68.9218 6.5684 68.9109 6.56972C68.8999 6.56852 68.8882 6.56791 68.8766 6.56787H67.0358C66.9486 6.56794 66.865 6.60259 66.8034 6.66421C66.7418 6.72584 66.7071 6.80939 66.707 6.89654V17.4725Z" fill="#BCBFDB"/>
<path d="M66.707 17.4725C66.7071 17.5597 66.7418 17.6432 66.8034 17.7048C66.865 17.7665 66.9486 17.8011 67.0358 17.8012H68.8766C68.8882 17.8012 68.8999 17.8006 68.9109 17.7993C68.9218 17.8006 68.9335 17.8012 68.9451 17.8012H74.4459C74.6277 17.8012 74.7744 17.654 74.7744 17.4725V15.9657C74.7744 15.7843 74.6277 15.6371 74.4459 15.6371H69.2057V13.1071H73.8891C73.9762 13.1071 74.0599 13.0724 74.1209 13.0108C74.1826 12.9492 74.2176 12.8656 74.2176 12.7785V11.3513C74.2176 11.2642 74.1826 11.1807 74.1209 11.1192C74.0592 11.0576 73.9762 11.023 73.8891 11.0229H69.2057V8.71554H74.3664C74.5481 8.71554 74.6948 8.56859 74.6948 8.38687V6.89627C74.6948 6.71509 74.5481 6.56787 74.3664 6.56787H68.9451C68.9335 6.56787 68.9218 6.5684 68.9109 6.56972C68.8999 6.56852 68.8882 6.56791 68.8766 6.56787H67.0358C66.9486 6.56794 66.865 6.60259 66.8034 6.66421C66.7418 6.72584 66.7071 6.80939 66.707 6.89654V17.4725Z" fill="black" fill-opacity="0.8"/>
<path fill-rule="evenodd" clip-rule="evenodd" d="M78.1989 17.4726V13.1709H78.5273C78.5294 13.2324 78.5493 13.2945 78.5897 13.3496L81.7125 17.6651C81.7742 17.7506 81.8736 17.8012 81.9792 17.8012H84.1063C84.3778 17.8012 84.5328 17.4893 84.3675 17.2731L81.1721 13.09C81.5541 13.0221 81.9051 12.9111 82.2247 12.7573C82.7979 12.4814 83.243 12.0995 83.5611 11.6116C83.88 11.1128 84.0391 10.5349 84.0391 9.87719C84.0391 9.22994 83.88 8.65723 83.5611 8.15879C83.243 7.66007 82.8027 7.27298 82.2411 6.99712C81.6782 6.71064 81.0261 6.56738 80.2834 6.56738H77.939C77.9273 6.56738 77.9163 6.56818 77.9047 6.56924C77.8937 6.56812 77.8821 6.56759 77.8704 6.56765H76.0299C75.9429 6.56772 75.8592 6.60237 75.7975 6.66399C75.7358 6.72562 75.7008 6.80918 75.7008 6.89632V17.4726C75.7008 17.5597 75.7358 17.6432 75.7975 17.7049C75.8592 17.7665 75.9429 17.8012 76.0299 17.8012H77.8704C78.0521 17.8012 78.1989 17.654 78.1989 17.4726ZM79.981 11.3251H78.1989V8.50919H79.9968C80.496 8.50919 80.8773 8.64181 81.1426 8.90711C81.408 9.17214 81.5403 9.50635 81.5403 9.90935C81.5403 10.3444 81.4025 10.6892 81.1269 10.9436C80.8615 11.1983 80.4802 11.3251 79.981 11.3251Z" fill="#BCBFDB"/>
<path fill-rule="evenodd" clip-rule="evenodd" d="M78.1989 17.4726V13.1709H78.5273C78.5294 13.2324 78.5493 13.2945 78.5897 13.3496L81.7125 17.6651C81.7742 17.7506 81.8736 17.8012 81.9792 17.8012H84.1063C84.3778 17.8012 84.5328 17.4893 84.3675 17.2731L81.1721 13.09C81.5541 13.0221 81.9051 12.9111 82.2247 12.7573C82.7979 12.4814 83.243 12.0995 83.5611 11.6116C83.88 11.1128 84.0391 10.5349 84.0391 9.87719C84.0391 9.22994 83.88 8.65723 83.5611 8.15879C83.243 7.66007 82.8027 7.27298 82.2411 6.99712C81.6782 6.71064 81.0261 6.56738 80.2834 6.56738H77.939C77.9273 6.56738 77.9163 6.56818 77.9047 6.56924C77.8937 6.56812 77.8821 6.56759 77.8704 6.56765H76.0299C75.9429 6.56772 75.8592 6.60237 75.7975 6.66399C75.7358 6.72562 75.7008 6.80918 75.7008 6.89632V17.4726C75.7008 17.5597 75.7358 17.6432 75.7975 17.7049C75.8592 17.7665 75.9429 17.8012 76.0299 17.8012H77.8704C78.0521 17.8012 78.1989 17.654 78.1989 17.4726ZM79.981 11.3251H78.1989V8.50919H79.9968C80.496 8.50919 80.8773 8.64181 81.1426 8.90711C81.408 9.17214 81.5403 9.50635 81.5403 9.90935C81.5403 10.3444 81.4025 10.6892 81.1269 10.9436C80.8615 11.1983 80.4802 11.3251 79.981 11.3251Z" fill="black" fill-opacity="0.8"/>
<path fill-rule="evenodd" clip-rule="evenodd" d="M78.1989 17.4726V13.1709H78.5273C78.5294 13.2324 78.5493 13.2945 78.5897 13.3496L81.7125 17.6651C81.7742 17.7506 81.8736 17.8012 81.9792 17.8012H84.1063C84.3778 17.8012 84.5328 17.4893 84.3675 17.2731L81.1721 13.09C81.5541 13.0221 81.9051 12.9111 82.2247 12.7573C82.7979 12.4814 83.243 12.0995 83.5611 11.6116C83.88 11.1128 84.0391 10.5349 84.0391 9.87719C84.0391 9.22994 83.88 8.65723 83.5611 8.15879C83.243 7.66007 82.8027 7.27298 82.2411 6.99712C81.6782 6.71064 81.0261 6.56738 80.2834 6.56738H77.939C77.9273 6.56738 77.9163 6.56818 77.9047 6.56924C77.8937 6.56812 77.8821 6.56759 77.8704 6.56765H76.0299C75.9429 6.56772 75.8592 6.60237 75.7975 6.66399C75.7358 6.72562 75.7008 6.80918 75.7008 6.89632V17.4726C75.7008 17.5597 75.7358 17.6432 75.7975 17.7049C75.8592 17.7665 75.9429 17.8012 76.0299 17.8012H77.8704C78.0521 17.8012 78.1989 17.654 78.1989 17.4726ZM79.981 11.3251H78.1989V8.50919H79.9968C80.496 8.50919 80.8773 8.64181 81.1426 8.90711C81.408 9.17214 81.5403 9.50635 81.5403 9.90935C81.5403 10.3444 81.4025 10.6892 81.1269 10.9436C80.8615 11.1983 80.4802 11.3251 79.981 11.3251Z" fill="#BCBFDB"/>
<path fill-rule="evenodd" clip-rule="evenodd" d="M78.1989 17.4726V13.1709H78.5273C78.5294 13.2324 78.5493 13.2945 78.5897 13.3496L81.7125 17.6651C81.7742 17.7506 81.8736 17.8012 81.9792 17.8012H84.1063C84.3778 17.8012 84.5328 17.4893 84.3675 17.2731L81.1721 13.09C81.5541 13.0221 81.9051 12.9111 82.2247 12.7573C82.7979 12.4814 83.243 12.0995 83.5611 11.6116C83.88 11.1128 84.0391 10.5349 84.0391 9.87719C84.0391 9.22994 83.88 8.65723 83.5611 8.15879C83.243 7.66007 82.8027 7.27298 82.2411 6.99712C81.6782 6.71064 81.0261 6.56738 80.2834 6.56738H77.939C77.9273 6.56738 77.9163 6.56818 77.9047 6.56924C77.8937 6.56812 77.8821 6.56759 77.8704 6.56765H76.0299C75.9429 6.56772 75.8592 6.60237 75.7975 6.66399C75.7358 6.72562 75.7008 6.80918 75.7008 6.89632V17.4726C75.7008 17.5597 75.7358 17.6432 75.7975 17.7049C75.8592 17.7665 75.9429 17.8012 76.0299 17.8012H77.8704C78.0521 17.8012 78.1989 17.654 78.1989 17.4726ZM79.981 11.3251H78.1989V8.50919H79.9968C80.496 8.50919 80.8773 8.64181 81.1426 8.90711C81.408 9.17214 81.5403 9.50635 81.5403 9.90935C81.5403 10.3444 81.4025 10.6892 81.1269 10.9436C80.8615 11.1983 80.4802 11.3251 79.981 11.3251Z" fill="black" fill-opacity="0.8"/>
<path d="M88.0128 17.5495C88.7342 17.8467 89.5029 17.9952 90.3195 17.9952C91.4338 17.9952 92.4151 17.7618 93.2633 17.2951C94.1225 16.8282 94.7911 16.1388 95.2683 15.2265C95.7559 14.3036 96 13.1685 96 11.8215V11.7843C96 11.6026 95.8533 11.4554 95.6715 11.4554H90.4258C90.3381 11.4555 90.2544 11.4902 90.1934 11.5518C90.1317 11.6135 90.0967 11.6971 90.0967 11.7843V13.2481C90.0967 13.3343 90.131 13.4171 90.1913 13.4786C90.2517 13.54 90.3339 13.5753 90.4203 13.5768L93.3243 13.6229C93.2626 13.8566 93.1783 14.0731 93.0727 14.2718C92.8286 14.7387 92.4727 15.0992 92.0064 15.3539C91.5497 15.5979 90.9929 15.7196 90.3353 15.7196C89.6887 15.7196 89.1154 15.5714 88.6169 15.2743C88.1184 14.9771 87.7262 14.5636 87.4395 14.0331C87.1536 13.5028 87.0103 12.8876 87.0103 12.1873C87.0103 11.4872 87.1536 10.8773 87.4395 10.3577C87.7365 9.82709 88.1451 9.41861 88.6649 9.13212C89.1847 8.83528 89.7737 8.68696 90.4313 8.68696C91.0464 8.68696 91.5977 8.80366 92.086 9.03715C92.4693 9.22017 92.8128 9.47512 93.1173 9.8022C93.2523 9.9473 93.4827 9.96293 93.6226 9.82291L94.8473 8.59809C94.968 8.4774 94.9776 8.28321 94.8597 8.15964C94.3749 7.65029 93.7845 7.24284 93.0885 6.93667C92.3033 6.58653 91.4283 6.41145 90.4629 6.41145C89.6249 6.41145 88.8398 6.56 88.1081 6.85713C87.3758 7.14362 86.7339 7.55189 86.1826 8.08216C85.6416 8.602 85.2089 9.22394 84.91 9.91198C84.6021 10.6124 84.4485 11.3705 84.4485 12.1873C84.4485 13.0043 84.5966 13.768 84.8935 14.4787C85.1938 15.1672 85.6197 15.7934 86.1511 16.3245C86.6811 16.8441 87.3017 17.2527 88.0128 17.5495ZM1.40728 2.58513C1.63487e-07 4.37467 0 6.994 0 12.2332C0 17.4721 1.63487e-07 20.0914 1.40728 21.8812C1.73029 22.2919 2.10111 22.6626 2.51189 22.9855C2.66856 23.1088 2.83282 23.2221 3.0037 23.3248L9.93161 8.02963C10.0768 7.7092 10.3378 7.45541 10.6621 7.31916C10.9865 7.18291 11.3504 7.1742 11.6809 7.29482L16.0834 8.90186C16.2885 8.97667 16.4731 9.09866 16.6225 9.25788C16.7719 9.4171 16.8817 9.60917 16.9434 9.81866L20.9752 23.5113C21.2699 23.3649 21.5487 23.1888 21.8074 22.9855C22.2182 22.6626 22.5891 22.2919 22.912 21.8812C24.3193 20.0914 24.3193 17.4721 24.3193 12.2332C24.3193 6.994 24.3193 4.37467 22.912 2.58513C22.589 2.17444 22.2182 1.80371 21.8074 1.48079C20.0179 0.0732415 17.3983 0.0732422 12.1594 0.0732422C6.92078 0.0732422 4.30116 0.0732415 2.51135 1.48079C2.10069 1.80374 1.73024 2.17447 1.40728 2.58513Z" fill="#BCBFDB"/>
<path d="M88.0128 17.5495C88.7342 17.8467 89.5029 17.9952 90.3195 17.9952C91.4338 17.9952 92.4151 17.7618 93.2633 17.2951C94.1225 16.8282 94.7911 16.1388 95.2683 15.2265C95.7559 14.3036 96 13.1685 96 11.8215V11.7843C96 11.6026 95.8533 11.4554 95.6715 11.4554H90.4258C90.3381 11.4555 90.2544 11.4902 90.1934 11.5518C90.1317 11.6135 90.0967 11.6971 90.0967 11.7843V13.2481C90.0967 13.3343 90.131 13.4171 90.1913 13.4786C90.2517 13.54 90.3339 13.5753 90.4203 13.5768L93.3243 13.6229C93.2626 13.8566 93.1783 14.0731 93.0727 14.2718C92.8286 14.7387 92.4727 15.0992 92.0064 15.3539C91.5497 15.5979 90.9929 15.7196 90.3353 15.7196C89.6887 15.7196 89.1154 15.5714 88.6169 15.2743C88.1184 14.9771 87.7262 14.5636 87.4395 14.0331C87.1536 13.5028 87.0103 12.8876 87.0103 12.1873C87.0103 11.4872 87.1536 10.8773 87.4395 10.3577C87.7365 9.82709 88.1451 9.41861 88.6649 9.13212C89.1847 8.83528 89.7737 8.68696 90.4313 8.68696C91.0464 8.68696 91.5977 8.80366 92.086 9.03715C92.4693 9.22017 92.8128 9.47512 93.1173 9.8022C93.2523 9.9473 93.4827 9.96293 93.6226 9.82291L94.8473 8.59809C94.968 8.4774 94.9776 8.28321 94.8597 8.15964C94.3749 7.65029 93.7845 7.24284 93.0885 6.93667C92.3033 6.58653 91.4283 6.41145 90.4629 6.41145C89.6249 6.41145 88.8398 6.56 88.1081 6.85713C87.3758 7.14362 86.7339 7.55189 86.1826 8.08216C85.6416 8.602 85.2089 9.22394 84.91 9.91198C84.6021 10.6124 84.4485 11.3705 84.4485 12.1873C84.4485 13.0043 84.5966 13.768 84.8935 14.4787C85.1938 15.1672 85.6197 15.7934 86.1511 16.3245C86.6811 16.8441 87.3017 17.2527 88.0128 17.5495ZM1.40728 2.58513C1.63487e-07 4.37467 0 6.994 0 12.2332C0 17.4721 1.63487e-07 20.0914 1.40728 21.8812C1.73029 22.2919 2.10111 22.6626 2.51189 22.9855C2.66856 23.1088 2.83282 23.2221 3.0037 23.3248L9.93161 8.02963C10.0768 7.7092 10.3378 7.45541 10.6621 7.31916C10.9865 7.18291 11.3504 7.1742 11.6809 7.29482L16.0834 8.90186C16.2885 8.97667 16.4731 9.09866 16.6225 9.25788C16.7719 9.4171 16.8817 9.60917 16.9434 9.81866L20.9752 23.5113C21.2699 23.3649 21.5487 23.1888 21.8074 22.9855C22.2182 22.6626 22.5891 22.2919 22.912 21.8812C24.3193 20.0914 24.3193 17.4721 24.3193 12.2332C24.3193 6.994 24.3193 4.37467 22.912 2.58513C22.589 2.17444 22.2182 1.80371 21.8074 1.48079C20.0179 0.0732415 17.3983 0.0732422 12.1594 0.0732422C6.92078 0.0732422 4.30116 0.0732415 2.51135 1.48079C2.10069 1.80374 1.73024 2.17447 1.40728 2.58513Z" fill="black" fill-opacity="0.8"/>
<path d="M88.0128 17.5495C88.7342 17.8467 89.5029 17.9952 90.3195 17.9952C91.4338 17.9952 92.4151 17.7618 93.2633 17.2951C94.1225 16.8282 94.7911 16.1388 95.2683 15.2265C95.7559 14.3036 96 13.1685 96 11.8215V11.7843C96 11.6026 95.8533 11.4554 95.6715 11.4554H90.4258C90.3381 11.4555 90.2544 11.4902 90.1934 11.5518C90.1317 11.6135 90.0967 11.6971 90.0967 11.7843V13.2481C90.0967 13.3343 90.131 13.4171 90.1913 13.4786C90.2517 13.54 90.3339 13.5753 90.4203 13.5768L93.3243 13.6229C93.2626 13.8566 93.1783 14.0731 93.0727 14.2718C92.8286 14.7387 92.4727 15.0992 92.0064 15.3539C91.5497 15.5979 90.9929 15.7196 90.3353 15.7196C89.6887 15.7196 89.1154 15.5714 88.6169 15.2743C88.1184 14.9771 87.7262 14.5636 87.4395 14.0331C87.1536 13.5028 87.0103 12.8876 87.0103 12.1873C87.0103 11.4872 87.1536 10.8773 87.4395 10.3577C87.7365 9.82709 88.1451 9.41861 88.6649 9.13212C89.1847 8.83528 89.7737 8.68696 90.4313 8.68696C91.0464 8.68696 91.5977 8.80366 92.086 9.03715C92.4693 9.22017 92.8128 9.47512 93.1173 9.8022C93.2523 9.9473 93.4827 9.96293 93.6226 9.82291L94.8473 8.59809C94.968 8.4774 94.9776 8.28321 94.8597 8.15964C94.3749 7.65029 93.7845 7.24284 93.0885 6.93667C92.3033 6.58653 91.4283 6.41145 90.4629 6.41145C89.6249 6.41145 88.8398 6.56 88.1081 6.85713C87.3758 7.14362 86.7339 7.55189 86.1826 8.08216C85.6416 8.602 85.2089 9.22394 84.91 9.91198C84.6021 10.6124 84.4485 11.3705 84.4485 12.1873C84.4485 13.0043 84.5966 13.768 84.8935 14.4787C85.1938 15.1672 85.6197 15.7934 86.1511 16.3245C86.6811 16.8441 87.3017 17.2527 88.0128 17.5495ZM1.40728 2.58513C1.63487e-07 4.37467 0 6.994 0 12.2332C0 17.4721 1.63487e-07 20.0914 1.40728 21.8812C1.73029 22.2919 2.10111 22.6626 2.51189 22.9855C2.66856 23.1088 2.83282 23.2221 3.0037 23.3248L9.93161 8.02963C10.0768 7.7092 10.3378 7.45541 10.6621 7.31916C10.9865 7.18291 11.3504 7.1742 11.6809 7.29482L16.0834 8.90186C16.2885 8.97667 16.4731 9.09866 16.6225 9.25788C16.7719 9.4171 16.8817 9.60917 16.9434 9.81866L20.9752 23.5113C21.2699 23.3649 21.5487 23.1888 21.8074 22.9855C22.2182 22.6626 22.5891 22.2919 22.912 21.8812C24.3193 20.0914 24.3193 17.4721 24.3193 12.2332C24.3193 6.994 24.3193 4.37467 22.912 2.58513C22.589 2.17444 22.2182 1.80371 21.8074 1.48079C20.0179 0.0732415 17.3983 0.0732422 12.1594 0.0732422C6.92078 0.0732422 4.30116 0.0732415 2.51135 1.48079C2.10069 1.80374 1.73024 2.17447 1.40728 2.58513Z" fill="#BCBFDB"/>
<path d="M88.0128 17.5495C88.7342 17.8467 89.5029 17.9952 90.3195 17.9952C91.4338 17.9952 92.4151 17.7618 93.2633 17.2951C94.1225 16.8282 94.7911 16.1388 95.2683 15.2265C95.7559 14.3036 96 13.1685 96 11.8215V11.7843C96 11.6026 95.8533 11.4554 95.6715 11.4554H90.4258C90.3381 11.4555 90.2544 11.4902 90.1934 11.5518C90.1317 11.6135 90.0967 11.6971 90.0967 11.7843V13.2481C90.0967 13.3343 90.131 13.4171 90.1913 13.4786C90.2517 13.54 90.3339 13.5753 90.4203 13.5768L93.3243 13.6229C93.2626 13.8566 93.1783 14.0731 93.0727 14.2718C92.8286 14.7387 92.4727 15.0992 92.0064 15.3539C91.5497 15.5979 90.9929 15.7196 90.3353 15.7196C89.6887 15.7196 89.1154 15.5714 88.6169 15.2743C88.1184 14.9771 87.7262 14.5636 87.4395 14.0331C87.1536 13.5028 87.0103 12.8876 87.0103 12.1873C87.0103 11.4872 87.1536 10.8773 87.4395 10.3577C87.7365 9.82709 88.1451 9.41861 88.6649 9.13212C89.1847 8.83528 89.7737 8.68696 90.4313 8.68696C91.0464 8.68696 91.5977 8.80366 92.086 9.03715C92.4693 9.22017 92.8128 9.47512 93.1173 9.8022C93.2523 9.9473 93.4827 9.96293 93.6226 9.82291L94.8473 8.59809C94.968 8.4774 94.9776 8.28321 94.8597 8.15964C94.3749 7.65029 93.7845 7.24284 93.0885 6.93667C92.3033 6.58653 91.4283 6.41145 90.4629 6.41145C89.6249 6.41145 88.8398 6.56 88.1081 6.85713C87.3758 7.14362 86.7339 7.55189 86.1826 8.08216C85.6416 8.602 85.2089 9.22394 84.91 9.91198C84.6021 10.6124 84.4485 11.3705 84.4485 12.1873C84.4485 13.0043 84.5966 13.768 84.8935 14.4787C85.1938 15.1672 85.6197 15.7934 86.1511 16.3245C86.6811 16.8441 87.3017 17.2527 88.0128 17.5495ZM1.40728 2.58513C1.63487e-07 4.37467 0 6.994 0 12.2332C0 17.4721 1.63487e-07 20.0914 1.40728 21.8812C1.73029 22.2919 2.10111 22.6626 2.51189 22.9855C2.66856 23.1088 2.83282 23.2221 3.0037 23.3248L9.93161 8.02963C10.0768 7.7092 10.3378 7.45541 10.6621 7.31916C10.9865 7.18291 11.3504 7.1742 11.6809 7.29482L16.0834 8.90186C16.2885 8.97667 16.4731 9.09866 16.6225 9.25788C16.7719 9.4171 16.8817 9.60917 16.9434 9.81866L20.9752 23.5113C21.2699 23.3649 21.5487 23.1888 21.8074 22.9855C22.2182 22.6626 22.5891 22.2919 22.912 21.8812C24.3193 20.0914 24.3193 17.4721 24.3193 12.2332C24.3193 6.994 24.3193 4.37467 22.912 2.58513C22.589 2.17444 22.2182 1.80371 21.8074 1.48079C20.0179 0.0732415 17.3983 0.0732422 12.1594 0.0732422C6.92078 0.0732422 4.30116 0.0732415 2.51135 1.48079C2.10069 1.80374 1.73024 2.17447 1.40728 2.58513Z" fill="black" fill-opacity="0.8"/>
<path d="M1.40728 2.58513C1.63487e-07 4.37467 0 6.994 0 12.2332C0 17.4721 1.63487e-07 20.0914 1.40728 21.8812C1.73029 22.2919 2.10111 22.6626 2.51189 22.9855C2.66856 23.1088 2.83282 23.2221 3.0037 23.3248L9.93161 8.02963C10.0768 7.7092 10.3378 7.45541 10.6621 7.31916C10.9865 7.18291 11.3504 7.1742 11.6809 7.29482L16.0834 8.90186C16.2885 8.97667 16.4731 9.09866 16.6225 9.25788C16.7719 9.4171 16.8817 9.60917 16.9434 9.81866L20.9752 23.5113C21.2699 23.3649 21.5487 23.1888 21.8074 22.9855C22.2182 22.6626 22.5891 22.2919 22.912 21.8812C24.3193 20.0914 24.3193 17.4721 24.3193 12.2332C24.3193 6.994 24.3193 4.37467 22.912 2.58513C22.589 2.17444 22.2182 1.80371 21.8074 1.48079C20.0179 0.0732415 17.3983 0.0732422 12.1594 0.0732422C6.92078 0.0732422 4.30116 0.0732415 2.51135 1.48079C2.10069 1.80374 1.73024 2.17447 1.40728 2.58513Z" fill="#BCBFDB"/>
<path d="M1.40728 2.58513C1.63487e-07 4.37467 0 6.994 0 12.2332C0 17.4721 1.63487e-07 20.0914 1.40728 21.8812C1.73029 22.2919 2.10111 22.6626 2.51189 22.9855C2.66856 23.1088 2.83282 23.2221 3.0037 23.3248L9.93161 8.02963C10.0768 7.7092 10.3378 7.45541 10.6621 7.31916C10.9865 7.18291 11.3504 7.1742 11.6809 7.29482L16.0834 8.90186C16.2885 8.97667 16.4731 9.09866 16.6225 9.25788C16.7719 9.4171 16.8817 9.60917 16.9434 9.81866L20.9752 23.5113C21.2699 23.3649 21.5487 23.1888 21.8074 22.9855C22.2182 22.6626 22.5891 22.2919 22.912 21.8812C24.3193 20.0914 24.3193 17.4721 24.3193 12.2332C24.3193 6.994 24.3193 4.37467 22.912 2.58513C22.589 2.17444 22.2182 1.80371 21.8074 1.48079C20.0179 0.0732415 17.3983 0.0732422 12.1594 0.0732422C6.92078 0.0732422 4.30116 0.0732415 2.51135 1.48079C2.10069 1.80374 1.73024 2.17447 1.40728 2.58513Z" fill="black" fill-opacity="0.8"/>
</g>
<defs>
<clipPath id="clip0_1850_1895">
<rect width="96" height="24" fill="white"/>
</clipPath>
</defs>
</svg>
