<svg width="94" height="24" viewBox="0 0 94 24" fill="none" xmlns="http://www.w3.org/2000/svg">
<g clip-path="url(#clip0_1850_10)">
<path fill-rule="evenodd" clip-rule="evenodd" d="M23.322 11.2318C23.7791 13.4118 23.5675 15.4394 22.8289 17.1302L22.8681 17.1294C22.2351 18.8623 20.1291 22.4876 15.1709 23.5272C14.9841 23.5664 14.7956 23.598 14.6061 23.6216C14.1331 23.6912 13.6422 23.7272 13.1359 23.7272C7.2638 23.7272 1.49056 18.8937 0.240388 12.931C-0.354862 10.091 0.183376 7.50709 1.54491 5.57957C2.17761 4.36201 5.49569 1.40943 8.1736 0.835686C8.24607 0.820226 8.31567 0.807906 8.3828 0.798966C9.0906 0.62672 9.84533 0.535645 10.6401 0.535645C16.4056 0.535645 22.0837 5.32446 23.322 11.2318ZM21.3036 10.7317C22.2757 15.3696 19.393 19.1288 14.8646 19.1288C10.3365 19.1288 5.87739 15.3696 4.90503 10.732C3.93292 6.09437 6.81593 2.33493 11.3441 2.33493C15.8722 2.33493 20.3313 6.09413 21.3036 10.7317ZM14.5885 16.5298C17.9401 16.5298 20.0878 13.8136 19.3853 10.4626C18.683 7.11189 15.3963 4.39559 12.0447 4.39559C8.693 4.39559 6.54535 7.11189 7.2476 10.4626C7.95013 13.8136 11.2368 16.5298 14.5885 16.5298ZM17.5741 10.2111C18.0148 12.3134 16.631 14.0172 14.4831 14.0172C12.3355 14.0172 10.2371 12.3134 9.79653 10.2111C9.35587 8.10936 10.7397 6.40504 12.8875 6.40504C15.0351 6.40504 17.1335 8.10916 17.5741 10.2111ZM15.6048 10.2111C15.8222 11.2487 15.1393 12.0896 14.0792 12.0896C13.0192 12.0896 11.9838 11.2487 11.7661 10.2114C11.5487 9.17376 12.2316 8.33283 13.2917 8.33283C14.3517 8.33283 15.3874 9.17356 15.6048 10.2111Z" fill="#BCBFDB"/>
<path fill-rule="evenodd" clip-rule="evenodd" d="M23.322 11.2318C23.7791 13.4118 23.5675 15.4394 22.8289 17.1302L22.8681 17.1294C22.2351 18.8623 20.1291 22.4876 15.1709 23.5272C14.9841 23.5664 14.7956 23.598 14.6061 23.6216C14.1331 23.6912 13.6422 23.7272 13.1359 23.7272C7.2638 23.7272 1.49056 18.8937 0.240388 12.931C-0.354862 10.091 0.183376 7.50709 1.54491 5.57957C2.17761 4.36201 5.49569 1.40943 8.1736 0.835686C8.24607 0.820226 8.31567 0.807906 8.3828 0.798966C9.0906 0.62672 9.84533 0.535645 10.6401 0.535645C16.4056 0.535645 22.0837 5.32446 23.322 11.2318ZM21.3036 10.7317C22.2757 15.3696 19.393 19.1288 14.8646 19.1288C10.3365 19.1288 5.87739 15.3696 4.90503 10.732C3.93292 6.09437 6.81593 2.33493 11.3441 2.33493C15.8722 2.33493 20.3313 6.09413 21.3036 10.7317ZM14.5885 16.5298C17.9401 16.5298 20.0878 13.8136 19.3853 10.4626C18.683 7.11189 15.3963 4.39559 12.0447 4.39559C8.693 4.39559 6.54535 7.11189 7.2476 10.4626C7.95013 13.8136 11.2368 16.5298 14.5885 16.5298ZM17.5741 10.2111C18.0148 12.3134 16.631 14.0172 14.4831 14.0172C12.3355 14.0172 10.2371 12.3134 9.79653 10.2111C9.35587 8.10936 10.7397 6.40504 12.8875 6.40504C15.0351 6.40504 17.1335 8.10916 17.5741 10.2111ZM15.6048 10.2111C15.8222 11.2487 15.1393 12.0896 14.0792 12.0896C13.0192 12.0896 11.9838 11.2487 11.7661 10.2114C11.5487 9.17376 12.2316 8.33283 13.2917 8.33283C14.3517 8.33283 15.3874 9.17356 15.6048 10.2111Z" fill="black" fill-opacity="0.8"/>
<path d="M38.8585 17.4463C38.8585 17.5104 38.8839 17.5719 38.9293 17.6172C38.9746 17.6625 39.036 17.6879 39.1001 17.6879H40.9366C41.0007 17.6879 41.0621 17.6625 41.1074 17.6172C41.1527 17.5719 41.1781 17.5104 41.1781 17.4463V8.62634H39.1001C39.036 8.62634 38.9746 8.65181 38.9293 8.69707C38.8839 8.74241 38.8585 8.80381 38.8585 8.86794V17.4463ZM38.9334 7.19134C39.1559 7.42494 39.4951 7.54167 39.9512 7.54167C40.4073 7.54167 40.7411 7.42494 40.9525 7.19134C41.1639 6.94661 41.2695 6.64611 41.2695 6.29027C41.2695 5.91195 41.1639 5.60611 40.9525 5.37227C40.7411 5.13866 40.4073 5.02197 39.9512 5.02197C39.4951 5.02197 39.1559 5.13866 38.9334 5.37227C38.722 5.60611 38.6162 5.91195 38.6162 6.29027C38.6162 6.64611 38.722 6.94661 38.9334 7.19134Z" fill="#BCBFDB"/>
<path d="M38.8585 17.4463C38.8585 17.5104 38.8839 17.5719 38.9293 17.6172C38.9746 17.6625 39.036 17.6879 39.1001 17.6879H40.9366C41.0007 17.6879 41.0621 17.6625 41.1074 17.6172C41.1527 17.5719 41.1781 17.5104 41.1781 17.4463V8.62634H39.1001C39.036 8.62634 38.9746 8.65181 38.9293 8.69707C38.8839 8.74241 38.8585 8.80381 38.8585 8.86794V17.4463ZM38.9334 7.19134C39.1559 7.42494 39.4951 7.54167 39.9512 7.54167C40.4073 7.54167 40.7411 7.42494 40.9525 7.19134C41.1639 6.94661 41.2695 6.64611 41.2695 6.29027C41.2695 5.91195 41.1639 5.60611 40.9525 5.37227C40.7411 5.13866 40.4073 5.02197 39.9512 5.02197C39.4951 5.02197 39.1559 5.13866 38.9334 5.37227C38.722 5.60611 38.6162 5.91195 38.6162 6.29027C38.6162 6.64611 38.722 6.94661 38.9334 7.19134Z" fill="black" fill-opacity="0.8"/>
<path d="M38.8585 17.4463C38.8585 17.5104 38.8839 17.5719 38.9293 17.6172C38.9746 17.6625 39.036 17.6879 39.1001 17.6879H40.9366C41.0007 17.6879 41.0621 17.6625 41.1074 17.6172C41.1527 17.5719 41.1781 17.5104 41.1781 17.4463V8.62634H39.1001C39.036 8.62634 38.9746 8.65181 38.9293 8.69707C38.8839 8.74241 38.8585 8.80381 38.8585 8.86794V17.4463ZM38.9334 7.19134C39.1559 7.42494 39.4951 7.54167 39.9512 7.54167C40.4073 7.54167 40.7411 7.42494 40.9525 7.19134C41.1639 6.94661 41.2695 6.64611 41.2695 6.29027C41.2695 5.91195 41.1639 5.60611 40.9525 5.37227C40.7411 5.13866 40.4073 5.02197 39.9512 5.02197C39.4951 5.02197 39.1559 5.13866 38.9334 5.37227C38.722 5.60611 38.6162 5.91195 38.6162 6.29027C38.6162 6.64611 38.722 6.94661 38.9334 7.19134Z" fill="#BCBFDB"/>
<path d="M38.8585 17.4463C38.8585 17.5104 38.8839 17.5719 38.9293 17.6172C38.9746 17.6625 39.036 17.6879 39.1001 17.6879H40.9366C41.0007 17.6879 41.0621 17.6625 41.1074 17.6172C41.1527 17.5719 41.1781 17.5104 41.1781 17.4463V8.62634H39.1001C39.036 8.62634 38.9746 8.65181 38.9293 8.69707C38.8839 8.74241 38.8585 8.80381 38.8585 8.86794V17.4463ZM38.9334 7.19134C39.1559 7.42494 39.4951 7.54167 39.9512 7.54167C40.4073 7.54167 40.7411 7.42494 40.9525 7.19134C41.1639 6.94661 41.2695 6.64611 41.2695 6.29027C41.2695 5.91195 41.1639 5.60611 40.9525 5.37227C40.7411 5.13866 40.4073 5.02197 39.9512 5.02197C39.4951 5.02197 39.1559 5.13866 38.9334 5.37227C38.722 5.60611 38.6162 5.91195 38.6162 6.29027C38.6162 6.64611 38.722 6.94661 38.9334 7.19134Z" fill="black" fill-opacity="0.8"/>
<path fill-rule="evenodd" clip-rule="evenodd" d="M35.2023 13.449C34.4901 13.7829 33.6224 13.9496 32.5991 13.9496H30.7633V17.4462C30.7633 17.5103 30.7379 17.5718 30.6926 17.617C30.6473 17.6624 30.5858 17.6878 30.5217 17.6878H28.6353C28.5712 17.6878 28.5097 17.6624 28.4645 17.617C28.4191 17.5718 28.3937 17.5103 28.3937 17.4462V5.66394C28.3937 5.59988 28.4191 5.53843 28.4645 5.49312C28.5097 5.44782 28.5712 5.42236 28.6353 5.42236H30.5217C30.5479 5.42236 30.5729 5.42648 30.5964 5.43396C30.6201 5.42648 30.6452 5.42236 30.6713 5.42236H32.5991C33.6224 5.42236 34.4901 5.58906 35.2023 5.92292C35.9254 6.25678 36.4762 6.7351 36.8543 7.3579C37.2325 7.97003 37.4217 8.69863 37.4217 9.54416V9.8111C37.4217 10.6566 37.2325 11.391 36.8543 12.0138C36.4762 12.6258 35.9254 13.1041 35.2023 13.449ZM34.0007 7.7587C33.6782 7.5695 33.2777 7.47483 32.7993 7.47483H30.7633V11.8972H32.7993C33.2777 11.8972 33.6782 11.8024 34.0007 11.6133C34.3346 11.4244 34.5849 11.1628 34.7518 10.8292C34.9299 10.4953 35.0187 10.1116 35.0187 9.67756C35.0187 9.24363 34.9299 8.86003 34.7518 8.52616C34.5849 8.19256 34.3346 7.9367 34.0007 7.7587Z" fill="#BCBFDB"/>
<path fill-rule="evenodd" clip-rule="evenodd" d="M35.2023 13.449C34.4901 13.7829 33.6224 13.9496 32.5991 13.9496H30.7633V17.4462C30.7633 17.5103 30.7379 17.5718 30.6926 17.617C30.6473 17.6624 30.5858 17.6878 30.5217 17.6878H28.6353C28.5712 17.6878 28.5097 17.6624 28.4645 17.617C28.4191 17.5718 28.3937 17.5103 28.3937 17.4462V5.66394C28.3937 5.59988 28.4191 5.53843 28.4645 5.49312C28.5097 5.44782 28.5712 5.42236 28.6353 5.42236H30.5217C30.5479 5.42236 30.5729 5.42648 30.5964 5.43396C30.6201 5.42648 30.6452 5.42236 30.6713 5.42236H32.5991C33.6224 5.42236 34.4901 5.58906 35.2023 5.92292C35.9254 6.25678 36.4762 6.7351 36.8543 7.3579C37.2325 7.97003 37.4217 8.69863 37.4217 9.54416V9.8111C37.4217 10.6566 37.2325 11.391 36.8543 12.0138C36.4762 12.6258 35.9254 13.1041 35.2023 13.449ZM34.0007 7.7587C33.6782 7.5695 33.2777 7.47483 32.7993 7.47483H30.7633V11.8972H32.7993C33.2777 11.8972 33.6782 11.8024 34.0007 11.6133C34.3346 11.4244 34.5849 11.1628 34.7518 10.8292C34.9299 10.4953 35.0187 10.1116 35.0187 9.67756C35.0187 9.24363 34.9299 8.86003 34.7518 8.52616C34.5849 8.19256 34.3346 7.9367 34.0007 7.7587Z" fill="black" fill-opacity="0.8"/>
<path fill-rule="evenodd" clip-rule="evenodd" d="M35.2023 13.449C34.4901 13.7829 33.6224 13.9496 32.5991 13.9496H30.7633V17.4462C30.7633 17.5103 30.7379 17.5718 30.6926 17.617C30.6473 17.6624 30.5858 17.6878 30.5217 17.6878H28.6353C28.5712 17.6878 28.5097 17.6624 28.4645 17.617C28.4191 17.5718 28.3937 17.5103 28.3937 17.4462V5.66394C28.3937 5.59988 28.4191 5.53843 28.4645 5.49312C28.5097 5.44782 28.5712 5.42236 28.6353 5.42236H30.5217C30.5479 5.42236 30.5729 5.42648 30.5964 5.43396C30.6201 5.42648 30.6452 5.42236 30.6713 5.42236H32.5991C33.6224 5.42236 34.4901 5.58906 35.2023 5.92292C35.9254 6.25678 36.4762 6.7351 36.8543 7.3579C37.2325 7.97003 37.4217 8.69863 37.4217 9.54416V9.8111C37.4217 10.6566 37.2325 11.391 36.8543 12.0138C36.4762 12.6258 35.9254 13.1041 35.2023 13.449ZM34.0007 7.7587C33.6782 7.5695 33.2777 7.47483 32.7993 7.47483H30.7633V11.8972H32.7993C33.2777 11.8972 33.6782 11.8024 34.0007 11.6133C34.3346 11.4244 34.5849 11.1628 34.7518 10.8292C34.9299 10.4953 35.0187 10.1116 35.0187 9.67756C35.0187 9.24363 34.9299 8.86003 34.7518 8.52616C34.5849 8.19256 34.3346 7.9367 34.0007 7.7587Z" fill="#BCBFDB"/>
<path fill-rule="evenodd" clip-rule="evenodd" d="M35.2023 13.449C34.4901 13.7829 33.6224 13.9496 32.5991 13.9496H30.7633V17.4462C30.7633 17.5103 30.7379 17.5718 30.6926 17.617C30.6473 17.6624 30.5858 17.6878 30.5217 17.6878H28.6353C28.5712 17.6878 28.5097 17.6624 28.4645 17.617C28.4191 17.5718 28.3937 17.5103 28.3937 17.4462V5.66394C28.3937 5.59988 28.4191 5.53843 28.4645 5.49312C28.5097 5.44782 28.5712 5.42236 28.6353 5.42236H30.5217C30.5479 5.42236 30.5729 5.42648 30.5964 5.43396C30.6201 5.42648 30.6452 5.42236 30.6713 5.42236H32.5991C33.6224 5.42236 34.4901 5.58906 35.2023 5.92292C35.9254 6.25678 36.4762 6.7351 36.8543 7.3579C37.2325 7.97003 37.4217 8.69863 37.4217 9.54416V9.8111C37.4217 10.6566 37.2325 11.391 36.8543 12.0138C36.4762 12.6258 35.9254 13.1041 35.2023 13.449ZM34.0007 7.7587C33.6782 7.5695 33.2777 7.47483 32.7993 7.47483H30.7633V11.8972H32.7993C33.2777 11.8972 33.6782 11.8024 34.0007 11.6133C34.3346 11.4244 34.5849 11.1628 34.7518 10.8292C34.9299 10.4953 35.0187 10.1116 35.0187 9.67756C35.0187 9.24363 34.9299 8.86003 34.7518 8.52616C34.5849 8.19256 34.3346 7.9367 34.0007 7.7587Z" fill="black" fill-opacity="0.8"/>
<path d="M43.2588 17.688C43.1947 17.688 43.1333 17.6625 43.088 17.6172C43.0427 17.5719 43.0172 17.5105 43.0172 17.4464V8.86797C43.0172 8.80391 43.0427 8.74244 43.088 8.69711C43.1333 8.65184 43.1947 8.62637 43.2588 8.62637H44.6114C44.6755 8.62637 44.7369 8.65184 44.7822 8.69711C44.8275 8.74244 44.853 8.80391 44.853 8.86797V10.8595C44.9066 10.6271 44.9733 10.4112 45.0533 10.2118C45.298 9.58884 45.6594 9.12157 46.1379 8.80997C46.6274 8.49857 47.2337 8.34277 47.9568 8.34277H48.0568C49.1362 8.34277 49.9537 8.69304 50.5101 9.39411C51.0661 10.0838 51.3445 11.1185 51.3445 12.4979V17.4464C51.3445 17.5105 51.319 17.5719 51.2737 17.6172C51.2284 17.6625 51.1669 17.688 51.1029 17.688H49.2664C49.2023 17.688 49.1409 17.6625 49.0955 17.6172C49.0503 17.5719 49.0248 17.5105 49.0248 17.4464V12.2979C49.0248 11.7415 48.8635 11.291 48.5409 10.946C48.2293 10.6013 47.7954 10.4288 47.2393 10.4288C46.6718 10.4288 46.2102 10.6068 45.8541 10.9627C45.5093 11.3076 45.3369 11.7748 45.3369 12.3646V17.4464C45.3369 17.5105 45.3114 17.5719 45.2661 17.6172C45.2208 17.6625 45.1593 17.688 45.0953 17.688H43.2588Z" fill="#BCBFDB"/>
<path d="M43.2588 17.688C43.1947 17.688 43.1333 17.6625 43.088 17.6172C43.0427 17.5719 43.0172 17.5105 43.0172 17.4464V8.86797C43.0172 8.80391 43.0427 8.74244 43.088 8.69711C43.1333 8.65184 43.1947 8.62637 43.2588 8.62637H44.6114C44.6755 8.62637 44.7369 8.65184 44.7822 8.69711C44.8275 8.74244 44.853 8.80391 44.853 8.86797V10.8595C44.9066 10.6271 44.9733 10.4112 45.0533 10.2118C45.298 9.58884 45.6594 9.12157 46.1379 8.80997C46.6274 8.49857 47.2337 8.34277 47.9568 8.34277H48.0568C49.1362 8.34277 49.9537 8.69304 50.5101 9.39411C51.0661 10.0838 51.3445 11.1185 51.3445 12.4979V17.4464C51.3445 17.5105 51.319 17.5719 51.2737 17.6172C51.2284 17.6625 51.1669 17.688 51.1029 17.688H49.2664C49.2023 17.688 49.1409 17.6625 49.0955 17.6172C49.0503 17.5719 49.0248 17.5105 49.0248 17.4464V12.2979C49.0248 11.7415 48.8635 11.291 48.5409 10.946C48.2293 10.6013 47.7954 10.4288 47.2393 10.4288C46.6718 10.4288 46.2102 10.6068 45.8541 10.9627C45.5093 11.3076 45.3369 11.7748 45.3369 12.3646V17.4464C45.3369 17.5105 45.3114 17.5719 45.2661 17.6172C45.2208 17.6625 45.1593 17.688 45.0953 17.688H43.2588Z" fill="black" fill-opacity="0.8"/>
<path d="M43.2588 17.688C43.1947 17.688 43.1333 17.6625 43.088 17.6172C43.0427 17.5719 43.0172 17.5105 43.0172 17.4464V8.86797C43.0172 8.80391 43.0427 8.74244 43.088 8.69711C43.1333 8.65184 43.1947 8.62637 43.2588 8.62637H44.6114C44.6755 8.62637 44.7369 8.65184 44.7822 8.69711C44.8275 8.74244 44.853 8.80391 44.853 8.86797V10.8595C44.9066 10.6271 44.9733 10.4112 45.0533 10.2118C45.298 9.58884 45.6594 9.12157 46.1379 8.80997C46.6274 8.49857 47.2337 8.34277 47.9568 8.34277H48.0568C49.1362 8.34277 49.9537 8.69304 50.5101 9.39411C51.0661 10.0838 51.3445 11.1185 51.3445 12.4979V17.4464C51.3445 17.5105 51.319 17.5719 51.2737 17.6172C51.2284 17.6625 51.1669 17.688 51.1029 17.688H49.2664C49.2023 17.688 49.1409 17.6625 49.0955 17.6172C49.0503 17.5719 49.0248 17.5105 49.0248 17.4464V12.2979C49.0248 11.7415 48.8635 11.291 48.5409 10.946C48.2293 10.6013 47.7954 10.4288 47.2393 10.4288C46.6718 10.4288 46.2102 10.6068 45.8541 10.9627C45.5093 11.3076 45.3369 11.7748 45.3369 12.3646V17.4464C45.3369 17.5105 45.3114 17.5719 45.2661 17.6172C45.2208 17.6625 45.1593 17.688 45.0953 17.688H43.2588Z" fill="#BCBFDB"/>
<path d="M43.2588 17.688C43.1947 17.688 43.1333 17.6625 43.088 17.6172C43.0427 17.5719 43.0172 17.5105 43.0172 17.4464V8.86797C43.0172 8.80391 43.0427 8.74244 43.088 8.69711C43.1333 8.65184 43.1947 8.62637 43.2588 8.62637H44.6114C44.6755 8.62637 44.7369 8.65184 44.7822 8.69711C44.8275 8.74244 44.853 8.80391 44.853 8.86797V10.8595C44.9066 10.6271 44.9733 10.4112 45.0533 10.2118C45.298 9.58884 45.6594 9.12157 46.1379 8.80997C46.6274 8.49857 47.2337 8.34277 47.9568 8.34277H48.0568C49.1362 8.34277 49.9537 8.69304 50.5101 9.39411C51.0661 10.0838 51.3445 11.1185 51.3445 12.4979V17.4464C51.3445 17.5105 51.319 17.5719 51.2737 17.6172C51.2284 17.6625 51.1669 17.688 51.1029 17.688H49.2664C49.2023 17.688 49.1409 17.6625 49.0955 17.6172C49.0503 17.5719 49.0248 17.5105 49.0248 17.4464V12.2979C49.0248 11.7415 48.8635 11.291 48.5409 10.946C48.2293 10.6013 47.7954 10.4288 47.2393 10.4288C46.6718 10.4288 46.2102 10.6068 45.8541 10.9627C45.5093 11.3076 45.3369 11.7748 45.3369 12.3646V17.4464C45.3369 17.5105 45.3114 17.5719 45.2661 17.6172C45.2208 17.6625 45.1593 17.688 45.0953 17.688H43.2588Z" fill="black" fill-opacity="0.8"/>
<path fill-rule="evenodd" clip-rule="evenodd" d="M59.9959 13.449C59.2839 13.7829 58.4162 13.9496 57.3926 13.9496H55.5571V17.4462C55.5571 17.5103 55.5316 17.5718 55.4863 17.617C55.441 17.6624 55.3796 17.6878 55.3155 17.6878H53.4288C53.3647 17.6878 53.3033 17.6624 53.2579 17.617C53.2127 17.5718 53.1872 17.5103 53.1872 17.4462V5.66394C53.1872 5.59987 53.2127 5.53843 53.2579 5.49312C53.3033 5.44782 53.3647 5.42236 53.4288 5.42236H55.3155C55.3413 5.42236 55.3665 5.42647 55.3901 5.43396C55.4143 5.42619 55.4395 5.42228 55.4648 5.42236H57.3926C58.4162 5.42236 59.2839 5.58905 59.9959 5.92292C60.7189 6.25678 61.2697 6.73509 61.648 7.35789C62.0263 7.97003 62.2153 8.69862 62.2153 9.54416V9.81109C62.2153 10.6566 62.0263 11.391 61.648 12.0138C61.2697 12.6258 60.7189 13.1041 59.9959 13.449ZM58.7945 7.75869C58.4717 7.56949 58.0712 7.47482 57.5929 7.47482H55.5571V11.8972H57.5929C58.0712 11.8972 58.4717 11.8024 58.7945 11.6133C59.1281 11.4244 59.3784 11.1628 59.5453 10.8292C59.7233 10.4953 59.8123 10.1116 59.8123 9.67756C59.8123 9.24362 59.7233 8.86002 59.5453 8.52616C59.3784 8.19256 59.1281 7.93669 58.7945 7.75869ZM67.378 18.0048C66.5774 18.0048 65.8708 17.877 65.2589 17.6209C64.6472 17.365 64.1297 17.0203 63.707 16.5864C63.2913 16.1523 62.9629 15.6424 62.7392 15.0846C62.5282 14.5302 62.4207 13.9419 62.422 13.3488V12.9985C62.422 12.3755 62.5334 11.7858 62.7559 11.2297C62.9842 10.6703 63.3185 10.1603 63.7403 9.72776C64.1742 9.28276 64.6972 8.93782 65.3091 8.69309C65.9211 8.43702 66.6107 8.30922 67.378 8.30922C68.146 8.30922 68.836 8.43729 69.4473 8.69309C70.0593 8.93782 70.5767 9.28256 70.9993 9.72776C71.4287 10.1544 71.764 10.666 71.984 11.2297C72.2067 11.7858 72.318 12.3755 72.318 12.9985V13.3488C72.318 13.9496 72.2067 14.5282 71.984 15.0846C71.7727 15.6406 71.4553 16.1412 71.0327 16.5864C70.61 17.0203 70.0927 17.365 69.4807 17.6209C68.8693 17.877 68.168 18.0048 67.378 18.0048ZM67.378 16.019C67.946 16.019 68.424 15.8965 68.8133 15.6518C69.198 15.4018 69.504 15.0492 69.698 14.6338C69.898 14.1999 69.998 13.7104 69.998 13.1654C69.998 12.6091 69.8927 12.1194 69.6813 11.6966C69.4807 11.263 69.1807 10.9236 68.78 10.6789C68.3907 10.4228 67.9233 10.295 67.378 10.295C66.8333 10.295 66.3605 10.423 65.9599 10.6791C65.5705 10.9236 65.2703 11.263 65.0589 11.6969C64.8475 12.1196 64.7417 12.6091 64.7417 13.1654C64.7417 13.7104 64.8419 14.1999 65.0419 14.6338C65.2456 15.0478 65.5569 15.3994 65.9433 15.6518C66.3325 15.8965 66.8113 16.019 67.378 16.019Z" fill="#BCBFDB"/>
<path fill-rule="evenodd" clip-rule="evenodd" d="M59.9959 13.449C59.2839 13.7829 58.4162 13.9496 57.3926 13.9496H55.5571V17.4462C55.5571 17.5103 55.5316 17.5718 55.4863 17.617C55.441 17.6624 55.3796 17.6878 55.3155 17.6878H53.4288C53.3647 17.6878 53.3033 17.6624 53.2579 17.617C53.2127 17.5718 53.1872 17.5103 53.1872 17.4462V5.66394C53.1872 5.59987 53.2127 5.53843 53.2579 5.49312C53.3033 5.44782 53.3647 5.42236 53.4288 5.42236H55.3155C55.3413 5.42236 55.3665 5.42647 55.3901 5.43396C55.4143 5.42619 55.4395 5.42228 55.4648 5.42236H57.3926C58.4162 5.42236 59.2839 5.58905 59.9959 5.92292C60.7189 6.25678 61.2697 6.73509 61.648 7.35789C62.0263 7.97003 62.2153 8.69862 62.2153 9.54416V9.81109C62.2153 10.6566 62.0263 11.391 61.648 12.0138C61.2697 12.6258 60.7189 13.1041 59.9959 13.449ZM58.7945 7.75869C58.4717 7.56949 58.0712 7.47482 57.5929 7.47482H55.5571V11.8972H57.5929C58.0712 11.8972 58.4717 11.8024 58.7945 11.6133C59.1281 11.4244 59.3784 11.1628 59.5453 10.8292C59.7233 10.4953 59.8123 10.1116 59.8123 9.67756C59.8123 9.24362 59.7233 8.86002 59.5453 8.52616C59.3784 8.19256 59.1281 7.93669 58.7945 7.75869ZM67.378 18.0048C66.5774 18.0048 65.8708 17.877 65.2589 17.6209C64.6472 17.365 64.1297 17.0203 63.707 16.5864C63.2913 16.1523 62.9629 15.6424 62.7392 15.0846C62.5282 14.5302 62.4207 13.9419 62.422 13.3488V12.9985C62.422 12.3755 62.5334 11.7858 62.7559 11.2297C62.9842 10.6703 63.3185 10.1603 63.7403 9.72776C64.1742 9.28276 64.6972 8.93782 65.3091 8.69309C65.9211 8.43702 66.6107 8.30922 67.378 8.30922C68.146 8.30922 68.836 8.43729 69.4473 8.69309C70.0593 8.93782 70.5767 9.28256 70.9993 9.72776C71.4287 10.1544 71.764 10.666 71.984 11.2297C72.2067 11.7858 72.318 12.3755 72.318 12.9985V13.3488C72.318 13.9496 72.2067 14.5282 71.984 15.0846C71.7727 15.6406 71.4553 16.1412 71.0327 16.5864C70.61 17.0203 70.0927 17.365 69.4807 17.6209C68.8693 17.877 68.168 18.0048 67.378 18.0048ZM67.378 16.019C67.946 16.019 68.424 15.8965 68.8133 15.6518C69.198 15.4018 69.504 15.0492 69.698 14.6338C69.898 14.1999 69.998 13.7104 69.998 13.1654C69.998 12.6091 69.8927 12.1194 69.6813 11.6966C69.4807 11.263 69.1807 10.9236 68.78 10.6789C68.3907 10.4228 67.9233 10.295 67.378 10.295C66.8333 10.295 66.3605 10.423 65.9599 10.6791C65.5705 10.9236 65.2703 11.263 65.0589 11.6969C64.8475 12.1196 64.7417 12.6091 64.7417 13.1654C64.7417 13.7104 64.8419 14.1999 65.0419 14.6338C65.2456 15.0478 65.5569 15.3994 65.9433 15.6518C66.3325 15.8965 66.8113 16.019 67.378 16.019Z" fill="black" fill-opacity="0.8"/>
<path fill-rule="evenodd" clip-rule="evenodd" d="M59.9959 13.449C59.2839 13.7829 58.4162 13.9496 57.3926 13.9496H55.5571V17.4462C55.5571 17.5103 55.5316 17.5718 55.4863 17.617C55.441 17.6624 55.3796 17.6878 55.3155 17.6878H53.4288C53.3647 17.6878 53.3033 17.6624 53.2579 17.617C53.2127 17.5718 53.1872 17.5103 53.1872 17.4462V5.66394C53.1872 5.59987 53.2127 5.53843 53.2579 5.49312C53.3033 5.44782 53.3647 5.42236 53.4288 5.42236H55.3155C55.3413 5.42236 55.3665 5.42647 55.3901 5.43396C55.4143 5.42619 55.4395 5.42228 55.4648 5.42236H57.3926C58.4162 5.42236 59.2839 5.58905 59.9959 5.92292C60.7189 6.25678 61.2697 6.73509 61.648 7.35789C62.0263 7.97003 62.2153 8.69862 62.2153 9.54416V9.81109C62.2153 10.6566 62.0263 11.391 61.648 12.0138C61.2697 12.6258 60.7189 13.1041 59.9959 13.449ZM58.7945 7.75869C58.4717 7.56949 58.0712 7.47482 57.5929 7.47482H55.5571V11.8972H57.5929C58.0712 11.8972 58.4717 11.8024 58.7945 11.6133C59.1281 11.4244 59.3784 11.1628 59.5453 10.8292C59.7233 10.4953 59.8123 10.1116 59.8123 9.67756C59.8123 9.24362 59.7233 8.86002 59.5453 8.52616C59.3784 8.19256 59.1281 7.93669 58.7945 7.75869ZM67.378 18.0048C66.5774 18.0048 65.8708 17.877 65.2589 17.6209C64.6472 17.365 64.1297 17.0203 63.707 16.5864C63.2913 16.1523 62.9629 15.6424 62.7392 15.0846C62.5282 14.5302 62.4207 13.9419 62.422 13.3488V12.9985C62.422 12.3755 62.5334 11.7858 62.7559 11.2297C62.9842 10.6703 63.3185 10.1603 63.7403 9.72776C64.1742 9.28276 64.6972 8.93782 65.3091 8.69309C65.9211 8.43702 66.6107 8.30922 67.378 8.30922C68.146 8.30922 68.836 8.43729 69.4473 8.69309C70.0593 8.93782 70.5767 9.28256 70.9993 9.72776C71.4287 10.1544 71.764 10.666 71.984 11.2297C72.2067 11.7858 72.318 12.3755 72.318 12.9985V13.3488C72.318 13.9496 72.2067 14.5282 71.984 15.0846C71.7727 15.6406 71.4553 16.1412 71.0327 16.5864C70.61 17.0203 70.0927 17.365 69.4807 17.6209C68.8693 17.877 68.168 18.0048 67.378 18.0048ZM67.378 16.019C67.946 16.019 68.424 15.8965 68.8133 15.6518C69.198 15.4018 69.504 15.0492 69.698 14.6338C69.898 14.1999 69.998 13.7104 69.998 13.1654C69.998 12.6091 69.8927 12.1194 69.6813 11.6966C69.4807 11.263 69.1807 10.9236 68.78 10.6789C68.3907 10.4228 67.9233 10.295 67.378 10.295C66.8333 10.295 66.3605 10.423 65.9599 10.6791C65.5705 10.9236 65.2703 11.263 65.0589 11.6969C64.8475 12.1196 64.7417 12.6091 64.7417 13.1654C64.7417 13.7104 64.8419 14.1999 65.0419 14.6338C65.2456 15.0478 65.5569 15.3994 65.9433 15.6518C66.3325 15.8965 66.8113 16.019 67.378 16.019Z" fill="#BCBFDB"/>
<path fill-rule="evenodd" clip-rule="evenodd" d="M59.9959 13.449C59.2839 13.7829 58.4162 13.9496 57.3926 13.9496H55.5571V17.4462C55.5571 17.5103 55.5316 17.5718 55.4863 17.617C55.441 17.6624 55.3796 17.6878 55.3155 17.6878H53.4288C53.3647 17.6878 53.3033 17.6624 53.2579 17.617C53.2127 17.5718 53.1872 17.5103 53.1872 17.4462V5.66394C53.1872 5.59987 53.2127 5.53843 53.2579 5.49312C53.3033 5.44782 53.3647 5.42236 53.4288 5.42236H55.3155C55.3413 5.42236 55.3665 5.42647 55.3901 5.43396C55.4143 5.42619 55.4395 5.42228 55.4648 5.42236H57.3926C58.4162 5.42236 59.2839 5.58905 59.9959 5.92292C60.7189 6.25678 61.2697 6.73509 61.648 7.35789C62.0263 7.97003 62.2153 8.69862 62.2153 9.54416V9.81109C62.2153 10.6566 62.0263 11.391 61.648 12.0138C61.2697 12.6258 60.7189 13.1041 59.9959 13.449ZM58.7945 7.75869C58.4717 7.56949 58.0712 7.47482 57.5929 7.47482H55.5571V11.8972H57.5929C58.0712 11.8972 58.4717 11.8024 58.7945 11.6133C59.1281 11.4244 59.3784 11.1628 59.5453 10.8292C59.7233 10.4953 59.8123 10.1116 59.8123 9.67756C59.8123 9.24362 59.7233 8.86002 59.5453 8.52616C59.3784 8.19256 59.1281 7.93669 58.7945 7.75869ZM67.378 18.0048C66.5774 18.0048 65.8708 17.877 65.2589 17.6209C64.6472 17.365 64.1297 17.0203 63.707 16.5864C63.2913 16.1523 62.9629 15.6424 62.7392 15.0846C62.5282 14.5302 62.4207 13.9419 62.422 13.3488V12.9985C62.422 12.3755 62.5334 11.7858 62.7559 11.2297C62.9842 10.6703 63.3185 10.1603 63.7403 9.72776C64.1742 9.28276 64.6972 8.93782 65.3091 8.69309C65.9211 8.43702 66.6107 8.30922 67.378 8.30922C68.146 8.30922 68.836 8.43729 69.4473 8.69309C70.0593 8.93782 70.5767 9.28256 70.9993 9.72776C71.4287 10.1544 71.764 10.666 71.984 11.2297C72.2067 11.7858 72.318 12.3755 72.318 12.9985V13.3488C72.318 13.9496 72.2067 14.5282 71.984 15.0846C71.7727 15.6406 71.4553 16.1412 71.0327 16.5864C70.61 17.0203 70.0927 17.365 69.4807 17.6209C68.8693 17.877 68.168 18.0048 67.378 18.0048ZM67.378 16.019C67.946 16.019 68.424 15.8965 68.8133 15.6518C69.198 15.4018 69.504 15.0492 69.698 14.6338C69.898 14.1999 69.998 13.7104 69.998 13.1654C69.998 12.6091 69.8927 12.1194 69.6813 11.6966C69.4807 11.263 69.1807 10.9236 68.78 10.6789C68.3907 10.4228 67.9233 10.295 67.378 10.295C66.8333 10.295 66.3605 10.423 65.9599 10.6791C65.5705 10.9236 65.2703 11.263 65.0589 11.6969C64.8475 12.1196 64.7417 12.6091 64.7417 13.1654C64.7417 13.7104 64.8419 14.1999 65.0419 14.6338C65.2456 15.0478 65.5569 15.3994 65.9433 15.6518C66.3325 15.8965 66.8113 16.019 67.378 16.019Z" fill="black" fill-opacity="0.8"/>
<path d="M73.9487 17.4463C73.9487 17.5104 73.974 17.5719 74.0193 17.6172C74.0647 17.6625 74.126 17.6879 74.19 17.6879H76.0267C76.0907 17.6879 76.152 17.6625 76.1973 17.6172C76.2427 17.5719 76.268 17.5104 76.268 17.4463V8.62634H74.19C74.126 8.62634 74.0647 8.65181 74.0193 8.69707C73.974 8.74241 73.9487 8.80381 73.9487 8.86794V17.4463ZM74.0227 7.19134C74.2453 7.42494 74.5847 7.54167 75.0407 7.54167C75.4973 7.54167 75.8307 7.42494 76.042 7.19134C76.2533 6.94661 76.3593 6.64611 76.3593 6.29027C76.3593 5.91195 76.2533 5.60611 76.042 5.37227C75.8307 5.13866 75.4973 5.02197 75.0407 5.02197C74.5847 5.02197 74.2453 5.13866 74.0227 5.37227C73.8113 5.60611 73.706 5.91195 73.706 6.29027C73.706 6.64611 73.8113 6.94661 74.0227 7.19134ZM78.3487 17.6879C78.2847 17.6879 78.2227 17.6625 78.1773 17.6172C78.132 17.5719 78.1067 17.5104 78.1067 17.4463V8.86794C78.1067 8.80381 78.132 8.74241 78.1773 8.69707C78.2227 8.65181 78.2847 8.62634 78.3487 8.62634H79.7007C79.7647 8.62634 79.826 8.65181 79.8713 8.69707C79.9167 8.74241 79.9427 8.80381 79.9427 8.86794V10.8595C79.9927 10.6388 80.0593 10.4223 80.1427 10.2118C80.3873 9.58881 80.7493 9.12154 81.2273 8.80994C81.7167 8.49854 82.3233 8.34274 83.0467 8.34274H83.1467C84.2253 8.34274 85.0433 8.69301 85.5993 9.39407C86.156 10.0838 86.434 11.1185 86.434 12.4979V17.4463C86.434 17.5104 86.4087 17.5719 86.3633 17.6172C86.318 17.6625 86.2567 17.6879 86.192 17.6879H84.356C84.292 17.6879 84.2307 17.6625 84.1853 17.6172C84.14 17.5719 84.1147 17.5104 84.1147 17.4463V12.2979C84.1147 11.7415 83.9533 11.2909 83.63 10.9459C83.3187 10.6012 82.8853 10.4287 82.3287 10.4287C81.7613 10.4287 81.2993 10.6068 80.944 10.9626C80.5987 11.3076 80.426 11.7748 80.426 12.3645V17.4463C80.426 17.5104 80.4007 17.5719 80.3553 17.6172C80.31 17.6625 80.2487 17.6879 80.1847 17.6879H78.3487ZM89.9627 17.4877C90.5073 17.6991 91.1973 17.8046 92.032 17.8046H93.092C93.156 17.8046 93.2173 17.7792 93.2627 17.7339C93.308 17.6885 93.3333 17.6271 93.3333 17.5631V16.0604C93.3333 15.9963 93.308 15.9349 93.2627 15.8896C93.2173 15.8443 93.156 15.8189 93.092 15.8189H91.9147C91.47 15.8189 91.1247 15.7019 90.88 15.4683C90.6467 15.2236 90.53 14.8789 90.53 14.4339L90.538 10.3287H93.092C93.156 10.3287 93.2173 10.3033 93.2627 10.258C93.308 10.2127 93.3333 10.1512 93.3333 10.0871V8.86794C93.3333 8.80381 93.308 8.74241 93.2627 8.69707C93.2173 8.65181 93.156 8.62634 93.092 8.62634H90.5413L90.546 6.31515C90.546 6.28338 90.54 6.25191 90.528 6.22255C90.5153 6.19319 90.498 6.16649 90.4753 6.14401C90.4527 6.12153 90.426 6.10369 90.3967 6.09152C90.3673 6.07935 90.336 6.07309 90.3047 6.07309H88.618C88.554 6.07309 88.4927 6.09847 88.4473 6.14367C88.402 6.18887 88.3767 6.25019 88.3767 6.31418L88.372 8.62607H87.1667C87.1027 8.62607 87.0413 8.65154 86.996 8.69687C86.9507 8.74214 86.9253 8.80361 86.9253 8.86767V10.0869C86.9253 10.151 86.9507 10.2124 86.996 10.2577C87.0413 10.3031 87.1027 10.3285 87.1667 10.3285H88.3687L88.36 14.2834C88.36 15.1622 88.494 15.8631 88.7607 16.3861C89.028 16.8977 89.428 17.2652 89.9627 17.4877Z" fill="#BCBFDB"/>
<path d="M73.9487 17.4463C73.9487 17.5104 73.974 17.5719 74.0193 17.6172C74.0647 17.6625 74.126 17.6879 74.19 17.6879H76.0267C76.0907 17.6879 76.152 17.6625 76.1973 17.6172C76.2427 17.5719 76.268 17.5104 76.268 17.4463V8.62634H74.19C74.126 8.62634 74.0647 8.65181 74.0193 8.69707C73.974 8.74241 73.9487 8.80381 73.9487 8.86794V17.4463ZM74.0227 7.19134C74.2453 7.42494 74.5847 7.54167 75.0407 7.54167C75.4973 7.54167 75.8307 7.42494 76.042 7.19134C76.2533 6.94661 76.3593 6.64611 76.3593 6.29027C76.3593 5.91195 76.2533 5.60611 76.042 5.37227C75.8307 5.13866 75.4973 5.02197 75.0407 5.02197C74.5847 5.02197 74.2453 5.13866 74.0227 5.37227C73.8113 5.60611 73.706 5.91195 73.706 6.29027C73.706 6.64611 73.8113 6.94661 74.0227 7.19134ZM78.3487 17.6879C78.2847 17.6879 78.2227 17.6625 78.1773 17.6172C78.132 17.5719 78.1067 17.5104 78.1067 17.4463V8.86794C78.1067 8.80381 78.132 8.74241 78.1773 8.69707C78.2227 8.65181 78.2847 8.62634 78.3487 8.62634H79.7007C79.7647 8.62634 79.826 8.65181 79.8713 8.69707C79.9167 8.74241 79.9427 8.80381 79.9427 8.86794V10.8595C79.9927 10.6388 80.0593 10.4223 80.1427 10.2118C80.3873 9.58881 80.7493 9.12154 81.2273 8.80994C81.7167 8.49854 82.3233 8.34274 83.0467 8.34274H83.1467C84.2253 8.34274 85.0433 8.69301 85.5993 9.39407C86.156 10.0838 86.434 11.1185 86.434 12.4979V17.4463C86.434 17.5104 86.4087 17.5719 86.3633 17.6172C86.318 17.6625 86.2567 17.6879 86.192 17.6879H84.356C84.292 17.6879 84.2307 17.6625 84.1853 17.6172C84.14 17.5719 84.1147 17.5104 84.1147 17.4463V12.2979C84.1147 11.7415 83.9533 11.2909 83.63 10.9459C83.3187 10.6012 82.8853 10.4287 82.3287 10.4287C81.7613 10.4287 81.2993 10.6068 80.944 10.9626C80.5987 11.3076 80.426 11.7748 80.426 12.3645V17.4463C80.426 17.5104 80.4007 17.5719 80.3553 17.6172C80.31 17.6625 80.2487 17.6879 80.1847 17.6879H78.3487ZM89.9627 17.4877C90.5073 17.6991 91.1973 17.8046 92.032 17.8046H93.092C93.156 17.8046 93.2173 17.7792 93.2627 17.7339C93.308 17.6885 93.3333 17.6271 93.3333 17.5631V16.0604C93.3333 15.9963 93.308 15.9349 93.2627 15.8896C93.2173 15.8443 93.156 15.8189 93.092 15.8189H91.9147C91.47 15.8189 91.1247 15.7019 90.88 15.4683C90.6467 15.2236 90.53 14.8789 90.53 14.4339L90.538 10.3287H93.092C93.156 10.3287 93.2173 10.3033 93.2627 10.258C93.308 10.2127 93.3333 10.1512 93.3333 10.0871V8.86794C93.3333 8.80381 93.308 8.74241 93.2627 8.69707C93.2173 8.65181 93.156 8.62634 93.092 8.62634H90.5413L90.546 6.31515C90.546 6.28338 90.54 6.25191 90.528 6.22255C90.5153 6.19319 90.498 6.16649 90.4753 6.14401C90.4527 6.12153 90.426 6.10369 90.3967 6.09152C90.3673 6.07935 90.336 6.07309 90.3047 6.07309H88.618C88.554 6.07309 88.4927 6.09847 88.4473 6.14367C88.402 6.18887 88.3767 6.25019 88.3767 6.31418L88.372 8.62607H87.1667C87.1027 8.62607 87.0413 8.65154 86.996 8.69687C86.9507 8.74214 86.9253 8.80361 86.9253 8.86767V10.0869C86.9253 10.151 86.9507 10.2124 86.996 10.2577C87.0413 10.3031 87.1027 10.3285 87.1667 10.3285H88.3687L88.36 14.2834C88.36 15.1622 88.494 15.8631 88.7607 16.3861C89.028 16.8977 89.428 17.2652 89.9627 17.4877Z" fill="black" fill-opacity="0.8"/>
<path d="M73.9487 17.4463C73.9487 17.5104 73.974 17.5719 74.0193 17.6172C74.0647 17.6625 74.126 17.6879 74.19 17.6879H76.0267C76.0907 17.6879 76.152 17.6625 76.1973 17.6172C76.2427 17.5719 76.268 17.5104 76.268 17.4463V8.62634H74.19C74.126 8.62634 74.0647 8.65181 74.0193 8.69707C73.974 8.74241 73.9487 8.80381 73.9487 8.86794V17.4463ZM74.0227 7.19134C74.2453 7.42494 74.5847 7.54167 75.0407 7.54167C75.4973 7.54167 75.8307 7.42494 76.042 7.19134C76.2533 6.94661 76.3593 6.64611 76.3593 6.29027C76.3593 5.91195 76.2533 5.60611 76.042 5.37227C75.8307 5.13866 75.4973 5.02197 75.0407 5.02197C74.5847 5.02197 74.2453 5.13866 74.0227 5.37227C73.8113 5.60611 73.706 5.91195 73.706 6.29027C73.706 6.64611 73.8113 6.94661 74.0227 7.19134ZM78.3487 17.6879C78.2847 17.6879 78.2227 17.6625 78.1773 17.6172C78.132 17.5719 78.1067 17.5104 78.1067 17.4463V8.86794C78.1067 8.80381 78.132 8.74241 78.1773 8.69707C78.2227 8.65181 78.2847 8.62634 78.3487 8.62634H79.7007C79.7647 8.62634 79.826 8.65181 79.8713 8.69707C79.9167 8.74241 79.9427 8.80381 79.9427 8.86794V10.8595C79.9927 10.6388 80.0593 10.4223 80.1427 10.2118C80.3873 9.58881 80.7493 9.12154 81.2273 8.80994C81.7167 8.49854 82.3233 8.34274 83.0467 8.34274H83.1467C84.2253 8.34274 85.0433 8.69301 85.5993 9.39407C86.156 10.0838 86.434 11.1185 86.434 12.4979V17.4463C86.434 17.5104 86.4087 17.5719 86.3633 17.6172C86.318 17.6625 86.2567 17.6879 86.192 17.6879H84.356C84.292 17.6879 84.2307 17.6625 84.1853 17.6172C84.14 17.5719 84.1147 17.5104 84.1147 17.4463V12.2979C84.1147 11.7415 83.9533 11.2909 83.63 10.9459C83.3187 10.6012 82.8853 10.4287 82.3287 10.4287C81.7613 10.4287 81.2993 10.6068 80.944 10.9626C80.5987 11.3076 80.426 11.7748 80.426 12.3645V17.4463C80.426 17.5104 80.4007 17.5719 80.3553 17.6172C80.31 17.6625 80.2487 17.6879 80.1847 17.6879H78.3487ZM89.9627 17.4877C90.5073 17.6991 91.1973 17.8046 92.032 17.8046H93.092C93.156 17.8046 93.2173 17.7792 93.2627 17.7339C93.308 17.6885 93.3333 17.6271 93.3333 17.5631V16.0604C93.3333 15.9963 93.308 15.9349 93.2627 15.8896C93.2173 15.8443 93.156 15.8189 93.092 15.8189H91.9147C91.47 15.8189 91.1247 15.7019 90.88 15.4683C90.6467 15.2236 90.53 14.8789 90.53 14.4339L90.538 10.3287H93.092C93.156 10.3287 93.2173 10.3033 93.2627 10.258C93.308 10.2127 93.3333 10.1512 93.3333 10.0871V8.86794C93.3333 8.80381 93.308 8.74241 93.2627 8.69707C93.2173 8.65181 93.156 8.62634 93.092 8.62634H90.5413L90.546 6.31515C90.546 6.28338 90.54 6.25191 90.528 6.22255C90.5153 6.19319 90.498 6.16649 90.4753 6.14401C90.4527 6.12153 90.426 6.10369 90.3967 6.09152C90.3673 6.07935 90.336 6.07309 90.3047 6.07309H88.618C88.554 6.07309 88.4927 6.09847 88.4473 6.14367C88.402 6.18887 88.3767 6.25019 88.3767 6.31418L88.372 8.62607H87.1667C87.1027 8.62607 87.0413 8.65154 86.996 8.69687C86.9507 8.74214 86.9253 8.80361 86.9253 8.86767V10.0869C86.9253 10.151 86.9507 10.2124 86.996 10.2577C87.0413 10.3031 87.1027 10.3285 87.1667 10.3285H88.3687L88.36 14.2834C88.36 15.1622 88.494 15.8631 88.7607 16.3861C89.028 16.8977 89.428 17.2652 89.9627 17.4877Z" fill="#BCBFDB"/>
<path d="M73.9487 17.4463C73.9487 17.5104 73.974 17.5719 74.0193 17.6172C74.0647 17.6625 74.126 17.6879 74.19 17.6879H76.0267C76.0907 17.6879 76.152 17.6625 76.1973 17.6172C76.2427 17.5719 76.268 17.5104 76.268 17.4463V8.62634H74.19C74.126 8.62634 74.0647 8.65181 74.0193 8.69707C73.974 8.74241 73.9487 8.80381 73.9487 8.86794V17.4463ZM74.0227 7.19134C74.2453 7.42494 74.5847 7.54167 75.0407 7.54167C75.4973 7.54167 75.8307 7.42494 76.042 7.19134C76.2533 6.94661 76.3593 6.64611 76.3593 6.29027C76.3593 5.91195 76.2533 5.60611 76.042 5.37227C75.8307 5.13866 75.4973 5.02197 75.0407 5.02197C74.5847 5.02197 74.2453 5.13866 74.0227 5.37227C73.8113 5.60611 73.706 5.91195 73.706 6.29027C73.706 6.64611 73.8113 6.94661 74.0227 7.19134ZM78.3487 17.6879C78.2847 17.6879 78.2227 17.6625 78.1773 17.6172C78.132 17.5719 78.1067 17.5104 78.1067 17.4463V8.86794C78.1067 8.80381 78.132 8.74241 78.1773 8.69707C78.2227 8.65181 78.2847 8.62634 78.3487 8.62634H79.7007C79.7647 8.62634 79.826 8.65181 79.8713 8.69707C79.9167 8.74241 79.9427 8.80381 79.9427 8.86794V10.8595C79.9927 10.6388 80.0593 10.4223 80.1427 10.2118C80.3873 9.58881 80.7493 9.12154 81.2273 8.80994C81.7167 8.49854 82.3233 8.34274 83.0467 8.34274H83.1467C84.2253 8.34274 85.0433 8.69301 85.5993 9.39407C86.156 10.0838 86.434 11.1185 86.434 12.4979V17.4463C86.434 17.5104 86.4087 17.5719 86.3633 17.6172C86.318 17.6625 86.2567 17.6879 86.192 17.6879H84.356C84.292 17.6879 84.2307 17.6625 84.1853 17.6172C84.14 17.5719 84.1147 17.5104 84.1147 17.4463V12.2979C84.1147 11.7415 83.9533 11.2909 83.63 10.9459C83.3187 10.6012 82.8853 10.4287 82.3287 10.4287C81.7613 10.4287 81.2993 10.6068 80.944 10.9626C80.5987 11.3076 80.426 11.7748 80.426 12.3645V17.4463C80.426 17.5104 80.4007 17.5719 80.3553 17.6172C80.31 17.6625 80.2487 17.6879 80.1847 17.6879H78.3487ZM89.9627 17.4877C90.5073 17.6991 91.1973 17.8046 92.032 17.8046H93.092C93.156 17.8046 93.2173 17.7792 93.2627 17.7339C93.308 17.6885 93.3333 17.6271 93.3333 17.5631V16.0604C93.3333 15.9963 93.308 15.9349 93.2627 15.8896C93.2173 15.8443 93.156 15.8189 93.092 15.8189H91.9147C91.47 15.8189 91.1247 15.7019 90.88 15.4683C90.6467 15.2236 90.53 14.8789 90.53 14.4339L90.538 10.3287H93.092C93.156 10.3287 93.2173 10.3033 93.2627 10.258C93.308 10.2127 93.3333 10.1512 93.3333 10.0871V8.86794C93.3333 8.80381 93.308 8.74241 93.2627 8.69707C93.2173 8.65181 93.156 8.62634 93.092 8.62634H90.5413L90.546 6.31515C90.546 6.28338 90.54 6.25191 90.528 6.22255C90.5153 6.19319 90.498 6.16649 90.4753 6.14401C90.4527 6.12153 90.426 6.10369 90.3967 6.09152C90.3673 6.07935 90.336 6.07309 90.3047 6.07309H88.618C88.554 6.07309 88.4927 6.09847 88.4473 6.14367C88.402 6.18887 88.3767 6.25019 88.3767 6.31418L88.372 8.62607H87.1667C87.1027 8.62607 87.0413 8.65154 86.996 8.69687C86.9507 8.74214 86.9253 8.80361 86.9253 8.86767V10.0869C86.9253 10.151 86.9507 10.2124 86.996 10.2577C87.0413 10.3031 87.1027 10.3285 87.1667 10.3285H88.3687L88.36 14.2834C88.36 15.1622 88.494 15.8631 88.7607 16.3861C89.028 16.8977 89.428 17.2652 89.9627 17.4877Z" fill="black" fill-opacity="0.8"/>
</g>
<defs>
<clipPath id="clip0_1850_10">
<rect width="93.3333" height="24" fill="white"/>
</clipPath>
</defs>
</svg>
