<svg width="140" height="40" viewBox="0 0 140 40" fill="none" xmlns="http://www.w3.org/2000/svg">
<g clip-path="url(#clip0_1850_7635)">
<path d="M17.3898 39.4063H4.91315L17.4251 20.4969H29.9371L17.3898 39.4063ZM12.8303 0.986694H25.625L12.8303 20.4969H0.000244141L12.8303 0.986694ZM55.4206 17.4573C55.4206 18.6237 55.1378 19.7193 54.5723 20.709C54.0421 21.734 53.1585 22.5469 51.9921 23.1478C50.8258 23.784 49.3766 24.0667 47.5741 24.0667H43.9336V32.4081H39.5862V10.7418H47.5741C49.2352 10.7418 50.6844 11.0246 51.8507 11.6254C53.0171 12.1909 53.9007 13.0039 54.5016 14.0289C55.1025 15.0185 55.4206 16.1495 55.4206 17.4573ZM47.3973 20.5676C48.599 20.5676 49.4827 20.2849 50.0835 19.7547C50.649 19.1892 50.9671 18.4116 50.9671 17.4219C50.9671 15.3013 49.8008 14.2409 47.4327 14.2409H43.9689V20.5323H47.3973V20.5676ZM61.6059 17.8814C62.1714 16.9625 62.8783 16.2556 63.7972 15.7254C64.7162 15.1952 65.7412 14.9478 66.9076 14.9478V19.5073H65.7412C64.3627 19.5073 63.3377 19.8254 62.6309 20.4616C61.9593 21.0978 61.6059 22.2288 61.6059 23.8193V32.4081H57.2585V15.1952H61.6059V17.8814ZM76.2032 32.6908C74.542 32.6908 73.0575 32.3374 71.7144 31.5951C70.4067 30.8529 69.3463 29.7926 68.5687 28.4495C67.8265 27.1064 67.4377 25.5512 67.4377 23.784C67.4377 22.0167 67.8265 20.4616 68.6041 19.1185C69.3817 17.7754 70.442 16.7504 71.8205 16.0082C73.1636 15.2659 74.6834 14.8771 76.3092 14.8771C77.9704 14.8771 79.4549 15.2659 80.798 16.0082C82.1411 16.7504 83.2014 17.7754 83.979 19.1185C84.7566 20.4616 85.1454 22.0167 85.1454 23.784C85.1454 25.5512 84.7566 27.1064 83.9437 28.4495C83.1661 29.7926 82.0704 30.8529 80.7273 31.5951C79.3842 32.3374 77.8997 32.6908 76.2032 32.6908ZM76.2032 28.9089C76.9808 28.9089 77.723 28.7322 78.3945 28.3434C79.1014 27.9546 79.667 27.3538 80.0557 26.6115C80.4799 25.834 80.6919 24.915 80.6919 23.8193C80.6919 22.1935 80.2678 20.9211 79.3842 20.0728C78.5359 19.1892 77.4756 18.7297 76.2385 18.7297C75.0015 18.7297 73.9411 19.1892 73.0929 20.0728C72.2799 20.9564 71.8558 22.1935 71.8558 23.8193C71.8558 25.4452 72.2446 26.7176 73.0575 27.6012C73.9411 28.4495 74.9661 28.9089 76.2032 28.9089ZM91.4721 28.9796H96.1375V32.4434H87.1247V8.05562H91.4721V28.9796ZM99.5306 13.1452C98.753 13.1452 98.1168 12.8978 97.622 12.4383C97.1272 11.9435 96.8798 11.3427 96.8798 10.6004C96.8798 9.85819 97.1272 9.29268 97.622 8.79785C98.1522 8.30303 98.7884 8.05562 99.5306 8.05562C100.308 8.05562 100.944 8.30303 101.439 8.79785C101.969 9.25733 102.217 9.85819 102.217 10.6004C102.217 11.3427 101.969 11.9435 101.439 12.4383C100.909 12.9332 100.308 13.1452 99.5306 13.1452ZM101.687 15.1952V32.4081H97.3039V15.1952H101.687ZM114.269 14.9478C116.319 14.9478 117.981 15.584 119.253 16.8918C120.525 18.1642 121.162 19.9668 121.162 22.2995V32.4081H116.814V22.9004C116.814 21.5219 116.461 20.4969 115.789 19.7547C115.118 19.0124 114.163 18.6237 112.997 18.6237C111.795 18.6237 110.841 19.0124 110.134 19.7547C109.462 20.4969 109.109 21.5219 109.109 22.9004V32.4081H104.726V15.1952H109.074V17.3512C109.639 16.609 110.381 16.0435 111.265 15.6194C112.184 15.1599 113.174 14.9478 114.269 14.9478ZM140 23.4305C140 24.0667 139.965 24.5969 139.859 25.0917H127.276C127.382 26.3288 127.806 27.3184 128.584 28.0253C129.361 28.7322 130.28 29.0857 131.411 29.0857C133.037 29.0857 134.168 28.3788 134.875 27.0003H139.576C139.081 28.6615 138.127 30.04 136.713 31.1003C135.299 32.1606 133.567 32.6908 131.517 32.6908C129.856 32.6908 128.372 32.3374 127.029 31.5951C125.721 30.8529 124.696 29.7926 123.954 28.4495C123.247 27.1064 122.858 25.5512 122.858 23.784C122.858 22.0167 123.212 20.4262 123.954 19.0831C124.696 17.74 125.686 16.715 126.993 15.9728C128.301 15.2306 129.786 14.8771 131.482 14.8771C133.108 14.8771 134.592 15.2306 135.865 15.9375C137.173 16.6444 138.162 17.634 138.869 18.9418C139.647 20.2849 140 21.7693 140 23.4305ZM135.511 22.1935C135.476 21.0624 135.087 20.1788 134.31 19.5073C133.532 18.8357 132.578 18.4823 131.411 18.4823C130.351 18.4823 129.432 18.8004 128.69 19.4719C127.983 20.1081 127.524 21.0271 127.347 22.1581H135.511V22.1935Z" fill="#BCBFDB"/>
<path d="M17.3898 39.4063H4.91315L17.4251 20.4969H29.9371L17.3898 39.4063ZM12.8303 0.986694H25.625L12.8303 20.4969H0.000244141L12.8303 0.986694ZM55.4206 17.4573C55.4206 18.6237 55.1378 19.7193 54.5723 20.709C54.0421 21.734 53.1585 22.5469 51.9921 23.1478C50.8258 23.784 49.3766 24.0667 47.5741 24.0667H43.9336V32.4081H39.5862V10.7418H47.5741C49.2352 10.7418 50.6844 11.0246 51.8507 11.6254C53.0171 12.1909 53.9007 13.0039 54.5016 14.0289C55.1025 15.0185 55.4206 16.1495 55.4206 17.4573ZM47.3973 20.5676C48.599 20.5676 49.4827 20.2849 50.0835 19.7547C50.649 19.1892 50.9671 18.4116 50.9671 17.4219C50.9671 15.3013 49.8008 14.2409 47.4327 14.2409H43.9689V20.5323H47.3973V20.5676ZM61.6059 17.8814C62.1714 16.9625 62.8783 16.2556 63.7972 15.7254C64.7162 15.1952 65.7412 14.9478 66.9076 14.9478V19.5073H65.7412C64.3627 19.5073 63.3377 19.8254 62.6309 20.4616C61.9593 21.0978 61.6059 22.2288 61.6059 23.8193V32.4081H57.2585V15.1952H61.6059V17.8814ZM76.2032 32.6908C74.542 32.6908 73.0575 32.3374 71.7144 31.5951C70.4067 30.8529 69.3463 29.7926 68.5687 28.4495C67.8265 27.1064 67.4377 25.5512 67.4377 23.784C67.4377 22.0167 67.8265 20.4616 68.6041 19.1185C69.3817 17.7754 70.442 16.7504 71.8205 16.0082C73.1636 15.2659 74.6834 14.8771 76.3092 14.8771C77.9704 14.8771 79.4549 15.2659 80.798 16.0082C82.1411 16.7504 83.2014 17.7754 83.979 19.1185C84.7566 20.4616 85.1454 22.0167 85.1454 23.784C85.1454 25.5512 84.7566 27.1064 83.9437 28.4495C83.1661 29.7926 82.0704 30.8529 80.7273 31.5951C79.3842 32.3374 77.8997 32.6908 76.2032 32.6908ZM76.2032 28.9089C76.9808 28.9089 77.723 28.7322 78.3945 28.3434C79.1014 27.9546 79.667 27.3538 80.0557 26.6115C80.4799 25.834 80.6919 24.915 80.6919 23.8193C80.6919 22.1935 80.2678 20.9211 79.3842 20.0728C78.5359 19.1892 77.4756 18.7297 76.2385 18.7297C75.0015 18.7297 73.9411 19.1892 73.0929 20.0728C72.2799 20.9564 71.8558 22.1935 71.8558 23.8193C71.8558 25.4452 72.2446 26.7176 73.0575 27.6012C73.9411 28.4495 74.9661 28.9089 76.2032 28.9089ZM91.4721 28.9796H96.1375V32.4434H87.1247V8.05562H91.4721V28.9796ZM99.5306 13.1452C98.753 13.1452 98.1168 12.8978 97.622 12.4383C97.1272 11.9435 96.8798 11.3427 96.8798 10.6004C96.8798 9.85819 97.1272 9.29268 97.622 8.79785C98.1522 8.30303 98.7884 8.05562 99.5306 8.05562C100.308 8.05562 100.944 8.30303 101.439 8.79785C101.969 9.25733 102.217 9.85819 102.217 10.6004C102.217 11.3427 101.969 11.9435 101.439 12.4383C100.909 12.9332 100.308 13.1452 99.5306 13.1452ZM101.687 15.1952V32.4081H97.3039V15.1952H101.687ZM114.269 14.9478C116.319 14.9478 117.981 15.584 119.253 16.8918C120.525 18.1642 121.162 19.9668 121.162 22.2995V32.4081H116.814V22.9004C116.814 21.5219 116.461 20.4969 115.789 19.7547C115.118 19.0124 114.163 18.6237 112.997 18.6237C111.795 18.6237 110.841 19.0124 110.134 19.7547C109.462 20.4969 109.109 21.5219 109.109 22.9004V32.4081H104.726V15.1952H109.074V17.3512C109.639 16.609 110.381 16.0435 111.265 15.6194C112.184 15.1599 113.174 14.9478 114.269 14.9478ZM140 23.4305C140 24.0667 139.965 24.5969 139.859 25.0917H127.276C127.382 26.3288 127.806 27.3184 128.584 28.0253C129.361 28.7322 130.28 29.0857 131.411 29.0857C133.037 29.0857 134.168 28.3788 134.875 27.0003H139.576C139.081 28.6615 138.127 30.04 136.713 31.1003C135.299 32.1606 133.567 32.6908 131.517 32.6908C129.856 32.6908 128.372 32.3374 127.029 31.5951C125.721 30.8529 124.696 29.7926 123.954 28.4495C123.247 27.1064 122.858 25.5512 122.858 23.784C122.858 22.0167 123.212 20.4262 123.954 19.0831C124.696 17.74 125.686 16.715 126.993 15.9728C128.301 15.2306 129.786 14.8771 131.482 14.8771C133.108 14.8771 134.592 15.2306 135.865 15.9375C137.173 16.6444 138.162 17.634 138.869 18.9418C139.647 20.2849 140 21.7693 140 23.4305ZM135.511 22.1935C135.476 21.0624 135.087 20.1788 134.31 19.5073C133.532 18.8357 132.578 18.4823 131.411 18.4823C130.351 18.4823 129.432 18.8004 128.69 19.4719C127.983 20.1081 127.524 21.0271 127.347 22.1581H135.511V22.1935Z" fill="white" fill-opacity="0.6"/>
<path d="M17.3898 39.4063H4.91315L17.4251 20.4969H29.9371L17.3898 39.4063ZM12.8303 0.986694H25.625L12.8303 20.4969H0.000244141L12.8303 0.986694ZM55.4206 17.4573C55.4206 18.6237 55.1378 19.7193 54.5723 20.709C54.0421 21.734 53.1585 22.5469 51.9921 23.1478C50.8258 23.784 49.3766 24.0667 47.5741 24.0667H43.9336V32.4081H39.5862V10.7418H47.5741C49.2352 10.7418 50.6844 11.0246 51.8507 11.6254C53.0171 12.1909 53.9007 13.0039 54.5016 14.0289C55.1025 15.0185 55.4206 16.1495 55.4206 17.4573ZM47.3973 20.5676C48.599 20.5676 49.4827 20.2849 50.0835 19.7547C50.649 19.1892 50.9671 18.4116 50.9671 17.4219C50.9671 15.3013 49.8008 14.2409 47.4327 14.2409H43.9689V20.5323H47.3973V20.5676ZM61.6059 17.8814C62.1714 16.9625 62.8783 16.2556 63.7972 15.7254C64.7162 15.1952 65.7412 14.9478 66.9076 14.9478V19.5073H65.7412C64.3627 19.5073 63.3377 19.8254 62.6309 20.4616C61.9593 21.0978 61.6059 22.2288 61.6059 23.8193V32.4081H57.2585V15.1952H61.6059V17.8814ZM76.2032 32.6908C74.542 32.6908 73.0575 32.3374 71.7144 31.5951C70.4067 30.8529 69.3463 29.7926 68.5687 28.4495C67.8265 27.1064 67.4377 25.5512 67.4377 23.784C67.4377 22.0167 67.8265 20.4616 68.6041 19.1185C69.3817 17.7754 70.442 16.7504 71.8205 16.0082C73.1636 15.2659 74.6834 14.8771 76.3092 14.8771C77.9704 14.8771 79.4549 15.2659 80.798 16.0082C82.1411 16.7504 83.2014 17.7754 83.979 19.1185C84.7566 20.4616 85.1454 22.0167 85.1454 23.784C85.1454 25.5512 84.7566 27.1064 83.9437 28.4495C83.1661 29.7926 82.0704 30.8529 80.7273 31.5951C79.3842 32.3374 77.8997 32.6908 76.2032 32.6908ZM76.2032 28.9089C76.9808 28.9089 77.723 28.7322 78.3945 28.3434C79.1014 27.9546 79.667 27.3538 80.0557 26.6115C80.4799 25.834 80.6919 24.915 80.6919 23.8193C80.6919 22.1935 80.2678 20.9211 79.3842 20.0728C78.5359 19.1892 77.4756 18.7297 76.2385 18.7297C75.0015 18.7297 73.9411 19.1892 73.0929 20.0728C72.2799 20.9564 71.8558 22.1935 71.8558 23.8193C71.8558 25.4452 72.2446 26.7176 73.0575 27.6012C73.9411 28.4495 74.9661 28.9089 76.2032 28.9089ZM91.4721 28.9796H96.1375V32.4434H87.1247V8.05562H91.4721V28.9796ZM99.5306 13.1452C98.753 13.1452 98.1168 12.8978 97.622 12.4383C97.1272 11.9435 96.8798 11.3427 96.8798 10.6004C96.8798 9.85819 97.1272 9.29268 97.622 8.79785C98.1522 8.30303 98.7884 8.05562 99.5306 8.05562C100.308 8.05562 100.944 8.30303 101.439 8.79785C101.969 9.25733 102.217 9.85819 102.217 10.6004C102.217 11.3427 101.969 11.9435 101.439 12.4383C100.909 12.9332 100.308 13.1452 99.5306 13.1452ZM101.687 15.1952V32.4081H97.3039V15.1952H101.687ZM114.269 14.9478C116.319 14.9478 117.981 15.584 119.253 16.8918C120.525 18.1642 121.162 19.9668 121.162 22.2995V32.4081H116.814V22.9004C116.814 21.5219 116.461 20.4969 115.789 19.7547C115.118 19.0124 114.163 18.6237 112.997 18.6237C111.795 18.6237 110.841 19.0124 110.134 19.7547C109.462 20.4969 109.109 21.5219 109.109 22.9004V32.4081H104.726V15.1952H109.074V17.3512C109.639 16.609 110.381 16.0435 111.265 15.6194C112.184 15.1599 113.174 14.9478 114.269 14.9478ZM140 23.4305C140 24.0667 139.965 24.5969 139.859 25.0917H127.276C127.382 26.3288 127.806 27.3184 128.584 28.0253C129.361 28.7322 130.28 29.0857 131.411 29.0857C133.037 29.0857 134.168 28.3788 134.875 27.0003H139.576C139.081 28.6615 138.127 30.04 136.713 31.1003C135.299 32.1606 133.567 32.6908 131.517 32.6908C129.856 32.6908 128.372 32.3374 127.029 31.5951C125.721 30.8529 124.696 29.7926 123.954 28.4495C123.247 27.1064 122.858 25.5512 122.858 23.784C122.858 22.0167 123.212 20.4262 123.954 19.0831C124.696 17.74 125.686 16.715 126.993 15.9728C128.301 15.2306 129.786 14.8771 131.482 14.8771C133.108 14.8771 134.592 15.2306 135.865 15.9375C137.173 16.6444 138.162 17.634 138.869 18.9418C139.647 20.2849 140 21.7693 140 23.4305ZM135.511 22.1935C135.476 21.0624 135.087 20.1788 134.31 19.5073C133.532 18.8357 132.578 18.4823 131.411 18.4823C130.351 18.4823 129.432 18.8004 128.69 19.4719C127.983 20.1081 127.524 21.0271 127.347 22.1581H135.511V22.1935Z" fill="#BCBFDB"/>
<path d="M17.3898 39.4063H4.91315L17.4251 20.4969H29.9371L17.3898 39.4063ZM12.8303 0.986694H25.625L12.8303 20.4969H0.000244141L12.8303 0.986694ZM55.4206 17.4573C55.4206 18.6237 55.1378 19.7193 54.5723 20.709C54.0421 21.734 53.1585 22.5469 51.9921 23.1478C50.8258 23.784 49.3766 24.0667 47.5741 24.0667H43.9336V32.4081H39.5862V10.7418H47.5741C49.2352 10.7418 50.6844 11.0246 51.8507 11.6254C53.0171 12.1909 53.9007 13.0039 54.5016 14.0289C55.1025 15.0185 55.4206 16.1495 55.4206 17.4573ZM47.3973 20.5676C48.599 20.5676 49.4827 20.2849 50.0835 19.7547C50.649 19.1892 50.9671 18.4116 50.9671 17.4219C50.9671 15.3013 49.8008 14.2409 47.4327 14.2409H43.9689V20.5323H47.3973V20.5676ZM61.6059 17.8814C62.1714 16.9625 62.8783 16.2556 63.7972 15.7254C64.7162 15.1952 65.7412 14.9478 66.9076 14.9478V19.5073H65.7412C64.3627 19.5073 63.3377 19.8254 62.6309 20.4616C61.9593 21.0978 61.6059 22.2288 61.6059 23.8193V32.4081H57.2585V15.1952H61.6059V17.8814ZM76.2032 32.6908C74.542 32.6908 73.0575 32.3374 71.7144 31.5951C70.4067 30.8529 69.3463 29.7926 68.5687 28.4495C67.8265 27.1064 67.4377 25.5512 67.4377 23.784C67.4377 22.0167 67.8265 20.4616 68.6041 19.1185C69.3817 17.7754 70.442 16.7504 71.8205 16.0082C73.1636 15.2659 74.6834 14.8771 76.3092 14.8771C77.9704 14.8771 79.4549 15.2659 80.798 16.0082C82.1411 16.7504 83.2014 17.7754 83.979 19.1185C84.7566 20.4616 85.1454 22.0167 85.1454 23.784C85.1454 25.5512 84.7566 27.1064 83.9437 28.4495C83.1661 29.7926 82.0704 30.8529 80.7273 31.5951C79.3842 32.3374 77.8997 32.6908 76.2032 32.6908ZM76.2032 28.9089C76.9808 28.9089 77.723 28.7322 78.3945 28.3434C79.1014 27.9546 79.667 27.3538 80.0557 26.6115C80.4799 25.834 80.6919 24.915 80.6919 23.8193C80.6919 22.1935 80.2678 20.9211 79.3842 20.0728C78.5359 19.1892 77.4756 18.7297 76.2385 18.7297C75.0015 18.7297 73.9411 19.1892 73.0929 20.0728C72.2799 20.9564 71.8558 22.1935 71.8558 23.8193C71.8558 25.4452 72.2446 26.7176 73.0575 27.6012C73.9411 28.4495 74.9661 28.9089 76.2032 28.9089ZM91.4721 28.9796H96.1375V32.4434H87.1247V8.05562H91.4721V28.9796ZM99.5306 13.1452C98.753 13.1452 98.1168 12.8978 97.622 12.4383C97.1272 11.9435 96.8798 11.3427 96.8798 10.6004C96.8798 9.85819 97.1272 9.29268 97.622 8.79785C98.1522 8.30303 98.7884 8.05562 99.5306 8.05562C100.308 8.05562 100.944 8.30303 101.439 8.79785C101.969 9.25733 102.217 9.85819 102.217 10.6004C102.217 11.3427 101.969 11.9435 101.439 12.4383C100.909 12.9332 100.308 13.1452 99.5306 13.1452ZM101.687 15.1952V32.4081H97.3039V15.1952H101.687ZM114.269 14.9478C116.319 14.9478 117.981 15.584 119.253 16.8918C120.525 18.1642 121.162 19.9668 121.162 22.2995V32.4081H116.814V22.9004C116.814 21.5219 116.461 20.4969 115.789 19.7547C115.118 19.0124 114.163 18.6237 112.997 18.6237C111.795 18.6237 110.841 19.0124 110.134 19.7547C109.462 20.4969 109.109 21.5219 109.109 22.9004V32.4081H104.726V15.1952H109.074V17.3512C109.639 16.609 110.381 16.0435 111.265 15.6194C112.184 15.1599 113.174 14.9478 114.269 14.9478ZM140 23.4305C140 24.0667 139.965 24.5969 139.859 25.0917H127.276C127.382 26.3288 127.806 27.3184 128.584 28.0253C129.361 28.7322 130.28 29.0857 131.411 29.0857C133.037 29.0857 134.168 28.3788 134.875 27.0003H139.576C139.081 28.6615 138.127 30.04 136.713 31.1003C135.299 32.1606 133.567 32.6908 131.517 32.6908C129.856 32.6908 128.372 32.3374 127.029 31.5951C125.721 30.8529 124.696 29.7926 123.954 28.4495C123.247 27.1064 122.858 25.5512 122.858 23.784C122.858 22.0167 123.212 20.4262 123.954 19.0831C124.696 17.74 125.686 16.715 126.993 15.9728C128.301 15.2306 129.786 14.8771 131.482 14.8771C133.108 14.8771 134.592 15.2306 135.865 15.9375C137.173 16.6444 138.162 17.634 138.869 18.9418C139.647 20.2849 140 21.7693 140 23.4305ZM135.511 22.1935C135.476 21.0624 135.087 20.1788 134.31 19.5073C133.532 18.8357 132.578 18.4823 131.411 18.4823C130.351 18.4823 129.432 18.8004 128.69 19.4719C127.983 20.1081 127.524 21.0271 127.347 22.1581H135.511V22.1935Z" fill="white" fill-opacity="0.6"/>
<path d="M12.8281 0.986694H25.6703L12.8281 20.5002H0L12.8281 0.986694Z" fill="#BCBFDB"/>
<path d="M12.8281 0.986694H25.6703L12.8281 20.5002H0L12.8281 0.986694Z" fill="white" fill-opacity="0.6"/>
<path d="M17.5986 19.8942H30.4407L17.5986 39.4077H4.77051L17.5986 19.8942Z" fill="#BCBFDB"/>
<path d="M17.5986 19.8942H30.4407L17.5986 39.4077H4.77051L17.5986 19.8942Z" fill="white" fill-opacity="0.6"/>
</g>
<defs>
<clipPath id="clip0_1850_7635">
<rect width="140" height="40" fill="white"/>
</clipPath>
</defs>
</svg>
