<svg width="140" height="36" viewBox="0 0 140 36" fill="none" xmlns="http://www.w3.org/2000/svg">
<g clip-path="url(#clip0_1850_7640)">
<path d="M63.3953 26.7154C62.1733 26.7154 61.0363 26.5065 59.9844 26.0887C58.9642 25.6663 58.0346 25.0519 57.2462 24.2789C56.4742 23.5075 55.8596 22.5932 55.4365 21.5872C55.0032 20.5508 54.7866 19.437 54.7866 18.2455C54.7866 17.0543 55.0032 15.9483 55.4365 14.9274C55.8694 13.8906 56.4729 12.9939 57.2462 12.2356C58.0199 11.4774 58.9248 10.8898 59.9612 10.4723C61.0131 10.039 62.15 9.82239 63.3721 9.82239C64.6716 9.82239 65.8244 10.0313 66.8299 10.4491C67.6926 10.8019 68.4616 11.2654 69.1371 11.8395C69.341 12.0132 69.3441 12.3219 69.1557 12.5122L67.4125 14.2717C67.221 14.4651 66.9088 14.4581 66.7018 14.2813C66.3364 13.9718 65.9257 13.7201 65.484 13.5351C64.8805 13.272 64.1768 13.1405 63.3721 13.1405C62.6607 13.1405 62.0034 13.2643 61.3999 13.5119C60.8119 13.744 60.3016 14.0844 59.8683 14.5332C59.4509 14.9816 59.1182 15.5232 58.8706 16.1572C58.6385 16.7917 58.5225 17.4876 58.5225 18.2455C58.5225 19.0192 58.6385 19.7229 58.8706 20.3574C59.1182 20.9914 59.4509 21.533 59.8683 21.9814C60.3021 22.4306 60.8234 22.7861 61.3999 23.0259C62.0034 23.2731 62.6607 23.3969 63.3721 23.3969C64.2077 23.3969 64.9347 23.2654 65.5536 23.0027C66.004 22.8133 66.4236 22.5578 66.7985 22.2444C67.0036 22.0719 67.31 22.0673 67.4991 22.2568L69.2613 24.0186C69.4539 24.2112 69.4481 24.5265 69.2381 24.6995C68.533 25.2777 67.7446 25.7461 66.8995 26.0887C65.8937 26.5065 64.7257 26.7154 63.3953 26.7154ZM50.4634 26.4601C50.3363 26.4599 50.2145 26.4094 50.1246 26.3195C50.0347 26.2297 49.9842 26.1078 49.9841 25.9807V10.5567C49.9843 10.4296 50.0349 10.3079 50.1247 10.2181C50.2146 10.1283 50.3364 10.0778 50.4634 10.0777H53.1478C53.2749 10.0778 53.3968 10.1283 53.4866 10.2182C53.5765 10.3081 53.627 10.4299 53.6272 10.5571V25.9807C53.627 26.1078 53.5765 26.2297 53.4866 26.3195C53.3968 26.4094 53.2749 26.4599 53.1478 26.4601H50.4634ZM70.4602 25.9807C70.4603 26.1078 70.5108 26.2297 70.6007 26.3195C70.6905 26.4094 70.8124 26.4599 70.9395 26.4601H73.6239C73.6409 26.4601 73.6575 26.4593 73.6742 26.4573C73.6904 26.4593 73.7071 26.4601 73.7241 26.4601H81.7456C81.8727 26.4599 81.9946 26.4094 82.0844 26.3195C82.1743 26.2297 82.2248 26.1078 82.2249 25.9807V23.7834C82.2248 23.6563 82.1743 23.5344 82.0844 23.4446C81.9946 23.3547 81.8727 23.3042 81.7456 23.3041H74.1032V19.6146H80.9336C81.1982 19.6146 81.4125 19.4003 81.4125 19.1353V17.054C81.4125 16.7894 81.1982 16.575 80.9336 16.575H74.1032V13.2101H81.6295C81.7566 13.21 81.8785 13.1595 81.9684 13.0696C82.0582 12.9798 82.1088 12.8579 82.1089 12.7308V10.5571C82.1087 10.43 82.0581 10.3082 81.9682 10.2185C81.8784 10.1287 81.7566 10.0782 81.6295 10.0781H73.7241C73.7071 10.0781 73.6904 10.0789 73.6742 10.0808C73.6575 10.079 73.6407 10.0781 73.6239 10.0781H70.9395C70.8124 10.0782 70.6905 10.1287 70.6007 10.2186C70.5108 10.3085 70.4603 10.4303 70.4602 10.5574V25.9807Z" fill="#BCBFDB"/>
<path d="M63.3953 26.7154C62.1733 26.7154 61.0363 26.5065 59.9844 26.0887C58.9642 25.6663 58.0346 25.0519 57.2462 24.2789C56.4742 23.5075 55.8596 22.5932 55.4365 21.5872C55.0032 20.5508 54.7866 19.437 54.7866 18.2455C54.7866 17.0543 55.0032 15.9483 55.4365 14.9274C55.8694 13.8906 56.4729 12.9939 57.2462 12.2356C58.0199 11.4774 58.9248 10.8898 59.9612 10.4723C61.0131 10.039 62.15 9.82239 63.3721 9.82239C64.6716 9.82239 65.8244 10.0313 66.8299 10.4491C67.6926 10.8019 68.4616 11.2654 69.1371 11.8395C69.341 12.0132 69.3441 12.3219 69.1557 12.5122L67.4125 14.2717C67.221 14.4651 66.9088 14.4581 66.7018 14.2813C66.3364 13.9718 65.9257 13.7201 65.484 13.5351C64.8805 13.272 64.1768 13.1405 63.3721 13.1405C62.6607 13.1405 62.0034 13.2643 61.3999 13.5119C60.8119 13.744 60.3016 14.0844 59.8683 14.5332C59.4509 14.9816 59.1182 15.5232 58.8706 16.1572C58.6385 16.7917 58.5225 17.4876 58.5225 18.2455C58.5225 19.0192 58.6385 19.7229 58.8706 20.3574C59.1182 20.9914 59.4509 21.533 59.8683 21.9814C60.3021 22.4306 60.8234 22.7861 61.3999 23.0259C62.0034 23.2731 62.6607 23.3969 63.3721 23.3969C64.2077 23.3969 64.9347 23.2654 65.5536 23.0027C66.004 22.8133 66.4236 22.5578 66.7985 22.2444C67.0036 22.0719 67.31 22.0673 67.4991 22.2568L69.2613 24.0186C69.4539 24.2112 69.4481 24.5265 69.2381 24.6995C68.533 25.2777 67.7446 25.7461 66.8995 26.0887C65.8937 26.5065 64.7257 26.7154 63.3953 26.7154ZM50.4634 26.4601C50.3363 26.4599 50.2145 26.4094 50.1246 26.3195C50.0347 26.2297 49.9842 26.1078 49.9841 25.9807V10.5567C49.9843 10.4296 50.0349 10.3079 50.1247 10.2181C50.2146 10.1283 50.3364 10.0778 50.4634 10.0777H53.1478C53.2749 10.0778 53.3968 10.1283 53.4866 10.2182C53.5765 10.3081 53.627 10.4299 53.6272 10.5571V25.9807C53.627 26.1078 53.5765 26.2297 53.4866 26.3195C53.3968 26.4094 53.2749 26.4599 53.1478 26.4601H50.4634ZM70.4602 25.9807C70.4603 26.1078 70.5108 26.2297 70.6007 26.3195C70.6905 26.4094 70.8124 26.4599 70.9395 26.4601H73.6239C73.6409 26.4601 73.6575 26.4593 73.6742 26.4573C73.6904 26.4593 73.7071 26.4601 73.7241 26.4601H81.7456C81.8727 26.4599 81.9946 26.4094 82.0844 26.3195C82.1743 26.2297 82.2248 26.1078 82.2249 25.9807V23.7834C82.2248 23.6563 82.1743 23.5344 82.0844 23.4446C81.9946 23.3547 81.8727 23.3042 81.7456 23.3041H74.1032V19.6146H80.9336C81.1982 19.6146 81.4125 19.4003 81.4125 19.1353V17.054C81.4125 16.7894 81.1982 16.575 80.9336 16.575H74.1032V13.2101H81.6295C81.7566 13.21 81.8785 13.1595 81.9684 13.0696C82.0582 12.9798 82.1088 12.8579 82.1089 12.7308V10.5571C82.1087 10.43 82.0581 10.3082 81.9682 10.2185C81.8784 10.1287 81.7566 10.0782 81.6295 10.0781H73.7241C73.7071 10.0781 73.6904 10.0789 73.6742 10.0808C73.6575 10.079 73.6407 10.0781 73.6239 10.0781H70.9395C70.8124 10.0782 70.6905 10.1287 70.6007 10.2186C70.5108 10.3085 70.4603 10.4303 70.4602 10.5574V25.9807Z" fill="white" fill-opacity="0.6"/>
<path d="M63.3953 26.7154C62.1733 26.7154 61.0363 26.5065 59.9844 26.0887C58.9642 25.6663 58.0346 25.0519 57.2462 24.2789C56.4742 23.5075 55.8596 22.5932 55.4365 21.5872C55.0032 20.5508 54.7866 19.437 54.7866 18.2455C54.7866 17.0543 55.0032 15.9483 55.4365 14.9274C55.8694 13.8906 56.4729 12.9939 57.2462 12.2356C58.0199 11.4774 58.9248 10.8898 59.9612 10.4723C61.0131 10.039 62.15 9.82239 63.3721 9.82239C64.6716 9.82239 65.8244 10.0313 66.8299 10.4491C67.6926 10.8019 68.4616 11.2654 69.1371 11.8395C69.341 12.0132 69.3441 12.3219 69.1557 12.5122L67.4125 14.2717C67.221 14.4651 66.9088 14.4581 66.7018 14.2813C66.3364 13.9718 65.9257 13.7201 65.484 13.5351C64.8805 13.272 64.1768 13.1405 63.3721 13.1405C62.6607 13.1405 62.0034 13.2643 61.3999 13.5119C60.8119 13.744 60.3016 14.0844 59.8683 14.5332C59.4509 14.9816 59.1182 15.5232 58.8706 16.1572C58.6385 16.7917 58.5225 17.4876 58.5225 18.2455C58.5225 19.0192 58.6385 19.7229 58.8706 20.3574C59.1182 20.9914 59.4509 21.533 59.8683 21.9814C60.3021 22.4306 60.8234 22.7861 61.3999 23.0259C62.0034 23.2731 62.6607 23.3969 63.3721 23.3969C64.2077 23.3969 64.9347 23.2654 65.5536 23.0027C66.004 22.8133 66.4236 22.5578 66.7985 22.2444C67.0036 22.0719 67.31 22.0673 67.4991 22.2568L69.2613 24.0186C69.4539 24.2112 69.4481 24.5265 69.2381 24.6995C68.533 25.2777 67.7446 25.7461 66.8995 26.0887C65.8937 26.5065 64.7257 26.7154 63.3953 26.7154ZM50.4634 26.4601C50.3363 26.4599 50.2145 26.4094 50.1246 26.3195C50.0347 26.2297 49.9842 26.1078 49.9841 25.9807V10.5567C49.9843 10.4296 50.0349 10.3079 50.1247 10.2181C50.2146 10.1283 50.3364 10.0778 50.4634 10.0777H53.1478C53.2749 10.0778 53.3968 10.1283 53.4866 10.2182C53.5765 10.3081 53.627 10.4299 53.6272 10.5571V25.9807C53.627 26.1078 53.5765 26.2297 53.4866 26.3195C53.3968 26.4094 53.2749 26.4599 53.1478 26.4601H50.4634ZM70.4602 25.9807C70.4603 26.1078 70.5108 26.2297 70.6007 26.3195C70.6905 26.4094 70.8124 26.4599 70.9395 26.4601H73.6239C73.6409 26.4601 73.6575 26.4593 73.6742 26.4573C73.6904 26.4593 73.7071 26.4601 73.7241 26.4601H81.7456C81.8727 26.4599 81.9946 26.4094 82.0844 26.3195C82.1743 26.2297 82.2248 26.1078 82.2249 25.9807V23.7834C82.2248 23.6563 82.1743 23.5344 82.0844 23.4446C81.9946 23.3547 81.8727 23.3042 81.7456 23.3041H74.1032V19.6146H80.9336C81.1982 19.6146 81.4125 19.4003 81.4125 19.1353V17.054C81.4125 16.7894 81.1982 16.575 80.9336 16.575H74.1032V13.2101H81.6295C81.7566 13.21 81.8785 13.1595 81.9684 13.0696C82.0582 12.9798 82.1088 12.8579 82.1089 12.7308V10.5571C82.1087 10.43 82.0581 10.3082 81.9682 10.2185C81.8784 10.1287 81.7566 10.0782 81.6295 10.0781H73.7241C73.7071 10.0781 73.6904 10.0789 73.6742 10.0808C73.6575 10.079 73.6407 10.0781 73.6239 10.0781H70.9395C70.8124 10.0782 70.6905 10.1287 70.6007 10.2186C70.5108 10.3085 70.4603 10.4303 70.4602 10.5574V25.9807Z" fill="#BCBFDB"/>
<path d="M63.3953 26.7154C62.1733 26.7154 61.0363 26.5065 59.9844 26.0887C58.9642 25.6663 58.0346 25.0519 57.2462 24.2789C56.4742 23.5075 55.8596 22.5932 55.4365 21.5872C55.0032 20.5508 54.7866 19.437 54.7866 18.2455C54.7866 17.0543 55.0032 15.9483 55.4365 14.9274C55.8694 13.8906 56.4729 12.9939 57.2462 12.2356C58.0199 11.4774 58.9248 10.8898 59.9612 10.4723C61.0131 10.039 62.15 9.82239 63.3721 9.82239C64.6716 9.82239 65.8244 10.0313 66.8299 10.4491C67.6926 10.8019 68.4616 11.2654 69.1371 11.8395C69.341 12.0132 69.3441 12.3219 69.1557 12.5122L67.4125 14.2717C67.221 14.4651 66.9088 14.4581 66.7018 14.2813C66.3364 13.9718 65.9257 13.7201 65.484 13.5351C64.8805 13.272 64.1768 13.1405 63.3721 13.1405C62.6607 13.1405 62.0034 13.2643 61.3999 13.5119C60.8119 13.744 60.3016 14.0844 59.8683 14.5332C59.4509 14.9816 59.1182 15.5232 58.8706 16.1572C58.6385 16.7917 58.5225 17.4876 58.5225 18.2455C58.5225 19.0192 58.6385 19.7229 58.8706 20.3574C59.1182 20.9914 59.4509 21.533 59.8683 21.9814C60.3021 22.4306 60.8234 22.7861 61.3999 23.0259C62.0034 23.2731 62.6607 23.3969 63.3721 23.3969C64.2077 23.3969 64.9347 23.2654 65.5536 23.0027C66.004 22.8133 66.4236 22.5578 66.7985 22.2444C67.0036 22.0719 67.31 22.0673 67.4991 22.2568L69.2613 24.0186C69.4539 24.2112 69.4481 24.5265 69.2381 24.6995C68.533 25.2777 67.7446 25.7461 66.8995 26.0887C65.8937 26.5065 64.7257 26.7154 63.3953 26.7154ZM50.4634 26.4601C50.3363 26.4599 50.2145 26.4094 50.1246 26.3195C50.0347 26.2297 49.9842 26.1078 49.9841 25.9807V10.5567C49.9843 10.4296 50.0349 10.3079 50.1247 10.2181C50.2146 10.1283 50.3364 10.0778 50.4634 10.0777H53.1478C53.2749 10.0778 53.3968 10.1283 53.4866 10.2182C53.5765 10.3081 53.627 10.4299 53.6272 10.5571V25.9807C53.627 26.1078 53.5765 26.2297 53.4866 26.3195C53.3968 26.4094 53.2749 26.4599 53.1478 26.4601H50.4634ZM70.4602 25.9807C70.4603 26.1078 70.5108 26.2297 70.6007 26.3195C70.6905 26.4094 70.8124 26.4599 70.9395 26.4601H73.6239C73.6409 26.4601 73.6575 26.4593 73.6742 26.4573C73.6904 26.4593 73.7071 26.4601 73.7241 26.4601H81.7456C81.8727 26.4599 81.9946 26.4094 82.0844 26.3195C82.1743 26.2297 82.2248 26.1078 82.2249 25.9807V23.7834C82.2248 23.6563 82.1743 23.5344 82.0844 23.4446C81.9946 23.3547 81.8727 23.3042 81.7456 23.3041H74.1032V19.6146H80.9336C81.1982 19.6146 81.4125 19.4003 81.4125 19.1353V17.054C81.4125 16.7894 81.1982 16.575 80.9336 16.575H74.1032V13.2101H81.6295C81.7566 13.21 81.8785 13.1595 81.9684 13.0696C82.0582 12.9798 82.1088 12.8579 82.1089 12.7308V10.5571C82.1087 10.43 82.0581 10.3082 81.9682 10.2185C81.8784 10.1287 81.7566 10.0782 81.6295 10.0781H73.7241C73.7071 10.0781 73.6904 10.0789 73.6742 10.0808C73.6575 10.079 73.6407 10.0781 73.6239 10.0781H70.9395C70.8124 10.0782 70.6905 10.1287 70.6007 10.2186C70.5108 10.3085 70.4603 10.4303 70.4602 10.5574V25.9807Z" fill="white" fill-opacity="0.6"/>
<path fill-rule="evenodd" clip-rule="evenodd" d="M86.8399 26.4601C86.8152 26.4601 86.7908 26.4581 86.7668 26.4547C86.7426 26.4582 86.7181 26.46 86.6937 26.4601H84.0557C83.9286 26.4601 83.8066 26.4096 83.7168 26.3197C83.6269 26.2298 83.5764 26.1079 83.5764 25.9808V10.5567C83.5764 10.2925 83.7907 10.0778 84.0557 10.0778H86.6937C86.7184 10.0778 86.7432 10.0797 86.7668 10.0832C86.791 10.0795 86.8154 10.0777 86.8399 10.0778H90.6071C91.659 10.0778 92.5488 10.2712 93.2757 10.658C94.0185 11.0449 94.5829 11.5629 94.9697 12.2124C95.3562 12.8624 95.5497 13.5819 95.5497 14.3707C95.5497 15.3762 95.2251 16.2269 94.5752 16.9228C94.2955 17.223 93.9581 17.4826 93.5631 17.702C94.1167 17.9736 94.5856 18.3171 94.9697 18.733C95.7276 19.5376 96.1067 20.5276 96.1067 21.7033C96.1067 22.6004 95.8823 23.4124 95.4336 24.1397C95.0007 24.8511 94.3662 25.4159 93.531 25.8334C92.7113 26.2512 91.7209 26.4601 90.5607 26.4601H86.8399ZM87.173 23.629H90.2129C90.9244 23.629 91.4814 23.4201 91.8834 23.0027C92.2857 22.5849 92.4869 22.0743 92.4869 21.4711C92.4869 21.0533 92.394 20.6823 92.2084 20.3574C92.0227 20.0324 91.7596 19.7771 91.4195 19.5914C91.0946 19.4057 90.6923 19.3129 90.2129 19.3129H87.173V23.629ZM89.9112 16.5518H87.173V12.9088H89.9112C90.5143 12.9088 91.0017 13.0635 91.3731 13.373C91.7441 13.6666 91.9298 14.1154 91.9298 14.7185C91.9298 15.3375 91.7441 15.8017 91.3731 16.1112C91.0017 16.4048 90.5143 16.5518 89.9112 16.5518Z" fill="#BCBFDB"/>
<path fill-rule="evenodd" clip-rule="evenodd" d="M86.8399 26.4601C86.8152 26.4601 86.7908 26.4581 86.7668 26.4547C86.7426 26.4582 86.7181 26.46 86.6937 26.4601H84.0557C83.9286 26.4601 83.8066 26.4096 83.7168 26.3197C83.6269 26.2298 83.5764 26.1079 83.5764 25.9808V10.5567C83.5764 10.2925 83.7907 10.0778 84.0557 10.0778H86.6937C86.7184 10.0778 86.7432 10.0797 86.7668 10.0832C86.791 10.0795 86.8154 10.0777 86.8399 10.0778H90.6071C91.659 10.0778 92.5488 10.2712 93.2757 10.658C94.0185 11.0449 94.5829 11.5629 94.9697 12.2124C95.3562 12.8624 95.5497 13.5819 95.5497 14.3707C95.5497 15.3762 95.2251 16.2269 94.5752 16.9228C94.2955 17.223 93.9581 17.4826 93.5631 17.702C94.1167 17.9736 94.5856 18.3171 94.9697 18.733C95.7276 19.5376 96.1067 20.5276 96.1067 21.7033C96.1067 22.6004 95.8823 23.4124 95.4336 24.1397C95.0007 24.8511 94.3662 25.4159 93.531 25.8334C92.7113 26.2512 91.7209 26.4601 90.5607 26.4601H86.8399ZM87.173 23.629H90.2129C90.9244 23.629 91.4814 23.4201 91.8834 23.0027C92.2857 22.5849 92.4869 22.0743 92.4869 21.4711C92.4869 21.0533 92.394 20.6823 92.2084 20.3574C92.0227 20.0324 91.7596 19.7771 91.4195 19.5914C91.0946 19.4057 90.6923 19.3129 90.2129 19.3129H87.173V23.629ZM89.9112 16.5518H87.173V12.9088H89.9112C90.5143 12.9088 91.0017 13.0635 91.3731 13.373C91.7441 13.6666 91.9298 14.1154 91.9298 14.7185C91.9298 15.3375 91.7441 15.8017 91.3731 16.1112C91.0017 16.4048 90.5143 16.5518 89.9112 16.5518Z" fill="white" fill-opacity="0.6"/>
<path fill-rule="evenodd" clip-rule="evenodd" d="M86.8399 26.4601C86.8152 26.4601 86.7908 26.4581 86.7668 26.4547C86.7426 26.4582 86.7181 26.46 86.6937 26.4601H84.0557C83.9286 26.4601 83.8066 26.4096 83.7168 26.3197C83.6269 26.2298 83.5764 26.1079 83.5764 25.9808V10.5567C83.5764 10.2925 83.7907 10.0778 84.0557 10.0778H86.6937C86.7184 10.0778 86.7432 10.0797 86.7668 10.0832C86.791 10.0795 86.8154 10.0777 86.8399 10.0778H90.6071C91.659 10.0778 92.5488 10.2712 93.2757 10.658C94.0185 11.0449 94.5829 11.5629 94.9697 12.2124C95.3562 12.8624 95.5497 13.5819 95.5497 14.3707C95.5497 15.3762 95.2251 16.2269 94.5752 16.9228C94.2955 17.223 93.9581 17.4826 93.5631 17.702C94.1167 17.9736 94.5856 18.3171 94.9697 18.733C95.7276 19.5376 96.1067 20.5276 96.1067 21.7033C96.1067 22.6004 95.8823 23.4124 95.4336 24.1397C95.0007 24.8511 94.3662 25.4159 93.531 25.8334C92.7113 26.2512 91.7209 26.4601 90.5607 26.4601H86.8399ZM87.173 23.629H90.2129C90.9244 23.629 91.4814 23.4201 91.8834 23.0027C92.2857 22.5849 92.4869 22.0743 92.4869 21.4711C92.4869 21.0533 92.394 20.6823 92.2084 20.3574C92.0227 20.0324 91.7596 19.7771 91.4195 19.5914C91.0946 19.4057 90.6923 19.3129 90.2129 19.3129H87.173V23.629ZM89.9112 16.5518H87.173V12.9088H89.9112C90.5143 12.9088 91.0017 13.0635 91.3731 13.373C91.7441 13.6666 91.9298 14.1154 91.9298 14.7185C91.9298 15.3375 91.7441 15.8017 91.3731 16.1112C91.0017 16.4048 90.5143 16.5518 89.9112 16.5518Z" fill="#BCBFDB"/>
<path fill-rule="evenodd" clip-rule="evenodd" d="M86.8399 26.4601C86.8152 26.4601 86.7908 26.4581 86.7668 26.4547C86.7426 26.4582 86.7181 26.46 86.6937 26.4601H84.0557C83.9286 26.4601 83.8066 26.4096 83.7168 26.3197C83.6269 26.2298 83.5764 26.1079 83.5764 25.9808V10.5567C83.5764 10.2925 83.7907 10.0778 84.0557 10.0778H86.6937C86.7184 10.0778 86.7432 10.0797 86.7668 10.0832C86.791 10.0795 86.8154 10.0777 86.8399 10.0778H90.6071C91.659 10.0778 92.5488 10.2712 93.2757 10.658C94.0185 11.0449 94.5829 11.5629 94.9697 12.2124C95.3562 12.8624 95.5497 13.5819 95.5497 14.3707C95.5497 15.3762 95.2251 16.2269 94.5752 16.9228C94.2955 17.223 93.9581 17.4826 93.5631 17.702C94.1167 17.9736 94.5856 18.3171 94.9697 18.733C95.7276 19.5376 96.1067 20.5276 96.1067 21.7033C96.1067 22.6004 95.8823 23.4124 95.4336 24.1397C95.0007 24.8511 94.3662 25.4159 93.531 25.8334C92.7113 26.2512 91.7209 26.4601 90.5607 26.4601H86.8399ZM87.173 23.629H90.2129C90.9244 23.629 91.4814 23.4201 91.8834 23.0027C92.2857 22.5849 92.4869 22.0743 92.4869 21.4711C92.4869 21.0533 92.394 20.6823 92.2084 20.3574C92.0227 20.0324 91.7596 19.7771 91.4195 19.5914C91.0946 19.4057 90.6923 19.3129 90.2129 19.3129H87.173V23.629ZM89.9112 16.5518H87.173V12.9088H89.9112C90.5143 12.9088 91.0017 13.0635 91.3731 13.373C91.7441 13.6666 91.9298 14.1154 91.9298 14.7185C91.9298 15.3375 91.7441 15.8017 91.3731 16.1112C91.0017 16.4048 90.5143 16.5518 89.9112 16.5518Z" fill="white" fill-opacity="0.6"/>
<path d="M97.2812 25.9808C97.2813 26.1079 97.332 26.2297 97.4218 26.3196C97.5117 26.4095 97.6336 26.46 97.7607 26.4601H100.445C100.462 26.4601 100.479 26.4593 100.495 26.4574C100.511 26.4593 100.528 26.4601 100.545 26.4601H108.567C108.832 26.4601 109.046 26.2454 109.046 25.9808V23.7834C109.046 23.5188 108.832 23.3041 108.567 23.3041H100.925V19.6146H107.755C107.882 19.6145 108.004 19.564 108.093 19.4741C108.183 19.3843 108.234 19.2624 108.234 19.1353V17.054C108.234 16.927 108.183 16.8052 108.093 16.7155C108.003 16.6257 107.882 16.5752 107.755 16.5751H100.925V13.2102H108.451C108.716 13.2102 108.93 12.9959 108.93 12.7309V10.5571C108.93 10.2929 108.716 10.0782 108.451 10.0782H100.545C100.528 10.0782 100.511 10.079 100.495 10.0809C100.479 10.0791 100.462 10.0782 100.445 10.0782H97.7607C97.6336 10.0783 97.5117 10.1288 97.4218 10.2187C97.332 10.3086 97.2813 10.4304 97.2812 10.5575V25.9808Z" fill="#BCBFDB"/>
<path d="M97.2812 25.9808C97.2813 26.1079 97.332 26.2297 97.4218 26.3196C97.5117 26.4095 97.6336 26.46 97.7607 26.4601H100.445C100.462 26.4601 100.479 26.4593 100.495 26.4574C100.511 26.4593 100.528 26.4601 100.545 26.4601H108.567C108.832 26.4601 109.046 26.2454 109.046 25.9808V23.7834C109.046 23.5188 108.832 23.3041 108.567 23.3041H100.925V19.6146H107.755C107.882 19.6145 108.004 19.564 108.093 19.4741C108.183 19.3843 108.234 19.2624 108.234 19.1353V17.054C108.234 16.927 108.183 16.8052 108.093 16.7155C108.003 16.6257 107.882 16.5752 107.755 16.5751H100.925V13.2102H108.451C108.716 13.2102 108.93 12.9959 108.93 12.7309V10.5571C108.93 10.2929 108.716 10.0782 108.451 10.0782H100.545C100.528 10.0782 100.511 10.079 100.495 10.0809C100.479 10.0791 100.462 10.0782 100.445 10.0782H97.7607C97.6336 10.0783 97.5117 10.1288 97.4218 10.2187C97.332 10.3086 97.2813 10.4304 97.2812 10.5575V25.9808Z" fill="white" fill-opacity="0.6"/>
<path d="M97.2812 25.9808C97.2813 26.1079 97.332 26.2297 97.4218 26.3196C97.5117 26.4095 97.6336 26.46 97.7607 26.4601H100.445C100.462 26.4601 100.479 26.4593 100.495 26.4574C100.511 26.4593 100.528 26.4601 100.545 26.4601H108.567C108.832 26.4601 109.046 26.2454 109.046 25.9808V23.7834C109.046 23.5188 108.832 23.3041 108.567 23.3041H100.925V19.6146H107.755C107.882 19.6145 108.004 19.564 108.093 19.4741C108.183 19.3843 108.234 19.2624 108.234 19.1353V17.054C108.234 16.927 108.183 16.8052 108.093 16.7155C108.003 16.6257 107.882 16.5752 107.755 16.5751H100.925V13.2102H108.451C108.716 13.2102 108.93 12.9959 108.93 12.7309V10.5571C108.93 10.2929 108.716 10.0782 108.451 10.0782H100.545C100.528 10.0782 100.511 10.079 100.495 10.0809C100.479 10.0791 100.462 10.0782 100.445 10.0782H97.7607C97.6336 10.0783 97.5117 10.1288 97.4218 10.2187C97.332 10.3086 97.2813 10.4304 97.2812 10.5575V25.9808Z" fill="#BCBFDB"/>
<path d="M97.2812 25.9808C97.2813 26.1079 97.332 26.2297 97.4218 26.3196C97.5117 26.4095 97.6336 26.46 97.7607 26.4601H100.445C100.462 26.4601 100.479 26.4593 100.495 26.4574C100.511 26.4593 100.528 26.4601 100.545 26.4601H108.567C108.832 26.4601 109.046 26.2454 109.046 25.9808V23.7834C109.046 23.5188 108.832 23.3041 108.567 23.3041H100.925V19.6146H107.755C107.882 19.6145 108.004 19.564 108.093 19.4741C108.183 19.3843 108.234 19.2624 108.234 19.1353V17.054C108.234 16.927 108.183 16.8052 108.093 16.7155C108.003 16.6257 107.882 16.5752 107.755 16.5751H100.925V13.2102H108.451C108.716 13.2102 108.93 12.9959 108.93 12.7309V10.5571C108.93 10.2929 108.716 10.0782 108.451 10.0782H100.545C100.528 10.0782 100.511 10.079 100.495 10.0809C100.479 10.0791 100.462 10.0782 100.445 10.0782H97.7607C97.6336 10.0783 97.5117 10.1288 97.4218 10.2187C97.332 10.3086 97.2813 10.4304 97.2812 10.5575V25.9808Z" fill="white" fill-opacity="0.6"/>
<path fill-rule="evenodd" clip-rule="evenodd" d="M114.04 25.9808V19.7075H114.519C114.522 19.7972 114.551 19.8878 114.61 19.9682L119.164 26.2616C119.254 26.3862 119.399 26.4601 119.553 26.4601H122.655C123.051 26.4601 123.277 26.0052 123.036 25.6899L118.376 19.5895C118.933 19.4905 119.445 19.3287 119.911 19.1044C120.747 18.702 121.396 18.145 121.86 17.4335C122.325 16.7062 122.557 15.8633 122.557 14.9042C122.557 13.9603 122.325 13.1251 121.86 12.3982C121.396 11.6709 120.754 11.1064 119.935 10.7041C119.114 10.2863 118.163 10.0774 117.08 10.0774H113.661C113.644 10.0774 113.628 10.0786 113.611 10.0801C113.595 10.0785 113.578 10.0777 113.561 10.0778H110.877C110.75 10.0779 110.628 10.1284 110.538 10.2183C110.448 10.3082 110.397 10.43 110.397 10.5571V25.9808C110.397 26.1079 110.448 26.2297 110.538 26.3196C110.628 26.4095 110.75 26.46 110.877 26.4601H113.561C113.826 26.4601 114.04 26.2454 114.04 25.9808ZM116.639 17.0157H114.04V12.9092H116.662C117.39 12.9092 117.946 13.1026 118.333 13.4895C118.72 13.876 118.913 14.3634 118.913 14.9511C118.913 15.5855 118.712 16.0884 118.31 16.4594C117.923 16.8308 117.367 17.0157 116.639 17.0157Z" fill="#BCBFDB"/>
<path fill-rule="evenodd" clip-rule="evenodd" d="M114.04 25.9808V19.7075H114.519C114.522 19.7972 114.551 19.8878 114.61 19.9682L119.164 26.2616C119.254 26.3862 119.399 26.4601 119.553 26.4601H122.655C123.051 26.4601 123.277 26.0052 123.036 25.6899L118.376 19.5895C118.933 19.4905 119.445 19.3287 119.911 19.1044C120.747 18.702 121.396 18.145 121.86 17.4335C122.325 16.7062 122.557 15.8633 122.557 14.9042C122.557 13.9603 122.325 13.1251 121.86 12.3982C121.396 11.6709 120.754 11.1064 119.935 10.7041C119.114 10.2863 118.163 10.0774 117.08 10.0774H113.661C113.644 10.0774 113.628 10.0786 113.611 10.0801C113.595 10.0785 113.578 10.0777 113.561 10.0778H110.877C110.75 10.0779 110.628 10.1284 110.538 10.2183C110.448 10.3082 110.397 10.43 110.397 10.5571V25.9808C110.397 26.1079 110.448 26.2297 110.538 26.3196C110.628 26.4095 110.75 26.46 110.877 26.4601H113.561C113.826 26.4601 114.04 26.2454 114.04 25.9808ZM116.639 17.0157H114.04V12.9092H116.662C117.39 12.9092 117.946 13.1026 118.333 13.4895C118.72 13.876 118.913 14.3634 118.913 14.9511C118.913 15.5855 118.712 16.0884 118.31 16.4594C117.923 16.8308 117.367 17.0157 116.639 17.0157Z" fill="white" fill-opacity="0.6"/>
<path fill-rule="evenodd" clip-rule="evenodd" d="M114.04 25.9808V19.7075H114.519C114.522 19.7972 114.551 19.8878 114.61 19.9682L119.164 26.2616C119.254 26.3862 119.399 26.4601 119.553 26.4601H122.655C123.051 26.4601 123.277 26.0052 123.036 25.6899L118.376 19.5895C118.933 19.4905 119.445 19.3287 119.911 19.1044C120.747 18.702 121.396 18.145 121.86 17.4335C122.325 16.7062 122.557 15.8633 122.557 14.9042C122.557 13.9603 122.325 13.1251 121.86 12.3982C121.396 11.6709 120.754 11.1064 119.935 10.7041C119.114 10.2863 118.163 10.0774 117.08 10.0774H113.661C113.644 10.0774 113.628 10.0786 113.611 10.0801C113.595 10.0785 113.578 10.0777 113.561 10.0778H110.877C110.75 10.0779 110.628 10.1284 110.538 10.2183C110.448 10.3082 110.397 10.43 110.397 10.5571V25.9808C110.397 26.1079 110.448 26.2297 110.538 26.3196C110.628 26.4095 110.75 26.46 110.877 26.4601H113.561C113.826 26.4601 114.04 26.2454 114.04 25.9808ZM116.639 17.0157H114.04V12.9092H116.662C117.39 12.9092 117.946 13.1026 118.333 13.4895C118.72 13.876 118.913 14.3634 118.913 14.9511C118.913 15.5855 118.712 16.0884 118.31 16.4594C117.923 16.8308 117.367 17.0157 116.639 17.0157Z" fill="#BCBFDB"/>
<path fill-rule="evenodd" clip-rule="evenodd" d="M114.04 25.9808V19.7075H114.519C114.522 19.7972 114.551 19.8878 114.61 19.9682L119.164 26.2616C119.254 26.3862 119.399 26.4601 119.553 26.4601H122.655C123.051 26.4601 123.277 26.0052 123.036 25.6899L118.376 19.5895C118.933 19.4905 119.445 19.3287 119.911 19.1044C120.747 18.702 121.396 18.145 121.86 17.4335C122.325 16.7062 122.557 15.8633 122.557 14.9042C122.557 13.9603 122.325 13.1251 121.86 12.3982C121.396 11.6709 120.754 11.1064 119.935 10.7041C119.114 10.2863 118.163 10.0774 117.08 10.0774H113.661C113.644 10.0774 113.628 10.0786 113.611 10.0801C113.595 10.0785 113.578 10.0777 113.561 10.0778H110.877C110.75 10.0779 110.628 10.1284 110.538 10.2183C110.448 10.3082 110.397 10.43 110.397 10.5571V25.9808C110.397 26.1079 110.448 26.2297 110.538 26.3196C110.628 26.4095 110.75 26.46 110.877 26.4601H113.561C113.826 26.4601 114.04 26.2454 114.04 25.9808ZM116.639 17.0157H114.04V12.9092H116.662C117.39 12.9092 117.946 13.1026 118.333 13.4895C118.72 13.876 118.913 14.3634 118.913 14.9511C118.913 15.5855 118.712 16.0884 118.31 16.4594C117.923 16.8308 117.367 17.0157 116.639 17.0157Z" fill="white" fill-opacity="0.6"/>
<path d="M128.352 26.0932C129.404 26.5265 130.525 26.7431 131.716 26.7431C133.341 26.7431 134.772 26.4027 136.009 25.7222C137.262 25.0413 138.237 24.0359 138.933 22.7055C139.644 21.3596 140 19.7042 140 17.7398V17.6856C140 17.4206 139.786 17.2059 139.521 17.2059H131.871C131.743 17.206 131.621 17.2566 131.532 17.3465C131.442 17.4365 131.391 17.5584 131.391 17.6856V19.8203C131.391 19.946 131.441 20.0667 131.529 20.1564C131.617 20.246 131.737 20.2975 131.863 20.2996L136.098 20.3669C136.008 20.7077 135.885 21.0234 135.731 21.3132C135.375 21.994 134.856 22.5198 134.176 22.8912C133.51 23.2471 132.698 23.4246 131.739 23.4246C130.796 23.4246 129.96 23.2084 129.233 22.7751C128.506 22.3418 127.934 21.7387 127.516 20.965C127.099 20.1917 126.89 19.2945 126.89 18.2732C126.89 17.2523 127.099 16.3629 127.516 15.6051C127.949 14.8313 128.545 14.2356 129.303 13.8178C130.061 13.3849 130.92 13.1686 131.879 13.1686C132.776 13.1686 133.58 13.3388 134.292 13.6793C134.851 13.9462 135.352 14.318 135.796 14.795C135.993 15.0066 136.329 15.0294 136.533 14.8252L138.319 13.039C138.495 12.863 138.509 12.5798 138.337 12.3996C137.63 11.6568 136.769 11.0626 135.754 10.6161C134.609 10.1055 133.333 9.85015 131.925 9.85015C130.703 9.85015 129.558 10.0668 128.491 10.5001C127.423 10.9179 126.487 11.5133 125.683 12.2866C124.894 13.0447 124.263 13.9517 123.827 14.9551C123.378 15.9765 123.154 17.0821 123.154 18.2732C123.154 19.4648 123.37 20.5785 123.803 21.6149C124.241 22.619 124.862 23.5321 125.637 24.3067C126.41 25.0645 127.315 25.6603 128.352 26.0932ZM2.05229 4.2701C2.38419e-07 6.87985 0 10.6997 0 18.3402C0 25.9802 2.38419e-07 29.8001 2.05229 32.4102C2.52334 33.0092 3.06412 33.5498 3.66317 34.0207C3.89165 34.2005 4.1312 34.3657 4.3804 34.5155L14.4836 12.21C14.6954 11.7427 15.0759 11.3726 15.5489 11.1739C16.022 10.9752 16.5526 10.9625 17.0346 11.1384L23.4549 13.482C23.754 13.5911 24.0233 13.769 24.2411 14.0012C24.459 14.2334 24.6192 14.5135 24.7091 14.819L30.5889 34.7875C31.0186 34.574 31.4252 34.3171 31.8025 34.0207C32.4016 33.5498 32.9424 33.0092 33.4134 32.4102C35.4657 29.8001 35.4657 25.9802 35.4657 18.3402C35.4657 10.6997 35.4657 6.87985 33.4134 4.2701C32.9423 3.67118 32.4016 3.13054 31.8025 2.65961C29.1928 0.606933 25.3725 0.606934 17.7325 0.606934C10.0928 0.606934 6.27253 0.606933 3.66239 2.65961C3.06351 3.13058 2.52326 3.67122 2.05229 4.2701Z" fill="#BCBFDB"/>
<path d="M128.352 26.0932C129.404 26.5265 130.525 26.7431 131.716 26.7431C133.341 26.7431 134.772 26.4027 136.009 25.7222C137.262 25.0413 138.237 24.0359 138.933 22.7055C139.644 21.3596 140 19.7042 140 17.7398V17.6856C140 17.4206 139.786 17.2059 139.521 17.2059H131.871C131.743 17.206 131.621 17.2566 131.532 17.3465C131.442 17.4365 131.391 17.5584 131.391 17.6856V19.8203C131.391 19.946 131.441 20.0667 131.529 20.1564C131.617 20.246 131.737 20.2975 131.863 20.2996L136.098 20.3669C136.008 20.7077 135.885 21.0234 135.731 21.3132C135.375 21.994 134.856 22.5198 134.176 22.8912C133.51 23.2471 132.698 23.4246 131.739 23.4246C130.796 23.4246 129.96 23.2084 129.233 22.7751C128.506 22.3418 127.934 21.7387 127.516 20.965C127.099 20.1917 126.89 19.2945 126.89 18.2732C126.89 17.2523 127.099 16.3629 127.516 15.6051C127.949 14.8313 128.545 14.2356 129.303 13.8178C130.061 13.3849 130.92 13.1686 131.879 13.1686C132.776 13.1686 133.58 13.3388 134.292 13.6793C134.851 13.9462 135.352 14.318 135.796 14.795C135.993 15.0066 136.329 15.0294 136.533 14.8252L138.319 13.039C138.495 12.863 138.509 12.5798 138.337 12.3996C137.63 11.6568 136.769 11.0626 135.754 10.6161C134.609 10.1055 133.333 9.85015 131.925 9.85015C130.703 9.85015 129.558 10.0668 128.491 10.5001C127.423 10.9179 126.487 11.5133 125.683 12.2866C124.894 13.0447 124.263 13.9517 123.827 14.9551C123.378 15.9765 123.154 17.0821 123.154 18.2732C123.154 19.4648 123.37 20.5785 123.803 21.6149C124.241 22.619 124.862 23.5321 125.637 24.3067C126.41 25.0645 127.315 25.6603 128.352 26.0932ZM2.05229 4.2701C2.38419e-07 6.87985 0 10.6997 0 18.3402C0 25.9802 2.38419e-07 29.8001 2.05229 32.4102C2.52334 33.0092 3.06412 33.5498 3.66317 34.0207C3.89165 34.2005 4.1312 34.3657 4.3804 34.5155L14.4836 12.21C14.6954 11.7427 15.0759 11.3726 15.5489 11.1739C16.022 10.9752 16.5526 10.9625 17.0346 11.1384L23.4549 13.482C23.754 13.5911 24.0233 13.769 24.2411 14.0012C24.459 14.2334 24.6192 14.5135 24.7091 14.819L30.5889 34.7875C31.0186 34.574 31.4252 34.3171 31.8025 34.0207C32.4016 33.5498 32.9424 33.0092 33.4134 32.4102C35.4657 29.8001 35.4657 25.9802 35.4657 18.3402C35.4657 10.6997 35.4657 6.87985 33.4134 4.2701C32.9423 3.67118 32.4016 3.13054 31.8025 2.65961C29.1928 0.606933 25.3725 0.606934 17.7325 0.606934C10.0928 0.606934 6.27253 0.606933 3.66239 2.65961C3.06351 3.13058 2.52326 3.67122 2.05229 4.2701Z" fill="white" fill-opacity="0.6"/>
<path d="M128.352 26.0932C129.404 26.5265 130.525 26.7431 131.716 26.7431C133.341 26.7431 134.772 26.4027 136.009 25.7222C137.262 25.0413 138.237 24.0359 138.933 22.7055C139.644 21.3596 140 19.7042 140 17.7398V17.6856C140 17.4206 139.786 17.2059 139.521 17.2059H131.871C131.743 17.206 131.621 17.2566 131.532 17.3465C131.442 17.4365 131.391 17.5584 131.391 17.6856V19.8203C131.391 19.946 131.441 20.0667 131.529 20.1564C131.617 20.246 131.737 20.2975 131.863 20.2996L136.098 20.3669C136.008 20.7077 135.885 21.0234 135.731 21.3132C135.375 21.994 134.856 22.5198 134.176 22.8912C133.51 23.2471 132.698 23.4246 131.739 23.4246C130.796 23.4246 129.96 23.2084 129.233 22.7751C128.506 22.3418 127.934 21.7387 127.516 20.965C127.099 20.1917 126.89 19.2945 126.89 18.2732C126.89 17.2523 127.099 16.3629 127.516 15.6051C127.949 14.8313 128.545 14.2356 129.303 13.8178C130.061 13.3849 130.92 13.1686 131.879 13.1686C132.776 13.1686 133.58 13.3388 134.292 13.6793C134.851 13.9462 135.352 14.318 135.796 14.795C135.993 15.0066 136.329 15.0294 136.533 14.8252L138.319 13.039C138.495 12.863 138.509 12.5798 138.337 12.3996C137.63 11.6568 136.769 11.0626 135.754 10.6161C134.609 10.1055 133.333 9.85015 131.925 9.85015C130.703 9.85015 129.558 10.0668 128.491 10.5001C127.423 10.9179 126.487 11.5133 125.683 12.2866C124.894 13.0447 124.263 13.9517 123.827 14.9551C123.378 15.9765 123.154 17.0821 123.154 18.2732C123.154 19.4648 123.37 20.5785 123.803 21.6149C124.241 22.619 124.862 23.5321 125.637 24.3067C126.41 25.0645 127.315 25.6603 128.352 26.0932ZM2.05229 4.2701C2.38419e-07 6.87985 0 10.6997 0 18.3402C0 25.9802 2.38419e-07 29.8001 2.05229 32.4102C2.52334 33.0092 3.06412 33.5498 3.66317 34.0207C3.89165 34.2005 4.1312 34.3657 4.3804 34.5155L14.4836 12.21C14.6954 11.7427 15.0759 11.3726 15.5489 11.1739C16.022 10.9752 16.5526 10.9625 17.0346 11.1384L23.4549 13.482C23.754 13.5911 24.0233 13.769 24.2411 14.0012C24.459 14.2334 24.6192 14.5135 24.7091 14.819L30.5889 34.7875C31.0186 34.574 31.4252 34.3171 31.8025 34.0207C32.4016 33.5498 32.9424 33.0092 33.4134 32.4102C35.4657 29.8001 35.4657 25.9802 35.4657 18.3402C35.4657 10.6997 35.4657 6.87985 33.4134 4.2701C32.9423 3.67118 32.4016 3.13054 31.8025 2.65961C29.1928 0.606933 25.3725 0.606934 17.7325 0.606934C10.0928 0.606934 6.27253 0.606933 3.66239 2.65961C3.06351 3.13058 2.52326 3.67122 2.05229 4.2701Z" fill="#BCBFDB"/>
<path d="M128.352 26.0932C129.404 26.5265 130.525 26.7431 131.716 26.7431C133.341 26.7431 134.772 26.4027 136.009 25.7222C137.262 25.0413 138.237 24.0359 138.933 22.7055C139.644 21.3596 140 19.7042 140 17.7398V17.6856C140 17.4206 139.786 17.2059 139.521 17.2059H131.871C131.743 17.206 131.621 17.2566 131.532 17.3465C131.442 17.4365 131.391 17.5584 131.391 17.6856V19.8203C131.391 19.946 131.441 20.0667 131.529 20.1564C131.617 20.246 131.737 20.2975 131.863 20.2996L136.098 20.3669C136.008 20.7077 135.885 21.0234 135.731 21.3132C135.375 21.994 134.856 22.5198 134.176 22.8912C133.51 23.2471 132.698 23.4246 131.739 23.4246C130.796 23.4246 129.96 23.2084 129.233 22.7751C128.506 22.3418 127.934 21.7387 127.516 20.965C127.099 20.1917 126.89 19.2945 126.89 18.2732C126.89 17.2523 127.099 16.3629 127.516 15.6051C127.949 14.8313 128.545 14.2356 129.303 13.8178C130.061 13.3849 130.92 13.1686 131.879 13.1686C132.776 13.1686 133.58 13.3388 134.292 13.6793C134.851 13.9462 135.352 14.318 135.796 14.795C135.993 15.0066 136.329 15.0294 136.533 14.8252L138.319 13.039C138.495 12.863 138.509 12.5798 138.337 12.3996C137.63 11.6568 136.769 11.0626 135.754 10.6161C134.609 10.1055 133.333 9.85015 131.925 9.85015C130.703 9.85015 129.558 10.0668 128.491 10.5001C127.423 10.9179 126.487 11.5133 125.683 12.2866C124.894 13.0447 124.263 13.9517 123.827 14.9551C123.378 15.9765 123.154 17.0821 123.154 18.2732C123.154 19.4648 123.37 20.5785 123.803 21.6149C124.241 22.619 124.862 23.5321 125.637 24.3067C126.41 25.0645 127.315 25.6603 128.352 26.0932ZM2.05229 4.2701C2.38419e-07 6.87985 0 10.6997 0 18.3402C0 25.9802 2.38419e-07 29.8001 2.05229 32.4102C2.52334 33.0092 3.06412 33.5498 3.66317 34.0207C3.89165 34.2005 4.1312 34.3657 4.3804 34.5155L14.4836 12.21C14.6954 11.7427 15.0759 11.3726 15.5489 11.1739C16.022 10.9752 16.5526 10.9625 17.0346 11.1384L23.4549 13.482C23.754 13.5911 24.0233 13.769 24.2411 14.0012C24.459 14.2334 24.6192 14.5135 24.7091 14.819L30.5889 34.7875C31.0186 34.574 31.4252 34.3171 31.8025 34.0207C32.4016 33.5498 32.9424 33.0092 33.4134 32.4102C35.4657 29.8001 35.4657 25.9802 35.4657 18.3402C35.4657 10.6997 35.4657 6.87985 33.4134 4.2701C32.9423 3.67118 32.4016 3.13054 31.8025 2.65961C29.1928 0.606933 25.3725 0.606934 17.7325 0.606934C10.0928 0.606934 6.27253 0.606933 3.66239 2.65961C3.06351 3.13058 2.52326 3.67122 2.05229 4.2701Z" fill="white" fill-opacity="0.6"/>
<path d="M2.05229 4.2701C2.38419e-07 6.87985 0 10.6997 0 18.3402C0 25.9802 2.38419e-07 29.8001 2.05229 32.4102C2.52334 33.0092 3.06412 33.5498 3.66317 34.0207C3.89165 34.2005 4.1312 34.3657 4.3804 34.5155L14.4836 12.21C14.6954 11.7427 15.0759 11.3726 15.5489 11.1739C16.022 10.9752 16.5526 10.9625 17.0346 11.1384L23.4549 13.482C23.754 13.5911 24.0233 13.769 24.2411 14.0012C24.459 14.2334 24.6192 14.5135 24.7091 14.819L30.5889 34.7875C31.0186 34.574 31.4252 34.3171 31.8025 34.0207C32.4016 33.5498 32.9424 33.0092 33.4134 32.4102C35.4657 29.8001 35.4657 25.9802 35.4657 18.3402C35.4657 10.6997 35.4657 6.87985 33.4134 4.2701C32.9423 3.67118 32.4016 3.13054 31.8025 2.65961C29.1928 0.606933 25.3725 0.606934 17.7325 0.606934C10.0928 0.606934 6.27253 0.606933 3.66239 2.65961C3.06351 3.13058 2.52326 3.67122 2.05229 4.2701Z" fill="#BCBFDB"/>
<path d="M2.05229 4.2701C2.38419e-07 6.87985 0 10.6997 0 18.3402C0 25.9802 2.38419e-07 29.8001 2.05229 32.4102C2.52334 33.0092 3.06412 33.5498 3.66317 34.0207C3.89165 34.2005 4.1312 34.3657 4.3804 34.5155L14.4836 12.21C14.6954 11.7427 15.0759 11.3726 15.5489 11.1739C16.022 10.9752 16.5526 10.9625 17.0346 11.1384L23.4549 13.482C23.754 13.5911 24.0233 13.769 24.2411 14.0012C24.459 14.2334 24.6192 14.5135 24.7091 14.819L30.5889 34.7875C31.0186 34.574 31.4252 34.3171 31.8025 34.0207C32.4016 33.5498 32.9424 33.0092 33.4134 32.4102C35.4657 29.8001 35.4657 25.9802 35.4657 18.3402C35.4657 10.6997 35.4657 6.87985 33.4134 4.2701C32.9423 3.67118 32.4016 3.13054 31.8025 2.65961C29.1928 0.606933 25.3725 0.606934 17.7325 0.606934C10.0928 0.606934 6.27253 0.606933 3.66239 2.65961C3.06351 3.13058 2.52326 3.67122 2.05229 4.2701Z" fill="white" fill-opacity="0.6"/>
</g>
<defs>
<clipPath id="clip0_1850_7640">
<rect width="140" height="35" fill="white" transform="translate(0 0.5)"/>
</clipPath>
</defs>
</svg>
