<svg width="98" height="29" viewBox="0 0 98 29" fill="none" xmlns="http://www.w3.org/2000/svg"><path d="M25.581 2.252c.254.182.456.478.606.889.15.41.179.976.088 1.699-.091.716-.371 1.634-.84 2.754-1.205 2.8-3.399 6.165-6.582 10.097-1.85 2.253-3.428 3.965-4.737 5.137-1.308 1.178-2.395 1.976-3.261 2.393-.866.416-1.553.612-2.06.586-.463-.02-.802-.104-1.016-.254-.593-.384-.876-.993-.85-1.826.032-.834.38-1.7 1.045-2.598.208-.28.423-.345.644-.195.052.045.052.104 0 .175a1.48 1.48 0 01-.224.235 2.297 2.297 0 00-.244.263c-.463.619-.71 1.283-.743 1.993-.032.716.215 1.253.743 1.61.286.17.703.183 1.25.04.546-.143 1.155-.433 1.826-.87.937-.63 2.021-1.575 3.252-2.831a61.408 61.408 0 003.799-4.268c1.523-1.888 2.786-3.672 3.789-5.351 1.009-1.68 1.787-3.18 2.334-4.502.43-1.022.647-1.875.654-2.559.006-.683-.166-1.168-.518-1.455-.319-.254-.768-.387-1.347-.4-.58-.02-1.273.169-2.08.566-1.068.56-2.263 1.377-3.584 2.451a67.034 67.034 0 00-4.131 3.653l-.04.039-.038.039a.064.064 0 00-.03.029c-.006 0-.01.003-.01.01l-.019.02h-.01v.01c-.469.442-.94.803-1.416 1.083v.01a1.74 1.74 0 00-.322.254c-.117.11-.25.286-.4.527a187.028 187.028 0 01-5.293 8.477c-1.309 2.024-2.416 3.61-3.32 4.756-.56.683-1.01 1.155-1.348 1.416-.332.266-.583.397-.752.39-.046 0-.078-.013-.098-.039-.02-.02-.033-.062-.039-.127-.026-.17.094-.254.361-.254.059-.013.251-.198.576-.556.326-.352.844-1.01 1.553-1.973.71-.957 1.664-2.354 2.862-4.19 1.549-2.428 3.138-5.146 4.765-8.154a.931.931 0 00.117-.322.946.946 0 000-.332c-.065-.28.004-.726.205-1.338.222-.67.59-1.527 1.104-2.568.456-.918.95-1.843 1.484-2.774.54-.93 1.023-1.699 1.446-2.304.195-.3.387-.54.576-.723.189-.182.374-.248.556-.195.196.039.31.198.342.478.033.28-.097.775-.39 1.484-.502 1.114-1.182 2.461-2.041 4.043-.118.228-.238.46-.362.694l-.01.01a.247.247 0 01-.029.058.684.684 0 00-.049.098c-.423.794-.872 1.611-1.347 2.45a.584.584 0 00-.069.147c-.006.04 0 .066.02.079.02.013.059-.004.117-.05a14.798 14.798 0 001.006-.907l.02-.02.019-.02a.32.32 0 00.049-.039.116.116 0 01.02-.029h.01c1.998-1.914 3.811-3.486 5.439-4.717 1.634-1.23 3.043-2.06 4.228-2.49 1.185-.43 2.1-.4 2.744.088zM12.641 6.08c-1.086 2.025-1.689 3.382-1.806 4.072a.832.832 0 00-.01.137c0 .052.007.095.02.127.013.026.036.023.068-.01a.995.995 0 00.166-.234 404.05 404.05 0 001.944-3.643.21.21 0 01.039-.068c.306-.619.608-1.25.908-1.895.3-.644.543-1.191.732-1.64.196-.456.27-.684.225-.684-.052 0-.221.238-.508.713-.286.469-.599 1-.937 1.592a77.136 77.136 0 00-.84 1.533zm20.748 9.766a.143.143 0 01.088-.03c.033 0 .055.007.068.02.02.013.017.039-.01.078a.567.567 0 01-.156.156 71.16 71.16 0 01-4.072 2.754c-1.178.723-2.067 1.097-2.666 1.123-.313 0-.57-.068-.771-.205-.547-.404-.635-1.162-.264-2.275a.887.887 0 00.049-.215c0-.046-.013-.068-.04-.068-.019 0-.045.013-.077.039a.452.452 0 00-.088.068c-.306.28-.577.514-.81.703a7.49 7.49 0 01-.704.518c-.39.254-.762.442-1.113.566-.358.117-.645.127-.86.03-.169-.092-.23-.232-.185-.42.039-.196.123-.394.254-.596.13-.208.244-.378.341-.508a.112.112 0 00.03-.02c.397-.54.973-1.194 1.728-1.962.54-.567 1.055-1.023 1.543-1.368.495-.351.912-.446 1.25-.283a.568.568 0 01.283.43c.033.189.023.397-.029.625a.247.247 0 000 .098c.007.026.03.048.069.068.084.058.113.14.087.244a1.381 1.381 0 01-.136.332l-.01.01c-.566 1.126-.912 1.963-1.035 2.51-.117.54-.117.872 0 .996.15.24.488.302 1.015.185.534-.117 1.306-.465 2.315-1.045 1.009-.58 2.311-1.432 3.906-2.558zm-7.627.283c.104-.163.192-.329.264-.498.078-.176.094-.293.049-.352h-.01c-.007-.006-.013-.01-.02-.01v-.01c-.169-.012-.472.147-.908.48a14.69 14.69 0 00-1.367 1.171c-.475.456-.85.863-1.123 1.22a.115.115 0 00-.02.03c-.045.059-.1.137-.166.235-.065.097-.094.182-.088.253 0 .072.075.098.225.079.365-.059.807-.254 1.328-.586a9.515 9.515 0 001.494-1.211c.13-.15.192-.26.186-.332h.01c.026-.176.075-.332.146-.47zm19.273-.283c.026-.026.049-.036.068-.03.026 0 .04.013.04.04 0 .019-.017.045-.05.078-1.94 1.608-3.59 2.776-4.95 3.505-1.355.73-2.377.925-3.067.586-.45-.24-.713-.66-.791-1.26-.072-.598.052-1.324.37-2.177.06-.15.125-.3.196-.45.124-.253.212-.488.264-.703.013-.078-.003-.12-.049-.126-.039-.013-.091-.004-.156.029a1.609 1.609 0 00-.186.088c-.488.338-1.113.856-1.875 1.553a115.72 115.72 0 00-2.138 2.002c-.658.631-1.088 1.028-1.29 1.19a1.897 1.897 0 01-.517.323c-.176.065-.3.069-.371.01-.078-.065-.056-.225.068-.479.013-.026.15-.26.41-.703.254-.449.576-.99.967-1.62.39-.639.791-1.257 1.201-1.856a.558.558 0 01.342-.244.607.607 0 01.4.039c.13.052.209.13.235.234.032.098-.007.24-.117.43-.124.182-.4.524-.83 1.025a47.797 47.797 0 00-1.573 1.953 2.98 2.98 0 00-.136.225.427.427 0 00-.078.156c-.014.04.006.049.058.03a1.84 1.84 0 00.283-.215c.404-.365.899-.83 1.485-1.397.612-.586 1.237-1.172 1.875-1.758a23.525 23.525 0 011.718-1.455c.502-.384.853-.553 1.055-.508.32.091.453.3.4.625-.052.326-.28.886-.683 1.68-.215.45-.374.908-.479 1.377-.097.462-.117.863-.058 1.201.065.332.234.527.508.586.638.085 1.354-.055 2.148-.42.8-.364 1.621-.846 2.461-1.445a61.395 61.395 0 002.451-1.826l.39-.293zm1.333-1.514c-.104-.013-.15-.055-.137-.127.013-.072.043-.156.088-.254a.94.94 0 00.098-.224.827.827 0 01.224-.391.563.563 0 01.4-.156c.112 0 .21.01.294.029.084.02.14.072.166.156.032.085.02.215-.04.39-.103.255-.27.42-.497.499-.228.078-.427.104-.596.078zm4.59 1.514c.071-.052.12-.069.146-.05.033.02.04.056.02.108a.366.366 0 01-.117.137 165.62 165.62 0 01-2.403 1.611 71.97 71.97 0 01-2.588 1.631c-.84.502-1.565.882-2.177 1.143-.619.26-1.023.312-1.211.156-.215-.228-.257-.547-.127-.957.123-.41.358-.879.703-1.406a33.698 33.698 0 011.318-1.924l.166-.235c.052-.071.108-.152.166-.244.072-.09.199-.162.381-.214.182-.053.361-.075.537-.069.176 0 .29.04.342.117.046.085.049.163.01.235a.863.863 0 01-.186.205c-.052.052-.107.11-.166.176l-.166.166c-.234.24-.56.599-.976 1.074-.424.469-.795.947-1.114 1.435-.319.489-.436.87-.351 1.143.143.215.814.01 2.012-.615 1.197-.625 3.125-1.833 5.78-3.623zM83.116 1.617c.202.04.332.127.391.264s.075.29.049.459a3.163 3.163 0 01-.108.459.109.109 0 00-.01.049.624.624 0 01-.273.341.804.804 0 01-.41.108c-.117 0-.195-.023-.234-.068a.474.474 0 01-.05-.245c-.65.6-1.399 1.478-2.245 2.637a54.821 54.821 0 00-2.256 3.3c-4.369 6.993-7.699 12.09-9.99 15.294-1.25 1.745-2.162 2.933-2.735 3.564-.573.638-1.019.938-1.338.899a.708.708 0 01-.205-.03c-.26-.039-.43-.23-.508-.576-.071-.345-.01-.95.186-1.816.202-.86.58-2.087 1.133-3.682a258.378 258.378 0 014.092-10.635l.761-1.884a174.399 174.399 0 001.641-4.15c.462-1.212.658-1.892.586-2.042-.254-.039-.788.463-1.602 1.504-.813 1.042-2.005 2.66-3.574 4.854a147.608 147.608 0 00-6.68 10.127c-.455.755-.94 1.572-1.455 2.45a1.276 1.276 0 01-.185.235.622.622 0 01-.235.166v.01h-.019c-.189.065-.313.049-.371-.049-.059-.091-.049-.215.03-.37a1.97 1.97 0 01.107-.147.504.504 0 01.087-.059.555.555 0 00.088-.088.713.713 0 00.137-.185 231.621 231.621 0 004.522-7.96c1.302-2.408 2.158-4.348 2.568-5.82h-.04a.4.4 0 01-.34-.156c-.073-.104-.089-.234-.05-.39a.922.922 0 01.215-.323c.11-.124.221-.231.332-.322.11-.098.18-.153.205-.166.143-.085.332-.137.567-.156.24-.02.446.039.615.175.11.092.15.241.117.45-.026.208-.153.55-.38 1.025a81.603 81.603 0 01-1.74 3.457 1.032 1.032 0 00-.077.176c-.02.052-.026.088-.02.107.007.02.026.013.059-.02.039-.032.094-.104.166-.214 2.259-3.314 4.043-5.814 5.351-7.5.554-.697 1.013-1.205 1.377-1.524.372-.325.664-.52.88-.586.214-.065.37-.058.468.02.098.078.16.17.186.273.078.248-.105.967-.547 2.159-.437 1.191-1.179 3.086-2.227 5.683-.176.443-.365.912-.566 1.406a233.483 233.483 0 01-1.543 3.73 121.87 121.87 0 00-2.53 6.339c-.065.182-.127.358-.185.527-.586 1.608-.98 2.767-1.182 3.477-.202.71-.273 1.295-.215 1.758.124.26.378.214.762-.137.384-.345.87-.915 1.455-1.71.593-.793 1.263-1.724 2.012-2.792.977-1.38 2.093-3.07 3.35-5.069a935.686 935.686 0 004.296-6.933c.521-.84 1.058-1.712 1.612-2.617.286-.463.683-1.09 1.191-1.885a48.425 48.425 0 011.572-2.285c.625-.84 1.12-1.475 1.485-1.904.37-.43.664-.713.879-.85.221-.137.42-.182.595-.137zM65.001 8.531h.01l-.01.01h-.03a.075.075 0 00.03-.01zm13.306 5.801c-.104-.013-.15-.055-.137-.127.013-.072.043-.156.088-.254a.944.944 0 00.098-.224.826.826 0 01.225-.391.563.563 0 01.4-.156c.11 0 .208.01.293.029.085.02.14.072.166.156.032.085.02.215-.04.39-.103.255-.27.42-.497.499-.228.078-.427.104-.596.078zm4.59 1.514c.072-.052.12-.069.146-.05.033.02.04.056.02.108a.366.366 0 01-.117.137 165.62 165.62 0 01-2.403 1.611 72.058 72.058 0 01-2.588 1.631c-.84.502-1.565.882-2.177 1.143-.619.26-1.022.312-1.211.156-.215-.228-.257-.547-.127-.957.124-.41.358-.879.703-1.406a33.698 33.698 0 011.318-1.924l.166-.235c.052-.071.108-.152.166-.244.072-.09.199-.162.381-.214.182-.053.362-.075.537-.069.176 0 .29.04.342.117.046.085.049.163.01.235a.863.863 0 01-.186.205c-.052.052-.107.11-.166.176l-.166.166c-.234.24-.56.599-.976 1.074a11.84 11.84 0 00-1.114 1.435c-.319.489-.436.87-.351 1.143.143.215.814.01 2.012-.615s3.125-1.833 5.78-3.623zm8.95-.02a.083.083 0 01.078 0 .088.088 0 01.059.049c.013.026.007.055-.02.088-.02.032-.071.068-.156.107v.01a73.648 73.648 0 00-4.394 2.334c-1.218.71-2.204 1.331-2.96 1.865a.68.68 0 00-.136.117.174.174 0 00-.03.088c.007.026.02.05.04.069l.01.01v.01h.01c.201.227.282.523.243.888-.045.384-.244.794-.595 1.23a.63.63 0 00-.059.069l-.098.097c-.345.346-.677.573-.996.684-.319.11-.592.146-.82.107a.287.287 0 00-.068-.01.643.643 0 01-.313-.156.523.523 0 01-.146-.205.595.595 0 01-.059-.156v-.01l-.01-.01v-.01a1.1 1.1 0 01.108-.585 2.861 2.861 0 01.517-.723c.137-.137.248-.244.332-.322.007 0 .01-.003.01-.01h.01l.03-.03a7.66 7.66 0 01.458-.4l.04-.039c.077-.052.156-.11.234-.175a.648.648 0 00.166-.166c.032-.052.045-.095.039-.127a.213.213 0 00-.04-.088 21.4 21.4 0 01-.566-.762 71.497 71.497 0 00-.342-.508c-.592-.872-.683-1.725-.273-2.558.508-1.029 1.738-1.901 3.691-2.617.163-.053.303-.05.42.01.118.051.186.149.205.292.02.15 0 .32-.058.508a.597.597 0 01-.323.39c-.774.274-1.438.544-1.992.811-.547.267-.924.554-1.133.86-.214.358-.299.71-.253 1.054.045.339.14.635.283.889a3.557 3.557 0 00.38.576c.17.241.326.443.47.606.117.136.244.166.38.087 1.615-1.087 4.157-2.5 7.627-4.238zm-9.59 7.256c.222.02.45-.072.684-.273a2.7 2.7 0 00.586-.684c.163-.26.244-.482.244-.664 0-.163-.026-.306-.078-.43-.033-.071-.068-.104-.108-.097a.49.49 0 00-.117.058c-.267.215-.481.397-.644.547l-.02.02-.01.01a.114.114 0 01-.029.019.114.114 0 00-.02.03.32.32 0 00-.048.038v.01a.064.064 0 00-.03.03h-.01v.01c-.006 0-.009.002-.009.009-.176.163-.342.39-.498.683a.973.973 0 00-.137.45c0 .13.082.208.244.234zm10.904-8.75c-.104-.013-.15-.055-.137-.127.013-.072.043-.156.088-.254a.944.944 0 00.098-.224.826.826 0 01.224-.391.563.563 0 01.4-.156c.111 0 .21.01.294.029.084.02.14.072.166.156.032.085.02.215-.04.39-.104.255-.27.42-.497.499-.228.078-.427.104-.596.078zm4.59 1.514c.071-.052.12-.069.146-.05.033.02.04.056.02.108a.366.366 0 01-.117.137 165.62 165.62 0 01-2.403 1.611 72.058 72.058 0 01-2.588 1.631c-.84.502-1.565.882-2.177 1.143-.619.26-1.023.312-1.211.156-.215-.228-.258-.547-.127-.957.123-.41.358-.879.703-1.406a33.698 33.698 0 011.318-1.924l.166-.235c.052-.071.108-.152.166-.244.072-.09.199-.162.381-.214.182-.053.361-.075.537-.069.176 0 .29.04.342.117.046.085.049.163.01.235a.863.863 0 01-.186.205c-.052.052-.107.11-.166.176l-.166.166c-.234.24-.56.599-.976 1.074-.424.469-.795.947-1.114 1.435-.319.489-.436.87-.351 1.143.143.215.814.01 2.011-.615 1.198-.625 3.126-1.833 5.782-3.623z" fill="#6B7280"/><path d="M25.581 2.252c.254.182.456.478.606.889.15.41.179.976.088 1.699-.091.716-.371 1.634-.84 2.754-1.205 2.8-3.399 6.165-6.582 10.097-1.85 2.253-3.428 3.965-4.737 5.137-1.308 1.178-2.395 1.976-3.261 2.393-.866.416-1.553.612-2.06.586-.463-.02-.802-.104-1.016-.254-.593-.384-.876-.993-.85-1.826.032-.834.38-1.7 1.045-2.598.208-.28.423-.345.644-.195.052.045.052.104 0 .175a1.48 1.48 0 01-.224.235 2.297 2.297 0 00-.244.263c-.463.619-.71 1.283-.743 1.993-.032.716.215 1.253.743 1.61.286.17.703.183 1.25.04.546-.143 1.155-.433 1.826-.87.937-.63 2.021-1.575 3.252-2.831a61.408 61.408 0 003.799-4.268c1.523-1.888 2.786-3.672 3.789-5.351 1.009-1.68 1.787-3.18 2.334-4.502.43-1.022.647-1.875.654-2.559.006-.683-.166-1.168-.518-1.455-.319-.254-.768-.387-1.347-.4-.58-.02-1.273.169-2.08.566-1.068.56-2.263 1.377-3.584 2.451a67.034 67.034 0 00-4.131 3.653l-.04.039-.038.039a.064.064 0 00-.03.029c-.006 0-.01.003-.01.01l-.019.02h-.01v.01c-.469.442-.94.803-1.416 1.083v.01a1.74 1.74 0 00-.322.254c-.117.11-.25.286-.4.527a187.028 187.028 0 01-5.293 8.477c-1.309 2.024-2.416 3.61-3.32 4.756-.56.683-1.01 1.155-1.348 1.416-.332.266-.583.397-.752.39-.046 0-.078-.013-.098-.039-.02-.02-.033-.062-.039-.127-.026-.17.094-.254.361-.254.059-.013.251-.198.576-.556.326-.352.844-1.01 1.553-1.973.71-.957 1.664-2.354 2.862-4.19 1.549-2.428 3.138-5.146 4.765-8.154a.931.931 0 00.117-.322.946.946 0 000-.332c-.065-.28.004-.726.205-1.338.222-.67.59-1.527 1.104-2.568.456-.918.95-1.843 1.484-2.774.54-.93 1.023-1.699 1.446-2.304.195-.3.387-.54.576-.723.189-.182.374-.248.556-.195.196.039.31.198.342.478.033.28-.097.775-.39 1.484-.502 1.114-1.182 2.461-2.041 4.043-.118.228-.238.46-.362.694l-.01.01a.247.247 0 01-.029.058.684.684 0 00-.049.098c-.423.794-.872 1.611-1.347 2.45a.584.584 0 00-.069.147c-.006.04 0 .066.02.079.02.013.059-.004.117-.05a14.798 14.798 0 001.006-.907l.02-.02.019-.02a.32.32 0 00.049-.039.116.116 0 01.02-.029h.01c1.998-1.914 3.811-3.486 5.439-4.717 1.634-1.23 3.043-2.06 4.228-2.49 1.185-.43 2.1-.4 2.744.088zM12.641 6.08c-1.086 2.025-1.689 3.382-1.806 4.072a.832.832 0 00-.01.137c0 .052.007.095.02.127.013.026.036.023.068-.01a.995.995 0 00.166-.234 404.05 404.05 0 001.944-3.643.21.21 0 01.039-.068c.306-.619.608-1.25.908-1.895.3-.644.543-1.191.732-1.64.196-.456.27-.684.225-.684-.052 0-.221.238-.508.713-.286.469-.599 1-.937 1.592a77.136 77.136 0 00-.84 1.533zm20.748 9.766a.143.143 0 01.088-.03c.033 0 .055.007.068.02.02.013.017.039-.01.078a.567.567 0 01-.156.156 71.16 71.16 0 01-4.072 2.754c-1.178.723-2.067 1.097-2.666 1.123-.313 0-.57-.068-.771-.205-.547-.404-.635-1.162-.264-2.275a.887.887 0 00.049-.215c0-.046-.013-.068-.04-.068-.019 0-.045.013-.077.039a.452.452 0 00-.088.068c-.306.28-.577.514-.81.703a7.49 7.49 0 01-.704.518c-.39.254-.762.442-1.113.566-.358.117-.645.127-.86.03-.169-.092-.23-.232-.185-.42.039-.196.123-.394.254-.596.13-.208.244-.378.341-.508a.112.112 0 00.03-.02c.397-.54.973-1.194 1.728-1.962.54-.567 1.055-1.023 1.543-1.368.495-.351.912-.446 1.25-.283a.568.568 0 01.283.43c.033.189.023.397-.029.625a.247.247 0 000 .098c.007.026.03.048.069.068.084.058.113.14.087.244a1.381 1.381 0 01-.136.332l-.01.01c-.566 1.126-.912 1.963-1.035 2.51-.117.54-.117.872 0 .996.15.24.488.302 1.015.185.534-.117 1.306-.465 2.315-1.045 1.009-.58 2.311-1.432 3.906-2.558zm-7.627.283c.104-.163.192-.329.264-.498.078-.176.094-.293.049-.352h-.01c-.007-.006-.013-.01-.02-.01v-.01c-.169-.012-.472.147-.908.48a14.69 14.69 0 00-1.367 1.171c-.475.456-.85.863-1.123 1.22a.115.115 0 00-.02.03c-.045.059-.1.137-.166.235-.065.097-.094.182-.088.253 0 .072.075.098.225.079.365-.059.807-.254 1.328-.586a9.515 9.515 0 001.494-1.211c.13-.15.192-.26.186-.332h.01c.026-.176.075-.332.146-.47zm19.273-.283c.026-.026.049-.036.068-.03.026 0 .04.013.04.04 0 .019-.017.045-.05.078-1.94 1.608-3.59 2.776-4.95 3.505-1.355.73-2.377.925-3.067.586-.45-.24-.713-.66-.791-1.26-.072-.598.052-1.324.37-2.177.06-.15.125-.3.196-.45.124-.253.212-.488.264-.703.013-.078-.003-.12-.049-.126-.039-.013-.091-.004-.156.029a1.609 1.609 0 00-.186.088c-.488.338-1.113.856-1.875 1.553a115.72 115.72 0 00-2.138 2.002c-.658.631-1.088 1.028-1.29 1.19a1.897 1.897 0 01-.517.323c-.176.065-.3.069-.371.01-.078-.065-.056-.225.068-.479.013-.026.15-.26.41-.703.254-.449.576-.99.967-1.62.39-.639.791-1.257 1.201-1.856a.558.558 0 01.342-.244.607.607 0 01.4.039c.13.052.209.13.235.234.032.098-.007.24-.117.43-.124.182-.4.524-.83 1.025a47.797 47.797 0 00-1.573 1.953 2.98 2.98 0 00-.136.225.427.427 0 00-.078.156c-.014.04.006.049.058.03a1.84 1.84 0 00.283-.215c.404-.365.899-.83 1.485-1.397.612-.586 1.237-1.172 1.875-1.758a23.525 23.525 0 011.718-1.455c.502-.384.853-.553 1.055-.508.32.091.453.3.4.625-.052.326-.28.886-.683 1.68-.215.45-.374.908-.479 1.377-.097.462-.117.863-.058 1.201.065.332.234.527.508.586.638.085 1.354-.055 2.148-.42.8-.364 1.621-.846 2.461-1.445a61.395 61.395 0 002.451-1.826l.39-.293zm1.333-1.514c-.104-.013-.15-.055-.137-.127.013-.072.043-.156.088-.254a.94.94 0 00.098-.224.827.827 0 01.224-.391.563.563 0 01.4-.156c.112 0 .21.01.294.029.084.02.14.072.166.156.032.085.02.215-.04.39-.103.255-.27.42-.497.499-.228.078-.427.104-.596.078zm4.59 1.514c.071-.052.12-.069.146-.05.033.02.04.056.02.108a.366.366 0 01-.117.137 165.62 165.62 0 01-2.403 1.611 71.97 71.97 0 01-2.588 1.631c-.84.502-1.565.882-2.177 1.143-.619.26-1.023.312-1.211.156-.215-.228-.257-.547-.127-.957.123-.41.358-.879.703-1.406a33.698 33.698 0 011.318-1.924l.166-.235c.052-.071.108-.152.166-.244.072-.09.199-.162.381-.214.182-.053.361-.075.537-.069.176 0 .29.04.342.117.046.085.049.163.01.235a.863.863 0 01-.186.205c-.052.052-.107.11-.166.176l-.166.166c-.234.24-.56.599-.976 1.074-.424.469-.795.947-1.114 1.435-.319.489-.436.87-.351 1.143.143.215.814.01 2.012-.615 1.197-.625 3.125-1.833 5.78-3.623zM83.116 1.617c.202.04.332.127.391.264s.075.29.049.459a3.163 3.163 0 01-.108.459.109.109 0 00-.01.049.624.624 0 01-.273.341.804.804 0 01-.41.108c-.117 0-.195-.023-.234-.068a.474.474 0 01-.05-.245c-.65.6-1.399 1.478-2.245 2.637a54.821 54.821 0 00-2.256 3.3c-4.369 6.993-7.699 12.09-9.99 15.294-1.25 1.745-2.162 2.933-2.735 3.564-.573.638-1.019.938-1.338.899a.708.708 0 01-.205-.03c-.26-.039-.43-.23-.508-.576-.071-.345-.01-.95.186-1.816.202-.86.58-2.087 1.133-3.682a258.378 258.378 0 014.092-10.635l.761-1.884a174.399 174.399 0 001.641-4.15c.462-1.212.658-1.892.586-2.042-.254-.039-.788.463-1.602 1.504-.813 1.042-2.005 2.66-3.574 4.854a147.608 147.608 0 00-6.68 10.127c-.455.755-.94 1.572-1.455 2.45a1.276 1.276 0 01-.185.235.622.622 0 01-.235.166v.01h-.019c-.189.065-.313.049-.371-.049-.059-.091-.049-.215.03-.37a1.97 1.97 0 01.107-.147.504.504 0 01.087-.059.555.555 0 00.088-.088.713.713 0 00.137-.185 231.621 231.621 0 004.522-7.96c1.302-2.408 2.158-4.348 2.568-5.82h-.04a.4.4 0 01-.34-.156c-.073-.104-.089-.234-.05-.39a.922.922 0 01.215-.323c.11-.124.221-.231.332-.322.11-.098.18-.153.205-.166.143-.085.332-.137.567-.156.24-.02.446.039.615.175.11.092.15.241.117.45-.026.208-.153.55-.38 1.025a81.603 81.603 0 01-1.74 3.457 1.032 1.032 0 00-.077.176c-.02.052-.026.088-.02.107.007.02.026.013.059-.02.039-.032.094-.104.166-.214 2.259-3.314 4.043-5.814 5.351-7.5.554-.697 1.013-1.205 1.377-1.524.372-.325.664-.52.88-.586.214-.065.37-.058.468.02.098.078.16.17.186.273.078.248-.105.967-.547 2.159-.437 1.191-1.179 3.086-2.227 5.683-.176.443-.365.912-.566 1.406a233.483 233.483 0 01-1.543 3.73 121.87 121.87 0 00-2.53 6.339c-.065.182-.127.358-.185.527-.586 1.608-.98 2.767-1.182 3.477-.202.71-.273 1.295-.215 1.758.124.26.378.214.762-.137.384-.345.87-.915 1.455-1.71.593-.793 1.263-1.724 2.012-2.792.977-1.38 2.093-3.07 3.35-5.069a935.686 935.686 0 004.296-6.933c.521-.84 1.058-1.712 1.612-2.617.286-.463.683-1.09 1.191-1.885a48.425 48.425 0 011.572-2.285c.625-.84 1.12-1.475 1.485-1.904.37-.43.664-.713.879-.85.221-.137.42-.182.595-.137zM65.001 8.531h.01l-.01.01h-.03a.075.075 0 00.03-.01zm13.306 5.801c-.104-.013-.15-.055-.137-.127.013-.072.043-.156.088-.254a.944.944 0 00.098-.224.826.826 0 01.225-.391.563.563 0 01.4-.156c.11 0 .208.01.293.029.085.02.14.072.166.156.032.085.02.215-.04.39-.103.255-.27.42-.497.499-.228.078-.427.104-.596.078zm4.59 1.514c.072-.052.12-.069.146-.05.033.02.04.056.02.108a.366.366 0 01-.117.137 165.62 165.62 0 01-2.403 1.611 72.058 72.058 0 01-2.588 1.631c-.84.502-1.565.882-2.177 1.143-.619.26-1.022.312-1.211.156-.215-.228-.257-.547-.127-.957.124-.41.358-.879.703-1.406a33.698 33.698 0 011.318-1.924l.166-.235c.052-.071.108-.152.166-.244.072-.09.199-.162.381-.214.182-.053.362-.075.537-.069.176 0 .29.04.342.117.046.085.049.163.01.235a.863.863 0 01-.186.205c-.052.052-.107.11-.166.176l-.166.166c-.234.24-.56.599-.976 1.074a11.84 11.84 0 00-1.114 1.435c-.319.489-.436.87-.351 1.143.143.215.814.01 2.012-.615s3.125-1.833 5.78-3.623zm8.95-.02a.083.083 0 01.078 0 .088.088 0 01.059.049c.013.026.007.055-.02.088-.02.032-.071.068-.156.107v.01a73.648 73.648 0 00-4.394 2.334c-1.218.71-2.204 1.331-2.96 1.865a.68.68 0 00-.136.117.174.174 0 00-.03.088c.007.026.02.05.04.069l.01.01v.01h.01c.201.227.282.523.243.888-.045.384-.244.794-.595 1.23a.63.63 0 00-.059.069l-.098.097c-.345.346-.677.573-.996.684-.319.11-.592.146-.82.107a.287.287 0 00-.068-.01.643.643 0 01-.313-.156.523.523 0 01-.146-.205.595.595 0 01-.059-.156v-.01l-.01-.01v-.01a1.1 1.1 0 01.108-.585 2.861 2.861 0 01.517-.723c.137-.137.248-.244.332-.322.007 0 .01-.003.01-.01h.01l.03-.03a7.66 7.66 0 01.458-.4l.04-.039c.077-.052.156-.11.234-.175a.648.648 0 00.166-.166c.032-.052.045-.095.039-.127a.213.213 0 00-.04-.088 21.4 21.4 0 01-.566-.762 71.497 71.497 0 00-.342-.508c-.592-.872-.683-1.725-.273-2.558.508-1.029 1.738-1.901 3.691-2.617.163-.053.303-.05.42.01.118.051.186.149.205.292.02.15 0 .32-.058.508a.597.597 0 01-.323.39c-.774.274-1.438.544-1.992.811-.547.267-.924.554-1.133.86-.214.358-.299.71-.253 1.054.045.339.14.635.283.889a3.557 3.557 0 00.38.576c.17.241.326.443.47.606.117.136.244.166.38.087 1.615-1.087 4.157-2.5 7.627-4.238zm-9.59 7.256c.222.02.45-.072.684-.273a2.7 2.7 0 00.586-.684c.163-.26.244-.482.244-.664 0-.163-.026-.306-.078-.43-.033-.071-.068-.104-.108-.097a.49.49 0 00-.117.058c-.267.215-.481.397-.644.547l-.02.02-.01.01a.114.114 0 01-.029.019.114.114 0 00-.02.03.32.32 0 00-.048.038v.01a.064.064 0 00-.03.03h-.01v.01c-.006 0-.009.002-.009.009-.176.163-.342.39-.498.683a.973.973 0 00-.137.45c0 .13.082.208.244.234zm10.904-8.75c-.104-.013-.15-.055-.137-.127.013-.072.043-.156.088-.254a.944.944 0 00.098-.224.826.826 0 01.224-.391.563.563 0 01.4-.156c.111 0 .21.01.294.029.084.02.14.072.166.156.032.085.02.215-.04.39-.104.255-.27.42-.497.499-.228.078-.427.104-.596.078zm4.59 1.514c.071-.052.12-.069.146-.05.033.02.04.056.02.108a.366.366 0 01-.117.137 165.62 165.62 0 01-2.403 1.611 72.058 72.058 0 01-2.588 1.631c-.84.502-1.565.882-2.177 1.143-.619.26-1.023.312-1.211.156-.215-.228-.258-.547-.127-.957.123-.41.358-.879.703-1.406a33.698 33.698 0 011.318-1.924l.166-.235c.052-.071.108-.152.166-.244.072-.09.199-.162.381-.214.182-.053.361-.075.537-.069.176 0 .29.04.342.117.046.085.049.163.01.235a.863.863 0 01-.186.205c-.052.052-.107.11-.166.176l-.166.166c-.234.24-.56.599-.976 1.074-.424.469-.795.947-1.114 1.435-.319.489-.436.87-.351 1.143.143.215.814.01 2.011-.615 1.198-.625 3.126-1.833 5.782-3.623z" fill="#000" fill-opacity=".8"/></svg>