<svg width="140" height="36" viewBox="0 0 140 36" fill="none" xmlns="http://www.w3.org/2000/svg">
<g clip-path="url(#clip0_1850_2221)">
<path fill-rule="evenodd" clip-rule="evenodd" d="M34.983 16.8477C35.6686 20.1177 35.3512 23.1591 34.2434 25.6953L34.3021 25.6942C33.3527 28.2935 30.1936 33.7315 22.7564 35.2908C22.4761 35.3497 22.1934 35.397 21.9092 35.4325C21.1996 35.5369 20.4633 35.5909 19.7038 35.5909C10.8957 35.5909 2.23584 28.3406 0.360582 19.3966C-0.532293 15.1366 0.275064 11.2607 2.31737 8.36941C3.26641 6.54307 8.24354 2.11421 12.2604 1.25359C12.3691 1.2304 12.4735 1.21192 12.5742 1.19851C13.6359 0.940141 14.768 0.803528 15.9602 0.803528C24.6084 0.803528 33.1255 7.98675 34.983 16.8477ZM31.9554 16.0976C33.4136 23.0544 29.0895 28.6932 22.2969 28.6932C15.5047 28.6932 8.81608 23.0544 7.35755 16.098C5.89938 9.14162 10.2239 3.50245 17.0161 3.50245C23.8083 3.50245 30.4969 9.14125 31.9554 16.0976ZM21.8827 24.7948C26.9102 24.7948 30.1317 20.7204 29.0779 15.694C28.0245 10.6679 23.0945 6.59344 18.067 6.59344C13.0395 6.59344 9.81803 10.6679 10.8714 15.694C11.9252 20.7204 16.8552 24.7948 21.8827 24.7948ZM26.3612 15.3167C27.0222 18.4701 24.9465 21.0258 21.7247 21.0258C18.5033 21.0258 15.3557 18.4701 14.6948 15.3167C14.0338 12.1641 16.1095 9.60762 19.3313 9.60762C22.5527 9.60762 25.7003 12.1638 26.3612 15.3167ZM23.4072 15.3167C23.7333 16.8731 22.7089 18.1345 21.1188 18.1345C19.5288 18.1345 17.9757 16.8731 17.6492 15.3171C17.323 13.7607 18.3474 12.4993 19.9375 12.4993C21.5276 12.4993 23.0811 13.7604 23.4072 15.3167Z" fill="#614CE1"/>
<path d="M58.2878 26.1692C58.2878 26.2653 58.3259 26.3575 58.3939 26.4255C58.4619 26.4934 58.554 26.5316 58.6501 26.5316H61.4049C61.501 26.5316 61.5931 26.4934 61.6611 26.4255C61.7291 26.3575 61.7672 26.2653 61.7672 26.1692V12.9392H58.6501C58.554 12.9392 58.4619 12.9774 58.3939 13.0453C58.3259 13.1133 58.2878 13.2054 58.2878 13.3016V26.1692ZM58.4001 10.7867C58.7338 11.1371 59.2426 11.3122 59.9268 11.3122C60.6109 11.3122 61.1117 11.1371 61.4288 10.7867C61.7458 10.4196 61.9042 9.96885 61.9042 9.43509C61.9042 8.86762 61.7458 8.40886 61.4288 8.05809C61.1117 7.70768 60.6109 7.53265 59.9268 7.53265C59.2426 7.53265 58.7338 7.70768 58.4001 8.05809C58.083 8.40886 57.9243 8.86762 57.9243 9.43509C57.9243 9.96885 58.083 10.4196 58.4001 10.7867Z" fill="#BCBFDB"/>
<path d="M58.2878 26.1692C58.2878 26.2653 58.3259 26.3575 58.3939 26.4255C58.4619 26.4934 58.554 26.5316 58.6501 26.5316H61.4049C61.501 26.5316 61.5931 26.4934 61.6611 26.4255C61.7291 26.3575 61.7672 26.2653 61.7672 26.1692V12.9392H58.6501C58.554 12.9392 58.4619 12.9774 58.3939 13.0453C58.3259 13.1133 58.2878 13.2054 58.2878 13.3016V26.1692ZM58.4001 10.7867C58.7338 11.1371 59.2426 11.3122 59.9268 11.3122C60.6109 11.3122 61.1117 11.1371 61.4288 10.7867C61.7458 10.4196 61.9042 9.96885 61.9042 9.43509C61.9042 8.86762 61.7458 8.40886 61.4288 8.05809C61.1117 7.70768 60.6109 7.53265 59.9268 7.53265C59.2426 7.53265 58.7338 7.70768 58.4001 8.05809C58.083 8.40886 57.9243 8.86762 57.9243 9.43509C57.9243 9.96885 58.083 10.4196 58.4001 10.7867Z" fill="black" fill-opacity="0.8"/>
<path d="M58.2878 26.1692C58.2878 26.2653 58.3259 26.3575 58.3939 26.4255C58.4619 26.4934 58.554 26.5316 58.6501 26.5316H61.4049C61.501 26.5316 61.5931 26.4934 61.6611 26.4255C61.7291 26.3575 61.7672 26.2653 61.7672 26.1692V12.9392H58.6501C58.554 12.9392 58.4619 12.9774 58.3939 13.0453C58.3259 13.1133 58.2878 13.2054 58.2878 13.3016V26.1692ZM58.4001 10.7867C58.7338 11.1371 59.2426 11.3122 59.9268 11.3122C60.6109 11.3122 61.1117 11.1371 61.4288 10.7867C61.7458 10.4196 61.9042 9.96885 61.9042 9.43509C61.9042 8.86762 61.7458 8.40886 61.4288 8.05809C61.1117 7.70768 60.6109 7.53265 59.9268 7.53265C59.2426 7.53265 58.7338 7.70768 58.4001 8.05809C58.083 8.40886 57.9243 8.86762 57.9243 9.43509C57.9243 9.96885 58.083 10.4196 58.4001 10.7867Z" fill="#BCBFDB"/>
<path d="M58.2878 26.1692C58.2878 26.2653 58.3259 26.3575 58.3939 26.4255C58.4619 26.4934 58.554 26.5316 58.6501 26.5316H61.4049C61.501 26.5316 61.5931 26.4934 61.6611 26.4255C61.7291 26.3575 61.7672 26.2653 61.7672 26.1692V12.9392H58.6501C58.554 12.9392 58.4619 12.9774 58.3939 13.0453C58.3259 13.1133 58.2878 13.2054 58.2878 13.3016V26.1692ZM58.4001 10.7867C58.7338 11.1371 59.2426 11.3122 59.9268 11.3122C60.6109 11.3122 61.1117 11.1371 61.4288 10.7867C61.7458 10.4196 61.9042 9.96885 61.9042 9.43509C61.9042 8.86762 61.7458 8.40886 61.4288 8.05809C61.1117 7.70768 60.6109 7.53265 59.9268 7.53265C59.2426 7.53265 58.7338 7.70768 58.4001 8.05809C58.083 8.40886 57.9243 8.86762 57.9243 9.43509C57.9243 9.96885 58.083 10.4196 58.4001 10.7867Z" fill="black" fill-opacity="0.8"/>
<path fill-rule="evenodd" clip-rule="evenodd" d="M52.8035 20.1735C51.7352 20.6743 50.4336 20.9244 48.8986 20.9244H46.145V26.1693C46.145 26.2654 46.1068 26.3576 46.0389 26.4255C45.9709 26.4935 45.8787 26.5317 45.7826 26.5317H42.9529C42.8568 26.5317 42.7646 26.4935 42.6967 26.4255C42.6287 26.3576 42.5905 26.2654 42.5905 26.1693V8.49588C42.5905 8.39978 42.6287 8.30761 42.6967 8.23965C42.7646 8.17169 42.8568 8.13351 42.9529 8.13351H45.7826C45.8218 8.13351 45.8594 8.13968 45.8946 8.15091C45.9301 8.13968 45.9678 8.13351 46.0069 8.13351H48.8986C50.4336 8.13351 51.7352 8.38355 52.8035 8.88434C53.8881 9.38514 54.7143 10.1026 55.2814 11.0368C55.8488 11.955 56.1326 13.0479 56.1326 14.3162V14.7166C56.1326 15.9849 55.8488 17.0865 55.2814 18.0207C54.7143 18.9386 53.8881 19.6561 52.8035 20.1735ZM51.0011 11.638C50.5173 11.3542 49.9165 11.2122 49.199 11.2122H46.145V17.8457H49.199C49.9165 17.8457 50.5173 17.7036 51.0011 17.4199C51.5019 17.1365 51.8773 16.7441 52.1277 16.2437C52.3948 15.7429 52.5281 15.1674 52.5281 14.5163C52.5281 13.8654 52.3948 13.29 52.1277 12.7892C51.8773 12.2888 51.5019 11.905 51.0011 11.638Z" fill="#BCBFDB"/>
<path fill-rule="evenodd" clip-rule="evenodd" d="M52.8035 20.1735C51.7352 20.6743 50.4336 20.9244 48.8986 20.9244H46.145V26.1693C46.145 26.2654 46.1068 26.3576 46.0389 26.4255C45.9709 26.4935 45.8787 26.5317 45.7826 26.5317H42.9529C42.8568 26.5317 42.7646 26.4935 42.6967 26.4255C42.6287 26.3576 42.5905 26.2654 42.5905 26.1693V8.49588C42.5905 8.39978 42.6287 8.30761 42.6967 8.23965C42.7646 8.17169 42.8568 8.13351 42.9529 8.13351H45.7826C45.8218 8.13351 45.8594 8.13968 45.8946 8.15091C45.9301 8.13968 45.9678 8.13351 46.0069 8.13351H48.8986C50.4336 8.13351 51.7352 8.38355 52.8035 8.88434C53.8881 9.38514 54.7143 10.1026 55.2814 11.0368C55.8488 11.955 56.1326 13.0479 56.1326 14.3162V14.7166C56.1326 15.9849 55.8488 17.0865 55.2814 18.0207C54.7143 18.9386 53.8881 19.6561 52.8035 20.1735ZM51.0011 11.638C50.5173 11.3542 49.9165 11.2122 49.199 11.2122H46.145V17.8457H49.199C49.9165 17.8457 50.5173 17.7036 51.0011 17.4199C51.5019 17.1365 51.8773 16.7441 52.1277 16.2437C52.3948 15.7429 52.5281 15.1674 52.5281 14.5163C52.5281 13.8654 52.3948 13.29 52.1277 12.7892C51.8773 12.2888 51.5019 11.905 51.0011 11.638Z" fill="black" fill-opacity="0.8"/>
<path fill-rule="evenodd" clip-rule="evenodd" d="M52.8035 20.1735C51.7352 20.6743 50.4336 20.9244 48.8986 20.9244H46.145V26.1693C46.145 26.2654 46.1068 26.3576 46.0389 26.4255C45.9709 26.4935 45.8787 26.5317 45.7826 26.5317H42.9529C42.8568 26.5317 42.7646 26.4935 42.6967 26.4255C42.6287 26.3576 42.5905 26.2654 42.5905 26.1693V8.49588C42.5905 8.39978 42.6287 8.30761 42.6967 8.23965C42.7646 8.17169 42.8568 8.13351 42.9529 8.13351H45.7826C45.8218 8.13351 45.8594 8.13968 45.8946 8.15091C45.9301 8.13968 45.9678 8.13351 46.0069 8.13351H48.8986C50.4336 8.13351 51.7352 8.38355 52.8035 8.88434C53.8881 9.38514 54.7143 10.1026 55.2814 11.0368C55.8488 11.955 56.1326 13.0479 56.1326 14.3162V14.7166C56.1326 15.9849 55.8488 17.0865 55.2814 18.0207C54.7143 18.9386 53.8881 19.6561 52.8035 20.1735ZM51.0011 11.638C50.5173 11.3542 49.9165 11.2122 49.199 11.2122H46.145V17.8457H49.199C49.9165 17.8457 50.5173 17.7036 51.0011 17.4199C51.5019 17.1365 51.8773 16.7441 52.1277 16.2437C52.3948 15.7429 52.5281 15.1674 52.5281 14.5163C52.5281 13.8654 52.3948 13.29 52.1277 12.7892C51.8773 12.2888 51.5019 11.905 51.0011 11.638Z" fill="#BCBFDB"/>
<path fill-rule="evenodd" clip-rule="evenodd" d="M52.8035 20.1735C51.7352 20.6743 50.4336 20.9244 48.8986 20.9244H46.145V26.1693C46.145 26.2654 46.1068 26.3576 46.0389 26.4255C45.9709 26.4935 45.8787 26.5317 45.7826 26.5317H42.9529C42.8568 26.5317 42.7646 26.4935 42.6967 26.4255C42.6287 26.3576 42.5905 26.2654 42.5905 26.1693V8.49588C42.5905 8.39978 42.6287 8.30761 42.6967 8.23965C42.7646 8.17169 42.8568 8.13351 42.9529 8.13351H45.7826C45.8218 8.13351 45.8594 8.13968 45.8946 8.15091C45.9301 8.13968 45.9678 8.13351 46.0069 8.13351H48.8986C50.4336 8.13351 51.7352 8.38355 52.8035 8.88434C53.8881 9.38514 54.7143 10.1026 55.2814 11.0368C55.8488 11.955 56.1326 13.0479 56.1326 14.3162V14.7166C56.1326 15.9849 55.8488 17.0865 55.2814 18.0207C54.7143 18.9386 53.8881 19.6561 52.8035 20.1735ZM51.0011 11.638C50.5173 11.3542 49.9165 11.2122 49.199 11.2122H46.145V17.8457H49.199C49.9165 17.8457 50.5173 17.7036 51.0011 17.4199C51.5019 17.1365 51.8773 16.7441 52.1277 16.2437C52.3948 15.7429 52.5281 15.1674 52.5281 14.5163C52.5281 13.8654 52.3948 13.29 52.1277 12.7892C51.8773 12.2888 51.5019 11.905 51.0011 11.638Z" fill="black" fill-opacity="0.8"/>
<path d="M64.8882 26.5316C64.7921 26.5316 64.6999 26.4934 64.632 26.4255C64.564 26.3575 64.5258 26.2654 64.5258 26.1693V13.3016C64.5258 13.2055 64.564 13.1133 64.632 13.0453C64.6999 12.9774 64.7921 12.9392 64.8882 12.9392H66.9171C67.0132 12.9392 67.1054 12.9774 67.1733 13.0453C67.2413 13.1133 67.2795 13.2055 67.2795 13.3016V16.2889C67.3599 15.9403 67.4599 15.6164 67.5799 15.3174C67.947 14.3829 68.4891 13.682 69.2069 13.2146C69.9411 12.7475 70.8506 12.5138 71.9352 12.5138H72.0852C73.7043 12.5138 74.9305 13.0392 75.7651 14.0908C76.5992 15.1254 77.0167 16.6774 77.0167 18.7465V26.1693C77.0167 26.2654 76.9785 26.3575 76.9105 26.4255C76.8426 26.4934 76.7504 26.5316 76.6543 26.5316H73.8996C73.8035 26.5316 73.7113 26.4934 73.6433 26.4255C73.5754 26.3575 73.5372 26.2654 73.5372 26.1693V18.4465C73.5372 17.6119 73.2952 16.9361 72.8114 16.4187C72.3439 15.9016 71.6931 15.6428 70.8589 15.6428C70.0077 15.6428 69.3153 15.9099 68.7811 16.4437C68.264 16.9611 68.0053 17.6619 68.0053 18.5465V26.1693C68.0053 26.2654 67.9671 26.3575 67.8992 26.4255C67.8312 26.4934 67.739 26.5316 67.6429 26.5316H64.8882Z" fill="#BCBFDB"/>
<path d="M64.8882 26.5316C64.7921 26.5316 64.6999 26.4934 64.632 26.4255C64.564 26.3575 64.5258 26.2654 64.5258 26.1693V13.3016C64.5258 13.2055 64.564 13.1133 64.632 13.0453C64.6999 12.9774 64.7921 12.9392 64.8882 12.9392H66.9171C67.0132 12.9392 67.1054 12.9774 67.1733 13.0453C67.2413 13.1133 67.2795 13.2055 67.2795 13.3016V16.2889C67.3599 15.9403 67.4599 15.6164 67.5799 15.3174C67.947 14.3829 68.4891 13.682 69.2069 13.2146C69.9411 12.7475 70.8506 12.5138 71.9352 12.5138H72.0852C73.7043 12.5138 74.9305 13.0392 75.7651 14.0908C76.5992 15.1254 77.0167 16.6774 77.0167 18.7465V26.1693C77.0167 26.2654 76.9785 26.3575 76.9105 26.4255C76.8426 26.4934 76.7504 26.5316 76.6543 26.5316H73.8996C73.8035 26.5316 73.7113 26.4934 73.6433 26.4255C73.5754 26.3575 73.5372 26.2654 73.5372 26.1693V18.4465C73.5372 17.6119 73.2952 16.9361 72.8114 16.4187C72.3439 15.9016 71.6931 15.6428 70.8589 15.6428C70.0077 15.6428 69.3153 15.9099 68.7811 16.4437C68.264 16.9611 68.0053 17.6619 68.0053 18.5465V26.1693C68.0053 26.2654 67.9671 26.3575 67.8992 26.4255C67.8312 26.4934 67.739 26.5316 67.6429 26.5316H64.8882Z" fill="black" fill-opacity="0.8"/>
<path d="M64.8882 26.5316C64.7921 26.5316 64.6999 26.4934 64.632 26.4255C64.564 26.3575 64.5258 26.2654 64.5258 26.1693V13.3016C64.5258 13.2055 64.564 13.1133 64.632 13.0453C64.6999 12.9774 64.7921 12.9392 64.8882 12.9392H66.9171C67.0132 12.9392 67.1054 12.9774 67.1733 13.0453C67.2413 13.1133 67.2795 13.2055 67.2795 13.3016V16.2889C67.3599 15.9403 67.4599 15.6164 67.5799 15.3174C67.947 14.3829 68.4891 13.682 69.2069 13.2146C69.9411 12.7475 70.8506 12.5138 71.9352 12.5138H72.0852C73.7043 12.5138 74.9305 13.0392 75.7651 14.0908C76.5992 15.1254 77.0167 16.6774 77.0167 18.7465V26.1693C77.0167 26.2654 76.9785 26.3575 76.9105 26.4255C76.8426 26.4934 76.7504 26.5316 76.6543 26.5316H73.8996C73.8035 26.5316 73.7113 26.4934 73.6433 26.4255C73.5754 26.3575 73.5372 26.2654 73.5372 26.1693V18.4465C73.5372 17.6119 73.2952 16.9361 72.8114 16.4187C72.3439 15.9016 71.6931 15.6428 70.8589 15.6428C70.0077 15.6428 69.3153 15.9099 68.7811 16.4437C68.264 16.9611 68.0053 17.6619 68.0053 18.5465V26.1693C68.0053 26.2654 67.9671 26.3575 67.8992 26.4255C67.8312 26.4934 67.739 26.5316 67.6429 26.5316H64.8882Z" fill="#BCBFDB"/>
<path d="M64.8882 26.5316C64.7921 26.5316 64.6999 26.4934 64.632 26.4255C64.564 26.3575 64.5258 26.2654 64.5258 26.1693V13.3016C64.5258 13.2055 64.564 13.1133 64.632 13.0453C64.6999 12.9774 64.7921 12.9392 64.8882 12.9392H66.9171C67.0132 12.9392 67.1054 12.9774 67.1733 13.0453C67.2413 13.1133 67.2795 13.2055 67.2795 13.3016V16.2889C67.3599 15.9403 67.4599 15.6164 67.5799 15.3174C67.947 14.3829 68.4891 13.682 69.2069 13.2146C69.9411 12.7475 70.8506 12.5138 71.9352 12.5138H72.0852C73.7043 12.5138 74.9305 13.0392 75.7651 14.0908C76.5992 15.1254 77.0167 16.6774 77.0167 18.7465V26.1693C77.0167 26.2654 76.9785 26.3575 76.9105 26.4255C76.8426 26.4934 76.7504 26.5316 76.6543 26.5316H73.8996C73.8035 26.5316 73.7113 26.4934 73.6433 26.4255C73.5754 26.3575 73.5372 26.2654 73.5372 26.1693V18.4465C73.5372 17.6119 73.2952 16.9361 72.8114 16.4187C72.3439 15.9016 71.6931 15.6428 70.8589 15.6428C70.0077 15.6428 69.3153 15.9099 68.7811 16.4437C68.264 16.9611 68.0053 17.6619 68.0053 18.5465V26.1693C68.0053 26.2654 67.9671 26.3575 67.8992 26.4255C67.8312 26.4934 67.739 26.5316 67.6429 26.5316H64.8882Z" fill="black" fill-opacity="0.8"/>
<path fill-rule="evenodd" clip-rule="evenodd" d="M89.9938 20.1735C88.9259 20.6743 87.6243 20.9244 86.0889 20.9244H83.3356V26.1693C83.3356 26.2654 83.2974 26.3576 83.2295 26.4255C83.1615 26.4935 83.0694 26.5317 82.9733 26.5317H80.1432C80.0471 26.5317 79.9549 26.4935 79.8869 26.4255C79.819 26.3576 79.7808 26.2654 79.7808 26.1693V8.49588C79.7808 8.39978 79.819 8.30761 79.8869 8.23965C79.9549 8.1717 80.0471 8.13352 80.1432 8.13352H82.9733C83.012 8.13352 83.0497 8.13968 83.0852 8.15091C83.1214 8.13926 83.1592 8.13339 83.1972 8.13352H86.0889C87.6243 8.13352 88.9259 8.38355 89.9938 8.88435C91.0783 9.38514 91.9045 10.1026 92.472 11.0368C93.0395 11.955 93.3229 13.0479 93.3229 14.3162V14.7166C93.3229 15.9849 93.0395 17.0865 92.472 18.0207C91.9045 18.9386 91.0783 19.6561 89.9938 20.1735ZM88.1917 11.638C87.7076 11.3542 87.1068 11.2122 86.3893 11.2122H83.3356V17.8457H86.3893C87.1068 17.8457 87.7076 17.7036 88.1917 17.4199C88.6922 17.1365 89.0676 16.7441 89.318 16.2437C89.585 15.7429 89.7184 15.1674 89.7184 14.5163C89.7184 13.8654 89.585 13.29 89.318 12.7892C89.0676 12.2888 88.6922 11.905 88.1917 11.638ZM101.067 27.0071C99.8661 27.0071 98.8062 26.8154 97.8883 26.4313C96.9708 26.0475 96.1946 25.5304 95.5605 24.8796C94.937 24.2284 94.4443 23.4636 94.1088 22.6268C93.7923 21.7953 93.631 20.9128 93.633 20.0232V19.4977C93.633 18.5632 93.8001 17.6786 94.1338 16.8445C94.4763 16.0054 94.9777 15.2404 95.6105 14.5916C96.2613 13.9241 97.0458 13.4067 97.9637 13.0396C98.8816 12.6555 99.9161 12.4638 101.067 12.4638C102.219 12.4638 103.254 12.6559 104.171 13.0396C105.089 13.4067 105.865 13.9238 106.499 14.5916C107.143 15.2316 107.646 15.9989 107.976 16.8445C108.31 17.6786 108.477 18.5632 108.477 19.4977V20.0232C108.477 20.9244 108.31 21.7922 107.976 22.6268C107.659 23.4609 107.183 24.2118 106.549 24.8796C105.915 25.5304 105.139 26.0475 104.221 26.4313C103.304 26.8154 102.252 27.0071 101.067 27.0071ZM101.067 24.0284C101.919 24.0284 102.636 23.8447 103.22 23.4776C103.797 23.1027 104.256 22.5737 104.547 21.9506C104.847 21.2998 104.997 20.5656 104.997 19.7481C104.997 18.9136 104.839 18.1791 104.522 17.5449C104.221 16.8945 103.771 16.3854 103.17 16.0183C102.586 15.6342 101.885 15.4425 101.067 15.4425C100.25 15.4425 99.5407 15.6345 98.9399 16.0186C98.3558 16.3854 97.9054 16.8945 97.5883 17.5453C97.2712 18.1794 97.1125 18.9136 97.1125 19.7481C97.1125 20.5656 97.2629 21.2998 97.5629 21.9506C97.8684 22.5717 98.3354 23.0991 98.9149 23.4776C99.4987 23.8447 100.217 24.0284 101.067 24.0284Z" fill="#BCBFDB"/>
<path fill-rule="evenodd" clip-rule="evenodd" d="M89.9938 20.1735C88.9259 20.6743 87.6243 20.9244 86.0889 20.9244H83.3356V26.1693C83.3356 26.2654 83.2974 26.3576 83.2295 26.4255C83.1615 26.4935 83.0694 26.5317 82.9733 26.5317H80.1432C80.0471 26.5317 79.9549 26.4935 79.8869 26.4255C79.819 26.3576 79.7808 26.2654 79.7808 26.1693V8.49588C79.7808 8.39978 79.819 8.30761 79.8869 8.23965C79.9549 8.1717 80.0471 8.13352 80.1432 8.13352H82.9733C83.012 8.13352 83.0497 8.13968 83.0852 8.15091C83.1214 8.13926 83.1592 8.13339 83.1972 8.13352H86.0889C87.6243 8.13352 88.9259 8.38355 89.9938 8.88435C91.0783 9.38514 91.9045 10.1026 92.472 11.0368C93.0395 11.955 93.3229 13.0479 93.3229 14.3162V14.7166C93.3229 15.9849 93.0395 17.0865 92.472 18.0207C91.9045 18.9386 91.0783 19.6561 89.9938 20.1735ZM88.1917 11.638C87.7076 11.3542 87.1068 11.2122 86.3893 11.2122H83.3356V17.8457H86.3893C87.1068 17.8457 87.7076 17.7036 88.1917 17.4199C88.6922 17.1365 89.0676 16.7441 89.318 16.2437C89.585 15.7429 89.7184 15.1674 89.7184 14.5163C89.7184 13.8654 89.585 13.29 89.318 12.7892C89.0676 12.2888 88.6922 11.905 88.1917 11.638ZM101.067 27.0071C99.8661 27.0071 98.8062 26.8154 97.8883 26.4313C96.9708 26.0475 96.1946 25.5304 95.5605 24.8796C94.937 24.2284 94.4443 23.4636 94.1088 22.6268C93.7923 21.7953 93.631 20.9128 93.633 20.0232V19.4977C93.633 18.5632 93.8001 17.6786 94.1338 16.8445C94.4763 16.0054 94.9777 15.2404 95.6105 14.5916C96.2613 13.9241 97.0458 13.4067 97.9637 13.0396C98.8816 12.6555 99.9161 12.4638 101.067 12.4638C102.219 12.4638 103.254 12.6559 104.171 13.0396C105.089 13.4067 105.865 13.9238 106.499 14.5916C107.143 15.2316 107.646 15.9989 107.976 16.8445C108.31 17.6786 108.477 18.5632 108.477 19.4977V20.0232C108.477 20.9244 108.31 21.7922 107.976 22.6268C107.659 23.4609 107.183 24.2118 106.549 24.8796C105.915 25.5304 105.139 26.0475 104.221 26.4313C103.304 26.8154 102.252 27.0071 101.067 27.0071ZM101.067 24.0284C101.919 24.0284 102.636 23.8447 103.22 23.4776C103.797 23.1027 104.256 22.5737 104.547 21.9506C104.847 21.2998 104.997 20.5656 104.997 19.7481C104.997 18.9136 104.839 18.1791 104.522 17.5449C104.221 16.8945 103.771 16.3854 103.17 16.0183C102.586 15.6342 101.885 15.4425 101.067 15.4425C100.25 15.4425 99.5407 15.6345 98.9399 16.0186C98.3558 16.3854 97.9054 16.8945 97.5883 17.5453C97.2712 18.1794 97.1125 18.9136 97.1125 19.7481C97.1125 20.5656 97.2629 21.2998 97.5629 21.9506C97.8684 22.5717 98.3354 23.0991 98.9149 23.4776C99.4987 23.8447 100.217 24.0284 101.067 24.0284Z" fill="black" fill-opacity="0.8"/>
<path fill-rule="evenodd" clip-rule="evenodd" d="M89.9938 20.1735C88.9259 20.6743 87.6243 20.9244 86.0889 20.9244H83.3356V26.1693C83.3356 26.2654 83.2974 26.3576 83.2295 26.4255C83.1615 26.4935 83.0694 26.5317 82.9733 26.5317H80.1432C80.0471 26.5317 79.9549 26.4935 79.8869 26.4255C79.819 26.3576 79.7808 26.2654 79.7808 26.1693V8.49588C79.7808 8.39978 79.819 8.30761 79.8869 8.23965C79.9549 8.1717 80.0471 8.13352 80.1432 8.13352H82.9733C83.012 8.13352 83.0497 8.13968 83.0852 8.15091C83.1214 8.13926 83.1592 8.13339 83.1972 8.13352H86.0889C87.6243 8.13352 88.9259 8.38355 89.9938 8.88435C91.0783 9.38514 91.9045 10.1026 92.472 11.0368C93.0395 11.955 93.3229 13.0479 93.3229 14.3162V14.7166C93.3229 15.9849 93.0395 17.0865 92.472 18.0207C91.9045 18.9386 91.0783 19.6561 89.9938 20.1735ZM88.1917 11.638C87.7076 11.3542 87.1068 11.2122 86.3893 11.2122H83.3356V17.8457H86.3893C87.1068 17.8457 87.7076 17.7036 88.1917 17.4199C88.6922 17.1365 89.0676 16.7441 89.318 16.2437C89.585 15.7429 89.7184 15.1674 89.7184 14.5163C89.7184 13.8654 89.585 13.29 89.318 12.7892C89.0676 12.2888 88.6922 11.905 88.1917 11.638ZM101.067 27.0071C99.8661 27.0071 98.8062 26.8154 97.8883 26.4313C96.9708 26.0475 96.1946 25.5304 95.5605 24.8796C94.937 24.2284 94.4443 23.4636 94.1088 22.6268C93.7923 21.7953 93.631 20.9128 93.633 20.0232V19.4977C93.633 18.5632 93.8001 17.6786 94.1338 16.8445C94.4763 16.0054 94.9777 15.2404 95.6105 14.5916C96.2613 13.9241 97.0458 13.4067 97.9637 13.0396C98.8816 12.6555 99.9161 12.4638 101.067 12.4638C102.219 12.4638 103.254 12.6559 104.171 13.0396C105.089 13.4067 105.865 13.9238 106.499 14.5916C107.143 15.2316 107.646 15.9989 107.976 16.8445C108.31 17.6786 108.477 18.5632 108.477 19.4977V20.0232C108.477 20.9244 108.31 21.7922 107.976 22.6268C107.659 23.4609 107.183 24.2118 106.549 24.8796C105.915 25.5304 105.139 26.0475 104.221 26.4313C103.304 26.8154 102.252 27.0071 101.067 27.0071ZM101.067 24.0284C101.919 24.0284 102.636 23.8447 103.22 23.4776C103.797 23.1027 104.256 22.5737 104.547 21.9506C104.847 21.2998 104.997 20.5656 104.997 19.7481C104.997 18.9136 104.839 18.1791 104.522 17.5449C104.221 16.8945 103.771 16.3854 103.17 16.0183C102.586 15.6342 101.885 15.4425 101.067 15.4425C100.25 15.4425 99.5407 15.6345 98.9399 16.0186C98.3558 16.3854 97.9054 16.8945 97.5883 17.5453C97.2712 18.1794 97.1125 18.9136 97.1125 19.7481C97.1125 20.5656 97.2629 21.2998 97.5629 21.9506C97.8684 22.5717 98.3354 23.0991 98.9149 23.4776C99.4987 23.8447 100.217 24.0284 101.067 24.0284Z" fill="#BCBFDB"/>
<path fill-rule="evenodd" clip-rule="evenodd" d="M89.9938 20.1735C88.9259 20.6743 87.6243 20.9244 86.0889 20.9244H83.3356V26.1693C83.3356 26.2654 83.2974 26.3576 83.2295 26.4255C83.1615 26.4935 83.0694 26.5317 82.9733 26.5317H80.1432C80.0471 26.5317 79.9549 26.4935 79.8869 26.4255C79.819 26.3576 79.7808 26.2654 79.7808 26.1693V8.49588C79.7808 8.39978 79.819 8.30761 79.8869 8.23965C79.9549 8.1717 80.0471 8.13352 80.1432 8.13352H82.9733C83.012 8.13352 83.0497 8.13968 83.0852 8.15091C83.1214 8.13926 83.1592 8.13339 83.1972 8.13352H86.0889C87.6243 8.13352 88.9259 8.38355 89.9938 8.88435C91.0783 9.38514 91.9045 10.1026 92.472 11.0368C93.0395 11.955 93.3229 13.0479 93.3229 14.3162V14.7166C93.3229 15.9849 93.0395 17.0865 92.472 18.0207C91.9045 18.9386 91.0783 19.6561 89.9938 20.1735ZM88.1917 11.638C87.7076 11.3542 87.1068 11.2122 86.3893 11.2122H83.3356V17.8457H86.3893C87.1068 17.8457 87.7076 17.7036 88.1917 17.4199C88.6922 17.1365 89.0676 16.7441 89.318 16.2437C89.585 15.7429 89.7184 15.1674 89.7184 14.5163C89.7184 13.8654 89.585 13.29 89.318 12.7892C89.0676 12.2888 88.6922 11.905 88.1917 11.638ZM101.067 27.0071C99.8661 27.0071 98.8062 26.8154 97.8883 26.4313C96.9708 26.0475 96.1946 25.5304 95.5605 24.8796C94.937 24.2284 94.4443 23.4636 94.1088 22.6268C93.7923 21.7953 93.631 20.9128 93.633 20.0232V19.4977C93.633 18.5632 93.8001 17.6786 94.1338 16.8445C94.4763 16.0054 94.9777 15.2404 95.6105 14.5916C96.2613 13.9241 97.0458 13.4067 97.9637 13.0396C98.8816 12.6555 99.9161 12.4638 101.067 12.4638C102.219 12.4638 103.254 12.6559 104.171 13.0396C105.089 13.4067 105.865 13.9238 106.499 14.5916C107.143 15.2316 107.646 15.9989 107.976 16.8445C108.31 17.6786 108.477 18.5632 108.477 19.4977V20.0232C108.477 20.9244 108.31 21.7922 107.976 22.6268C107.659 23.4609 107.183 24.2118 106.549 24.8796C105.915 25.5304 105.139 26.0475 104.221 26.4313C103.304 26.8154 102.252 27.0071 101.067 27.0071ZM101.067 24.0284C101.919 24.0284 102.636 23.8447 103.22 23.4776C103.797 23.1027 104.256 22.5737 104.547 21.9506C104.847 21.2998 104.997 20.5656 104.997 19.7481C104.997 18.9136 104.839 18.1791 104.522 17.5449C104.221 16.8945 103.771 16.3854 103.17 16.0183C102.586 15.6342 101.885 15.4425 101.067 15.4425C100.25 15.4425 99.5407 15.6345 98.9399 16.0186C98.3558 16.3854 97.9054 16.8945 97.5883 17.5453C97.2712 18.1794 97.1125 18.9136 97.1125 19.7481C97.1125 20.5656 97.2629 21.2998 97.5629 21.9506C97.8684 22.5717 98.3354 23.0991 98.9149 23.4776C99.4987 23.8447 100.217 24.0284 101.067 24.0284Z" fill="black" fill-opacity="0.8"/>
<path d="M110.923 26.1692C110.923 26.2653 110.961 26.3575 111.029 26.4255C111.097 26.4934 111.189 26.5316 111.285 26.5316H114.04C114.136 26.5316 114.228 26.4934 114.296 26.4255C114.364 26.3575 114.402 26.2653 114.402 26.1692V12.9392H111.285C111.189 12.9392 111.097 12.9774 111.029 13.0453C110.961 13.1133 110.923 13.2054 110.923 13.3016V26.1692ZM111.034 10.7867C111.368 11.1371 111.877 11.3122 112.561 11.3122C113.246 11.3122 113.746 11.1371 114.063 10.7867C114.38 10.4196 114.539 9.96885 114.539 9.43509C114.539 8.86762 114.38 8.40886 114.063 8.05809C113.746 7.70768 113.246 7.53265 112.561 7.53265C111.877 7.53265 111.368 7.70768 111.034 8.05809C110.717 8.40886 110.559 8.86762 110.559 9.43509C110.559 9.96885 110.717 10.4196 111.034 10.7867ZM117.523 26.5316C117.427 26.5316 117.334 26.4934 117.266 26.4255C117.198 26.3575 117.16 26.2653 117.16 26.1692V13.3016C117.16 13.2054 117.198 13.1133 117.266 13.0453C117.334 12.9774 117.427 12.9392 117.523 12.9392H119.551C119.647 12.9392 119.739 12.9774 119.807 13.0453C119.875 13.1133 119.914 13.2054 119.914 13.3016V16.2889C119.989 15.9579 120.089 15.6331 120.214 15.3174C120.581 14.3829 121.124 13.682 121.841 13.2146C122.575 12.7475 123.485 12.5138 124.57 12.5138H124.72C126.338 12.5138 127.565 13.0392 128.399 14.0908C129.234 15.1254 129.651 16.6774 129.651 18.7465V26.1692C129.651 26.2653 129.613 26.3575 129.545 26.4255C129.477 26.4934 129.385 26.5316 129.288 26.5316H126.534C126.438 26.5316 126.346 26.4934 126.278 26.4255C126.21 26.3575 126.172 26.2653 126.172 26.1692V18.4465C126.172 17.6119 125.93 16.9361 125.445 16.4186C124.978 15.9015 124.328 15.6428 123.493 15.6428C122.642 15.6428 121.949 15.9099 121.416 16.4436C120.898 16.9611 120.639 17.6619 120.639 18.5465V26.1692C120.639 26.2653 120.601 26.3575 120.533 26.4255C120.465 26.4934 120.373 26.5316 120.277 26.5316H117.523ZM134.944 26.2312C135.761 26.5483 136.796 26.7066 138.048 26.7066H139.638C139.734 26.7066 139.826 26.6685 139.894 26.6005C139.962 26.5325 140 26.4404 140 26.3443V24.0903C140 23.9942 139.962 23.9021 139.894 23.8341C139.826 23.7661 139.734 23.728 139.638 23.728H137.872C137.205 23.728 136.687 23.5526 136.32 23.2022C135.97 22.8351 135.795 22.318 135.795 21.6505L135.807 15.4928H139.638C139.734 15.4928 139.826 15.4546 139.894 15.3867C139.962 15.3187 140 15.2265 140 15.1304V13.3016C140 13.2054 139.962 13.1133 139.894 13.0453C139.826 12.9774 139.734 12.9392 139.638 12.9392H135.812L135.819 9.47241C135.819 9.42476 135.81 9.37756 135.792 9.33352C135.773 9.28947 135.747 9.24943 135.713 9.21571C135.679 9.18198 135.639 9.15523 135.595 9.13697C135.551 9.11871 135.504 9.10932 135.457 9.10932H132.927C132.831 9.10932 132.739 9.1474 132.671 9.2152C132.603 9.283 132.565 9.37498 132.565 9.47096L132.558 12.9388H130.75C130.654 12.9388 130.562 12.977 130.494 13.045C130.426 13.1129 130.388 13.2051 130.388 13.3012V15.1301C130.388 15.2262 130.426 15.3183 130.494 15.3863C130.562 15.4543 130.654 15.4924 130.75 15.4924H132.553L132.54 21.4248C132.54 22.743 132.741 23.7943 133.141 24.5788C133.542 25.3463 134.142 25.8975 134.944 26.2312Z" fill="#BCBFDB"/>
<path d="M110.923 26.1692C110.923 26.2653 110.961 26.3575 111.029 26.4255C111.097 26.4934 111.189 26.5316 111.285 26.5316H114.04C114.136 26.5316 114.228 26.4934 114.296 26.4255C114.364 26.3575 114.402 26.2653 114.402 26.1692V12.9392H111.285C111.189 12.9392 111.097 12.9774 111.029 13.0453C110.961 13.1133 110.923 13.2054 110.923 13.3016V26.1692ZM111.034 10.7867C111.368 11.1371 111.877 11.3122 112.561 11.3122C113.246 11.3122 113.746 11.1371 114.063 10.7867C114.38 10.4196 114.539 9.96885 114.539 9.43509C114.539 8.86762 114.38 8.40886 114.063 8.05809C113.746 7.70768 113.246 7.53265 112.561 7.53265C111.877 7.53265 111.368 7.70768 111.034 8.05809C110.717 8.40886 110.559 8.86762 110.559 9.43509C110.559 9.96885 110.717 10.4196 111.034 10.7867ZM117.523 26.5316C117.427 26.5316 117.334 26.4934 117.266 26.4255C117.198 26.3575 117.16 26.2653 117.16 26.1692V13.3016C117.16 13.2054 117.198 13.1133 117.266 13.0453C117.334 12.9774 117.427 12.9392 117.523 12.9392H119.551C119.647 12.9392 119.739 12.9774 119.807 13.0453C119.875 13.1133 119.914 13.2054 119.914 13.3016V16.2889C119.989 15.9579 120.089 15.6331 120.214 15.3174C120.581 14.3829 121.124 13.682 121.841 13.2146C122.575 12.7475 123.485 12.5138 124.57 12.5138H124.72C126.338 12.5138 127.565 13.0392 128.399 14.0908C129.234 15.1254 129.651 16.6774 129.651 18.7465V26.1692C129.651 26.2653 129.613 26.3575 129.545 26.4255C129.477 26.4934 129.385 26.5316 129.288 26.5316H126.534C126.438 26.5316 126.346 26.4934 126.278 26.4255C126.21 26.3575 126.172 26.2653 126.172 26.1692V18.4465C126.172 17.6119 125.93 16.9361 125.445 16.4186C124.978 15.9015 124.328 15.6428 123.493 15.6428C122.642 15.6428 121.949 15.9099 121.416 16.4436C120.898 16.9611 120.639 17.6619 120.639 18.5465V26.1692C120.639 26.2653 120.601 26.3575 120.533 26.4255C120.465 26.4934 120.373 26.5316 120.277 26.5316H117.523ZM134.944 26.2312C135.761 26.5483 136.796 26.7066 138.048 26.7066H139.638C139.734 26.7066 139.826 26.6685 139.894 26.6005C139.962 26.5325 140 26.4404 140 26.3443V24.0903C140 23.9942 139.962 23.9021 139.894 23.8341C139.826 23.7661 139.734 23.728 139.638 23.728H137.872C137.205 23.728 136.687 23.5526 136.32 23.2022C135.97 22.8351 135.795 22.318 135.795 21.6505L135.807 15.4928H139.638C139.734 15.4928 139.826 15.4546 139.894 15.3867C139.962 15.3187 140 15.2265 140 15.1304V13.3016C140 13.2054 139.962 13.1133 139.894 13.0453C139.826 12.9774 139.734 12.9392 139.638 12.9392H135.812L135.819 9.47241C135.819 9.42476 135.81 9.37756 135.792 9.33352C135.773 9.28947 135.747 9.24943 135.713 9.21571C135.679 9.18198 135.639 9.15523 135.595 9.13697C135.551 9.11871 135.504 9.10932 135.457 9.10932H132.927C132.831 9.10932 132.739 9.1474 132.671 9.2152C132.603 9.283 132.565 9.37498 132.565 9.47096L132.558 12.9388H130.75C130.654 12.9388 130.562 12.977 130.494 13.045C130.426 13.1129 130.388 13.2051 130.388 13.3012V15.1301C130.388 15.2262 130.426 15.3183 130.494 15.3863C130.562 15.4543 130.654 15.4924 130.75 15.4924H132.553L132.54 21.4248C132.54 22.743 132.741 23.7943 133.141 24.5788C133.542 25.3463 134.142 25.8975 134.944 26.2312Z" fill="black" fill-opacity="0.8"/>
<path d="M110.923 26.1692C110.923 26.2653 110.961 26.3575 111.029 26.4255C111.097 26.4934 111.189 26.5316 111.285 26.5316H114.04C114.136 26.5316 114.228 26.4934 114.296 26.4255C114.364 26.3575 114.402 26.2653 114.402 26.1692V12.9392H111.285C111.189 12.9392 111.097 12.9774 111.029 13.0453C110.961 13.1133 110.923 13.2054 110.923 13.3016V26.1692ZM111.034 10.7867C111.368 11.1371 111.877 11.3122 112.561 11.3122C113.246 11.3122 113.746 11.1371 114.063 10.7867C114.38 10.4196 114.539 9.96885 114.539 9.43509C114.539 8.86762 114.38 8.40886 114.063 8.05809C113.746 7.70768 113.246 7.53265 112.561 7.53265C111.877 7.53265 111.368 7.70768 111.034 8.05809C110.717 8.40886 110.559 8.86762 110.559 9.43509C110.559 9.96885 110.717 10.4196 111.034 10.7867ZM117.523 26.5316C117.427 26.5316 117.334 26.4934 117.266 26.4255C117.198 26.3575 117.16 26.2653 117.16 26.1692V13.3016C117.16 13.2054 117.198 13.1133 117.266 13.0453C117.334 12.9774 117.427 12.9392 117.523 12.9392H119.551C119.647 12.9392 119.739 12.9774 119.807 13.0453C119.875 13.1133 119.914 13.2054 119.914 13.3016V16.2889C119.989 15.9579 120.089 15.6331 120.214 15.3174C120.581 14.3829 121.124 13.682 121.841 13.2146C122.575 12.7475 123.485 12.5138 124.57 12.5138H124.72C126.338 12.5138 127.565 13.0392 128.399 14.0908C129.234 15.1254 129.651 16.6774 129.651 18.7465V26.1692C129.651 26.2653 129.613 26.3575 129.545 26.4255C129.477 26.4934 129.385 26.5316 129.288 26.5316H126.534C126.438 26.5316 126.346 26.4934 126.278 26.4255C126.21 26.3575 126.172 26.2653 126.172 26.1692V18.4465C126.172 17.6119 125.93 16.9361 125.445 16.4186C124.978 15.9015 124.328 15.6428 123.493 15.6428C122.642 15.6428 121.949 15.9099 121.416 16.4436C120.898 16.9611 120.639 17.6619 120.639 18.5465V26.1692C120.639 26.2653 120.601 26.3575 120.533 26.4255C120.465 26.4934 120.373 26.5316 120.277 26.5316H117.523ZM134.944 26.2312C135.761 26.5483 136.796 26.7066 138.048 26.7066H139.638C139.734 26.7066 139.826 26.6685 139.894 26.6005C139.962 26.5325 140 26.4404 140 26.3443V24.0903C140 23.9942 139.962 23.9021 139.894 23.8341C139.826 23.7661 139.734 23.728 139.638 23.728H137.872C137.205 23.728 136.687 23.5526 136.32 23.2022C135.97 22.8351 135.795 22.318 135.795 21.6505L135.807 15.4928H139.638C139.734 15.4928 139.826 15.4546 139.894 15.3867C139.962 15.3187 140 15.2265 140 15.1304V13.3016C140 13.2054 139.962 13.1133 139.894 13.0453C139.826 12.9774 139.734 12.9392 139.638 12.9392H135.812L135.819 9.47241C135.819 9.42476 135.81 9.37756 135.792 9.33352C135.773 9.28947 135.747 9.24943 135.713 9.21571C135.679 9.18198 135.639 9.15523 135.595 9.13697C135.551 9.11871 135.504 9.10932 135.457 9.10932H132.927C132.831 9.10932 132.739 9.1474 132.671 9.2152C132.603 9.283 132.565 9.37498 132.565 9.47096L132.558 12.9388H130.75C130.654 12.9388 130.562 12.977 130.494 13.045C130.426 13.1129 130.388 13.2051 130.388 13.3012V15.1301C130.388 15.2262 130.426 15.3183 130.494 15.3863C130.562 15.4543 130.654 15.4924 130.75 15.4924H132.553L132.54 21.4248C132.54 22.743 132.741 23.7943 133.141 24.5788C133.542 25.3463 134.142 25.8975 134.944 26.2312Z" fill="#BCBFDB"/>
<path d="M110.923 26.1692C110.923 26.2653 110.961 26.3575 111.029 26.4255C111.097 26.4934 111.189 26.5316 111.285 26.5316H114.04C114.136 26.5316 114.228 26.4934 114.296 26.4255C114.364 26.3575 114.402 26.2653 114.402 26.1692V12.9392H111.285C111.189 12.9392 111.097 12.9774 111.029 13.0453C110.961 13.1133 110.923 13.2054 110.923 13.3016V26.1692ZM111.034 10.7867C111.368 11.1371 111.877 11.3122 112.561 11.3122C113.246 11.3122 113.746 11.1371 114.063 10.7867C114.38 10.4196 114.539 9.96885 114.539 9.43509C114.539 8.86762 114.38 8.40886 114.063 8.05809C113.746 7.70768 113.246 7.53265 112.561 7.53265C111.877 7.53265 111.368 7.70768 111.034 8.05809C110.717 8.40886 110.559 8.86762 110.559 9.43509C110.559 9.96885 110.717 10.4196 111.034 10.7867ZM117.523 26.5316C117.427 26.5316 117.334 26.4934 117.266 26.4255C117.198 26.3575 117.16 26.2653 117.16 26.1692V13.3016C117.16 13.2054 117.198 13.1133 117.266 13.0453C117.334 12.9774 117.427 12.9392 117.523 12.9392H119.551C119.647 12.9392 119.739 12.9774 119.807 13.0453C119.875 13.1133 119.914 13.2054 119.914 13.3016V16.2889C119.989 15.9579 120.089 15.6331 120.214 15.3174C120.581 14.3829 121.124 13.682 121.841 13.2146C122.575 12.7475 123.485 12.5138 124.57 12.5138H124.72C126.338 12.5138 127.565 13.0392 128.399 14.0908C129.234 15.1254 129.651 16.6774 129.651 18.7465V26.1692C129.651 26.2653 129.613 26.3575 129.545 26.4255C129.477 26.4934 129.385 26.5316 129.288 26.5316H126.534C126.438 26.5316 126.346 26.4934 126.278 26.4255C126.21 26.3575 126.172 26.2653 126.172 26.1692V18.4465C126.172 17.6119 125.93 16.9361 125.445 16.4186C124.978 15.9015 124.328 15.6428 123.493 15.6428C122.642 15.6428 121.949 15.9099 121.416 16.4436C120.898 16.9611 120.639 17.6619 120.639 18.5465V26.1692C120.639 26.2653 120.601 26.3575 120.533 26.4255C120.465 26.4934 120.373 26.5316 120.277 26.5316H117.523ZM134.944 26.2312C135.761 26.5483 136.796 26.7066 138.048 26.7066H139.638C139.734 26.7066 139.826 26.6685 139.894 26.6005C139.962 26.5325 140 26.4404 140 26.3443V24.0903C140 23.9942 139.962 23.9021 139.894 23.8341C139.826 23.7661 139.734 23.728 139.638 23.728H137.872C137.205 23.728 136.687 23.5526 136.32 23.2022C135.97 22.8351 135.795 22.318 135.795 21.6505L135.807 15.4928H139.638C139.734 15.4928 139.826 15.4546 139.894 15.3867C139.962 15.3187 140 15.2265 140 15.1304V13.3016C140 13.2054 139.962 13.1133 139.894 13.0453C139.826 12.9774 139.734 12.9392 139.638 12.9392H135.812L135.819 9.47241C135.819 9.42476 135.81 9.37756 135.792 9.33352C135.773 9.28947 135.747 9.24943 135.713 9.21571C135.679 9.18198 135.639 9.15523 135.595 9.13697C135.551 9.11871 135.504 9.10932 135.457 9.10932H132.927C132.831 9.10932 132.739 9.1474 132.671 9.2152C132.603 9.283 132.565 9.37498 132.565 9.47096L132.558 12.9388H130.75C130.654 12.9388 130.562 12.977 130.494 13.045C130.426 13.1129 130.388 13.2051 130.388 13.3012V15.1301C130.388 15.2262 130.426 15.3183 130.494 15.3863C130.562 15.4543 130.654 15.4924 130.75 15.4924H132.553L132.54 21.4248C132.54 22.743 132.741 23.7943 133.141 24.5788C133.542 25.3463 134.142 25.8975 134.944 26.2312Z" fill="black" fill-opacity="0.8"/>
</g>
<defs>
<clipPath id="clip0_1850_2221">
<rect width="140" height="36" fill="white"/>
</clipPath>
</defs>
</svg>
