<svg width="140" height="30" viewBox="0 0 140 30" fill="none" xmlns="http://www.w3.org/2000/svg">
<rect width="140" height="30" fill="#F5F5F5"/>
<g clip-path="url(#clip0_1_3)">
<rect width="1440" height="8489" transform="translate(-1038 -1345)" fill="white"/>
<g clip-path="url(#clip1_1_3)">
<path d="M56.2281 24.2303C55.8406 23.8982 55.6183 23.5498 55.5978 23.1845L56.2281 24.2303ZM56.2281 24.2303L56.23 24.2319C56.6513 24.5767 57.2449 24.7411 57.995 24.7411H59.7463V24.3061H58.8122L58.526 24.254L58.5208 24.2531L58.5153 24.2527C58.3447 24.2384 58.1549 24.1231 57.9485 23.8659C57.77 23.6045 57.674 23.2268 57.674 22.7205V14.2964C57.674 13.3982 57.4445 12.6545 56.9769 12.0747L56.9756 12.0727C56.6696 11.7094 56.1897 11.4411 55.5509 11.2581C54.9261 11.0563 54.1154 10.9573 53.1237 10.9573C52.1092 10.9573 51.179 11.3083 50.336 12.0047C49.6621 12.5468 49.1552 13.1279 48.8198 13.7485V11.0647H46.7162V24.7414H48.8198V15.0772C48.8198 14.4049 49.2502 13.6248 50.1592 12.733L50.1602 12.7327C51.0575 11.8351 52.0619 11.3919 53.1774 11.3919C53.7214 11.3919 54.1698 11.4798 54.5272 11.6491C55.2058 12.0148 55.5707 12.8649 55.5707 14.2698V22.7267L55.5978 23.1845L56.2281 24.2303ZM45.0196 7.02491L45.1209 7.06398L45.1609 6.96305L45.2687 6.69412L45.312 6.58603L45.2016 6.54924C43.3611 5.93552 41.5463 5.6285 39.7572 5.6285C37.9838 5.6285 36.6336 6.04426 35.7262 6.89566C34.8224 7.72589 34.3725 8.81496 34.3725 10.1521C34.3725 11.8386 35.0721 13.1475 36.4666 14.065C37.0819 14.4811 37.7598 14.8607 38.4999 15.2035L38.5021 15.2045C39.2379 15.5275 39.965 15.8417 40.6832 16.1471C41.4144 16.4508 42.0839 16.7803 42.6888 17.1362C44.0233 17.9264 44.6804 19.0141 44.6804 20.406C44.6804 21.681 44.1767 22.6411 43.169 23.3014C42.1675 23.9516 40.9512 24.2794 39.515 24.2794C38.5396 24.2794 37.5817 24.1375 36.6414 23.8536C35.7178 23.5518 34.9679 23.1711 34.3887 22.715L34.2927 22.6391L34.2276 22.743L34.0931 22.9582L34.0381 23.0464L34.1231 23.1064C35.7054 24.2156 37.6123 24.7678 39.838 24.7678C41.0299 24.7678 42.0731 24.6324 42.9652 24.3595L42.9665 24.3589C43.8856 24.0649 44.666 23.5133 45.3065 22.7082C45.9514 21.8971 46.2725 20.9214 46.2725 19.7871C46.2725 18.6456 46.0823 17.7027 45.6949 16.9643C45.3107 16.2144 44.8057 15.6255 44.1786 15.2016C43.5626 14.7848 42.8841 14.4137 42.1428 14.0884C41.4173 13.7693 40.6787 13.481 39.9288 13.2243C39.2548 12.9738 38.5944 12.6882 37.9503 12.3687C36.6157 11.6661 35.9646 10.6861 35.9646 9.42543C35.9646 8.38063 36.3543 7.57091 37.1321 6.98291C37.9138 6.39231 39.0087 6.09017 40.4302 6.09017C41.8673 6.09017 43.3972 6.4011 45.0196 7.02491ZM60.3213 12.8463C59.0756 14.1102 58.4593 15.8824 58.4593 18.1451C58.4593 20.406 59.0564 22.1006 60.2715 23.2053C61.4794 24.3035 63.0412 24.8485 64.9475 24.8485C66.8752 24.8485 68.4654 24.2202 69.7081 22.9592C70.972 21.6953 71.5972 19.9238 71.5972 17.6607C71.5972 15.3998 71 13.7052 69.785 12.6005C68.5767 11.5023 67.0058 10.9573 65.0819 10.9573C63.1714 10.9573 61.5816 11.586 60.3213 12.8463ZM61.8326 13.1781C62.7117 11.9826 63.8112 11.3919 65.1357 11.3919C66.467 11.3919 67.5293 11.8979 68.3332 12.9114C69.1361 13.924 69.5473 15.4998 69.5473 17.6607C69.5473 19.7998 69.1016 21.4602 68.2235 22.6548C67.3447 23.8324 66.2456 24.4139 64.9205 24.4139C63.5895 24.4139 62.5268 23.9079 61.7229 22.8944C60.92 21.8818 60.5088 20.3145 60.5088 18.1722C60.5088 16.0145 60.9549 14.3544 61.8326 13.1781ZM89.9339 11.2584L89.8538 11.3385L89.9365 11.4164C90.195 11.6586 90.3324 12.02 90.3324 12.5201C90.3324 13.0254 90.2279 13.4545 90.0238 13.8117L90.0215 13.8156L90.0195 13.8201L86.2281 22.0306L82.202 11.1367L82.1756 11.0651H80.058L80.1121 11.2125L81.0924 13.8882L77.3466 22.03L73.3208 11.1367L73.2941 11.0651H71.1758L71.2309 11.2129L76.2367 24.6695L76.2634 24.7411H76.6795L76.7088 24.6766L81.3353 14.5032L85.1182 24.6695L85.1446 24.7411H85.5607L85.59 24.6766L90.4884 13.9113L90.4893 13.9093C90.7098 13.3949 90.8211 12.887 90.8211 12.3856C90.8211 12.2515 90.8022 12.1102 90.7654 11.9617C90.7433 11.7966 90.6622 11.6215 90.5343 11.4378C90.488 11.3587 90.4359 11.2832 90.3783 11.2119C90.3301 11.1539 90.278 11.1044 90.222 11.0764L90.1514 11.041L90.0954 11.097L89.9339 11.2584ZM94.9898 5.98663C95.4948 5.2124 96.314 4.61268 97.4512 4.55961L97.2136 22.9074V22.9087C97.2136 23.0748 97.2653 23.2535 97.3598 23.4424C97.8016 24.3263 98.8558 24.7411 100.445 24.7411H101.389V24.3061H100.455L100.169 24.254L100.164 24.2531L100.158 24.2527C99.9875 24.2384 99.798 24.1231 99.5916 23.8659C99.4129 23.6045 99.3172 23.2268 99.3172 22.7205V4.36524L99.2091 4.36361L97.5642 4.33659L97.4542 4.33496L97.4538 4.33822C95.6124 4.3711 94.2505 4.80412 93.3945 5.66008C92.52 6.51636 92.0967 7.94338 92.0967 9.90989V11.0647H91.5318V11.7195H92.0967V24.7414H94.2003V11.7191H96.3264V11.0647H94.2003V9.90989C94.2003 8.06677 94.4699 6.76673 94.9892 5.98761L94.9898 5.98663ZM109.321 18.0527C108.919 18.0219 108.515 18.0071 108.112 18.0084C107.624 18.0084 107.092 18.0358 106.515 18.0898C105.355 18.1614 104.395 18.2969 103.637 18.4968C102.88 18.696 102.314 18.9624 101.954 19.3036C101.607 19.6318 101.384 19.945 101.304 20.2429C101.231 20.5196 101.193 20.7804 101.193 21.0249C101.193 21.246 101.211 21.4671 101.248 21.6878C101.404 22.7303 101.811 23.5251 102.479 24.0577C103.146 24.5894 104.059 24.8485 105.205 24.8485C106.19 24.8485 107.045 24.6457 107.769 24.2355C108.387 23.8851 108.904 23.3864 109.321 22.7417V22.9087C109.321 23.2441 109.558 23.6123 109.972 24.0092C110.454 24.5086 111.328 24.7411 112.553 24.7411H113.497V24.3061H112.562L112.276 24.254L112.271 24.2531L112.266 24.2527C112.095 24.2384 111.905 24.1231 111.699 23.8659C111.52 23.6045 111.424 23.2268 111.424 22.7205V13.7045C111.424 13.0977 111.177 12.5256 110.697 11.9897C110.382 11.6364 109.907 11.3792 109.285 11.2099C108.662 11.0406 107.884 10.9573 106.955 10.9573C105.287 10.9573 103.648 11.3288 102.037 12.0708L101.929 12.1209L101.988 12.2251L102.096 12.4133L102.15 12.508L102.245 12.4543C102.645 12.2284 103.28 11.9978 104.157 11.7651C105.048 11.5153 105.819 11.3919 106.47 11.3919C107.126 11.3919 107.647 11.4808 108.041 11.6524L108.045 11.6537C108.448 11.8113 108.712 11.9982 108.856 12.2059C109.008 12.4227 109.13 12.6585 109.22 12.9072L109.221 12.9118L109.223 12.9163C109.326 13.138 109.352 13.309 109.324 13.4372C109.305 13.5111 109.294 13.5772 109.294 13.6306C109.294 13.6573 109.297 13.6876 109.307 13.7169C109.311 13.7269 109.316 13.7364 109.321 13.7456V18.0527ZM103.35 21.6614V21.6598C103.333 21.5025 103.324 21.3445 103.323 21.1864C103.323 20.4161 103.525 19.8265 103.913 19.4035C104.103 19.1984 104.409 19.0174 104.844 18.8679C105.278 18.7188 105.833 18.6036 106.51 18.5235C106.988 18.4702 107.469 18.4435 107.951 18.4434C108.415 18.4434 108.872 18.4587 109.321 18.4896V21.639C109.269 22.2051 108.882 22.8166 108.121 23.4713C107.387 24.101 106.559 24.4139 105.636 24.4139C104.945 24.4139 104.42 24.1863 104.045 23.7399C103.666 23.2887 103.43 22.6014 103.35 21.6614ZM115.785 4.44631V4.33659H113.681V24.7411H115.785V18.1862L116.391 17.4904L121.29 24.6929L121.323 24.7411H123.472L123.355 24.5695L117.617 16.1357L121.947 11.2474L122.109 11.0651H121.547L121.514 11.1018L115.785 17.5601V4.44631ZM133.821 23.6729L133.779 23.5758L133.681 23.6136C132.296 24.1463 130.713 24.4139 128.929 24.4139C127.691 24.4139 126.692 23.9105 125.922 22.8967C125.172 21.8844 124.787 20.2806 124.787 18.0644C124.787 17.5825 124.81 17.117 124.857 16.667H134.476V16.288C134.476 14.5439 133.966 13.2087 132.931 12.3029C131.904 11.4046 130.64 10.9573 129.145 10.9573C127.287 10.9573 125.75 11.587 124.544 12.8483C123.335 14.1122 122.737 15.8833 122.737 18.1455C122.737 20.4047 123.307 22.0987 124.467 23.2037C125.621 24.3025 127.112 24.8485 128.929 24.8485C130.753 24.8485 132.39 24.5689 133.84 24.0069L133.946 23.9659L133.902 23.8614L133.821 23.6729ZM131.454 12.5881C132.064 13.3682 132.394 14.5768 132.425 16.2324H124.911C125.133 14.7282 125.624 13.5538 126.374 12.7008C127.164 11.8227 128.051 11.3919 129.037 11.3919C130.025 11.3919 130.828 11.7885 131.454 12.5881Z" fill="#BCBFDB"/>
<path d="M56.2281 24.2303C55.8406 23.8982 55.6183 23.5498 55.5978 23.1845L56.2281 24.2303ZM56.2281 24.2303L56.23 24.2319C56.6513 24.5767 57.2449 24.7411 57.995 24.7411H59.7463V24.3061H58.8122L58.526 24.254L58.5208 24.2531L58.5153 24.2527C58.3447 24.2384 58.1549 24.1231 57.9485 23.8659C57.77 23.6045 57.674 23.2268 57.674 22.7205V14.2964C57.674 13.3982 57.4445 12.6545 56.9769 12.0747L56.9756 12.0727C56.6696 11.7094 56.1897 11.4411 55.5509 11.2581C54.9261 11.0563 54.1154 10.9573 53.1237 10.9573C52.1092 10.9573 51.179 11.3083 50.336 12.0047C49.6621 12.5468 49.1552 13.1279 48.8198 13.7485V11.0647H46.7162V24.7414H48.8198V15.0772C48.8198 14.4049 49.2502 13.6248 50.1592 12.733L50.1602 12.7327C51.0575 11.8351 52.0619 11.3919 53.1774 11.3919C53.7214 11.3919 54.1698 11.4798 54.5272 11.6491C55.2058 12.0148 55.5707 12.8649 55.5707 14.2698V22.7267L55.5978 23.1845L56.2281 24.2303ZM45.0196 7.02491L45.1209 7.06398L45.1609 6.96305L45.2687 6.69412L45.312 6.58603L45.2016 6.54924C43.3611 5.93552 41.5463 5.6285 39.7572 5.6285C37.9838 5.6285 36.6336 6.04426 35.7262 6.89566C34.8224 7.72589 34.3725 8.81496 34.3725 10.1521C34.3725 11.8386 35.0721 13.1475 36.4666 14.065C37.0819 14.4811 37.7598 14.8607 38.4999 15.2035L38.5021 15.2045C39.2379 15.5275 39.965 15.8417 40.6832 16.1471C41.4144 16.4508 42.0839 16.7803 42.6888 17.1362C44.0233 17.9264 44.6804 19.0141 44.6804 20.406C44.6804 21.681 44.1767 22.6411 43.169 23.3014C42.1675 23.9516 40.9512 24.2794 39.515 24.2794C38.5396 24.2794 37.5817 24.1375 36.6414 23.8536C35.7178 23.5518 34.9679 23.1711 34.3887 22.715L34.2927 22.6391L34.2276 22.743L34.0931 22.9582L34.0381 23.0464L34.1231 23.1064C35.7054 24.2156 37.6123 24.7678 39.838 24.7678C41.0299 24.7678 42.0731 24.6324 42.9652 24.3595L42.9665 24.3589C43.8856 24.0649 44.666 23.5133 45.3065 22.7082C45.9514 21.8971 46.2725 20.9214 46.2725 19.7871C46.2725 18.6456 46.0823 17.7027 45.6949 16.9643C45.3107 16.2144 44.8057 15.6255 44.1786 15.2016C43.5626 14.7848 42.8841 14.4137 42.1428 14.0884C41.4173 13.7693 40.6787 13.481 39.9288 13.2243C39.2548 12.9738 38.5944 12.6882 37.9503 12.3687C36.6157 11.6661 35.9646 10.6861 35.9646 9.42543C35.9646 8.38063 36.3543 7.57091 37.1321 6.98291C37.9138 6.39231 39.0087 6.09017 40.4302 6.09017C41.8673 6.09017 43.3972 6.4011 45.0196 7.02491ZM60.3213 12.8463C59.0756 14.1102 58.4593 15.8824 58.4593 18.1451C58.4593 20.406 59.0564 22.1006 60.2715 23.2053C61.4794 24.3035 63.0412 24.8485 64.9475 24.8485C66.8752 24.8485 68.4654 24.2202 69.7081 22.9592C70.972 21.6953 71.5972 19.9238 71.5972 17.6607C71.5972 15.3998 71 13.7052 69.785 12.6005C68.5767 11.5023 67.0058 10.9573 65.0819 10.9573C63.1714 10.9573 61.5816 11.586 60.3213 12.8463ZM61.8326 13.1781C62.7117 11.9826 63.8112 11.3919 65.1357 11.3919C66.467 11.3919 67.5293 11.8979 68.3332 12.9114C69.1361 13.924 69.5473 15.4998 69.5473 17.6607C69.5473 19.7998 69.1016 21.4602 68.2235 22.6548C67.3447 23.8324 66.2456 24.4139 64.9205 24.4139C63.5895 24.4139 62.5268 23.9079 61.7229 22.8944C60.92 21.8818 60.5088 20.3145 60.5088 18.1722C60.5088 16.0145 60.9549 14.3544 61.8326 13.1781ZM89.9339 11.2584L89.8538 11.3385L89.9365 11.4164C90.195 11.6586 90.3324 12.02 90.3324 12.5201C90.3324 13.0254 90.2279 13.4545 90.0238 13.8117L90.0215 13.8156L90.0195 13.8201L86.2281 22.0306L82.202 11.1367L82.1756 11.0651H80.058L80.1121 11.2125L81.0924 13.8882L77.3466 22.03L73.3208 11.1367L73.2941 11.0651H71.1758L71.2309 11.2129L76.2367 24.6695L76.2634 24.7411H76.6795L76.7088 24.6766L81.3353 14.5032L85.1182 24.6695L85.1446 24.7411H85.5607L85.59 24.6766L90.4884 13.9113L90.4893 13.9093C90.7098 13.3949 90.8211 12.887 90.8211 12.3856C90.8211 12.2515 90.8022 12.1102 90.7654 11.9617C90.7433 11.7966 90.6622 11.6215 90.5343 11.4378C90.488 11.3587 90.4359 11.2832 90.3783 11.2119C90.3301 11.1539 90.278 11.1044 90.222 11.0764L90.1514 11.041L90.0954 11.097L89.9339 11.2584ZM94.9898 5.98663C95.4948 5.2124 96.314 4.61268 97.4512 4.55961L97.2136 22.9074V22.9087C97.2136 23.0748 97.2653 23.2535 97.3598 23.4424C97.8016 24.3263 98.8558 24.7411 100.445 24.7411H101.389V24.3061H100.455L100.169 24.254L100.164 24.2531L100.158 24.2527C99.9875 24.2384 99.798 24.1231 99.5916 23.8659C99.4129 23.6045 99.3172 23.2268 99.3172 22.7205V4.36524L99.2091 4.36361L97.5642 4.33659L97.4542 4.33496L97.4538 4.33822C95.6124 4.3711 94.2505 4.80412 93.3945 5.66008C92.52 6.51636 92.0967 7.94338 92.0967 9.90989V11.0647H91.5318V11.7195H92.0967V24.7414H94.2003V11.7191H96.3264V11.0647H94.2003V9.90989C94.2003 8.06677 94.4699 6.76673 94.9892 5.98761L94.9898 5.98663ZM109.321 18.0527C108.919 18.0219 108.515 18.0071 108.112 18.0084C107.624 18.0084 107.092 18.0358 106.515 18.0898C105.355 18.1614 104.395 18.2969 103.637 18.4968C102.88 18.696 102.314 18.9624 101.954 19.3036C101.607 19.6318 101.384 19.945 101.304 20.2429C101.231 20.5196 101.193 20.7804 101.193 21.0249C101.193 21.246 101.211 21.4671 101.248 21.6878C101.404 22.7303 101.811 23.5251 102.479 24.0577C103.146 24.5894 104.059 24.8485 105.205 24.8485C106.19 24.8485 107.045 24.6457 107.769 24.2355C108.387 23.8851 108.904 23.3864 109.321 22.7417V22.9087C109.321 23.2441 109.558 23.6123 109.972 24.0092C110.454 24.5086 111.328 24.7411 112.553 24.7411H113.497V24.3061H112.562L112.276 24.254L112.271 24.2531L112.266 24.2527C112.095 24.2384 111.905 24.1231 111.699 23.8659C111.52 23.6045 111.424 23.2268 111.424 22.7205V13.7045C111.424 13.0977 111.177 12.5256 110.697 11.9897C110.382 11.6364 109.907 11.3792 109.285 11.2099C108.662 11.0406 107.884 10.9573 106.955 10.9573C105.287 10.9573 103.648 11.3288 102.037 12.0708L101.929 12.1209L101.988 12.2251L102.096 12.4133L102.15 12.508L102.245 12.4543C102.645 12.2284 103.28 11.9978 104.157 11.7651C105.048 11.5153 105.819 11.3919 106.47 11.3919C107.126 11.3919 107.647 11.4808 108.041 11.6524L108.045 11.6537C108.448 11.8113 108.712 11.9982 108.856 12.2059C109.008 12.4227 109.13 12.6585 109.22 12.9072L109.221 12.9118L109.223 12.9163C109.326 13.138 109.352 13.309 109.324 13.4372C109.305 13.5111 109.294 13.5772 109.294 13.6306C109.294 13.6573 109.297 13.6876 109.307 13.7169C109.311 13.7269 109.316 13.7364 109.321 13.7456V18.0527ZM103.35 21.6614V21.6598C103.333 21.5025 103.324 21.3445 103.323 21.1864C103.323 20.4161 103.525 19.8265 103.913 19.4035C104.103 19.1984 104.409 19.0174 104.844 18.8679C105.278 18.7188 105.833 18.6036 106.51 18.5235C106.988 18.4702 107.469 18.4435 107.951 18.4434C108.415 18.4434 108.872 18.4587 109.321 18.4896V21.639C109.269 22.2051 108.882 22.8166 108.121 23.4713C107.387 24.101 106.559 24.4139 105.636 24.4139C104.945 24.4139 104.42 24.1863 104.045 23.7399C103.666 23.2887 103.43 22.6014 103.35 21.6614ZM115.785 4.44631V4.33659H113.681V24.7411H115.785V18.1862L116.391 17.4904L121.29 24.6929L121.323 24.7411H123.472L123.355 24.5695L117.617 16.1357L121.947 11.2474L122.109 11.0651H121.547L121.514 11.1018L115.785 17.5601V4.44631ZM133.821 23.6729L133.779 23.5758L133.681 23.6136C132.296 24.1463 130.713 24.4139 128.929 24.4139C127.691 24.4139 126.692 23.9105 125.922 22.8967C125.172 21.8844 124.787 20.2806 124.787 18.0644C124.787 17.5825 124.81 17.117 124.857 16.667H134.476V16.288C134.476 14.5439 133.966 13.2087 132.931 12.3029C131.904 11.4046 130.64 10.9573 129.145 10.9573C127.287 10.9573 125.75 11.587 124.544 12.8483C123.335 14.1122 122.737 15.8833 122.737 18.1455C122.737 20.4047 123.307 22.0987 124.467 23.2037C125.621 24.3025 127.112 24.8485 128.929 24.8485C130.753 24.8485 132.39 24.5689 133.84 24.0069L133.946 23.9659L133.902 23.8614L133.821 23.6729ZM131.454 12.5881C132.064 13.3682 132.394 14.5768 132.425 16.2324H124.911C125.133 14.7282 125.624 13.5538 126.374 12.7008C127.164 11.8227 128.051 11.3919 129.037 11.3919C130.025 11.3919 130.828 11.7885 131.454 12.5881Z" fill="black" fill-opacity="0.4"/>
<path d="M56.2281 24.2303C55.8406 23.8982 55.6183 23.5498 55.5978 23.1845L56.2281 24.2303ZM56.2281 24.2303L56.23 24.2319C56.6513 24.5767 57.2449 24.7411 57.995 24.7411H59.7463V24.3061H58.8122L58.526 24.254L58.5208 24.2531L58.5153 24.2527C58.3447 24.2384 58.1549 24.1231 57.9485 23.8659C57.77 23.6045 57.674 23.2268 57.674 22.7205V14.2964C57.674 13.3982 57.4445 12.6545 56.9769 12.0747L56.9756 12.0727C56.6696 11.7094 56.1897 11.4411 55.5509 11.2581C54.9261 11.0563 54.1154 10.9573 53.1237 10.9573C52.1092 10.9573 51.179 11.3083 50.336 12.0047C49.6621 12.5468 49.1552 13.1279 48.8198 13.7485V11.0647H46.7162V24.7414H48.8198V15.0772C48.8198 14.4049 49.2502 13.6248 50.1592 12.733L50.1602 12.7327C51.0575 11.8351 52.0619 11.3919 53.1774 11.3919C53.7214 11.3919 54.1698 11.4798 54.5272 11.6491C55.2058 12.0148 55.5707 12.8649 55.5707 14.2698V22.7267L55.5978 23.1845L56.2281 24.2303ZM45.0196 7.02491L45.1209 7.06398L45.1609 6.96305L45.2687 6.69412L45.312 6.58603L45.2016 6.54924C43.3611 5.93552 41.5463 5.6285 39.7572 5.6285C37.9838 5.6285 36.6336 6.04426 35.7262 6.89566C34.8224 7.72589 34.3725 8.81496 34.3725 10.1521C34.3725 11.8386 35.0721 13.1475 36.4666 14.065C37.0819 14.4811 37.7598 14.8607 38.4999 15.2035L38.5021 15.2045C39.2379 15.5275 39.965 15.8417 40.6832 16.1471C41.4144 16.4508 42.0839 16.7803 42.6888 17.1362C44.0233 17.9264 44.6804 19.0141 44.6804 20.406C44.6804 21.681 44.1767 22.6411 43.169 23.3014C42.1675 23.9516 40.9512 24.2794 39.515 24.2794C38.5396 24.2794 37.5817 24.1375 36.6414 23.8536C35.7178 23.5518 34.9679 23.1711 34.3887 22.715L34.2927 22.6391L34.2276 22.743L34.0931 22.9582L34.0381 23.0464L34.1231 23.1064C35.7054 24.2156 37.6123 24.7678 39.838 24.7678C41.0299 24.7678 42.0731 24.6324 42.9652 24.3595L42.9665 24.3589C43.8856 24.0649 44.666 23.5133 45.3065 22.7082C45.9514 21.8971 46.2725 20.9214 46.2725 19.7871C46.2725 18.6456 46.0823 17.7027 45.6949 16.9643C45.3107 16.2144 44.8057 15.6255 44.1786 15.2016C43.5626 14.7848 42.8841 14.4137 42.1428 14.0884C41.4173 13.7693 40.6787 13.481 39.9288 13.2243C39.2548 12.9738 38.5944 12.6882 37.9503 12.3687C36.6157 11.6661 35.9646 10.6861 35.9646 9.42543C35.9646 8.38063 36.3543 7.57091 37.1321 6.98291C37.9138 6.39231 39.0087 6.09017 40.4302 6.09017C41.8673 6.09017 43.3972 6.4011 45.0196 7.02491ZM60.3213 12.8463C59.0756 14.1102 58.4593 15.8824 58.4593 18.1451C58.4593 20.406 59.0564 22.1006 60.2715 23.2053C61.4794 24.3035 63.0412 24.8485 64.9475 24.8485C66.8752 24.8485 68.4654 24.2202 69.7081 22.9592C70.972 21.6953 71.5972 19.9238 71.5972 17.6607C71.5972 15.3998 71 13.7052 69.785 12.6005C68.5767 11.5023 67.0058 10.9573 65.0819 10.9573C63.1714 10.9573 61.5816 11.586 60.3213 12.8463ZM61.8326 13.1781C62.7117 11.9826 63.8112 11.3919 65.1357 11.3919C66.467 11.3919 67.5293 11.8979 68.3332 12.9114C69.1361 13.924 69.5473 15.4998 69.5473 17.6607C69.5473 19.7998 69.1016 21.4602 68.2235 22.6548C67.3447 23.8324 66.2456 24.4139 64.9205 24.4139C63.5895 24.4139 62.5268 23.9079 61.7229 22.8944C60.92 21.8818 60.5088 20.3145 60.5088 18.1722C60.5088 16.0145 60.9549 14.3544 61.8326 13.1781ZM89.9339 11.2584L89.8538 11.3385L89.9365 11.4164C90.195 11.6586 90.3324 12.02 90.3324 12.5201C90.3324 13.0254 90.2279 13.4545 90.0238 13.8117L90.0215 13.8156L90.0195 13.8201L86.2281 22.0306L82.202 11.1367L82.1756 11.0651H80.058L80.1121 11.2125L81.0924 13.8882L77.3466 22.03L73.3208 11.1367L73.2941 11.0651H71.1758L71.2309 11.2129L76.2367 24.6695L76.2634 24.7411H76.6795L76.7088 24.6766L81.3353 14.5032L85.1182 24.6695L85.1446 24.7411H85.5607L85.59 24.6766L90.4884 13.9113L90.4893 13.9093C90.7098 13.3949 90.8211 12.887 90.8211 12.3856C90.8211 12.2515 90.8022 12.1102 90.7654 11.9617C90.7433 11.7966 90.6622 11.6215 90.5343 11.4378C90.488 11.3587 90.4359 11.2832 90.3783 11.2119C90.3301 11.1539 90.278 11.1044 90.222 11.0764L90.1514 11.041L90.0954 11.097L89.9339 11.2584ZM94.9898 5.98663C95.4948 5.2124 96.314 4.61268 97.4512 4.55961L97.2136 22.9074V22.9087C97.2136 23.0748 97.2653 23.2535 97.3598 23.4424C97.8016 24.3263 98.8558 24.7411 100.445 24.7411H101.389V24.3061H100.455L100.169 24.254L100.164 24.2531L100.158 24.2527C99.9875 24.2384 99.798 24.1231 99.5916 23.8659C99.4129 23.6045 99.3172 23.2268 99.3172 22.7205V4.36524L99.2091 4.36361L97.5642 4.33659L97.4542 4.33496L97.4538 4.33822C95.6124 4.3711 94.2505 4.80412 93.3945 5.66008C92.52 6.51636 92.0967 7.94338 92.0967 9.90989V11.0647H91.5318V11.7195H92.0967V24.7414H94.2003V11.7191H96.3264V11.0647H94.2003V9.90989C94.2003 8.06677 94.4699 6.76673 94.9892 5.98761L94.9898 5.98663ZM109.321 18.0527C108.919 18.0219 108.515 18.0071 108.112 18.0084C107.624 18.0084 107.092 18.0358 106.515 18.0898C105.355 18.1614 104.395 18.2969 103.637 18.4968C102.88 18.696 102.314 18.9624 101.954 19.3036C101.607 19.6318 101.384 19.945 101.304 20.2429C101.231 20.5196 101.193 20.7804 101.193 21.0249C101.193 21.246 101.211 21.4671 101.248 21.6878C101.404 22.7303 101.811 23.5251 102.479 24.0577C103.146 24.5894 104.059 24.8485 105.205 24.8485C106.19 24.8485 107.045 24.6457 107.769 24.2355C108.387 23.8851 108.904 23.3864 109.321 22.7417V22.9087C109.321 23.2441 109.558 23.6123 109.972 24.0092C110.454 24.5086 111.328 24.7411 112.553 24.7411H113.497V24.3061H112.562L112.276 24.254L112.271 24.2531L112.266 24.2527C112.095 24.2384 111.905 24.1231 111.699 23.8659C111.52 23.6045 111.424 23.2268 111.424 22.7205V13.7045C111.424 13.0977 111.177 12.5256 110.697 11.9897C110.382 11.6364 109.907 11.3792 109.285 11.2099C108.662 11.0406 107.884 10.9573 106.955 10.9573C105.287 10.9573 103.648 11.3288 102.037 12.0708L101.929 12.1209L101.988 12.2251L102.096 12.4133L102.15 12.508L102.245 12.4543C102.645 12.2284 103.28 11.9978 104.157 11.7651C105.048 11.5153 105.819 11.3919 106.47 11.3919C107.126 11.3919 107.647 11.4808 108.041 11.6524L108.045 11.6537C108.448 11.8113 108.712 11.9982 108.856 12.2059C109.008 12.4227 109.13 12.6585 109.22 12.9072L109.221 12.9118L109.223 12.9163C109.326 13.138 109.352 13.309 109.324 13.4372C109.305 13.5111 109.294 13.5772 109.294 13.6306C109.294 13.6573 109.297 13.6876 109.307 13.7169C109.311 13.7269 109.316 13.7364 109.321 13.7456V18.0527ZM103.35 21.6614V21.6598C103.333 21.5025 103.324 21.3445 103.323 21.1864C103.323 20.4161 103.525 19.8265 103.913 19.4035C104.103 19.1984 104.409 19.0174 104.844 18.8679C105.278 18.7188 105.833 18.6036 106.51 18.5235C106.988 18.4702 107.469 18.4435 107.951 18.4434C108.415 18.4434 108.872 18.4587 109.321 18.4896V21.639C109.269 22.2051 108.882 22.8166 108.121 23.4713C107.387 24.101 106.559 24.4139 105.636 24.4139C104.945 24.4139 104.42 24.1863 104.045 23.7399C103.666 23.2887 103.43 22.6014 103.35 21.6614ZM115.785 4.44631V4.33659H113.681V24.7411H115.785V18.1862L116.391 17.4904L121.29 24.6929L121.323 24.7411H123.472L123.355 24.5695L117.617 16.1357L121.947 11.2474L122.109 11.0651H121.547L121.514 11.1018L115.785 17.5601V4.44631ZM133.821 23.6729L133.779 23.5758L133.681 23.6136C132.296 24.1463 130.713 24.4139 128.929 24.4139C127.691 24.4139 126.692 23.9105 125.922 22.8967C125.172 21.8844 124.787 20.2806 124.787 18.0644C124.787 17.5825 124.81 17.117 124.857 16.667H134.476V16.288C134.476 14.5439 133.966 13.2087 132.931 12.3029C131.904 11.4046 130.64 10.9573 129.145 10.9573C127.287 10.9573 125.75 11.587 124.544 12.8483C123.335 14.1122 122.737 15.8833 122.737 18.1455C122.737 20.4047 123.307 22.0987 124.467 23.2037C125.621 24.3025 127.112 24.8485 128.929 24.8485C130.753 24.8485 132.39 24.5689 133.84 24.0069L133.946 23.9659L133.902 23.8614L133.821 23.6729ZM131.454 12.5881C132.064 13.3682 132.394 14.5768 132.425 16.2324H124.911C125.133 14.7282 125.624 13.5538 126.374 12.7008C127.164 11.8227 128.051 11.3919 129.037 11.3919C130.025 11.3919 130.828 11.7885 131.454 12.5881Z" fill="#BCBFDB"/>
<path d="M56.2281 24.2303C55.8406 23.8982 55.6183 23.5498 55.5978 23.1845L56.2281 24.2303ZM56.2281 24.2303L56.23 24.2319C56.6513 24.5767 57.2449 24.7411 57.995 24.7411H59.7463V24.3061H58.8122L58.526 24.254L58.5208 24.2531L58.5153 24.2527C58.3447 24.2384 58.1549 24.1231 57.9485 23.8659C57.77 23.6045 57.674 23.2268 57.674 22.7205V14.2964C57.674 13.3982 57.4445 12.6545 56.9769 12.0747L56.9756 12.0727C56.6696 11.7094 56.1897 11.4411 55.5509 11.2581C54.9261 11.0563 54.1154 10.9573 53.1237 10.9573C52.1092 10.9573 51.179 11.3083 50.336 12.0047C49.6621 12.5468 49.1552 13.1279 48.8198 13.7485V11.0647H46.7162V24.7414H48.8198V15.0772C48.8198 14.4049 49.2502 13.6248 50.1592 12.733L50.1602 12.7327C51.0575 11.8351 52.0619 11.3919 53.1774 11.3919C53.7214 11.3919 54.1698 11.4798 54.5272 11.6491C55.2058 12.0148 55.5707 12.8649 55.5707 14.2698V22.7267L55.5978 23.1845L56.2281 24.2303ZM45.0196 7.02491L45.1209 7.06398L45.1609 6.96305L45.2687 6.69412L45.312 6.58603L45.2016 6.54924C43.3611 5.93552 41.5463 5.6285 39.7572 5.6285C37.9838 5.6285 36.6336 6.04426 35.7262 6.89566C34.8224 7.72589 34.3725 8.81496 34.3725 10.1521C34.3725 11.8386 35.0721 13.1475 36.4666 14.065C37.0819 14.4811 37.7598 14.8607 38.4999 15.2035L38.5021 15.2045C39.2379 15.5275 39.965 15.8417 40.6832 16.1471C41.4144 16.4508 42.0839 16.7803 42.6888 17.1362C44.0233 17.9264 44.6804 19.0141 44.6804 20.406C44.6804 21.681 44.1767 22.6411 43.169 23.3014C42.1675 23.9516 40.9512 24.2794 39.515 24.2794C38.5396 24.2794 37.5817 24.1375 36.6414 23.8536C35.7178 23.5518 34.9679 23.1711 34.3887 22.715L34.2927 22.6391L34.2276 22.743L34.0931 22.9582L34.0381 23.0464L34.1231 23.1064C35.7054 24.2156 37.6123 24.7678 39.838 24.7678C41.0299 24.7678 42.0731 24.6324 42.9652 24.3595L42.9665 24.3589C43.8856 24.0649 44.666 23.5133 45.3065 22.7082C45.9514 21.8971 46.2725 20.9214 46.2725 19.7871C46.2725 18.6456 46.0823 17.7027 45.6949 16.9643C45.3107 16.2144 44.8057 15.6255 44.1786 15.2016C43.5626 14.7848 42.8841 14.4137 42.1428 14.0884C41.4173 13.7693 40.6787 13.481 39.9288 13.2243C39.2548 12.9738 38.5944 12.6882 37.9503 12.3687C36.6157 11.6661 35.9646 10.6861 35.9646 9.42543C35.9646 8.38063 36.3543 7.57091 37.1321 6.98291C37.9138 6.39231 39.0087 6.09017 40.4302 6.09017C41.8673 6.09017 43.3972 6.4011 45.0196 7.02491ZM60.3213 12.8463C59.0756 14.1102 58.4593 15.8824 58.4593 18.1451C58.4593 20.406 59.0564 22.1006 60.2715 23.2053C61.4794 24.3035 63.0412 24.8485 64.9475 24.8485C66.8752 24.8485 68.4654 24.2202 69.7081 22.9592C70.972 21.6953 71.5972 19.9238 71.5972 17.6607C71.5972 15.3998 71 13.7052 69.785 12.6005C68.5767 11.5023 67.0058 10.9573 65.0819 10.9573C63.1714 10.9573 61.5816 11.586 60.3213 12.8463ZM61.8326 13.1781C62.7117 11.9826 63.8112 11.3919 65.1357 11.3919C66.467 11.3919 67.5293 11.8979 68.3332 12.9114C69.1361 13.924 69.5473 15.4998 69.5473 17.6607C69.5473 19.7998 69.1016 21.4602 68.2235 22.6548C67.3447 23.8324 66.2456 24.4139 64.9205 24.4139C63.5895 24.4139 62.5268 23.9079 61.7229 22.8944C60.92 21.8818 60.5088 20.3145 60.5088 18.1722C60.5088 16.0145 60.9549 14.3544 61.8326 13.1781ZM89.9339 11.2584L89.8538 11.3385L89.9365 11.4164C90.195 11.6586 90.3324 12.02 90.3324 12.5201C90.3324 13.0254 90.2279 13.4545 90.0238 13.8117L90.0215 13.8156L90.0195 13.8201L86.2281 22.0306L82.202 11.1367L82.1756 11.0651H80.058L80.1121 11.2125L81.0924 13.8882L77.3466 22.03L73.3208 11.1367L73.2941 11.0651H71.1758L71.2309 11.2129L76.2367 24.6695L76.2634 24.7411H76.6795L76.7088 24.6766L81.3353 14.5032L85.1182 24.6695L85.1446 24.7411H85.5607L85.59 24.6766L90.4884 13.9113L90.4893 13.9093C90.7098 13.3949 90.8211 12.887 90.8211 12.3856C90.8211 12.2515 90.8022 12.1102 90.7654 11.9617C90.7433 11.7966 90.6622 11.6215 90.5343 11.4378C90.488 11.3587 90.4359 11.2832 90.3783 11.2119C90.3301 11.1539 90.278 11.1044 90.222 11.0764L90.1514 11.041L90.0954 11.097L89.9339 11.2584ZM94.9898 5.98663C95.4948 5.2124 96.314 4.61268 97.4512 4.55961L97.2136 22.9074V22.9087C97.2136 23.0748 97.2653 23.2535 97.3598 23.4424C97.8016 24.3263 98.8558 24.7411 100.445 24.7411H101.389V24.3061H100.455L100.169 24.254L100.164 24.2531L100.158 24.2527C99.9875 24.2384 99.798 24.1231 99.5916 23.8659C99.4129 23.6045 99.3172 23.2268 99.3172 22.7205V4.36524L99.2091 4.36361L97.5642 4.33659L97.4542 4.33496L97.4538 4.33822C95.6124 4.3711 94.2505 4.80412 93.3945 5.66008C92.52 6.51636 92.0967 7.94338 92.0967 9.90989V11.0647H91.5318V11.7195H92.0967V24.7414H94.2003V11.7191H96.3264V11.0647H94.2003V9.90989C94.2003 8.06677 94.4699 6.76673 94.9892 5.98761L94.9898 5.98663ZM109.321 18.0527C108.919 18.0219 108.515 18.0071 108.112 18.0084C107.624 18.0084 107.092 18.0358 106.515 18.0898C105.355 18.1614 104.395 18.2969 103.637 18.4968C102.88 18.696 102.314 18.9624 101.954 19.3036C101.607 19.6318 101.384 19.945 101.304 20.2429C101.231 20.5196 101.193 20.7804 101.193 21.0249C101.193 21.246 101.211 21.4671 101.248 21.6878C101.404 22.7303 101.811 23.5251 102.479 24.0577C103.146 24.5894 104.059 24.8485 105.205 24.8485C106.19 24.8485 107.045 24.6457 107.769 24.2355C108.387 23.8851 108.904 23.3864 109.321 22.7417V22.9087C109.321 23.2441 109.558 23.6123 109.972 24.0092C110.454 24.5086 111.328 24.7411 112.553 24.7411H113.497V24.3061H112.562L112.276 24.254L112.271 24.2531L112.266 24.2527C112.095 24.2384 111.905 24.1231 111.699 23.8659C111.52 23.6045 111.424 23.2268 111.424 22.7205V13.7045C111.424 13.0977 111.177 12.5256 110.697 11.9897C110.382 11.6364 109.907 11.3792 109.285 11.2099C108.662 11.0406 107.884 10.9573 106.955 10.9573C105.287 10.9573 103.648 11.3288 102.037 12.0708L101.929 12.1209L101.988 12.2251L102.096 12.4133L102.15 12.508L102.245 12.4543C102.645 12.2284 103.28 11.9978 104.157 11.7651C105.048 11.5153 105.819 11.3919 106.47 11.3919C107.126 11.3919 107.647 11.4808 108.041 11.6524L108.045 11.6537C108.448 11.8113 108.712 11.9982 108.856 12.2059C109.008 12.4227 109.13 12.6585 109.22 12.9072L109.221 12.9118L109.223 12.9163C109.326 13.138 109.352 13.309 109.324 13.4372C109.305 13.5111 109.294 13.5772 109.294 13.6306C109.294 13.6573 109.297 13.6876 109.307 13.7169C109.311 13.7269 109.316 13.7364 109.321 13.7456V18.0527ZM103.35 21.6614V21.6598C103.333 21.5025 103.324 21.3445 103.323 21.1864C103.323 20.4161 103.525 19.8265 103.913 19.4035C104.103 19.1984 104.409 19.0174 104.844 18.8679C105.278 18.7188 105.833 18.6036 106.51 18.5235C106.988 18.4702 107.469 18.4435 107.951 18.4434C108.415 18.4434 108.872 18.4587 109.321 18.4896V21.639C109.269 22.2051 108.882 22.8166 108.121 23.4713C107.387 24.101 106.559 24.4139 105.636 24.4139C104.945 24.4139 104.42 24.1863 104.045 23.7399C103.666 23.2887 103.43 22.6014 103.35 21.6614ZM115.785 4.44631V4.33659H113.681V24.7411H115.785V18.1862L116.391 17.4904L121.29 24.6929L121.323 24.7411H123.472L123.355 24.5695L117.617 16.1357L121.947 11.2474L122.109 11.0651H121.547L121.514 11.1018L115.785 17.5601V4.44631ZM133.821 23.6729L133.779 23.5758L133.681 23.6136C132.296 24.1463 130.713 24.4139 128.929 24.4139C127.691 24.4139 126.692 23.9105 125.922 22.8967C125.172 21.8844 124.787 20.2806 124.787 18.0644C124.787 17.5825 124.81 17.117 124.857 16.667H134.476V16.288C134.476 14.5439 133.966 13.2087 132.931 12.3029C131.904 11.4046 130.64 10.9573 129.145 10.9573C127.287 10.9573 125.75 11.587 124.544 12.8483C123.335 14.1122 122.737 15.8833 122.737 18.1455C122.737 20.4047 123.307 22.0987 124.467 23.2037C125.621 24.3025 127.112 24.8485 128.929 24.8485C130.753 24.8485 132.39 24.5689 133.84 24.0069L133.946 23.9659L133.902 23.8614L133.821 23.6729ZM131.454 12.5881C132.064 13.3682 132.394 14.5768 132.425 16.2324H124.911C125.133 14.7282 125.624 13.5538 126.374 12.7008C127.164 11.8227 128.051 11.3919 129.037 11.3919C130.025 11.3919 130.828 11.7885 131.454 12.5881Z" fill="black" fill-opacity="0.4"/>
<path d="M136.849 4.16403V4.87477H136.041V7.03826H135.273V4.87477H134.465V4.16403H136.849ZM140 4.12073V7.05096H139.232V5.62915L138.67 6.29691H138.441L137.878 5.62915V7.05096H137.111V4.12073H137.382L138.555 5.37031L139.729 4.12073H140Z" fill="#BCBFDB"/>
<path d="M136.849 4.16403V4.87477H136.041V7.03826H135.273V4.87477H134.465V4.16403H136.849ZM140 4.12073V7.05096H139.232V5.62915L138.67 6.29691H138.441L137.878 5.62915V7.05096H137.111V4.12073H137.382L138.555 5.37031L139.729 4.12073H140Z" fill="black" fill-opacity="0.4"/>
<path d="M136.849 4.16403V4.87477H136.041V7.03826H135.273V4.87477H134.465V4.16403H136.849ZM140 4.12073V7.05096H139.232V5.62915L138.67 6.29691H138.441L137.878 5.62915V7.05096H137.111V4.12073H137.382L138.555 5.37031L139.729 4.12073H140Z" fill="#BCBFDB"/>
<path d="M136.849 4.16403V4.87477H136.041V7.03826H135.273V4.87477H134.465V4.16403H136.849ZM140 4.12073V7.05096H139.232V5.62915L138.67 6.29691H138.441L137.878 5.62915V7.05096H137.111V4.12073H137.382L138.555 5.37031L139.729 4.12073H140Z" fill="black" fill-opacity="0.4"/>
<path fill-rule="evenodd" clip-rule="evenodd" d="M13.1799 19.9498L13.1681 29.1908L15.1216 29.1931L15.1337 19.9091L18.6972 28.482L20.5009 27.7322L16.9618 19.2183L23.4731 25.7462L24.8562 24.3667L18.3169 17.8108L26.8696 21.3599L27.6181 19.5556L19.0647 16.0057H28.3256V14.0523H19.0869L27.6262 10.5256L26.8803 8.72021L18.3778 12.2316L24.9158 5.76035L23.5418 4.37207L16.9224 10.9237L20.4895 2.32026L18.6848 1.57207L15.1457 10.1075L15.1578 0.867513L13.2043 0.865234L13.1922 10.1498L9.62842 1.57663L7.8247 2.32644L11.3634 10.8394L4.85247 4.31151L3.46939 5.69133L10.009 12.2472L1.456 8.69775L0.707163 10.5021L9.26149 14.0519H0V16.0054H9.23935L0.700001 19.5328L1.44558 21.3384L9.94814 17.8267L3.41014 24.298L4.78409 25.6863L11.4032 19.1349L7.83642 27.7377L9.64112 28.4859L13.1799 19.9498Z" fill="#BCBFDB"/>
<path fill-rule="evenodd" clip-rule="evenodd" d="M13.1799 19.9498L13.1681 29.1908L15.1216 29.1931L15.1337 19.9091L18.6972 28.482L20.5009 27.7322L16.9618 19.2183L23.4731 25.7462L24.8562 24.3667L18.3169 17.8108L26.8696 21.3599L27.6181 19.5556L19.0647 16.0057H28.3256V14.0523H19.0869L27.6262 10.5256L26.8803 8.72021L18.3778 12.2316L24.9158 5.76035L23.5418 4.37207L16.9224 10.9237L20.4895 2.32026L18.6848 1.57207L15.1457 10.1075L15.1578 0.867513L13.2043 0.865234L13.1922 10.1498L9.62842 1.57663L7.8247 2.32644L11.3634 10.8394L4.85247 4.31151L3.46939 5.69133L10.009 12.2472L1.456 8.69775L0.707163 10.5021L9.26149 14.0519H0V16.0054H9.23935L0.700001 19.5328L1.44558 21.3384L9.94814 17.8267L3.41014 24.298L4.78409 25.6863L11.4032 19.1349L7.83642 27.7377L9.64112 28.4859L13.1799 19.9498Z" fill="black" fill-opacity="0.4"/>
</g>
</g>
<defs>
<clipPath id="clip0_1_3">
<rect width="1440" height="8489" fill="white" transform="translate(-1038 -1345)"/>
</clipPath>
<clipPath id="clip1_1_3">
<rect width="140" height="30" fill="white"/>
</clipPath>
</defs>
</svg>
