<svg width="140" height="40" viewBox="0 0 140 40" fill="none" xmlns="http://www.w3.org/2000/svg">
<rect width="140" height="40" fill="#F5F5F5"/>
<g clip-path="url(#clip0_1_3)">
<rect width="1440" height="9599" transform="translate(-246 -1170)" fill="white"/>
<g clip-path="url(#clip1_1_3)">
<path d="M17.3896 39.4063H4.9129L17.4249 20.4969H29.9369L17.3896 39.4063ZM12.8301 0.986694H25.6248L12.8301 20.4969H0L12.8301 0.986694ZM55.4204 17.4573C55.4204 18.6237 55.1376 19.7193 54.5721 20.709C54.0419 21.734 53.1583 22.5469 51.9919 23.1478C50.8256 23.784 49.3764 24.0667 47.5739 24.0667H43.9334V32.4081H39.586V10.7418H47.5739C49.235 10.7418 50.6842 11.0246 51.8505 11.6254C53.0169 12.1909 53.9005 13.0039 54.5014 14.0289C55.1023 15.0185 55.4204 16.1495 55.4204 17.4573ZM47.3971 20.5676C48.5988 20.5676 49.4825 20.2849 50.0833 19.7547C50.6488 19.1892 50.9669 18.4116 50.9669 17.4219C50.9669 15.3013 49.8006 14.2409 47.4325 14.2409H43.9687V20.5323H47.3971V20.5676ZM61.6057 17.8814C62.1712 16.9625 62.8781 16.2556 63.797 15.7254C64.716 15.1952 65.741 14.9478 66.9074 14.9478V19.5073H65.741C64.3625 19.5073 63.3375 19.8254 62.6307 20.4616C61.9591 21.0978 61.6057 22.2288 61.6057 23.8193V32.4081H57.2583V15.1952H61.6057V17.8814ZM76.203 32.6908C74.5418 32.6908 73.0573 32.3374 71.7142 31.5951C70.4065 30.8529 69.3461 29.7926 68.5685 28.4495C67.8263 27.1064 67.4375 25.5512 67.4375 23.784C67.4375 22.0167 67.8263 20.4616 68.6039 19.1185C69.3815 17.7754 70.4418 16.7504 71.8203 16.0082C73.1634 15.2659 74.6832 14.8771 76.309 14.8771C77.9702 14.8771 79.4547 15.2659 80.7978 16.0082C82.1409 16.7504 83.2012 17.7754 83.9788 19.1185C84.7564 20.4616 85.1452 22.0167 85.1452 23.784C85.1452 25.5512 84.7564 27.1064 83.9435 28.4495C83.1659 29.7926 82.0702 30.8529 80.7271 31.5951C79.384 32.3374 77.8995 32.6908 76.203 32.6908ZM76.203 28.9089C76.9806 28.9089 77.7228 28.7322 78.3943 28.3434C79.1012 27.9546 79.6668 27.3538 80.0555 26.6115C80.4797 25.834 80.6917 24.915 80.6917 23.8193C80.6917 22.1935 80.2676 20.9211 79.384 20.0728C78.5357 19.1892 77.4754 18.7297 76.2383 18.7297C75.0013 18.7297 73.9409 19.1892 73.0927 20.0728C72.2797 20.9564 71.8556 22.1935 71.8556 23.8193C71.8556 25.4452 72.2444 26.7176 73.0573 27.6012C73.9409 28.4495 74.9659 28.9089 76.203 28.9089ZM91.4719 28.9796H96.1373V32.4434H87.1245V8.05562H91.4719V28.9796ZM99.5304 13.1452C98.7528 13.1452 98.1166 12.8978 97.6218 12.4383C97.127 11.9435 96.8796 11.3427 96.8796 10.6004C96.8796 9.85819 97.127 9.29268 97.6218 8.79785C98.152 8.30303 98.7882 8.05562 99.5304 8.05562C100.308 8.05562 100.944 8.30303 101.439 8.79785C101.969 9.25733 102.217 9.85819 102.217 10.6004C102.217 11.3427 101.969 11.9435 101.439 12.4383C100.909 12.9332 100.308 13.1452 99.5304 13.1452ZM101.687 15.1952V32.4081H97.3037V15.1952H101.687ZM114.269 14.9478C116.319 14.9478 117.981 15.584 119.253 16.8918C120.525 18.1642 121.162 19.9668 121.162 22.2995V32.4081H116.814V22.9004C116.814 21.5219 116.461 20.4969 115.789 19.7547C115.118 19.0124 114.163 18.6237 112.997 18.6237C111.795 18.6237 110.841 19.0124 110.134 19.7547C109.462 20.4969 109.109 21.5219 109.109 22.9004V32.4081H104.726V15.1952H109.074V17.3512C109.639 16.609 110.381 16.0435 111.265 15.6194C112.184 15.1599 113.174 14.9478 114.269 14.9478ZM140 23.4305C140 24.0667 139.965 24.5969 139.859 25.0917H127.276C127.382 26.3288 127.806 27.3184 128.584 28.0253C129.361 28.7322 130.28 29.0857 131.411 29.0857C133.037 29.0857 134.168 28.3788 134.875 27.0003H139.576C139.081 28.6615 138.127 30.04 136.713 31.1003C135.299 32.1606 133.567 32.6908 131.517 32.6908C129.856 32.6908 128.372 32.3374 127.029 31.5951C125.721 30.8529 124.696 29.7926 123.954 28.4495C123.247 27.1064 122.858 25.5512 122.858 23.784C122.858 22.0167 123.212 20.4262 123.954 19.0831C124.696 17.74 125.686 16.715 126.993 15.9728C128.301 15.2306 129.786 14.8771 131.482 14.8771C133.108 14.8771 134.592 15.2306 135.865 15.9375C137.173 16.6444 138.162 17.634 138.869 18.9418C139.647 20.2849 140 21.7693 140 23.4305ZM135.511 22.1935C135.476 21.0624 135.087 20.1788 134.31 19.5073C133.532 18.8357 132.578 18.4823 131.411 18.4823C130.351 18.4823 129.432 18.8004 128.69 19.4719C127.983 20.1081 127.524 21.0271 127.347 22.1581H135.511V22.1935Z" fill="#BCBFDB"/>
<path d="M17.3896 39.4063H4.9129L17.4249 20.4969H29.9369L17.3896 39.4063ZM12.8301 0.986694H25.6248L12.8301 20.4969H0L12.8301 0.986694ZM55.4204 17.4573C55.4204 18.6237 55.1376 19.7193 54.5721 20.709C54.0419 21.734 53.1583 22.5469 51.9919 23.1478C50.8256 23.784 49.3764 24.0667 47.5739 24.0667H43.9334V32.4081H39.586V10.7418H47.5739C49.235 10.7418 50.6842 11.0246 51.8505 11.6254C53.0169 12.1909 53.9005 13.0039 54.5014 14.0289C55.1023 15.0185 55.4204 16.1495 55.4204 17.4573ZM47.3971 20.5676C48.5988 20.5676 49.4825 20.2849 50.0833 19.7547C50.6488 19.1892 50.9669 18.4116 50.9669 17.4219C50.9669 15.3013 49.8006 14.2409 47.4325 14.2409H43.9687V20.5323H47.3971V20.5676ZM61.6057 17.8814C62.1712 16.9625 62.8781 16.2556 63.797 15.7254C64.716 15.1952 65.741 14.9478 66.9074 14.9478V19.5073H65.741C64.3625 19.5073 63.3375 19.8254 62.6307 20.4616C61.9591 21.0978 61.6057 22.2288 61.6057 23.8193V32.4081H57.2583V15.1952H61.6057V17.8814ZM76.203 32.6908C74.5418 32.6908 73.0573 32.3374 71.7142 31.5951C70.4065 30.8529 69.3461 29.7926 68.5685 28.4495C67.8263 27.1064 67.4375 25.5512 67.4375 23.784C67.4375 22.0167 67.8263 20.4616 68.6039 19.1185C69.3815 17.7754 70.4418 16.7504 71.8203 16.0082C73.1634 15.2659 74.6832 14.8771 76.309 14.8771C77.9702 14.8771 79.4547 15.2659 80.7978 16.0082C82.1409 16.7504 83.2012 17.7754 83.9788 19.1185C84.7564 20.4616 85.1452 22.0167 85.1452 23.784C85.1452 25.5512 84.7564 27.1064 83.9435 28.4495C83.1659 29.7926 82.0702 30.8529 80.7271 31.5951C79.384 32.3374 77.8995 32.6908 76.203 32.6908ZM76.203 28.9089C76.9806 28.9089 77.7228 28.7322 78.3943 28.3434C79.1012 27.9546 79.6668 27.3538 80.0555 26.6115C80.4797 25.834 80.6917 24.915 80.6917 23.8193C80.6917 22.1935 80.2676 20.9211 79.384 20.0728C78.5357 19.1892 77.4754 18.7297 76.2383 18.7297C75.0013 18.7297 73.9409 19.1892 73.0927 20.0728C72.2797 20.9564 71.8556 22.1935 71.8556 23.8193C71.8556 25.4452 72.2444 26.7176 73.0573 27.6012C73.9409 28.4495 74.9659 28.9089 76.203 28.9089ZM91.4719 28.9796H96.1373V32.4434H87.1245V8.05562H91.4719V28.9796ZM99.5304 13.1452C98.7528 13.1452 98.1166 12.8978 97.6218 12.4383C97.127 11.9435 96.8796 11.3427 96.8796 10.6004C96.8796 9.85819 97.127 9.29268 97.6218 8.79785C98.152 8.30303 98.7882 8.05562 99.5304 8.05562C100.308 8.05562 100.944 8.30303 101.439 8.79785C101.969 9.25733 102.217 9.85819 102.217 10.6004C102.217 11.3427 101.969 11.9435 101.439 12.4383C100.909 12.9332 100.308 13.1452 99.5304 13.1452ZM101.687 15.1952V32.4081H97.3037V15.1952H101.687ZM114.269 14.9478C116.319 14.9478 117.981 15.584 119.253 16.8918C120.525 18.1642 121.162 19.9668 121.162 22.2995V32.4081H116.814V22.9004C116.814 21.5219 116.461 20.4969 115.789 19.7547C115.118 19.0124 114.163 18.6237 112.997 18.6237C111.795 18.6237 110.841 19.0124 110.134 19.7547C109.462 20.4969 109.109 21.5219 109.109 22.9004V32.4081H104.726V15.1952H109.074V17.3512C109.639 16.609 110.381 16.0435 111.265 15.6194C112.184 15.1599 113.174 14.9478 114.269 14.9478ZM140 23.4305C140 24.0667 139.965 24.5969 139.859 25.0917H127.276C127.382 26.3288 127.806 27.3184 128.584 28.0253C129.361 28.7322 130.28 29.0857 131.411 29.0857C133.037 29.0857 134.168 28.3788 134.875 27.0003H139.576C139.081 28.6615 138.127 30.04 136.713 31.1003C135.299 32.1606 133.567 32.6908 131.517 32.6908C129.856 32.6908 128.372 32.3374 127.029 31.5951C125.721 30.8529 124.696 29.7926 123.954 28.4495C123.247 27.1064 122.858 25.5512 122.858 23.784C122.858 22.0167 123.212 20.4262 123.954 19.0831C124.696 17.74 125.686 16.715 126.993 15.9728C128.301 15.2306 129.786 14.8771 131.482 14.8771C133.108 14.8771 134.592 15.2306 135.865 15.9375C137.173 16.6444 138.162 17.634 138.869 18.9418C139.647 20.2849 140 21.7693 140 23.4305ZM135.511 22.1935C135.476 21.0624 135.087 20.1788 134.31 19.5073C133.532 18.8357 132.578 18.4823 131.411 18.4823C130.351 18.4823 129.432 18.8004 128.69 19.4719C127.983 20.1081 127.524 21.0271 127.347 22.1581H135.511V22.1935Z" fill="black" fill-opacity="0.8"/>
<path d="M17.3896 39.4063H4.9129L17.4249 20.4969H29.9369L17.3896 39.4063ZM12.8301 0.986694H25.6248L12.8301 20.4969H0L12.8301 0.986694ZM55.4204 17.4573C55.4204 18.6237 55.1376 19.7193 54.5721 20.709C54.0419 21.734 53.1583 22.5469 51.9919 23.1478C50.8256 23.784 49.3764 24.0667 47.5739 24.0667H43.9334V32.4081H39.586V10.7418H47.5739C49.235 10.7418 50.6842 11.0246 51.8505 11.6254C53.0169 12.1909 53.9005 13.0039 54.5014 14.0289C55.1023 15.0185 55.4204 16.1495 55.4204 17.4573ZM47.3971 20.5676C48.5988 20.5676 49.4825 20.2849 50.0833 19.7547C50.6488 19.1892 50.9669 18.4116 50.9669 17.4219C50.9669 15.3013 49.8006 14.2409 47.4325 14.2409H43.9687V20.5323H47.3971V20.5676ZM61.6057 17.8814C62.1712 16.9625 62.8781 16.2556 63.797 15.7254C64.716 15.1952 65.741 14.9478 66.9074 14.9478V19.5073H65.741C64.3625 19.5073 63.3375 19.8254 62.6307 20.4616C61.9591 21.0978 61.6057 22.2288 61.6057 23.8193V32.4081H57.2583V15.1952H61.6057V17.8814ZM76.203 32.6908C74.5418 32.6908 73.0573 32.3374 71.7142 31.5951C70.4065 30.8529 69.3461 29.7926 68.5685 28.4495C67.8263 27.1064 67.4375 25.5512 67.4375 23.784C67.4375 22.0167 67.8263 20.4616 68.6039 19.1185C69.3815 17.7754 70.4418 16.7504 71.8203 16.0082C73.1634 15.2659 74.6832 14.8771 76.309 14.8771C77.9702 14.8771 79.4547 15.2659 80.7978 16.0082C82.1409 16.7504 83.2012 17.7754 83.9788 19.1185C84.7564 20.4616 85.1452 22.0167 85.1452 23.784C85.1452 25.5512 84.7564 27.1064 83.9435 28.4495C83.1659 29.7926 82.0702 30.8529 80.7271 31.5951C79.384 32.3374 77.8995 32.6908 76.203 32.6908ZM76.203 28.9089C76.9806 28.9089 77.7228 28.7322 78.3943 28.3434C79.1012 27.9546 79.6668 27.3538 80.0555 26.6115C80.4797 25.834 80.6917 24.915 80.6917 23.8193C80.6917 22.1935 80.2676 20.9211 79.384 20.0728C78.5357 19.1892 77.4754 18.7297 76.2383 18.7297C75.0013 18.7297 73.9409 19.1892 73.0927 20.0728C72.2797 20.9564 71.8556 22.1935 71.8556 23.8193C71.8556 25.4452 72.2444 26.7176 73.0573 27.6012C73.9409 28.4495 74.9659 28.9089 76.203 28.9089ZM91.4719 28.9796H96.1373V32.4434H87.1245V8.05562H91.4719V28.9796ZM99.5304 13.1452C98.7528 13.1452 98.1166 12.8978 97.6218 12.4383C97.127 11.9435 96.8796 11.3427 96.8796 10.6004C96.8796 9.85819 97.127 9.29268 97.6218 8.79785C98.152 8.30303 98.7882 8.05562 99.5304 8.05562C100.308 8.05562 100.944 8.30303 101.439 8.79785C101.969 9.25733 102.217 9.85819 102.217 10.6004C102.217 11.3427 101.969 11.9435 101.439 12.4383C100.909 12.9332 100.308 13.1452 99.5304 13.1452ZM101.687 15.1952V32.4081H97.3037V15.1952H101.687ZM114.269 14.9478C116.319 14.9478 117.981 15.584 119.253 16.8918C120.525 18.1642 121.162 19.9668 121.162 22.2995V32.4081H116.814V22.9004C116.814 21.5219 116.461 20.4969 115.789 19.7547C115.118 19.0124 114.163 18.6237 112.997 18.6237C111.795 18.6237 110.841 19.0124 110.134 19.7547C109.462 20.4969 109.109 21.5219 109.109 22.9004V32.4081H104.726V15.1952H109.074V17.3512C109.639 16.609 110.381 16.0435 111.265 15.6194C112.184 15.1599 113.174 14.9478 114.269 14.9478ZM140 23.4305C140 24.0667 139.965 24.5969 139.859 25.0917H127.276C127.382 26.3288 127.806 27.3184 128.584 28.0253C129.361 28.7322 130.28 29.0857 131.411 29.0857C133.037 29.0857 134.168 28.3788 134.875 27.0003H139.576C139.081 28.6615 138.127 30.04 136.713 31.1003C135.299 32.1606 133.567 32.6908 131.517 32.6908C129.856 32.6908 128.372 32.3374 127.029 31.5951C125.721 30.8529 124.696 29.7926 123.954 28.4495C123.247 27.1064 122.858 25.5512 122.858 23.784C122.858 22.0167 123.212 20.4262 123.954 19.0831C124.696 17.74 125.686 16.715 126.993 15.9728C128.301 15.2306 129.786 14.8771 131.482 14.8771C133.108 14.8771 134.592 15.2306 135.865 15.9375C137.173 16.6444 138.162 17.634 138.869 18.9418C139.647 20.2849 140 21.7693 140 23.4305ZM135.511 22.1935C135.476 21.0624 135.087 20.1788 134.31 19.5073C133.532 18.8357 132.578 18.4823 131.411 18.4823C130.351 18.4823 129.432 18.8004 128.69 19.4719C127.983 20.1081 127.524 21.0271 127.347 22.1581H135.511V22.1935Z" fill="#BCBFDB"/>
<path d="M17.3896 39.4063H4.9129L17.4249 20.4969H29.9369L17.3896 39.4063ZM12.8301 0.986694H25.6248L12.8301 20.4969H0L12.8301 0.986694ZM55.4204 17.4573C55.4204 18.6237 55.1376 19.7193 54.5721 20.709C54.0419 21.734 53.1583 22.5469 51.9919 23.1478C50.8256 23.784 49.3764 24.0667 47.5739 24.0667H43.9334V32.4081H39.586V10.7418H47.5739C49.235 10.7418 50.6842 11.0246 51.8505 11.6254C53.0169 12.1909 53.9005 13.0039 54.5014 14.0289C55.1023 15.0185 55.4204 16.1495 55.4204 17.4573ZM47.3971 20.5676C48.5988 20.5676 49.4825 20.2849 50.0833 19.7547C50.6488 19.1892 50.9669 18.4116 50.9669 17.4219C50.9669 15.3013 49.8006 14.2409 47.4325 14.2409H43.9687V20.5323H47.3971V20.5676ZM61.6057 17.8814C62.1712 16.9625 62.8781 16.2556 63.797 15.7254C64.716 15.1952 65.741 14.9478 66.9074 14.9478V19.5073H65.741C64.3625 19.5073 63.3375 19.8254 62.6307 20.4616C61.9591 21.0978 61.6057 22.2288 61.6057 23.8193V32.4081H57.2583V15.1952H61.6057V17.8814ZM76.203 32.6908C74.5418 32.6908 73.0573 32.3374 71.7142 31.5951C70.4065 30.8529 69.3461 29.7926 68.5685 28.4495C67.8263 27.1064 67.4375 25.5512 67.4375 23.784C67.4375 22.0167 67.8263 20.4616 68.6039 19.1185C69.3815 17.7754 70.4418 16.7504 71.8203 16.0082C73.1634 15.2659 74.6832 14.8771 76.309 14.8771C77.9702 14.8771 79.4547 15.2659 80.7978 16.0082C82.1409 16.7504 83.2012 17.7754 83.9788 19.1185C84.7564 20.4616 85.1452 22.0167 85.1452 23.784C85.1452 25.5512 84.7564 27.1064 83.9435 28.4495C83.1659 29.7926 82.0702 30.8529 80.7271 31.5951C79.384 32.3374 77.8995 32.6908 76.203 32.6908ZM76.203 28.9089C76.9806 28.9089 77.7228 28.7322 78.3943 28.3434C79.1012 27.9546 79.6668 27.3538 80.0555 26.6115C80.4797 25.834 80.6917 24.915 80.6917 23.8193C80.6917 22.1935 80.2676 20.9211 79.384 20.0728C78.5357 19.1892 77.4754 18.7297 76.2383 18.7297C75.0013 18.7297 73.9409 19.1892 73.0927 20.0728C72.2797 20.9564 71.8556 22.1935 71.8556 23.8193C71.8556 25.4452 72.2444 26.7176 73.0573 27.6012C73.9409 28.4495 74.9659 28.9089 76.203 28.9089ZM91.4719 28.9796H96.1373V32.4434H87.1245V8.05562H91.4719V28.9796ZM99.5304 13.1452C98.7528 13.1452 98.1166 12.8978 97.6218 12.4383C97.127 11.9435 96.8796 11.3427 96.8796 10.6004C96.8796 9.85819 97.127 9.29268 97.6218 8.79785C98.152 8.30303 98.7882 8.05562 99.5304 8.05562C100.308 8.05562 100.944 8.30303 101.439 8.79785C101.969 9.25733 102.217 9.85819 102.217 10.6004C102.217 11.3427 101.969 11.9435 101.439 12.4383C100.909 12.9332 100.308 13.1452 99.5304 13.1452ZM101.687 15.1952V32.4081H97.3037V15.1952H101.687ZM114.269 14.9478C116.319 14.9478 117.981 15.584 119.253 16.8918C120.525 18.1642 121.162 19.9668 121.162 22.2995V32.4081H116.814V22.9004C116.814 21.5219 116.461 20.4969 115.789 19.7547C115.118 19.0124 114.163 18.6237 112.997 18.6237C111.795 18.6237 110.841 19.0124 110.134 19.7547C109.462 20.4969 109.109 21.5219 109.109 22.9004V32.4081H104.726V15.1952H109.074V17.3512C109.639 16.609 110.381 16.0435 111.265 15.6194C112.184 15.1599 113.174 14.9478 114.269 14.9478ZM140 23.4305C140 24.0667 139.965 24.5969 139.859 25.0917H127.276C127.382 26.3288 127.806 27.3184 128.584 28.0253C129.361 28.7322 130.28 29.0857 131.411 29.0857C133.037 29.0857 134.168 28.3788 134.875 27.0003H139.576C139.081 28.6615 138.127 30.04 136.713 31.1003C135.299 32.1606 133.567 32.6908 131.517 32.6908C129.856 32.6908 128.372 32.3374 127.029 31.5951C125.721 30.8529 124.696 29.7926 123.954 28.4495C123.247 27.1064 122.858 25.5512 122.858 23.784C122.858 22.0167 123.212 20.4262 123.954 19.0831C124.696 17.74 125.686 16.715 126.993 15.9728C128.301 15.2306 129.786 14.8771 131.482 14.8771C133.108 14.8771 134.592 15.2306 135.865 15.9375C137.173 16.6444 138.162 17.634 138.869 18.9418C139.647 20.2849 140 21.7693 140 23.4305ZM135.511 22.1935C135.476 21.0624 135.087 20.1788 134.31 19.5073C133.532 18.8357 132.578 18.4823 131.411 18.4823C130.351 18.4823 129.432 18.8004 128.69 19.4719C127.983 20.1081 127.524 21.0271 127.347 22.1581H135.511V22.1935Z" fill="black" fill-opacity="0.8"/>
<path d="M12.8281 0.986694H25.6703L12.8281 20.5002H0L12.8281 0.986694Z" fill="#BCBFDB"/>
<path d="M12.8281 0.986694H25.6703L12.8281 20.5002H0L12.8281 0.986694Z" fill="black" fill-opacity="0.8"/>
<path d="M17.5986 19.8942H30.4407L17.5986 39.4077H4.77051L17.5986 19.8942Z" fill="#BCBFDB"/>
<path d="M17.5986 19.8942H30.4407L17.5986 39.4077H4.77051L17.5986 19.8942Z" fill="black" fill-opacity="0.8"/>
</g>
</g>
<defs>
<clipPath id="clip0_1_3">
<rect width="1440" height="9599" fill="white" transform="translate(-246 -1170)"/>
</clipPath>
<clipPath id="clip1_1_3">
<rect width="140" height="40" fill="white"/>
</clipPath>
</defs>
</svg>
