<svg width="140" height="36" viewBox="0 0 140 36" fill="none" xmlns="http://www.w3.org/2000/svg">
<rect width="140" height="36" fill="#F5F5F5"/>
<g clip-path="url(#clip0_1_3)">
<rect width="1440" height="9599" transform="translate(-448 -1172)" fill="white"/>
<g clip-path="url(#clip1_1_3)">
<path d="M63.3956 26.7154C62.1736 26.7154 61.0366 26.5065 59.9847 26.0887C58.9645 25.6663 58.0349 25.0519 57.2465 24.2789C56.4745 23.5075 55.8599 22.5932 55.4368 21.5872C55.0035 20.5508 54.7869 19.437 54.7869 18.2455C54.7869 17.0543 55.0035 15.9483 55.4368 14.9274C55.8697 13.8906 56.4732 12.9939 57.2465 12.2356C58.0202 11.4774 58.9251 10.8898 59.9615 10.4723C61.0134 10.039 62.1503 9.82239 63.3724 9.82239C64.6719 9.82239 65.8247 10.0313 66.8302 10.4491C67.6929 10.8019 68.4619 11.2654 69.1374 11.8395C69.3413 12.0132 69.3444 12.3219 69.156 12.5122L67.4128 14.2717C67.2213 14.4651 66.9091 14.4581 66.7021 14.2813C66.3367 13.9718 65.926 13.7201 65.4843 13.5351C64.8808 13.272 64.1771 13.1405 63.3724 13.1405C62.661 13.1405 62.0037 13.2643 61.4002 13.5119C60.8122 13.744 60.3019 14.0844 59.8686 14.5332C59.4512 14.9816 59.1185 15.5232 58.8709 16.1572C58.6388 16.7917 58.5228 17.4876 58.5228 18.2455C58.5228 19.0192 58.6388 19.7229 58.8709 20.3574C59.1185 20.9914 59.4512 21.533 59.8686 21.9814C60.3024 22.4306 60.8237 22.7861 61.4002 23.0259C62.0037 23.2731 62.661 23.3969 63.3724 23.3969C64.208 23.3969 64.935 23.2654 65.5539 23.0027C66.0043 22.8133 66.4239 22.5578 66.7988 22.2444C67.0039 22.0719 67.3103 22.0673 67.4994 22.2568L69.2616 24.0186C69.4542 24.2112 69.4484 24.5265 69.2384 24.6995C68.5333 25.2777 67.7449 25.7461 66.8998 26.0887C65.894 26.5065 64.726 26.7154 63.3956 26.7154ZM50.4637 26.4601C50.3366 26.4599 50.2148 26.4094 50.1249 26.3195C50.035 26.2297 49.9845 26.1078 49.9844 25.9807V10.5567C49.9846 10.4296 50.0352 10.3079 50.125 10.2181C50.2149 10.1283 50.3367 10.0778 50.4637 10.0777H53.1481C53.2752 10.0778 53.3971 10.1283 53.4869 10.2182C53.5768 10.3081 53.6273 10.4299 53.6275 10.5571V25.9807C53.6273 26.1078 53.5768 26.2297 53.4869 26.3195C53.3971 26.4094 53.2752 26.4599 53.1481 26.4601H50.4637ZM70.4605 25.9807C70.4606 26.1078 70.5111 26.2297 70.601 26.3195C70.6908 26.4094 70.8127 26.4599 70.9398 26.4601H73.6242C73.6412 26.4601 73.6578 26.4593 73.6745 26.4573C73.6907 26.4593 73.7074 26.4601 73.7244 26.4601H81.7459C81.873 26.4599 81.9949 26.4094 82.0847 26.3195C82.1746 26.2297 82.2251 26.1078 82.2252 25.9807V23.7834C82.2251 23.6563 82.1746 23.5344 82.0847 23.4446C81.9949 23.3547 81.873 23.3042 81.7459 23.3041H74.1035V19.6146H80.9339C81.1985 19.6146 81.4128 19.4003 81.4128 19.1353V17.054C81.4128 16.7894 81.1985 16.575 80.9339 16.575H74.1035V13.2101H81.6298C81.7569 13.21 81.8788 13.1595 81.9687 13.0696C82.0585 12.9798 82.1091 12.8579 82.1092 12.7308V10.5571C82.109 10.43 82.0584 10.3082 81.9685 10.2185C81.8787 10.1287 81.7569 10.0782 81.6298 10.0781H73.7244C73.7074 10.0781 73.6907 10.0789 73.6745 10.0808C73.6578 10.079 73.641 10.0781 73.6242 10.0781H70.9398C70.8127 10.0782 70.6908 10.1287 70.601 10.2186C70.5111 10.3085 70.4606 10.4303 70.4605 10.5574V25.9807Z" fill="#BCBFDB"/>
<path d="M63.3956 26.7154C62.1736 26.7154 61.0366 26.5065 59.9847 26.0887C58.9645 25.6663 58.0349 25.0519 57.2465 24.2789C56.4745 23.5075 55.8599 22.5932 55.4368 21.5872C55.0035 20.5508 54.7869 19.437 54.7869 18.2455C54.7869 17.0543 55.0035 15.9483 55.4368 14.9274C55.8697 13.8906 56.4732 12.9939 57.2465 12.2356C58.0202 11.4774 58.9251 10.8898 59.9615 10.4723C61.0134 10.039 62.1503 9.82239 63.3724 9.82239C64.6719 9.82239 65.8247 10.0313 66.8302 10.4491C67.6929 10.8019 68.4619 11.2654 69.1374 11.8395C69.3413 12.0132 69.3444 12.3219 69.156 12.5122L67.4128 14.2717C67.2213 14.4651 66.9091 14.4581 66.7021 14.2813C66.3367 13.9718 65.926 13.7201 65.4843 13.5351C64.8808 13.272 64.1771 13.1405 63.3724 13.1405C62.661 13.1405 62.0037 13.2643 61.4002 13.5119C60.8122 13.744 60.3019 14.0844 59.8686 14.5332C59.4512 14.9816 59.1185 15.5232 58.8709 16.1572C58.6388 16.7917 58.5228 17.4876 58.5228 18.2455C58.5228 19.0192 58.6388 19.7229 58.8709 20.3574C59.1185 20.9914 59.4512 21.533 59.8686 21.9814C60.3024 22.4306 60.8237 22.7861 61.4002 23.0259C62.0037 23.2731 62.661 23.3969 63.3724 23.3969C64.208 23.3969 64.935 23.2654 65.5539 23.0027C66.0043 22.8133 66.4239 22.5578 66.7988 22.2444C67.0039 22.0719 67.3103 22.0673 67.4994 22.2568L69.2616 24.0186C69.4542 24.2112 69.4484 24.5265 69.2384 24.6995C68.5333 25.2777 67.7449 25.7461 66.8998 26.0887C65.894 26.5065 64.726 26.7154 63.3956 26.7154ZM50.4637 26.4601C50.3366 26.4599 50.2148 26.4094 50.1249 26.3195C50.035 26.2297 49.9845 26.1078 49.9844 25.9807V10.5567C49.9846 10.4296 50.0352 10.3079 50.125 10.2181C50.2149 10.1283 50.3367 10.0778 50.4637 10.0777H53.1481C53.2752 10.0778 53.3971 10.1283 53.4869 10.2182C53.5768 10.3081 53.6273 10.4299 53.6275 10.5571V25.9807C53.6273 26.1078 53.5768 26.2297 53.4869 26.3195C53.3971 26.4094 53.2752 26.4599 53.1481 26.4601H50.4637ZM70.4605 25.9807C70.4606 26.1078 70.5111 26.2297 70.601 26.3195C70.6908 26.4094 70.8127 26.4599 70.9398 26.4601H73.6242C73.6412 26.4601 73.6578 26.4593 73.6745 26.4573C73.6907 26.4593 73.7074 26.4601 73.7244 26.4601H81.7459C81.873 26.4599 81.9949 26.4094 82.0847 26.3195C82.1746 26.2297 82.2251 26.1078 82.2252 25.9807V23.7834C82.2251 23.6563 82.1746 23.5344 82.0847 23.4446C81.9949 23.3547 81.873 23.3042 81.7459 23.3041H74.1035V19.6146H80.9339C81.1985 19.6146 81.4128 19.4003 81.4128 19.1353V17.054C81.4128 16.7894 81.1985 16.575 80.9339 16.575H74.1035V13.2101H81.6298C81.7569 13.21 81.8788 13.1595 81.9687 13.0696C82.0585 12.9798 82.1091 12.8579 82.1092 12.7308V10.5571C82.109 10.43 82.0584 10.3082 81.9685 10.2185C81.8787 10.1287 81.7569 10.0782 81.6298 10.0781H73.7244C73.7074 10.0781 73.6907 10.0789 73.6745 10.0808C73.6578 10.079 73.641 10.0781 73.6242 10.0781H70.9398C70.8127 10.0782 70.6908 10.1287 70.601 10.2186C70.5111 10.3085 70.4606 10.4303 70.4605 10.5574V25.9807Z" fill="black" fill-opacity="0.8"/>
<path d="M63.3956 26.7154C62.1736 26.7154 61.0366 26.5065 59.9847 26.0887C58.9645 25.6663 58.0349 25.0519 57.2465 24.2789C56.4745 23.5075 55.8599 22.5932 55.4368 21.5872C55.0035 20.5508 54.7869 19.437 54.7869 18.2455C54.7869 17.0543 55.0035 15.9483 55.4368 14.9274C55.8697 13.8906 56.4732 12.9939 57.2465 12.2356C58.0202 11.4774 58.9251 10.8898 59.9615 10.4723C61.0134 10.039 62.1503 9.82239 63.3724 9.82239C64.6719 9.82239 65.8247 10.0313 66.8302 10.4491C67.6929 10.8019 68.4619 11.2654 69.1374 11.8395C69.3413 12.0132 69.3444 12.3219 69.156 12.5122L67.4128 14.2717C67.2213 14.4651 66.9091 14.4581 66.7021 14.2813C66.3367 13.9718 65.926 13.7201 65.4843 13.5351C64.8808 13.272 64.1771 13.1405 63.3724 13.1405C62.661 13.1405 62.0037 13.2643 61.4002 13.5119C60.8122 13.744 60.3019 14.0844 59.8686 14.5332C59.4512 14.9816 59.1185 15.5232 58.8709 16.1572C58.6388 16.7917 58.5228 17.4876 58.5228 18.2455C58.5228 19.0192 58.6388 19.7229 58.8709 20.3574C59.1185 20.9914 59.4512 21.533 59.8686 21.9814C60.3024 22.4306 60.8237 22.7861 61.4002 23.0259C62.0037 23.2731 62.661 23.3969 63.3724 23.3969C64.208 23.3969 64.935 23.2654 65.5539 23.0027C66.0043 22.8133 66.4239 22.5578 66.7988 22.2444C67.0039 22.0719 67.3103 22.0673 67.4994 22.2568L69.2616 24.0186C69.4542 24.2112 69.4484 24.5265 69.2384 24.6995C68.5333 25.2777 67.7449 25.7461 66.8998 26.0887C65.894 26.5065 64.726 26.7154 63.3956 26.7154ZM50.4637 26.4601C50.3366 26.4599 50.2148 26.4094 50.1249 26.3195C50.035 26.2297 49.9845 26.1078 49.9844 25.9807V10.5567C49.9846 10.4296 50.0352 10.3079 50.125 10.2181C50.2149 10.1283 50.3367 10.0778 50.4637 10.0777H53.1481C53.2752 10.0778 53.3971 10.1283 53.4869 10.2182C53.5768 10.3081 53.6273 10.4299 53.6275 10.5571V25.9807C53.6273 26.1078 53.5768 26.2297 53.4869 26.3195C53.3971 26.4094 53.2752 26.4599 53.1481 26.4601H50.4637ZM70.4605 25.9807C70.4606 26.1078 70.5111 26.2297 70.601 26.3195C70.6908 26.4094 70.8127 26.4599 70.9398 26.4601H73.6242C73.6412 26.4601 73.6578 26.4593 73.6745 26.4573C73.6907 26.4593 73.7074 26.4601 73.7244 26.4601H81.7459C81.873 26.4599 81.9949 26.4094 82.0847 26.3195C82.1746 26.2297 82.2251 26.1078 82.2252 25.9807V23.7834C82.2251 23.6563 82.1746 23.5344 82.0847 23.4446C81.9949 23.3547 81.873 23.3042 81.7459 23.3041H74.1035V19.6146H80.9339C81.1985 19.6146 81.4128 19.4003 81.4128 19.1353V17.054C81.4128 16.7894 81.1985 16.575 80.9339 16.575H74.1035V13.2101H81.6298C81.7569 13.21 81.8788 13.1595 81.9687 13.0696C82.0585 12.9798 82.1091 12.8579 82.1092 12.7308V10.5571C82.109 10.43 82.0584 10.3082 81.9685 10.2185C81.8787 10.1287 81.7569 10.0782 81.6298 10.0781H73.7244C73.7074 10.0781 73.6907 10.0789 73.6745 10.0808C73.6578 10.079 73.641 10.0781 73.6242 10.0781H70.9398C70.8127 10.0782 70.6908 10.1287 70.601 10.2186C70.5111 10.3085 70.4606 10.4303 70.4605 10.5574V25.9807Z" fill="#BCBFDB"/>
<path d="M63.3956 26.7154C62.1736 26.7154 61.0366 26.5065 59.9847 26.0887C58.9645 25.6663 58.0349 25.0519 57.2465 24.2789C56.4745 23.5075 55.8599 22.5932 55.4368 21.5872C55.0035 20.5508 54.7869 19.437 54.7869 18.2455C54.7869 17.0543 55.0035 15.9483 55.4368 14.9274C55.8697 13.8906 56.4732 12.9939 57.2465 12.2356C58.0202 11.4774 58.9251 10.8898 59.9615 10.4723C61.0134 10.039 62.1503 9.82239 63.3724 9.82239C64.6719 9.82239 65.8247 10.0313 66.8302 10.4491C67.6929 10.8019 68.4619 11.2654 69.1374 11.8395C69.3413 12.0132 69.3444 12.3219 69.156 12.5122L67.4128 14.2717C67.2213 14.4651 66.9091 14.4581 66.7021 14.2813C66.3367 13.9718 65.926 13.7201 65.4843 13.5351C64.8808 13.272 64.1771 13.1405 63.3724 13.1405C62.661 13.1405 62.0037 13.2643 61.4002 13.5119C60.8122 13.744 60.3019 14.0844 59.8686 14.5332C59.4512 14.9816 59.1185 15.5232 58.8709 16.1572C58.6388 16.7917 58.5228 17.4876 58.5228 18.2455C58.5228 19.0192 58.6388 19.7229 58.8709 20.3574C59.1185 20.9914 59.4512 21.533 59.8686 21.9814C60.3024 22.4306 60.8237 22.7861 61.4002 23.0259C62.0037 23.2731 62.661 23.3969 63.3724 23.3969C64.208 23.3969 64.935 23.2654 65.5539 23.0027C66.0043 22.8133 66.4239 22.5578 66.7988 22.2444C67.0039 22.0719 67.3103 22.0673 67.4994 22.2568L69.2616 24.0186C69.4542 24.2112 69.4484 24.5265 69.2384 24.6995C68.5333 25.2777 67.7449 25.7461 66.8998 26.0887C65.894 26.5065 64.726 26.7154 63.3956 26.7154ZM50.4637 26.4601C50.3366 26.4599 50.2148 26.4094 50.1249 26.3195C50.035 26.2297 49.9845 26.1078 49.9844 25.9807V10.5567C49.9846 10.4296 50.0352 10.3079 50.125 10.2181C50.2149 10.1283 50.3367 10.0778 50.4637 10.0777H53.1481C53.2752 10.0778 53.3971 10.1283 53.4869 10.2182C53.5768 10.3081 53.6273 10.4299 53.6275 10.5571V25.9807C53.6273 26.1078 53.5768 26.2297 53.4869 26.3195C53.3971 26.4094 53.2752 26.4599 53.1481 26.4601H50.4637ZM70.4605 25.9807C70.4606 26.1078 70.5111 26.2297 70.601 26.3195C70.6908 26.4094 70.8127 26.4599 70.9398 26.4601H73.6242C73.6412 26.4601 73.6578 26.4593 73.6745 26.4573C73.6907 26.4593 73.7074 26.4601 73.7244 26.4601H81.7459C81.873 26.4599 81.9949 26.4094 82.0847 26.3195C82.1746 26.2297 82.2251 26.1078 82.2252 25.9807V23.7834C82.2251 23.6563 82.1746 23.5344 82.0847 23.4446C81.9949 23.3547 81.873 23.3042 81.7459 23.3041H74.1035V19.6146H80.9339C81.1985 19.6146 81.4128 19.4003 81.4128 19.1353V17.054C81.4128 16.7894 81.1985 16.575 80.9339 16.575H74.1035V13.2101H81.6298C81.7569 13.21 81.8788 13.1595 81.9687 13.0696C82.0585 12.9798 82.1091 12.8579 82.1092 12.7308V10.5571C82.109 10.43 82.0584 10.3082 81.9685 10.2185C81.8787 10.1287 81.7569 10.0782 81.6298 10.0781H73.7244C73.7074 10.0781 73.6907 10.0789 73.6745 10.0808C73.6578 10.079 73.641 10.0781 73.6242 10.0781H70.9398C70.8127 10.0782 70.6908 10.1287 70.601 10.2186C70.5111 10.3085 70.4606 10.4303 70.4605 10.5574V25.9807Z" fill="black" fill-opacity="0.8"/>
<path fill-rule="evenodd" clip-rule="evenodd" d="M86.8397 26.4601C86.815 26.4601 86.7906 26.4581 86.7666 26.4547C86.7424 26.4582 86.7179 26.46 86.6935 26.4601H84.0555C83.9284 26.4601 83.8064 26.4096 83.7166 26.3197C83.6267 26.2298 83.5762 26.1079 83.5762 25.9808V10.5567C83.5762 10.2925 83.7905 10.0778 84.0555 10.0778H86.6935C86.7182 10.0778 86.743 10.0797 86.7666 10.0832C86.7908 10.0795 86.8152 10.0777 86.8397 10.0778H90.6069C91.6588 10.0778 92.5486 10.2712 93.2755 10.658C94.0183 11.0449 94.5827 11.5629 94.9695 12.2124C95.356 12.8624 95.5495 13.5819 95.5495 14.3707C95.5495 15.3762 95.2249 16.2269 94.575 16.9228C94.2953 17.223 93.9579 17.4826 93.5629 17.702C94.1165 17.9736 94.5854 18.3171 94.9695 18.733C95.7274 19.5376 96.1065 20.5276 96.1065 21.7033C96.1065 22.6004 95.8821 23.4124 95.4334 24.1397C95.0005 24.8511 94.366 25.4159 93.5308 25.8334C92.7111 26.2512 91.7207 26.4601 90.5605 26.4601H86.8397ZM87.1728 23.629H90.2127C90.9242 23.629 91.4812 23.4201 91.8832 23.0027C92.2855 22.5849 92.4867 22.0743 92.4867 21.4711C92.4867 21.0533 92.3938 20.6823 92.2082 20.3574C92.0225 20.0324 91.7594 19.7771 91.4193 19.5914C91.0944 19.4057 90.6921 19.3129 90.2127 19.3129H87.1728V23.629ZM89.911 16.5518H87.1728V12.9088H89.911C90.5141 12.9088 91.0015 13.0635 91.3729 13.373C91.7439 13.6666 91.9296 14.1154 91.9296 14.7185C91.9296 15.3375 91.7439 15.8017 91.3729 16.1112C91.0015 16.4048 90.5141 16.5518 89.911 16.5518Z" fill="#BCBFDB"/>
<path fill-rule="evenodd" clip-rule="evenodd" d="M86.8397 26.4601C86.815 26.4601 86.7906 26.4581 86.7666 26.4547C86.7424 26.4582 86.7179 26.46 86.6935 26.4601H84.0555C83.9284 26.4601 83.8064 26.4096 83.7166 26.3197C83.6267 26.2298 83.5762 26.1079 83.5762 25.9808V10.5567C83.5762 10.2925 83.7905 10.0778 84.0555 10.0778H86.6935C86.7182 10.0778 86.743 10.0797 86.7666 10.0832C86.7908 10.0795 86.8152 10.0777 86.8397 10.0778H90.6069C91.6588 10.0778 92.5486 10.2712 93.2755 10.658C94.0183 11.0449 94.5827 11.5629 94.9695 12.2124C95.356 12.8624 95.5495 13.5819 95.5495 14.3707C95.5495 15.3762 95.2249 16.2269 94.575 16.9228C94.2953 17.223 93.9579 17.4826 93.5629 17.702C94.1165 17.9736 94.5854 18.3171 94.9695 18.733C95.7274 19.5376 96.1065 20.5276 96.1065 21.7033C96.1065 22.6004 95.8821 23.4124 95.4334 24.1397C95.0005 24.8511 94.366 25.4159 93.5308 25.8334C92.7111 26.2512 91.7207 26.4601 90.5605 26.4601H86.8397ZM87.1728 23.629H90.2127C90.9242 23.629 91.4812 23.4201 91.8832 23.0027C92.2855 22.5849 92.4867 22.0743 92.4867 21.4711C92.4867 21.0533 92.3938 20.6823 92.2082 20.3574C92.0225 20.0324 91.7594 19.7771 91.4193 19.5914C91.0944 19.4057 90.6921 19.3129 90.2127 19.3129H87.1728V23.629ZM89.911 16.5518H87.1728V12.9088H89.911C90.5141 12.9088 91.0015 13.0635 91.3729 13.373C91.7439 13.6666 91.9296 14.1154 91.9296 14.7185C91.9296 15.3375 91.7439 15.8017 91.3729 16.1112C91.0015 16.4048 90.5141 16.5518 89.911 16.5518Z" fill="black" fill-opacity="0.8"/>
<path fill-rule="evenodd" clip-rule="evenodd" d="M86.8397 26.4601C86.815 26.4601 86.7906 26.4581 86.7666 26.4547C86.7424 26.4582 86.7179 26.46 86.6935 26.4601H84.0555C83.9284 26.4601 83.8064 26.4096 83.7166 26.3197C83.6267 26.2298 83.5762 26.1079 83.5762 25.9808V10.5567C83.5762 10.2925 83.7905 10.0778 84.0555 10.0778H86.6935C86.7182 10.0778 86.743 10.0797 86.7666 10.0832C86.7908 10.0795 86.8152 10.0777 86.8397 10.0778H90.6069C91.6588 10.0778 92.5486 10.2712 93.2755 10.658C94.0183 11.0449 94.5827 11.5629 94.9695 12.2124C95.356 12.8624 95.5495 13.5819 95.5495 14.3707C95.5495 15.3762 95.2249 16.2269 94.575 16.9228C94.2953 17.223 93.9579 17.4826 93.5629 17.702C94.1165 17.9736 94.5854 18.3171 94.9695 18.733C95.7274 19.5376 96.1065 20.5276 96.1065 21.7033C96.1065 22.6004 95.8821 23.4124 95.4334 24.1397C95.0005 24.8511 94.366 25.4159 93.5308 25.8334C92.7111 26.2512 91.7207 26.4601 90.5605 26.4601H86.8397ZM87.1728 23.629H90.2127C90.9242 23.629 91.4812 23.4201 91.8832 23.0027C92.2855 22.5849 92.4867 22.0743 92.4867 21.4711C92.4867 21.0533 92.3938 20.6823 92.2082 20.3574C92.0225 20.0324 91.7594 19.7771 91.4193 19.5914C91.0944 19.4057 90.6921 19.3129 90.2127 19.3129H87.1728V23.629ZM89.911 16.5518H87.1728V12.9088H89.911C90.5141 12.9088 91.0015 13.0635 91.3729 13.373C91.7439 13.6666 91.9296 14.1154 91.9296 14.7185C91.9296 15.3375 91.7439 15.8017 91.3729 16.1112C91.0015 16.4048 90.5141 16.5518 89.911 16.5518Z" fill="#BCBFDB"/>
<path fill-rule="evenodd" clip-rule="evenodd" d="M86.8397 26.4601C86.815 26.4601 86.7906 26.4581 86.7666 26.4547C86.7424 26.4582 86.7179 26.46 86.6935 26.4601H84.0555C83.9284 26.4601 83.8064 26.4096 83.7166 26.3197C83.6267 26.2298 83.5762 26.1079 83.5762 25.9808V10.5567C83.5762 10.2925 83.7905 10.0778 84.0555 10.0778H86.6935C86.7182 10.0778 86.743 10.0797 86.7666 10.0832C86.7908 10.0795 86.8152 10.0777 86.8397 10.0778H90.6069C91.6588 10.0778 92.5486 10.2712 93.2755 10.658C94.0183 11.0449 94.5827 11.5629 94.9695 12.2124C95.356 12.8624 95.5495 13.5819 95.5495 14.3707C95.5495 15.3762 95.2249 16.2269 94.575 16.9228C94.2953 17.223 93.9579 17.4826 93.5629 17.702C94.1165 17.9736 94.5854 18.3171 94.9695 18.733C95.7274 19.5376 96.1065 20.5276 96.1065 21.7033C96.1065 22.6004 95.8821 23.4124 95.4334 24.1397C95.0005 24.8511 94.366 25.4159 93.5308 25.8334C92.7111 26.2512 91.7207 26.4601 90.5605 26.4601H86.8397ZM87.1728 23.629H90.2127C90.9242 23.629 91.4812 23.4201 91.8832 23.0027C92.2855 22.5849 92.4867 22.0743 92.4867 21.4711C92.4867 21.0533 92.3938 20.6823 92.2082 20.3574C92.0225 20.0324 91.7594 19.7771 91.4193 19.5914C91.0944 19.4057 90.6921 19.3129 90.2127 19.3129H87.1728V23.629ZM89.911 16.5518H87.1728V12.9088H89.911C90.5141 12.9088 91.0015 13.0635 91.3729 13.373C91.7439 13.6666 91.9296 14.1154 91.9296 14.7185C91.9296 15.3375 91.7439 15.8017 91.3729 16.1112C91.0015 16.4048 90.5141 16.5518 89.911 16.5518Z" fill="black" fill-opacity="0.8"/>
<path d="M97.2812 25.9808C97.2813 26.1079 97.332 26.2297 97.4218 26.3196C97.5117 26.4095 97.6336 26.46 97.7607 26.4601H100.445C100.462 26.4601 100.479 26.4593 100.495 26.4574C100.511 26.4593 100.528 26.4601 100.545 26.4601H108.567C108.832 26.4601 109.046 26.2454 109.046 25.9808V23.7834C109.046 23.5188 108.832 23.3041 108.567 23.3041H100.925V19.6146H107.755C107.882 19.6145 108.004 19.564 108.093 19.4741C108.183 19.3843 108.234 19.2624 108.234 19.1353V17.054C108.234 16.927 108.183 16.8052 108.093 16.7155C108.003 16.6257 107.882 16.5752 107.755 16.5751H100.925V13.2102H108.451C108.716 13.2102 108.93 12.9959 108.93 12.7309V10.5571C108.93 10.2929 108.716 10.0782 108.451 10.0782H100.545C100.528 10.0782 100.511 10.079 100.495 10.0809C100.479 10.0791 100.462 10.0782 100.445 10.0782H97.7607C97.6336 10.0783 97.5117 10.1288 97.4218 10.2187C97.332 10.3086 97.2813 10.4304 97.2812 10.5575V25.9808Z" fill="#BCBFDB"/>
<path d="M97.2812 25.9808C97.2813 26.1079 97.332 26.2297 97.4218 26.3196C97.5117 26.4095 97.6336 26.46 97.7607 26.4601H100.445C100.462 26.4601 100.479 26.4593 100.495 26.4574C100.511 26.4593 100.528 26.4601 100.545 26.4601H108.567C108.832 26.4601 109.046 26.2454 109.046 25.9808V23.7834C109.046 23.5188 108.832 23.3041 108.567 23.3041H100.925V19.6146H107.755C107.882 19.6145 108.004 19.564 108.093 19.4741C108.183 19.3843 108.234 19.2624 108.234 19.1353V17.054C108.234 16.927 108.183 16.8052 108.093 16.7155C108.003 16.6257 107.882 16.5752 107.755 16.5751H100.925V13.2102H108.451C108.716 13.2102 108.93 12.9959 108.93 12.7309V10.5571C108.93 10.2929 108.716 10.0782 108.451 10.0782H100.545C100.528 10.0782 100.511 10.079 100.495 10.0809C100.479 10.0791 100.462 10.0782 100.445 10.0782H97.7607C97.6336 10.0783 97.5117 10.1288 97.4218 10.2187C97.332 10.3086 97.2813 10.4304 97.2812 10.5575V25.9808Z" fill="black" fill-opacity="0.8"/>
<path d="M97.2812 25.9808C97.2813 26.1079 97.332 26.2297 97.4218 26.3196C97.5117 26.4095 97.6336 26.46 97.7607 26.4601H100.445C100.462 26.4601 100.479 26.4593 100.495 26.4574C100.511 26.4593 100.528 26.4601 100.545 26.4601H108.567C108.832 26.4601 109.046 26.2454 109.046 25.9808V23.7834C109.046 23.5188 108.832 23.3041 108.567 23.3041H100.925V19.6146H107.755C107.882 19.6145 108.004 19.564 108.093 19.4741C108.183 19.3843 108.234 19.2624 108.234 19.1353V17.054C108.234 16.927 108.183 16.8052 108.093 16.7155C108.003 16.6257 107.882 16.5752 107.755 16.5751H100.925V13.2102H108.451C108.716 13.2102 108.93 12.9959 108.93 12.7309V10.5571C108.93 10.2929 108.716 10.0782 108.451 10.0782H100.545C100.528 10.0782 100.511 10.079 100.495 10.0809C100.479 10.0791 100.462 10.0782 100.445 10.0782H97.7607C97.6336 10.0783 97.5117 10.1288 97.4218 10.2187C97.332 10.3086 97.2813 10.4304 97.2812 10.5575V25.9808Z" fill="#BCBFDB"/>
<path d="M97.2812 25.9808C97.2813 26.1079 97.332 26.2297 97.4218 26.3196C97.5117 26.4095 97.6336 26.46 97.7607 26.4601H100.445C100.462 26.4601 100.479 26.4593 100.495 26.4574C100.511 26.4593 100.528 26.4601 100.545 26.4601H108.567C108.832 26.4601 109.046 26.2454 109.046 25.9808V23.7834C109.046 23.5188 108.832 23.3041 108.567 23.3041H100.925V19.6146H107.755C107.882 19.6145 108.004 19.564 108.093 19.4741C108.183 19.3843 108.234 19.2624 108.234 19.1353V17.054C108.234 16.927 108.183 16.8052 108.093 16.7155C108.003 16.6257 107.882 16.5752 107.755 16.5751H100.925V13.2102H108.451C108.716 13.2102 108.93 12.9959 108.93 12.7309V10.5571C108.93 10.2929 108.716 10.0782 108.451 10.0782H100.545C100.528 10.0782 100.511 10.079 100.495 10.0809C100.479 10.0791 100.462 10.0782 100.445 10.0782H97.7607C97.6336 10.0783 97.5117 10.1288 97.4218 10.2187C97.332 10.3086 97.2813 10.4304 97.2812 10.5575V25.9808Z" fill="black" fill-opacity="0.8"/>
<path fill-rule="evenodd" clip-rule="evenodd" d="M114.04 25.9808V19.7075H114.519C114.522 19.7972 114.551 19.8878 114.61 19.9682L119.164 26.2616C119.254 26.3862 119.399 26.4601 119.553 26.4601H122.655C123.051 26.4601 123.277 26.0052 123.036 25.6899L118.376 19.5895C118.933 19.4905 119.445 19.3287 119.911 19.1044C120.747 18.702 121.396 18.145 121.86 17.4335C122.325 16.7062 122.557 15.8633 122.557 14.9042C122.557 13.9603 122.325 13.1251 121.86 12.3982C121.396 11.6709 120.754 11.1064 119.935 10.7041C119.114 10.2863 118.163 10.0774 117.08 10.0774H113.661C113.644 10.0774 113.628 10.0786 113.611 10.0801C113.595 10.0785 113.578 10.0777 113.561 10.0778H110.877C110.75 10.0779 110.628 10.1284 110.538 10.2183C110.448 10.3082 110.397 10.43 110.397 10.5571V25.9808C110.397 26.1079 110.448 26.2297 110.538 26.3196C110.628 26.4095 110.75 26.46 110.877 26.4601H113.561C113.826 26.4601 114.04 26.2454 114.04 25.9808ZM116.639 17.0157H114.04V12.9092H116.662C117.39 12.9092 117.946 13.1026 118.333 13.4895C118.72 13.876 118.913 14.3634 118.913 14.9511C118.913 15.5855 118.712 16.0884 118.31 16.4594C117.923 16.8308 117.367 17.0157 116.639 17.0157Z" fill="#BCBFDB"/>
<path fill-rule="evenodd" clip-rule="evenodd" d="M114.04 25.9808V19.7075H114.519C114.522 19.7972 114.551 19.8878 114.61 19.9682L119.164 26.2616C119.254 26.3862 119.399 26.4601 119.553 26.4601H122.655C123.051 26.4601 123.277 26.0052 123.036 25.6899L118.376 19.5895C118.933 19.4905 119.445 19.3287 119.911 19.1044C120.747 18.702 121.396 18.145 121.86 17.4335C122.325 16.7062 122.557 15.8633 122.557 14.9042C122.557 13.9603 122.325 13.1251 121.86 12.3982C121.396 11.6709 120.754 11.1064 119.935 10.7041C119.114 10.2863 118.163 10.0774 117.08 10.0774H113.661C113.644 10.0774 113.628 10.0786 113.611 10.0801C113.595 10.0785 113.578 10.0777 113.561 10.0778H110.877C110.75 10.0779 110.628 10.1284 110.538 10.2183C110.448 10.3082 110.397 10.43 110.397 10.5571V25.9808C110.397 26.1079 110.448 26.2297 110.538 26.3196C110.628 26.4095 110.75 26.46 110.877 26.4601H113.561C113.826 26.4601 114.04 26.2454 114.04 25.9808ZM116.639 17.0157H114.04V12.9092H116.662C117.39 12.9092 117.946 13.1026 118.333 13.4895C118.72 13.876 118.913 14.3634 118.913 14.9511C118.913 15.5855 118.712 16.0884 118.31 16.4594C117.923 16.8308 117.367 17.0157 116.639 17.0157Z" fill="black" fill-opacity="0.8"/>
<path fill-rule="evenodd" clip-rule="evenodd" d="M114.04 25.9808V19.7075H114.519C114.522 19.7972 114.551 19.8878 114.61 19.9682L119.164 26.2616C119.254 26.3862 119.399 26.4601 119.553 26.4601H122.655C123.051 26.4601 123.277 26.0052 123.036 25.6899L118.376 19.5895C118.933 19.4905 119.445 19.3287 119.911 19.1044C120.747 18.702 121.396 18.145 121.86 17.4335C122.325 16.7062 122.557 15.8633 122.557 14.9042C122.557 13.9603 122.325 13.1251 121.86 12.3982C121.396 11.6709 120.754 11.1064 119.935 10.7041C119.114 10.2863 118.163 10.0774 117.08 10.0774H113.661C113.644 10.0774 113.628 10.0786 113.611 10.0801C113.595 10.0785 113.578 10.0777 113.561 10.0778H110.877C110.75 10.0779 110.628 10.1284 110.538 10.2183C110.448 10.3082 110.397 10.43 110.397 10.5571V25.9808C110.397 26.1079 110.448 26.2297 110.538 26.3196C110.628 26.4095 110.75 26.46 110.877 26.4601H113.561C113.826 26.4601 114.04 26.2454 114.04 25.9808ZM116.639 17.0157H114.04V12.9092H116.662C117.39 12.9092 117.946 13.1026 118.333 13.4895C118.72 13.876 118.913 14.3634 118.913 14.9511C118.913 15.5855 118.712 16.0884 118.31 16.4594C117.923 16.8308 117.367 17.0157 116.639 17.0157Z" fill="#BCBFDB"/>
<path fill-rule="evenodd" clip-rule="evenodd" d="M114.04 25.9808V19.7075H114.519C114.522 19.7972 114.551 19.8878 114.61 19.9682L119.164 26.2616C119.254 26.3862 119.399 26.4601 119.553 26.4601H122.655C123.051 26.4601 123.277 26.0052 123.036 25.6899L118.376 19.5895C118.933 19.4905 119.445 19.3287 119.911 19.1044C120.747 18.702 121.396 18.145 121.86 17.4335C122.325 16.7062 122.557 15.8633 122.557 14.9042C122.557 13.9603 122.325 13.1251 121.86 12.3982C121.396 11.6709 120.754 11.1064 119.935 10.7041C119.114 10.2863 118.163 10.0774 117.08 10.0774H113.661C113.644 10.0774 113.628 10.0786 113.611 10.0801C113.595 10.0785 113.578 10.0777 113.561 10.0778H110.877C110.75 10.0779 110.628 10.1284 110.538 10.2183C110.448 10.3082 110.397 10.43 110.397 10.5571V25.9808C110.397 26.1079 110.448 26.2297 110.538 26.3196C110.628 26.4095 110.75 26.46 110.877 26.4601H113.561C113.826 26.4601 114.04 26.2454 114.04 25.9808ZM116.639 17.0157H114.04V12.9092H116.662C117.39 12.9092 117.946 13.1026 118.333 13.4895C118.72 13.876 118.913 14.3634 118.913 14.9511C118.913 15.5855 118.712 16.0884 118.31 16.4594C117.923 16.8308 117.367 17.0157 116.639 17.0157Z" fill="black" fill-opacity="0.8"/>
<path d="M128.352 26.0932C129.404 26.5265 130.525 26.7431 131.716 26.7431C133.341 26.7431 134.772 26.4027 136.009 25.7222C137.262 25.0413 138.237 24.0359 138.933 22.7055C139.644 21.3596 140 19.7042 140 17.7398V17.6856C140 17.4206 139.786 17.2059 139.521 17.2059H131.871C131.743 17.206 131.621 17.2566 131.532 17.3465C131.442 17.4365 131.391 17.5584 131.391 17.6856V19.8203C131.391 19.946 131.441 20.0667 131.529 20.1564C131.617 20.246 131.737 20.2975 131.863 20.2996L136.098 20.3669C136.008 20.7077 135.885 21.0234 135.731 21.3132C135.375 21.994 134.856 22.5198 134.176 22.8912C133.51 23.2471 132.698 23.4246 131.739 23.4246C130.796 23.4246 129.96 23.2084 129.233 22.7751C128.506 22.3418 127.934 21.7387 127.516 20.965C127.099 20.1917 126.89 19.2945 126.89 18.2732C126.89 17.2523 127.099 16.3629 127.516 15.6051C127.949 14.8313 128.545 14.2356 129.303 13.8178C130.061 13.3849 130.92 13.1686 131.879 13.1686C132.776 13.1686 133.58 13.3388 134.292 13.6793C134.851 13.9462 135.352 14.318 135.796 14.795C135.993 15.0066 136.329 15.0294 136.533 14.8252L138.319 13.039C138.495 12.863 138.509 12.5798 138.337 12.3996C137.63 11.6568 136.769 11.0626 135.754 10.6161C134.609 10.1055 133.333 9.85015 131.925 9.85015C130.703 9.85015 129.558 10.0668 128.491 10.5001C127.423 10.9179 126.487 11.5133 125.683 12.2866C124.894 13.0447 124.263 13.9517 123.827 14.9551C123.378 15.9765 123.154 17.0821 123.154 18.2732C123.154 19.4648 123.37 20.5785 123.803 21.6149C124.241 22.619 124.862 23.5321 125.637 24.3067C126.41 25.0645 127.315 25.6603 128.352 26.0932ZM2.05229 4.2701C2.38419e-07 6.87985 0 10.6997 0 18.3402C0 25.9802 2.38419e-07 29.8001 2.05229 32.4102C2.52334 33.0092 3.06412 33.5498 3.66317 34.0207C3.89165 34.2005 4.1312 34.3657 4.3804 34.5155L14.4836 12.21C14.6954 11.7427 15.0759 11.3726 15.5489 11.1739C16.022 10.9752 16.5526 10.9625 17.0346 11.1384L23.4549 13.482C23.754 13.5911 24.0233 13.769 24.2411 14.0012C24.459 14.2334 24.6192 14.5135 24.7091 14.819L30.5889 34.7875C31.0186 34.574 31.4252 34.3171 31.8025 34.0207C32.4016 33.5498 32.9424 33.0092 33.4134 32.4102C35.4657 29.8001 35.4657 25.9802 35.4657 18.3402C35.4657 10.6997 35.4657 6.87985 33.4134 4.2701C32.9423 3.67118 32.4016 3.13054 31.8025 2.65961C29.1928 0.606933 25.3725 0.606934 17.7325 0.606934C10.0928 0.606934 6.27253 0.606933 3.66239 2.65961C3.06351 3.13058 2.52326 3.67122 2.05229 4.2701Z" fill="#BCBFDB"/>
<path d="M128.352 26.0932C129.404 26.5265 130.525 26.7431 131.716 26.7431C133.341 26.7431 134.772 26.4027 136.009 25.7222C137.262 25.0413 138.237 24.0359 138.933 22.7055C139.644 21.3596 140 19.7042 140 17.7398V17.6856C140 17.4206 139.786 17.2059 139.521 17.2059H131.871C131.743 17.206 131.621 17.2566 131.532 17.3465C131.442 17.4365 131.391 17.5584 131.391 17.6856V19.8203C131.391 19.946 131.441 20.0667 131.529 20.1564C131.617 20.246 131.737 20.2975 131.863 20.2996L136.098 20.3669C136.008 20.7077 135.885 21.0234 135.731 21.3132C135.375 21.994 134.856 22.5198 134.176 22.8912C133.51 23.2471 132.698 23.4246 131.739 23.4246C130.796 23.4246 129.96 23.2084 129.233 22.7751C128.506 22.3418 127.934 21.7387 127.516 20.965C127.099 20.1917 126.89 19.2945 126.89 18.2732C126.89 17.2523 127.099 16.3629 127.516 15.6051C127.949 14.8313 128.545 14.2356 129.303 13.8178C130.061 13.3849 130.92 13.1686 131.879 13.1686C132.776 13.1686 133.58 13.3388 134.292 13.6793C134.851 13.9462 135.352 14.318 135.796 14.795C135.993 15.0066 136.329 15.0294 136.533 14.8252L138.319 13.039C138.495 12.863 138.509 12.5798 138.337 12.3996C137.63 11.6568 136.769 11.0626 135.754 10.6161C134.609 10.1055 133.333 9.85015 131.925 9.85015C130.703 9.85015 129.558 10.0668 128.491 10.5001C127.423 10.9179 126.487 11.5133 125.683 12.2866C124.894 13.0447 124.263 13.9517 123.827 14.9551C123.378 15.9765 123.154 17.0821 123.154 18.2732C123.154 19.4648 123.37 20.5785 123.803 21.6149C124.241 22.619 124.862 23.5321 125.637 24.3067C126.41 25.0645 127.315 25.6603 128.352 26.0932ZM2.05229 4.2701C2.38419e-07 6.87985 0 10.6997 0 18.3402C0 25.9802 2.38419e-07 29.8001 2.05229 32.4102C2.52334 33.0092 3.06412 33.5498 3.66317 34.0207C3.89165 34.2005 4.1312 34.3657 4.3804 34.5155L14.4836 12.21C14.6954 11.7427 15.0759 11.3726 15.5489 11.1739C16.022 10.9752 16.5526 10.9625 17.0346 11.1384L23.4549 13.482C23.754 13.5911 24.0233 13.769 24.2411 14.0012C24.459 14.2334 24.6192 14.5135 24.7091 14.819L30.5889 34.7875C31.0186 34.574 31.4252 34.3171 31.8025 34.0207C32.4016 33.5498 32.9424 33.0092 33.4134 32.4102C35.4657 29.8001 35.4657 25.9802 35.4657 18.3402C35.4657 10.6997 35.4657 6.87985 33.4134 4.2701C32.9423 3.67118 32.4016 3.13054 31.8025 2.65961C29.1928 0.606933 25.3725 0.606934 17.7325 0.606934C10.0928 0.606934 6.27253 0.606933 3.66239 2.65961C3.06351 3.13058 2.52326 3.67122 2.05229 4.2701Z" fill="black" fill-opacity="0.8"/>
<path d="M128.352 26.0932C129.404 26.5265 130.525 26.7431 131.716 26.7431C133.341 26.7431 134.772 26.4027 136.009 25.7222C137.262 25.0413 138.237 24.0359 138.933 22.7055C139.644 21.3596 140 19.7042 140 17.7398V17.6856C140 17.4206 139.786 17.2059 139.521 17.2059H131.871C131.743 17.206 131.621 17.2566 131.532 17.3465C131.442 17.4365 131.391 17.5584 131.391 17.6856V19.8203C131.391 19.946 131.441 20.0667 131.529 20.1564C131.617 20.246 131.737 20.2975 131.863 20.2996L136.098 20.3669C136.008 20.7077 135.885 21.0234 135.731 21.3132C135.375 21.994 134.856 22.5198 134.176 22.8912C133.51 23.2471 132.698 23.4246 131.739 23.4246C130.796 23.4246 129.96 23.2084 129.233 22.7751C128.506 22.3418 127.934 21.7387 127.516 20.965C127.099 20.1917 126.89 19.2945 126.89 18.2732C126.89 17.2523 127.099 16.3629 127.516 15.6051C127.949 14.8313 128.545 14.2356 129.303 13.8178C130.061 13.3849 130.92 13.1686 131.879 13.1686C132.776 13.1686 133.58 13.3388 134.292 13.6793C134.851 13.9462 135.352 14.318 135.796 14.795C135.993 15.0066 136.329 15.0294 136.533 14.8252L138.319 13.039C138.495 12.863 138.509 12.5798 138.337 12.3996C137.63 11.6568 136.769 11.0626 135.754 10.6161C134.609 10.1055 133.333 9.85015 131.925 9.85015C130.703 9.85015 129.558 10.0668 128.491 10.5001C127.423 10.9179 126.487 11.5133 125.683 12.2866C124.894 13.0447 124.263 13.9517 123.827 14.9551C123.378 15.9765 123.154 17.0821 123.154 18.2732C123.154 19.4648 123.37 20.5785 123.803 21.6149C124.241 22.619 124.862 23.5321 125.637 24.3067C126.41 25.0645 127.315 25.6603 128.352 26.0932ZM2.05229 4.2701C2.38419e-07 6.87985 0 10.6997 0 18.3402C0 25.9802 2.38419e-07 29.8001 2.05229 32.4102C2.52334 33.0092 3.06412 33.5498 3.66317 34.0207C3.89165 34.2005 4.1312 34.3657 4.3804 34.5155L14.4836 12.21C14.6954 11.7427 15.0759 11.3726 15.5489 11.1739C16.022 10.9752 16.5526 10.9625 17.0346 11.1384L23.4549 13.482C23.754 13.5911 24.0233 13.769 24.2411 14.0012C24.459 14.2334 24.6192 14.5135 24.7091 14.819L30.5889 34.7875C31.0186 34.574 31.4252 34.3171 31.8025 34.0207C32.4016 33.5498 32.9424 33.0092 33.4134 32.4102C35.4657 29.8001 35.4657 25.9802 35.4657 18.3402C35.4657 10.6997 35.4657 6.87985 33.4134 4.2701C32.9423 3.67118 32.4016 3.13054 31.8025 2.65961C29.1928 0.606933 25.3725 0.606934 17.7325 0.606934C10.0928 0.606934 6.27253 0.606933 3.66239 2.65961C3.06351 3.13058 2.52326 3.67122 2.05229 4.2701Z" fill="#BCBFDB"/>
<path d="M128.352 26.0932C129.404 26.5265 130.525 26.7431 131.716 26.7431C133.341 26.7431 134.772 26.4027 136.009 25.7222C137.262 25.0413 138.237 24.0359 138.933 22.7055C139.644 21.3596 140 19.7042 140 17.7398V17.6856C140 17.4206 139.786 17.2059 139.521 17.2059H131.871C131.743 17.206 131.621 17.2566 131.532 17.3465C131.442 17.4365 131.391 17.5584 131.391 17.6856V19.8203C131.391 19.946 131.441 20.0667 131.529 20.1564C131.617 20.246 131.737 20.2975 131.863 20.2996L136.098 20.3669C136.008 20.7077 135.885 21.0234 135.731 21.3132C135.375 21.994 134.856 22.5198 134.176 22.8912C133.51 23.2471 132.698 23.4246 131.739 23.4246C130.796 23.4246 129.96 23.2084 129.233 22.7751C128.506 22.3418 127.934 21.7387 127.516 20.965C127.099 20.1917 126.89 19.2945 126.89 18.2732C126.89 17.2523 127.099 16.3629 127.516 15.6051C127.949 14.8313 128.545 14.2356 129.303 13.8178C130.061 13.3849 130.92 13.1686 131.879 13.1686C132.776 13.1686 133.58 13.3388 134.292 13.6793C134.851 13.9462 135.352 14.318 135.796 14.795C135.993 15.0066 136.329 15.0294 136.533 14.8252L138.319 13.039C138.495 12.863 138.509 12.5798 138.337 12.3996C137.63 11.6568 136.769 11.0626 135.754 10.6161C134.609 10.1055 133.333 9.85015 131.925 9.85015C130.703 9.85015 129.558 10.0668 128.491 10.5001C127.423 10.9179 126.487 11.5133 125.683 12.2866C124.894 13.0447 124.263 13.9517 123.827 14.9551C123.378 15.9765 123.154 17.0821 123.154 18.2732C123.154 19.4648 123.37 20.5785 123.803 21.6149C124.241 22.619 124.862 23.5321 125.637 24.3067C126.41 25.0645 127.315 25.6603 128.352 26.0932ZM2.05229 4.2701C2.38419e-07 6.87985 0 10.6997 0 18.3402C0 25.9802 2.38419e-07 29.8001 2.05229 32.4102C2.52334 33.0092 3.06412 33.5498 3.66317 34.0207C3.89165 34.2005 4.1312 34.3657 4.3804 34.5155L14.4836 12.21C14.6954 11.7427 15.0759 11.3726 15.5489 11.1739C16.022 10.9752 16.5526 10.9625 17.0346 11.1384L23.4549 13.482C23.754 13.5911 24.0233 13.769 24.2411 14.0012C24.459 14.2334 24.6192 14.5135 24.7091 14.819L30.5889 34.7875C31.0186 34.574 31.4252 34.3171 31.8025 34.0207C32.4016 33.5498 32.9424 33.0092 33.4134 32.4102C35.4657 29.8001 35.4657 25.9802 35.4657 18.3402C35.4657 10.6997 35.4657 6.87985 33.4134 4.2701C32.9423 3.67118 32.4016 3.13054 31.8025 2.65961C29.1928 0.606933 25.3725 0.606934 17.7325 0.606934C10.0928 0.606934 6.27253 0.606933 3.66239 2.65961C3.06351 3.13058 2.52326 3.67122 2.05229 4.2701Z" fill="black" fill-opacity="0.8"/>
<path d="M2.05229 4.2701C2.38419e-07 6.87985 0 10.6997 0 18.3402C0 25.9802 2.38419e-07 29.8001 2.05229 32.4102C2.52334 33.0092 3.06412 33.5498 3.66317 34.0207C3.89165 34.2005 4.1312 34.3657 4.3804 34.5155L14.4836 12.21C14.6954 11.7427 15.0759 11.3726 15.5489 11.1739C16.022 10.9752 16.5526 10.9625 17.0346 11.1384L23.4549 13.482C23.754 13.5911 24.0233 13.769 24.2411 14.0012C24.459 14.2334 24.6192 14.5135 24.7091 14.819L30.5889 34.7875C31.0186 34.574 31.4252 34.3171 31.8025 34.0207C32.4016 33.5498 32.9424 33.0092 33.4134 32.4102C35.4657 29.8001 35.4657 25.9802 35.4657 18.3402C35.4657 10.6997 35.4657 6.87985 33.4134 4.2701C32.9423 3.67118 32.4016 3.13054 31.8025 2.65961C29.1928 0.606933 25.3725 0.606934 17.7325 0.606934C10.0928 0.606934 6.27253 0.606933 3.66239 2.65961C3.06351 3.13058 2.52326 3.67122 2.05229 4.2701Z" fill="#BCBFDB"/>
<path d="M2.05229 4.2701C2.38419e-07 6.87985 0 10.6997 0 18.3402C0 25.9802 2.38419e-07 29.8001 2.05229 32.4102C2.52334 33.0092 3.06412 33.5498 3.66317 34.0207C3.89165 34.2005 4.1312 34.3657 4.3804 34.5155L14.4836 12.21C14.6954 11.7427 15.0759 11.3726 15.5489 11.1739C16.022 10.9752 16.5526 10.9625 17.0346 11.1384L23.4549 13.482C23.754 13.5911 24.0233 13.769 24.2411 14.0012C24.459 14.2334 24.6192 14.5135 24.7091 14.819L30.5889 34.7875C31.0186 34.574 31.4252 34.3171 31.8025 34.0207C32.4016 33.5498 32.9424 33.0092 33.4134 32.4102C35.4657 29.8001 35.4657 25.9802 35.4657 18.3402C35.4657 10.6997 35.4657 6.87985 33.4134 4.2701C32.9423 3.67118 32.4016 3.13054 31.8025 2.65961C29.1928 0.606933 25.3725 0.606934 17.7325 0.606934C10.0928 0.606934 6.27253 0.606933 3.66239 2.65961C3.06351 3.13058 2.52326 3.67122 2.05229 4.2701Z" fill="black" fill-opacity="0.8"/>
</g>
</g>
<defs>
<clipPath id="clip0_1_3">
<rect width="1440" height="9599" fill="white" transform="translate(-448 -1172)"/>
</clipPath>
<clipPath id="clip1_1_3">
<rect width="140" height="35" fill="white" transform="translate(0 0.5)"/>
</clipPath>
</defs>
</svg>
