<svg width="140" height="44" viewBox="0 0 140 44" fill="none" xmlns="http://www.w3.org/2000/svg">
<g clip-path="url(#clip0_1850_7664)">
<path d="M34.8395 36.884C35.0202 40.512 31.6064 43.6304 27.2148 43.8489C22.8226 44.068 19.1158 41.3043 18.9351 37.6762C18.7545 34.0476 22.1683 30.9292 26.5605 30.7107C30.9521 30.4922 34.6589 33.2559 34.8395 36.884ZM19.2263 29.5901C19.3239 31.5542 18.3199 33.2004 16.9832 33.2669C15.6465 33.3341 14.4837 31.7959 14.3855 29.8312C14.2878 27.8676 15.2919 26.2214 16.6286 26.1549C17.9653 26.0878 19.128 27.6253 19.2263 29.5901ZM25.2531 25.3297C25.3507 27.2933 24.3467 28.9394 23.01 29.006C21.6733 29.0731 20.5099 27.535 20.4122 25.5702C20.3146 23.606 21.3186 21.9599 22.6553 21.8933C23.9921 21.8268 25.1554 23.3655 25.2531 25.3297ZM31.4776 25.019C31.5753 26.9832 30.5712 28.6294 29.2345 28.6959C27.8978 28.763 26.735 27.2243 26.6374 25.2601C26.5397 23.2959 27.5438 21.6498 28.8805 21.5833C30.2172 21.5167 31.38 23.0542 31.4776 25.019ZM37.8981 28.6605C37.9957 30.6246 36.9917 32.2708 35.655 32.3373C34.3183 32.4045 33.1555 30.8664 33.0579 28.9016C32.9602 26.9374 33.9643 25.2919 35.301 25.2253C36.6377 25.1582 37.8004 26.6957 37.8981 28.6605ZM14.0919 20.1074C12.0258 23.0945 7.41871 23.4888 3.80227 20.9875C0.185226 18.4862 -1.07152 14.0367 0.994577 11.0489C3.06129 8.06115 7.66835 7.66746 11.2848 10.1681C14.9012 12.67 16.158 17.1196 14.0919 20.1074ZM6.15036 4.81337C5.03155 6.43085 3.2328 7.12423 2.13169 6.36371C1.0312 5.60197 1.04524 3.67381 2.16404 2.05634C3.28285 0.43886 5.08161 -0.255127 6.18271 0.506003C7.28321 1.26774 7.26917 3.1959 6.15036 4.81337ZM13.5242 5.1033C12.406 6.72078 10.6067 7.41477 9.50617 6.65364C8.40506 5.89251 8.41971 3.96435 9.53852 2.34687C10.6567 0.729397 12.4561 0.035407 13.5566 0.796537C14.6577 1.55767 14.643 3.48582 13.5242 5.1033ZM18.6507 8.64832C17.5319 10.2658 15.7332 10.9598 14.632 10.1987C13.5316 9.43692 13.5456 7.50876 14.6644 5.89128C15.7832 4.27381 17.582 3.57982 18.6831 4.34095C19.7836 5.10269 19.7695 7.03084 18.6507 8.64832ZM21.5255 15.4466C20.4067 17.0641 18.608 17.7581 17.5069 16.9969C16.4058 16.2352 16.4204 14.307 17.5392 12.6896C18.6574 11.0721 20.4568 10.3781 21.5573 11.1392C22.6584 11.901 22.6444 13.8291 21.5255 15.4466ZM49.8778 35.1127C48.145 34.2582 46.7295 33.1479 45.6315 31.7813C44.5328 30.3903 43.7155 28.9016 43.1784 27.3146C42.6657 25.7045 42.4093 24.1425 42.4093 22.6294V21.8237C42.4093 20.1641 42.6779 18.529 43.215 16.9182C43.7431 15.2989 44.5755 13.7953 45.6675 12.4882C46.7905 11.1704 48.1938 10.1211 49.8778 9.34048C51.5862 8.53479 53.5992 8.13195 55.918 8.13195C58.3344 8.13195 60.4695 8.58362 62.3244 9.48697C64.1793 10.3897 65.6558 11.6465 66.7545 13.2572C67.8769 14.8442 68.5361 16.7107 68.7309 18.8586H62.6907C62.5204 17.7843 62.1291 16.8694 61.5193 16.1125C60.909 15.3557 60.1161 14.7703 59.1401 14.3553C58.188 13.9402 57.1137 13.7333 55.918 13.7333C54.7223 13.7333 53.6609 13.9408 52.7331 14.3559C51.8279 14.7541 51.0264 15.3552 50.3905 16.1125C50.1273 16.4386 49.8921 16.7863 49.6874 17.152L49.6245 17.2655C49.4281 17.6288 49.2571 18.0053 49.113 18.3923C49.0605 18.5326 49.0105 18.6761 48.9628 18.8219C48.6448 19.8474 48.4861 20.9942 48.4861 22.2632C48.4861 23.5084 48.6448 24.6546 48.9628 25.7045C49.0001 25.8162 49.0391 25.9266 49.0794 26.0359L49.1423 26.1976C49.4542 26.9977 49.8874 27.745 50.4265 28.4133C51.0857 29.1701 51.8914 29.7555 52.843 30.1705C53.7951 30.5612 54.881 30.7565 56.1011 30.7565C57.956 30.7565 59.5179 30.3048 60.7875 29.4015C62.0809 28.4981 62.8616 27.2542 63.1301 25.6678H69.1343C68.9232 27.596 68.2443 29.4434 67.1567 31.0495C66.0837 32.6596 64.6066 33.953 62.7273 34.9296C60.8724 35.8818 58.6634 36.3578 56.1011 36.3578C53.6853 36.3578 51.6106 35.9428 49.8778 35.1127ZM71.2132 35.662V8.93764H77.1076V35.662H71.2132ZM82.3763 34.0513C83.6208 35.5399 85.4025 36.284 87.7213 36.284H87.9776C89.4907 36.284 91.0813 36.3206 92.1061 35.6614C92.8123 35.2085 93.7871 34.5688 94.4933 33.7766V35.662H99.1431V15.6004H93.286V27.3885C93.286 28.5109 92.9564 29.4015 92.2972 30.0607C91.6386 30.7199 90.7841 31.0495 89.7349 31.0495C88.7094 31.0495 87.8922 30.7321 87.2818 30.0973C86.672 29.4625 86.3669 28.6086 86.3669 27.5343V15.6004H80.5091V27.242C80.5091 30.2682 81.1317 32.5382 82.3763 34.0513Z" fill="#BCBFDB"/>
<path d="M34.8395 36.884C35.0202 40.512 31.6064 43.6304 27.2148 43.8489C22.8226 44.068 19.1158 41.3043 18.9351 37.6762C18.7545 34.0476 22.1683 30.9292 26.5605 30.7107C30.9521 30.4922 34.6589 33.2559 34.8395 36.884ZM19.2263 29.5901C19.3239 31.5542 18.3199 33.2004 16.9832 33.2669C15.6465 33.3341 14.4837 31.7959 14.3855 29.8312C14.2878 27.8676 15.2919 26.2214 16.6286 26.1549C17.9653 26.0878 19.128 27.6253 19.2263 29.5901ZM25.2531 25.3297C25.3507 27.2933 24.3467 28.9394 23.01 29.006C21.6733 29.0731 20.5099 27.535 20.4122 25.5702C20.3146 23.606 21.3186 21.9599 22.6553 21.8933C23.9921 21.8268 25.1554 23.3655 25.2531 25.3297ZM31.4776 25.019C31.5753 26.9832 30.5712 28.6294 29.2345 28.6959C27.8978 28.763 26.735 27.2243 26.6374 25.2601C26.5397 23.2959 27.5438 21.6498 28.8805 21.5833C30.2172 21.5167 31.38 23.0542 31.4776 25.019ZM37.8981 28.6605C37.9957 30.6246 36.9917 32.2708 35.655 32.3373C34.3183 32.4045 33.1555 30.8664 33.0579 28.9016C32.9602 26.9374 33.9643 25.2919 35.301 25.2253C36.6377 25.1582 37.8004 26.6957 37.8981 28.6605ZM14.0919 20.1074C12.0258 23.0945 7.41871 23.4888 3.80227 20.9875C0.185226 18.4862 -1.07152 14.0367 0.994577 11.0489C3.06129 8.06115 7.66835 7.66746 11.2848 10.1681C14.9012 12.67 16.158 17.1196 14.0919 20.1074ZM6.15036 4.81337C5.03155 6.43085 3.2328 7.12423 2.13169 6.36371C1.0312 5.60197 1.04524 3.67381 2.16404 2.05634C3.28285 0.43886 5.08161 -0.255127 6.18271 0.506003C7.28321 1.26774 7.26917 3.1959 6.15036 4.81337ZM13.5242 5.1033C12.406 6.72078 10.6067 7.41477 9.50617 6.65364C8.40506 5.89251 8.41971 3.96435 9.53852 2.34687C10.6567 0.729397 12.4561 0.035407 13.5566 0.796537C14.6577 1.55767 14.643 3.48582 13.5242 5.1033ZM18.6507 8.64832C17.5319 10.2658 15.7332 10.9598 14.632 10.1987C13.5316 9.43692 13.5456 7.50876 14.6644 5.89128C15.7832 4.27381 17.582 3.57982 18.6831 4.34095C19.7836 5.10269 19.7695 7.03084 18.6507 8.64832ZM21.5255 15.4466C20.4067 17.0641 18.608 17.7581 17.5069 16.9969C16.4058 16.2352 16.4204 14.307 17.5392 12.6896C18.6574 11.0721 20.4568 10.3781 21.5573 11.1392C22.6584 11.901 22.6444 13.8291 21.5255 15.4466ZM49.8778 35.1127C48.145 34.2582 46.7295 33.1479 45.6315 31.7813C44.5328 30.3903 43.7155 28.9016 43.1784 27.3146C42.6657 25.7045 42.4093 24.1425 42.4093 22.6294V21.8237C42.4093 20.1641 42.6779 18.529 43.215 16.9182C43.7431 15.2989 44.5755 13.7953 45.6675 12.4882C46.7905 11.1704 48.1938 10.1211 49.8778 9.34048C51.5862 8.53479 53.5992 8.13195 55.918 8.13195C58.3344 8.13195 60.4695 8.58362 62.3244 9.48697C64.1793 10.3897 65.6558 11.6465 66.7545 13.2572C67.8769 14.8442 68.5361 16.7107 68.7309 18.8586H62.6907C62.5204 17.7843 62.1291 16.8694 61.5193 16.1125C60.909 15.3557 60.1161 14.7703 59.1401 14.3553C58.188 13.9402 57.1137 13.7333 55.918 13.7333C54.7223 13.7333 53.6609 13.9408 52.7331 14.3559C51.8279 14.7541 51.0264 15.3552 50.3905 16.1125C50.1273 16.4386 49.8921 16.7863 49.6874 17.152L49.6245 17.2655C49.4281 17.6288 49.2571 18.0053 49.113 18.3923C49.0605 18.5326 49.0105 18.6761 48.9628 18.8219C48.6448 19.8474 48.4861 20.9942 48.4861 22.2632C48.4861 23.5084 48.6448 24.6546 48.9628 25.7045C49.0001 25.8162 49.0391 25.9266 49.0794 26.0359L49.1423 26.1976C49.4542 26.9977 49.8874 27.745 50.4265 28.4133C51.0857 29.1701 51.8914 29.7555 52.843 30.1705C53.7951 30.5612 54.881 30.7565 56.1011 30.7565C57.956 30.7565 59.5179 30.3048 60.7875 29.4015C62.0809 28.4981 62.8616 27.2542 63.1301 25.6678H69.1343C68.9232 27.596 68.2443 29.4434 67.1567 31.0495C66.0837 32.6596 64.6066 33.953 62.7273 34.9296C60.8724 35.8818 58.6634 36.3578 56.1011 36.3578C53.6853 36.3578 51.6106 35.9428 49.8778 35.1127ZM71.2132 35.662V8.93764H77.1076V35.662H71.2132ZM82.3763 34.0513C83.6208 35.5399 85.4025 36.284 87.7213 36.284H87.9776C89.4907 36.284 91.0813 36.3206 92.1061 35.6614C92.8123 35.2085 93.7871 34.5688 94.4933 33.7766V35.662H99.1431V15.6004H93.286V27.3885C93.286 28.5109 92.9564 29.4015 92.2972 30.0607C91.6386 30.7199 90.7841 31.0495 89.7349 31.0495C88.7094 31.0495 87.8922 30.7321 87.2818 30.0973C86.672 29.4625 86.3669 28.6086 86.3669 27.5343V15.6004H80.5091V27.242C80.5091 30.2682 81.1317 32.5382 82.3763 34.0513Z" fill="white" fill-opacity="0.6"/>
<path d="M34.8395 36.884C35.0202 40.512 31.6064 43.6304 27.2148 43.8489C22.8226 44.068 19.1158 41.3043 18.9351 37.6762C18.7545 34.0476 22.1683 30.9292 26.5605 30.7107C30.9521 30.4922 34.6589 33.2559 34.8395 36.884ZM19.2263 29.5901C19.3239 31.5542 18.3199 33.2004 16.9832 33.2669C15.6465 33.3341 14.4837 31.7959 14.3855 29.8312C14.2878 27.8676 15.2919 26.2214 16.6286 26.1549C17.9653 26.0878 19.128 27.6253 19.2263 29.5901ZM25.2531 25.3297C25.3507 27.2933 24.3467 28.9394 23.01 29.006C21.6733 29.0731 20.5099 27.535 20.4122 25.5702C20.3146 23.606 21.3186 21.9599 22.6553 21.8933C23.9921 21.8268 25.1554 23.3655 25.2531 25.3297ZM31.4776 25.019C31.5753 26.9832 30.5712 28.6294 29.2345 28.6959C27.8978 28.763 26.735 27.2243 26.6374 25.2601C26.5397 23.2959 27.5438 21.6498 28.8805 21.5833C30.2172 21.5167 31.38 23.0542 31.4776 25.019ZM37.8981 28.6605C37.9957 30.6246 36.9917 32.2708 35.655 32.3373C34.3183 32.4045 33.1555 30.8664 33.0579 28.9016C32.9602 26.9374 33.9643 25.2919 35.301 25.2253C36.6377 25.1582 37.8004 26.6957 37.8981 28.6605ZM14.0919 20.1074C12.0258 23.0945 7.41871 23.4888 3.80227 20.9875C0.185226 18.4862 -1.07152 14.0367 0.994577 11.0489C3.06129 8.06115 7.66835 7.66746 11.2848 10.1681C14.9012 12.67 16.158 17.1196 14.0919 20.1074ZM6.15036 4.81337C5.03155 6.43085 3.2328 7.12423 2.13169 6.36371C1.0312 5.60197 1.04524 3.67381 2.16404 2.05634C3.28285 0.43886 5.08161 -0.255127 6.18271 0.506003C7.28321 1.26774 7.26917 3.1959 6.15036 4.81337ZM13.5242 5.1033C12.406 6.72078 10.6067 7.41477 9.50617 6.65364C8.40506 5.89251 8.41971 3.96435 9.53852 2.34687C10.6567 0.729397 12.4561 0.035407 13.5566 0.796537C14.6577 1.55767 14.643 3.48582 13.5242 5.1033ZM18.6507 8.64832C17.5319 10.2658 15.7332 10.9598 14.632 10.1987C13.5316 9.43692 13.5456 7.50876 14.6644 5.89128C15.7832 4.27381 17.582 3.57982 18.6831 4.34095C19.7836 5.10269 19.7695 7.03084 18.6507 8.64832ZM21.5255 15.4466C20.4067 17.0641 18.608 17.7581 17.5069 16.9969C16.4058 16.2352 16.4204 14.307 17.5392 12.6896C18.6574 11.0721 20.4568 10.3781 21.5573 11.1392C22.6584 11.901 22.6444 13.8291 21.5255 15.4466ZM49.8778 35.1127C48.145 34.2582 46.7295 33.1479 45.6315 31.7813C44.5328 30.3903 43.7155 28.9016 43.1784 27.3146C42.6657 25.7045 42.4093 24.1425 42.4093 22.6294V21.8237C42.4093 20.1641 42.6779 18.529 43.215 16.9182C43.7431 15.2989 44.5755 13.7953 45.6675 12.4882C46.7905 11.1704 48.1938 10.1211 49.8778 9.34048C51.5862 8.53479 53.5992 8.13195 55.918 8.13195C58.3344 8.13195 60.4695 8.58362 62.3244 9.48697C64.1793 10.3897 65.6558 11.6465 66.7545 13.2572C67.8769 14.8442 68.5361 16.7107 68.7309 18.8586H62.6907C62.5204 17.7843 62.1291 16.8694 61.5193 16.1125C60.909 15.3557 60.1161 14.7703 59.1401 14.3553C58.188 13.9402 57.1137 13.7333 55.918 13.7333C54.7223 13.7333 53.6609 13.9408 52.7331 14.3559C51.8279 14.7541 51.0264 15.3552 50.3905 16.1125C50.1273 16.4386 49.8921 16.7863 49.6874 17.152L49.6245 17.2655C49.4281 17.6288 49.2571 18.0053 49.113 18.3923C49.0605 18.5326 49.0105 18.6761 48.9628 18.8219C48.6448 19.8474 48.4861 20.9942 48.4861 22.2632C48.4861 23.5084 48.6448 24.6546 48.9628 25.7045C49.0001 25.8162 49.0391 25.9266 49.0794 26.0359L49.1423 26.1976C49.4542 26.9977 49.8874 27.745 50.4265 28.4133C51.0857 29.1701 51.8914 29.7555 52.843 30.1705C53.7951 30.5612 54.881 30.7565 56.1011 30.7565C57.956 30.7565 59.5179 30.3048 60.7875 29.4015C62.0809 28.4981 62.8616 27.2542 63.1301 25.6678H69.1343C68.9232 27.596 68.2443 29.4434 67.1567 31.0495C66.0837 32.6596 64.6066 33.953 62.7273 34.9296C60.8724 35.8818 58.6634 36.3578 56.1011 36.3578C53.6853 36.3578 51.6106 35.9428 49.8778 35.1127ZM71.2132 35.662V8.93764H77.1076V35.662H71.2132ZM82.3763 34.0513C83.6208 35.5399 85.4025 36.284 87.7213 36.284H87.9776C89.4907 36.284 91.0813 36.3206 92.1061 35.6614C92.8123 35.2085 93.7871 34.5688 94.4933 33.7766V35.662H99.1431V15.6004H93.286V27.3885C93.286 28.5109 92.9564 29.4015 92.2972 30.0607C91.6386 30.7199 90.7841 31.0495 89.7349 31.0495C88.7094 31.0495 87.8922 30.7321 87.2818 30.0973C86.672 29.4625 86.3669 28.6086 86.3669 27.5343V15.6004H80.5091V27.242C80.5091 30.2682 81.1317 32.5382 82.3763 34.0513Z" fill="#BCBFDB"/>
<path d="M34.8395 36.884C35.0202 40.512 31.6064 43.6304 27.2148 43.8489C22.8226 44.068 19.1158 41.3043 18.9351 37.6762C18.7545 34.0476 22.1683 30.9292 26.5605 30.7107C30.9521 30.4922 34.6589 33.2559 34.8395 36.884ZM19.2263 29.5901C19.3239 31.5542 18.3199 33.2004 16.9832 33.2669C15.6465 33.3341 14.4837 31.7959 14.3855 29.8312C14.2878 27.8676 15.2919 26.2214 16.6286 26.1549C17.9653 26.0878 19.128 27.6253 19.2263 29.5901ZM25.2531 25.3297C25.3507 27.2933 24.3467 28.9394 23.01 29.006C21.6733 29.0731 20.5099 27.535 20.4122 25.5702C20.3146 23.606 21.3186 21.9599 22.6553 21.8933C23.9921 21.8268 25.1554 23.3655 25.2531 25.3297ZM31.4776 25.019C31.5753 26.9832 30.5712 28.6294 29.2345 28.6959C27.8978 28.763 26.735 27.2243 26.6374 25.2601C26.5397 23.2959 27.5438 21.6498 28.8805 21.5833C30.2172 21.5167 31.38 23.0542 31.4776 25.019ZM37.8981 28.6605C37.9957 30.6246 36.9917 32.2708 35.655 32.3373C34.3183 32.4045 33.1555 30.8664 33.0579 28.9016C32.9602 26.9374 33.9643 25.2919 35.301 25.2253C36.6377 25.1582 37.8004 26.6957 37.8981 28.6605ZM14.0919 20.1074C12.0258 23.0945 7.41871 23.4888 3.80227 20.9875C0.185226 18.4862 -1.07152 14.0367 0.994577 11.0489C3.06129 8.06115 7.66835 7.66746 11.2848 10.1681C14.9012 12.67 16.158 17.1196 14.0919 20.1074ZM6.15036 4.81337C5.03155 6.43085 3.2328 7.12423 2.13169 6.36371C1.0312 5.60197 1.04524 3.67381 2.16404 2.05634C3.28285 0.43886 5.08161 -0.255127 6.18271 0.506003C7.28321 1.26774 7.26917 3.1959 6.15036 4.81337ZM13.5242 5.1033C12.406 6.72078 10.6067 7.41477 9.50617 6.65364C8.40506 5.89251 8.41971 3.96435 9.53852 2.34687C10.6567 0.729397 12.4561 0.035407 13.5566 0.796537C14.6577 1.55767 14.643 3.48582 13.5242 5.1033ZM18.6507 8.64832C17.5319 10.2658 15.7332 10.9598 14.632 10.1987C13.5316 9.43692 13.5456 7.50876 14.6644 5.89128C15.7832 4.27381 17.582 3.57982 18.6831 4.34095C19.7836 5.10269 19.7695 7.03084 18.6507 8.64832ZM21.5255 15.4466C20.4067 17.0641 18.608 17.7581 17.5069 16.9969C16.4058 16.2352 16.4204 14.307 17.5392 12.6896C18.6574 11.0721 20.4568 10.3781 21.5573 11.1392C22.6584 11.901 22.6444 13.8291 21.5255 15.4466ZM49.8778 35.1127C48.145 34.2582 46.7295 33.1479 45.6315 31.7813C44.5328 30.3903 43.7155 28.9016 43.1784 27.3146C42.6657 25.7045 42.4093 24.1425 42.4093 22.6294V21.8237C42.4093 20.1641 42.6779 18.529 43.215 16.9182C43.7431 15.2989 44.5755 13.7953 45.6675 12.4882C46.7905 11.1704 48.1938 10.1211 49.8778 9.34048C51.5862 8.53479 53.5992 8.13195 55.918 8.13195C58.3344 8.13195 60.4695 8.58362 62.3244 9.48697C64.1793 10.3897 65.6558 11.6465 66.7545 13.2572C67.8769 14.8442 68.5361 16.7107 68.7309 18.8586H62.6907C62.5204 17.7843 62.1291 16.8694 61.5193 16.1125C60.909 15.3557 60.1161 14.7703 59.1401 14.3553C58.188 13.9402 57.1137 13.7333 55.918 13.7333C54.7223 13.7333 53.6609 13.9408 52.7331 14.3559C51.8279 14.7541 51.0264 15.3552 50.3905 16.1125C50.1273 16.4386 49.8921 16.7863 49.6874 17.152L49.6245 17.2655C49.4281 17.6288 49.2571 18.0053 49.113 18.3923C49.0605 18.5326 49.0105 18.6761 48.9628 18.8219C48.6448 19.8474 48.4861 20.9942 48.4861 22.2632C48.4861 23.5084 48.6448 24.6546 48.9628 25.7045C49.0001 25.8162 49.0391 25.9266 49.0794 26.0359L49.1423 26.1976C49.4542 26.9977 49.8874 27.745 50.4265 28.4133C51.0857 29.1701 51.8914 29.7555 52.843 30.1705C53.7951 30.5612 54.881 30.7565 56.1011 30.7565C57.956 30.7565 59.5179 30.3048 60.7875 29.4015C62.0809 28.4981 62.8616 27.2542 63.1301 25.6678H69.1343C68.9232 27.596 68.2443 29.4434 67.1567 31.0495C66.0837 32.6596 64.6066 33.953 62.7273 34.9296C60.8724 35.8818 58.6634 36.3578 56.1011 36.3578C53.6853 36.3578 51.6106 35.9428 49.8778 35.1127ZM71.2132 35.662V8.93764H77.1076V35.662H71.2132ZM82.3763 34.0513C83.6208 35.5399 85.4025 36.284 87.7213 36.284H87.9776C89.4907 36.284 91.0813 36.3206 92.1061 35.6614C92.8123 35.2085 93.7871 34.5688 94.4933 33.7766V35.662H99.1431V15.6004H93.286V27.3885C93.286 28.5109 92.9564 29.4015 92.2972 30.0607C91.6386 30.7199 90.7841 31.0495 89.7349 31.0495C88.7094 31.0495 87.8922 30.7321 87.2818 30.0973C86.672 29.4625 86.3669 28.6086 86.3669 27.5343V15.6004H80.5091V27.242C80.5091 30.2682 81.1317 32.5382 82.3763 34.0513Z" fill="white" fill-opacity="0.6"/>
<path fill-rule="evenodd" clip-rule="evenodd" d="M27.2148 43.8489C31.6064 43.6304 35.0202 40.512 34.8395 36.884C34.6589 33.2559 30.9521 30.4922 26.5605 30.7107C22.1683 30.9292 18.7545 34.0476 18.9351 37.6762C19.1158 41.3043 22.8226 44.068 27.2148 43.8489ZM16.9832 33.2669C18.3199 33.2004 19.3239 31.5542 19.2263 29.5901C19.128 27.6253 17.9653 26.0878 16.6286 26.1549C15.2919 26.2214 14.2878 27.8676 14.3855 29.8312C14.4837 31.7959 15.6465 33.3341 16.9832 33.2669ZM23.01 29.006C24.3467 28.9394 25.3507 27.2933 25.2531 25.3297C25.1554 23.3655 23.9921 21.8268 22.6553 21.8933C21.3186 21.9599 20.3146 23.606 20.4122 25.5702C20.5099 27.535 21.6733 29.0731 23.01 29.006ZM29.2345 28.6959C30.5712 28.6294 31.5753 26.9832 31.4776 25.019C31.38 23.0542 30.2172 21.5167 28.8805 21.5833C27.5438 21.6498 26.5397 23.2959 26.6374 25.2601C26.735 27.2243 27.8978 28.763 29.2345 28.6959ZM35.655 32.3373C36.9917 32.2708 37.9957 30.6246 37.8981 28.6605C37.8004 26.6957 36.6377 25.1582 35.301 25.2253C33.9643 25.2919 32.9602 26.9374 33.0579 28.9016C33.1555 30.8664 34.3183 32.4045 35.655 32.3373ZM3.80227 20.9875C7.41871 23.4888 12.0258 23.0945 14.0919 20.1074C16.158 17.1196 14.9012 12.67 11.2848 10.1681C7.66835 7.66746 3.06129 8.06115 0.994577 11.0489C-1.07152 14.0367 0.185226 18.4862 3.80227 20.9875ZM2.13169 6.36371C3.2328 7.12423 5.03156 6.43085 6.15036 4.81337C7.26917 3.1959 7.28321 1.26774 6.18271 0.506003C5.08161 -0.255127 3.28285 0.43886 2.16404 2.05634C1.04524 3.67381 1.0312 5.60197 2.13169 6.36371ZM9.50617 6.65364C10.6067 7.41477 12.406 6.72078 13.5242 5.1033C14.643 3.48582 14.6577 1.55767 13.5566 0.796537C12.4561 0.0354068 10.6567 0.729397 9.53852 2.34687C8.41971 3.96435 8.40506 5.89251 9.50617 6.65364ZM14.632 10.1987C15.7332 10.9598 17.5319 10.2658 18.6507 8.64832C19.7695 7.03084 19.7836 5.10269 18.6831 4.34095C17.582 3.57982 15.7832 4.27381 14.6644 5.89128C13.5456 7.50876 13.5316 9.43692 14.632 10.1987ZM17.5069 16.9969C18.608 17.7581 20.4067 17.0641 21.5255 15.4466C22.6444 13.8291 22.6584 11.901 21.5573 11.1392C20.4568 10.3781 18.6574 11.0721 17.5392 12.6896C16.4204 14.307 16.4058 16.2352 17.5069 16.9969Z" fill="#BCBFDB"/>
<path fill-rule="evenodd" clip-rule="evenodd" d="M27.2148 43.8489C31.6064 43.6304 35.0202 40.512 34.8395 36.884C34.6589 33.2559 30.9521 30.4922 26.5605 30.7107C22.1683 30.9292 18.7545 34.0476 18.9351 37.6762C19.1158 41.3043 22.8226 44.068 27.2148 43.8489ZM16.9832 33.2669C18.3199 33.2004 19.3239 31.5542 19.2263 29.5901C19.128 27.6253 17.9653 26.0878 16.6286 26.1549C15.2919 26.2214 14.2878 27.8676 14.3855 29.8312C14.4837 31.7959 15.6465 33.3341 16.9832 33.2669ZM23.01 29.006C24.3467 28.9394 25.3507 27.2933 25.2531 25.3297C25.1554 23.3655 23.9921 21.8268 22.6553 21.8933C21.3186 21.9599 20.3146 23.606 20.4122 25.5702C20.5099 27.535 21.6733 29.0731 23.01 29.006ZM29.2345 28.6959C30.5712 28.6294 31.5753 26.9832 31.4776 25.019C31.38 23.0542 30.2172 21.5167 28.8805 21.5833C27.5438 21.6498 26.5397 23.2959 26.6374 25.2601C26.735 27.2243 27.8978 28.763 29.2345 28.6959ZM35.655 32.3373C36.9917 32.2708 37.9957 30.6246 37.8981 28.6605C37.8004 26.6957 36.6377 25.1582 35.301 25.2253C33.9643 25.2919 32.9602 26.9374 33.0579 28.9016C33.1555 30.8664 34.3183 32.4045 35.655 32.3373ZM3.80227 20.9875C7.41871 23.4888 12.0258 23.0945 14.0919 20.1074C16.158 17.1196 14.9012 12.67 11.2848 10.1681C7.66835 7.66746 3.06129 8.06115 0.994577 11.0489C-1.07152 14.0367 0.185226 18.4862 3.80227 20.9875ZM2.13169 6.36371C3.2328 7.12423 5.03156 6.43085 6.15036 4.81337C7.26917 3.1959 7.28321 1.26774 6.18271 0.506003C5.08161 -0.255127 3.28285 0.43886 2.16404 2.05634C1.04524 3.67381 1.0312 5.60197 2.13169 6.36371ZM9.50617 6.65364C10.6067 7.41477 12.406 6.72078 13.5242 5.1033C14.643 3.48582 14.6577 1.55767 13.5566 0.796537C12.4561 0.0354068 10.6567 0.729397 9.53852 2.34687C8.41971 3.96435 8.40506 5.89251 9.50617 6.65364ZM14.632 10.1987C15.7332 10.9598 17.5319 10.2658 18.6507 8.64832C19.7695 7.03084 19.7836 5.10269 18.6831 4.34095C17.582 3.57982 15.7832 4.27381 14.6644 5.89128C13.5456 7.50876 13.5316 9.43692 14.632 10.1987ZM17.5069 16.9969C18.608 17.7581 20.4067 17.0641 21.5255 15.4466C22.6444 13.8291 22.6584 11.901 21.5573 11.1392C20.4568 10.3781 18.6574 11.0721 17.5392 12.6896C16.4204 14.307 16.4058 16.2352 17.5069 16.9969Z" fill="white" fill-opacity="0.6"/>
<path fill-rule="evenodd" clip-rule="evenodd" d="M111.628 36.3572C109.92 36.3572 108.406 36.0642 107.088 35.4782C105.795 34.8929 104.709 34.1122 103.83 33.1356C102.983 32.1478 102.314 31.0206 101.853 29.8043C101.418 28.582 101.195 27.2942 101.194 25.9968V25.2649C101.194 23.9221 101.413 22.641 101.853 21.4208C102.303 20.1992 102.973 19.0701 103.83 18.0894C104.684 17.1129 105.746 16.3444 107.015 15.7829C108.308 15.1969 109.773 14.9039 111.408 14.9039C113.556 14.9039 115.362 15.3922 116.826 16.3688C118.315 17.321 119.45 18.5777 120.231 20.1397C121.012 21.6778 121.402 23.3612 121.402 25.1917V27.1687H106.749C106.833 27.7632 106.971 28.3125 107.161 28.8161C107.503 29.695 108.04 30.378 108.772 30.8657C109.505 31.354 110.456 31.5981 111.628 31.5981C112.701 31.5981 113.58 31.3906 114.264 30.9755C114.564 30.7971 114.839 30.5788 115.081 30.3267C115.334 30.0582 115.525 29.7621 115.655 29.438H121.036C120.756 30.7539 120.166 31.9839 119.315 33.0258C118.461 34.0756 117.387 34.8929 116.094 35.4788C114.801 36.0648 113.311 36.3572 111.628 36.3572ZM106.823 23.6816C106.813 23.7333 106.803 23.7852 106.794 23.8373H115.84C115.764 23.3107 115.629 22.7946 115.435 22.2992C115.093 21.4453 114.581 20.7989 113.897 20.3594C113.238 19.8955 112.409 19.6636 111.408 19.6636C111.221 19.6636 111.038 19.6715 110.861 19.6868C110.69 19.7018 110.52 19.725 110.351 19.7564C109.773 19.8632 109.259 20.0646 108.809 20.3594C108.101 20.8233 107.564 21.5069 107.198 22.4096C107.118 22.6019 107.049 22.798 106.989 22.9974C106.925 23.2153 106.87 23.4436 106.823 23.6816Z" fill="#BCBFDB"/>
<path fill-rule="evenodd" clip-rule="evenodd" d="M111.628 36.3572C109.92 36.3572 108.406 36.0642 107.088 35.4782C105.795 34.8929 104.709 34.1122 103.83 33.1356C102.983 32.1478 102.314 31.0206 101.853 29.8043C101.418 28.582 101.195 27.2942 101.194 25.9968V25.2649C101.194 23.9221 101.413 22.641 101.853 21.4208C102.303 20.1992 102.973 19.0701 103.83 18.0894C104.684 17.1129 105.746 16.3444 107.015 15.7829C108.308 15.1969 109.773 14.9039 111.408 14.9039C113.556 14.9039 115.362 15.3922 116.826 16.3688C118.315 17.321 119.45 18.5777 120.231 20.1397C121.012 21.6778 121.402 23.3612 121.402 25.1917V27.1687H106.749C106.833 27.7632 106.971 28.3125 107.161 28.8161C107.503 29.695 108.04 30.378 108.772 30.8657C109.505 31.354 110.456 31.5981 111.628 31.5981C112.701 31.5981 113.58 31.3906 114.264 30.9755C114.564 30.7971 114.839 30.5788 115.081 30.3267C115.334 30.0582 115.525 29.7621 115.655 29.438H121.036C120.756 30.7539 120.166 31.9839 119.315 33.0258C118.461 34.0756 117.387 34.8929 116.094 35.4788C114.801 36.0648 113.311 36.3572 111.628 36.3572ZM106.823 23.6816C106.813 23.7333 106.803 23.7852 106.794 23.8373H115.84C115.764 23.3107 115.629 22.7946 115.435 22.2992C115.093 21.4453 114.581 20.7989 113.897 20.3594C113.238 19.8955 112.409 19.6636 111.408 19.6636C111.221 19.6636 111.038 19.6715 110.861 19.6868C110.69 19.7018 110.52 19.725 110.351 19.7564C109.773 19.8632 109.259 20.0646 108.809 20.3594C108.101 20.8233 107.564 21.5069 107.198 22.4096C107.118 22.6019 107.049 22.798 106.989 22.9974C106.925 23.2153 106.87 23.4436 106.823 23.6816Z" fill="white" fill-opacity="0.6"/>
<path fill-rule="evenodd" clip-rule="evenodd" d="M111.628 36.3572C109.92 36.3572 108.406 36.0642 107.088 35.4782C105.795 34.8929 104.709 34.1122 103.83 33.1356C102.983 32.1478 102.314 31.0206 101.853 29.8043C101.418 28.582 101.195 27.2942 101.194 25.9968V25.2649C101.194 23.9221 101.413 22.641 101.853 21.4208C102.303 20.1992 102.973 19.0701 103.83 18.0894C104.684 17.1129 105.746 16.3444 107.015 15.7829C108.308 15.1969 109.773 14.9039 111.408 14.9039C113.556 14.9039 115.362 15.3922 116.826 16.3688C118.315 17.321 119.45 18.5777 120.231 20.1397C121.012 21.6778 121.402 23.3612 121.402 25.1917V27.1687H106.749C106.833 27.7632 106.971 28.3125 107.161 28.8161C107.503 29.695 108.04 30.378 108.772 30.8657C109.505 31.354 110.456 31.5981 111.628 31.5981C112.701 31.5981 113.58 31.3906 114.264 30.9755C114.564 30.7971 114.839 30.5788 115.081 30.3267C115.334 30.0582 115.525 29.7621 115.655 29.438H121.036C120.756 30.7539 120.166 31.9839 119.315 33.0258C118.461 34.0756 117.387 34.8929 116.094 35.4788C114.801 36.0648 113.311 36.3572 111.628 36.3572ZM106.823 23.6816C106.813 23.7333 106.803 23.7852 106.794 23.8373H115.84C115.764 23.3107 115.629 22.7946 115.435 22.2992C115.093 21.4453 114.581 20.7989 113.897 20.3594C113.238 19.8955 112.409 19.6636 111.408 19.6636C111.221 19.6636 111.038 19.6715 110.861 19.6868C110.69 19.7018 110.52 19.725 110.351 19.7564C109.773 19.8632 109.259 20.0646 108.809 20.3594C108.101 20.8233 107.564 21.5069 107.198 22.4096C107.118 22.6019 107.049 22.798 106.989 22.9974C106.925 23.2153 106.87 23.4436 106.823 23.6816Z" fill="#BCBFDB"/>
<path fill-rule="evenodd" clip-rule="evenodd" d="M111.628 36.3572C109.92 36.3572 108.406 36.0642 107.088 35.4782C105.795 34.8929 104.709 34.1122 103.83 33.1356C102.983 32.1478 102.314 31.0206 101.853 29.8043C101.418 28.582 101.195 27.2942 101.194 25.9968V25.2649C101.194 23.9221 101.413 22.641 101.853 21.4208C102.303 20.1992 102.973 19.0701 103.83 18.0894C104.684 17.1129 105.746 16.3444 107.015 15.7829C108.308 15.1969 109.773 14.9039 111.408 14.9039C113.556 14.9039 115.362 15.3922 116.826 16.3688C118.315 17.321 119.45 18.5777 120.231 20.1397C121.012 21.6778 121.402 23.3612 121.402 25.1917V27.1687H106.749C106.833 27.7632 106.971 28.3125 107.161 28.8161C107.503 29.695 108.04 30.378 108.772 30.8657C109.505 31.354 110.456 31.5981 111.628 31.5981C112.701 31.5981 113.58 31.3906 114.264 30.9755C114.564 30.7971 114.839 30.5788 115.081 30.3267C115.334 30.0582 115.525 29.7621 115.655 29.438H121.036C120.756 30.7539 120.166 31.9839 119.315 33.0258C118.461 34.0756 117.387 34.8929 116.094 35.4788C114.801 36.0648 113.311 36.3572 111.628 36.3572ZM106.823 23.6816C106.813 23.7333 106.803 23.7852 106.794 23.8373H115.84C115.764 23.3107 115.629 22.7946 115.435 22.2992C115.093 21.4453 114.581 20.7989 113.897 20.3594C113.238 19.8955 112.409 19.6636 111.408 19.6636C111.221 19.6636 111.038 19.6715 110.861 19.6868C110.69 19.7018 110.52 19.725 110.351 19.7564C109.773 19.8632 109.259 20.0646 108.809 20.3594C108.101 20.8233 107.564 21.5069 107.198 22.4096C107.118 22.6019 107.049 22.798 106.989 22.9974C106.925 23.2153 106.87 23.4436 106.823 23.6816Z" fill="white" fill-opacity="0.6"/>
<path d="M124.368 34.5267C125.978 35.6986 128.212 36.2845 131.067 36.2845C132.873 36.2845 134.447 36.0282 135.79 35.5155C137.132 34.9783 138.169 34.2215 138.901 33.2455C139.634 32.2445 140 31.0732 140 29.731C140 27.8761 139.316 26.3996 137.95 25.3016C136.582 24.2029 134.667 23.5199 132.202 23.2513L130.628 23.1048C129.578 22.9828 128.822 22.7752 128.358 22.4823C128.181 22.3738 128.027 22.2298 127.908 22.0593C127.744 21.8206 127.662 21.5344 127.662 21.2011C127.662 20.6151 127.931 20.1519 128.468 19.8101C129.005 19.4683 129.725 19.2974 130.628 19.2974C131.774 19.2974 132.641 19.5293 133.227 19.9932C133.812 20.4327 134.154 20.982 134.252 21.6412H139.45C139.378 19.4927 138.547 17.8575 136.961 16.735C135.375 15.5875 133.288 15.0144 130.701 15.0144C129.09 15.0144 127.651 15.2586 126.381 15.7468C125.136 16.2351 124.16 16.9548 123.453 17.9063C122.745 18.8585 122.391 20.042 122.391 21.4575C122.391 23.1665 122.989 24.5691 124.185 25.6678C125.405 26.7658 127.223 27.4372 129.639 27.6814L131.214 27.8279C132.532 27.9738 133.447 28.2301 133.96 28.5969C134.472 28.9381 134.728 29.4014 134.728 29.9874C134.728 30.6466 134.386 31.1593 133.703 31.5249C133.044 31.8667 132.202 32.0376 131.177 32.0376C129.835 32.0376 128.822 31.7934 128.138 31.3051C127.479 30.7924 127.101 30.2187 127.004 29.5845H121.805C121.903 31.7086 122.757 33.3554 124.368 34.5267Z" fill="#BCBFDB"/>
<path d="M124.368 34.5267C125.978 35.6986 128.212 36.2845 131.067 36.2845C132.873 36.2845 134.447 36.0282 135.79 35.5155C137.132 34.9783 138.169 34.2215 138.901 33.2455C139.634 32.2445 140 31.0732 140 29.731C140 27.8761 139.316 26.3996 137.95 25.3016C136.582 24.2029 134.667 23.5199 132.202 23.2513L130.628 23.1048C129.578 22.9828 128.822 22.7752 128.358 22.4823C128.181 22.3738 128.027 22.2298 127.908 22.0593C127.744 21.8206 127.662 21.5344 127.662 21.2011C127.662 20.6151 127.931 20.1519 128.468 19.8101C129.005 19.4683 129.725 19.2974 130.628 19.2974C131.774 19.2974 132.641 19.5293 133.227 19.9932C133.812 20.4327 134.154 20.982 134.252 21.6412H139.45C139.378 19.4927 138.547 17.8575 136.961 16.735C135.375 15.5875 133.288 15.0144 130.701 15.0144C129.09 15.0144 127.651 15.2586 126.381 15.7468C125.136 16.2351 124.16 16.9548 123.453 17.9063C122.745 18.8585 122.391 20.042 122.391 21.4575C122.391 23.1665 122.989 24.5691 124.185 25.6678C125.405 26.7658 127.223 27.4372 129.639 27.6814L131.214 27.8279C132.532 27.9738 133.447 28.2301 133.96 28.5969C134.472 28.9381 134.728 29.4014 134.728 29.9874C134.728 30.6466 134.386 31.1593 133.703 31.5249C133.044 31.8667 132.202 32.0376 131.177 32.0376C129.835 32.0376 128.822 31.7934 128.138 31.3051C127.479 30.7924 127.101 30.2187 127.004 29.5845H121.805C121.903 31.7086 122.757 33.3554 124.368 34.5267Z" fill="white" fill-opacity="0.6"/>
<path d="M124.368 34.5267C125.978 35.6986 128.212 36.2845 131.067 36.2845C132.873 36.2845 134.447 36.0282 135.79 35.5155C137.132 34.9783 138.169 34.2215 138.901 33.2455C139.634 32.2445 140 31.0732 140 29.731C140 27.8761 139.316 26.3996 137.95 25.3016C136.582 24.2029 134.667 23.5199 132.202 23.2513L130.628 23.1048C129.578 22.9828 128.822 22.7752 128.358 22.4823C128.181 22.3738 128.027 22.2298 127.908 22.0593C127.744 21.8206 127.662 21.5344 127.662 21.2011C127.662 20.6151 127.931 20.1519 128.468 19.8101C129.005 19.4683 129.725 19.2974 130.628 19.2974C131.774 19.2974 132.641 19.5293 133.227 19.9932C133.812 20.4327 134.154 20.982 134.252 21.6412H139.45C139.378 19.4927 138.547 17.8575 136.961 16.735C135.375 15.5875 133.288 15.0144 130.701 15.0144C129.09 15.0144 127.651 15.2586 126.381 15.7468C125.136 16.2351 124.16 16.9548 123.453 17.9063C122.745 18.8585 122.391 20.042 122.391 21.4575C122.391 23.1665 122.989 24.5691 124.185 25.6678C125.405 26.7658 127.223 27.4372 129.639 27.6814L131.214 27.8279C132.532 27.9738 133.447 28.2301 133.96 28.5969C134.472 28.9381 134.728 29.4014 134.728 29.9874C134.728 30.6466 134.386 31.1593 133.703 31.5249C133.044 31.8667 132.202 32.0376 131.177 32.0376C129.835 32.0376 128.822 31.7934 128.138 31.3051C127.479 30.7924 127.101 30.2187 127.004 29.5845H121.805C121.903 31.7086 122.757 33.3554 124.368 34.5267Z" fill="#BCBFDB"/>
<path d="M124.368 34.5267C125.978 35.6986 128.212 36.2845 131.067 36.2845C132.873 36.2845 134.447 36.0282 135.79 35.5155C137.132 34.9783 138.169 34.2215 138.901 33.2455C139.634 32.2445 140 31.0732 140 29.731C140 27.8761 139.316 26.3996 137.95 25.3016C136.582 24.2029 134.667 23.5199 132.202 23.2513L130.628 23.1048C129.578 22.9828 128.822 22.7752 128.358 22.4823C128.181 22.3738 128.027 22.2298 127.908 22.0593C127.744 21.8206 127.662 21.5344 127.662 21.2011C127.662 20.6151 127.931 20.1519 128.468 19.8101C129.005 19.4683 129.725 19.2974 130.628 19.2974C131.774 19.2974 132.641 19.5293 133.227 19.9932C133.812 20.4327 134.154 20.982 134.252 21.6412H139.45C139.378 19.4927 138.547 17.8575 136.961 16.735C135.375 15.5875 133.288 15.0144 130.701 15.0144C129.09 15.0144 127.651 15.2586 126.381 15.7468C125.136 16.2351 124.16 16.9548 123.453 17.9063C122.745 18.8585 122.391 20.042 122.391 21.4575C122.391 23.1665 122.989 24.5691 124.185 25.6678C125.405 26.7658 127.223 27.4372 129.639 27.6814L131.214 27.8279C132.532 27.9738 133.447 28.2301 133.96 28.5969C134.472 28.9381 134.728 29.4014 134.728 29.9874C134.728 30.6466 134.386 31.1593 133.703 31.5249C133.044 31.8667 132.202 32.0376 131.177 32.0376C129.835 32.0376 128.822 31.7934 128.138 31.3051C127.479 30.7924 127.101 30.2187 127.004 29.5845H121.805C121.903 31.7086 122.757 33.3554 124.368 34.5267Z" fill="white" fill-opacity="0.6"/>
</g>
<defs>
<clipPath id="clip0_1850_7664">
<rect width="140" height="44" fill="white"/>
</clipPath>
</defs>
</svg>
