<svg xmlns="http://www.w3.org/2000/svg" xmlns:xlink="http://www.w3.org/1999/xlink" width="458" zoomAndPan="magnify" viewBox="0 0 343.5 317.249999" height="423" preserveAspectRatio="xMidYMid meet" version="1.0"><defs><clipPath id="16241b73d8"><path d="M 42.644531 31.648438 L 300.035156 31.648438 L 300.035156 284.550781 L 42.644531 284.550781 Z M 42.644531 31.648438 " clip-rule="nonzero"/></clipPath></defs><path fill="#ffffff" d="M 180.1875 194.722656 L 158.730469 194.722656 L 158.730469 192.578125 C 158.730469 186.664062 163.542969 181.851562 169.460938 181.851562 C 175.375 181.851562 180.1875 186.664062 180.1875 192.578125 Z M 169.460938 168.976562 C 171.824219 168.976562 173.75 170.902344 173.75 173.265625 C 173.75 175.632812 171.824219 177.558594 169.460938 177.558594 C 167.09375 177.558594 165.167969 175.632812 165.167969 173.265625 C 165.167969 170.902344 167.09375 168.976562 169.460938 168.976562 Z M 148.003906 190.433594 L 83.632812 190.433594 C 82.445312 190.433594 81.484375 189.472656 81.484375 188.289062 C 81.484375 187.101562 82.445312 186.140625 83.632812 186.140625 L 148.003906 186.140625 C 149.1875 186.140625 150.148438 187.101562 150.148438 188.289062 C 150.148438 189.472656 149.1875 190.433594 148.003906 190.433594 Z M 77.195312 182.9375 C 77.195312 183.960938 76.953125 184.988281 76.496094 185.902344 C 75.097656 188.695312 72.292969 190.429688 69.171875 190.429688 C 69.167969 190.429688 69.164062 190.429688 69.160156 190.429688 L 69.109375 190.429688 C 65.335938 190.425781 61.945312 188.328125 60.253906 184.957031 C 59.726562 183.898438 60.152344 182.609375 61.210938 182.078125 C 62.273438 181.546875 63.5625 181.972656 64.09375 183.035156 C 65.050781 184.945312 66.972656 186.136719 69.109375 186.136719 L 69.164062 186.136719 C 69.164062 186.136719 69.167969 186.136719 69.167969 186.136719 C 70.65625 186.136719 71.992188 185.3125 72.65625 183.984375 C 72.816406 183.660156 72.902344 183.296875 72.902344 182.9375 C 72.902344 181.929688 72.257812 181.039062 71.304688 180.71875 L 67.933594 179.59375 C 67.054688 179.300781 66.464844 178.484375 66.464844 177.558594 C 66.464844 176.632812 67.054688 175.816406 67.933594 175.523438 L 71.304688 174.398438 C 72.257812 174.082031 72.902344 173.191406 72.902344 172.179688 C 72.902344 171.820312 72.816406 171.457031 72.65625 171.132812 C 71.992188 169.804688 70.65625 168.980469 69.171875 168.980469 C 69.167969 168.980469 69.167969 168.980469 69.167969 168.980469 L 69.109375 168.980469 C 66.972656 168.980469 65.050781 170.171875 64.09375 172.082031 C 63.5625 173.144531 62.269531 173.570312 61.210938 173.039062 C 60.152344 172.507812 59.726562 171.21875 60.253906 170.160156 C 61.945312 166.789062 65.335938 164.691406 69.105469 164.6875 L 69.164062 164.6875 C 69.167969 164.6875 69.171875 164.6875 69.175781 164.6875 C 72.292969 164.6875 75.097656 166.421875 76.496094 169.214844 C 76.953125 170.128906 77.195312 171.15625 77.195312 172.179688 C 77.195312 174.351562 76.140625 176.335938 74.441406 177.558594 C 76.140625 178.78125 77.195312 180.765625 77.195312 182.9375 Z M 83.632812 175.414062 L 113.671875 175.414062 C 114.859375 175.414062 115.816406 176.371094 115.816406 177.558594 C 115.816406 178.746094 114.859375 179.703125 113.671875 179.703125 L 83.632812 179.703125 C 82.445312 179.703125 81.484375 178.746094 81.484375 177.558594 C 81.484375 176.371094 82.445312 175.414062 83.632812 175.414062 Z M 83.632812 164.683594 L 130.835938 164.683594 C 132.023438 164.683594 132.984375 165.644531 132.984375 166.832031 C 132.984375 168.015625 132.023438 168.976562 130.835938 168.976562 L 83.632812 168.976562 C 82.445312 168.976562 81.484375 168.015625 81.484375 166.832031 C 81.484375 165.644531 82.445312 164.683594 83.632812 164.683594 Z M 141.566406 177.558594 C 141.566406 178.746094 140.605469 179.703125 139.421875 179.703125 L 122.253906 179.703125 C 121.066406 179.703125 120.109375 178.746094 120.109375 177.558594 C 120.109375 176.371094 121.066406 175.414062 122.253906 175.414062 L 139.421875 175.414062 C 140.605469 175.414062 141.566406 176.371094 141.566406 177.558594 Z M 190.917969 156.101562 L 53.589844 156.101562 C 52.40625 156.101562 51.445312 157.0625 51.445312 158.246094 L 51.445312 196.871094 C 51.445312 198.054688 52.40625 199.015625 53.589844 199.015625 L 190.917969 199.015625 C 192.101562 199.015625 193.0625 198.054688 193.0625 196.871094 L 193.0625 158.246094 C 193.0625 157.0625 192.101562 156.101562 190.917969 156.101562 " fill-opacity="1" fill-rule="nonzero"/><path fill="#ffffff" d="M 180.1875 241.929688 L 158.730469 241.929688 L 158.730469 239.785156 C 158.730469 233.871094 163.542969 229.054688 169.460938 229.054688 C 175.375 229.054688 180.1875 233.871094 180.1875 239.785156 Z M 169.460938 216.183594 C 171.824219 216.183594 173.75 218.105469 173.75 220.472656 C 173.75 222.839844 171.824219 224.765625 169.460938 224.765625 C 167.09375 224.765625 165.167969 222.839844 165.167969 220.472656 C 165.167969 218.105469 167.09375 216.183594 169.460938 216.183594 Z M 152.292969 226.910156 L 109.378906 226.910156 C 108.195312 226.910156 107.234375 225.949219 107.234375 224.765625 C 107.234375 223.578125 108.195312 222.617188 109.378906 222.617188 L 152.292969 222.617188 C 153.480469 222.617188 154.441406 223.578125 154.441406 224.765625 C 154.441406 225.949219 153.480469 226.910156 152.292969 226.910156 Z M 148.003906 237.640625 L 122.253906 237.640625 C 121.066406 237.640625 120.109375 236.679688 120.109375 235.492188 C 120.109375 234.308594 121.066406 233.347656 122.253906 233.347656 L 148.003906 233.347656 C 149.1875 233.347656 150.148438 234.308594 150.148438 235.492188 C 150.148438 236.679688 149.1875 237.640625 148.003906 237.640625 Z M 113.671875 237.640625 L 83.632812 237.640625 C 82.445312 237.640625 81.484375 236.679688 81.484375 235.492188 C 81.484375 234.308594 82.445312 233.347656 83.632812 233.347656 L 113.671875 233.347656 C 114.859375 233.347656 115.816406 234.308594 115.816406 235.492188 C 115.816406 236.679688 114.859375 237.640625 113.671875 237.640625 Z M 77.195312 229.054688 L 75.046875 229.054688 L 75.046875 235.492188 C 75.046875 236.679688 74.089844 237.640625 72.902344 237.640625 C 71.71875 237.640625 70.757812 236.679688 70.757812 235.492188 L 70.757812 229.054688 L 62.175781 229.054688 C 61.542969 229.054688 60.945312 228.777344 60.539062 228.296875 C 60.128906 227.816406 59.953125 227.179688 60.058594 226.558594 L 62.203125 213.683594 C 62.398438 212.515625 63.503906 211.726562 64.671875 211.917969 C 65.839844 212.113281 66.632812 213.222656 66.4375 214.386719 L 64.707031 224.765625 L 70.757812 224.765625 L 70.757812 214.035156 C 70.757812 212.851562 71.71875 211.890625 72.902344 211.890625 C 74.089844 211.890625 75.046875 212.851562 75.046875 214.035156 L 75.046875 224.765625 L 77.195312 224.765625 C 78.378906 224.765625 79.339844 225.722656 79.339844 226.910156 C 79.339844 228.097656 78.378906 229.054688 77.195312 229.054688 Z M 83.632812 222.617188 L 100.796875 222.617188 C 101.984375 222.617188 102.941406 223.578125 102.941406 224.765625 C 102.941406 225.949219 101.984375 226.910156 100.796875 226.910156 L 83.632812 226.910156 C 82.445312 226.910156 81.484375 225.949219 81.484375 224.765625 C 81.484375 223.578125 82.445312 222.617188 83.632812 222.617188 Z M 83.632812 211.890625 L 122.253906 211.890625 C 123.441406 211.890625 124.398438 212.851562 124.398438 214.035156 C 124.398438 215.222656 123.441406 216.183594 122.253906 216.183594 L 83.632812 216.183594 C 82.445312 216.183594 81.484375 215.222656 81.484375 214.035156 C 81.484375 212.851562 82.445312 211.890625 83.632812 211.890625 Z M 190.917969 203.308594 L 53.589844 203.308594 C 52.40625 203.308594 51.445312 204.265625 51.445312 205.453125 L 51.445312 244.074219 C 51.445312 245.261719 52.40625 246.222656 53.589844 246.222656 L 190.917969 246.222656 C 192.101562 246.222656 193.0625 245.261719 193.0625 244.074219 L 193.0625 205.453125 C 193.0625 204.265625 192.101562 203.308594 190.917969 203.308594 " fill-opacity="1" fill-rule="nonzero"/><g clip-path="url(#16241b73d8)"><path fill="#ffffff" d="M 280.804688 123.609375 L 282.882812 119.875 C 283.457031 118.835938 283.082031 117.53125 282.046875 116.953125 C 281.011719 116.378906 279.703125 116.75 279.128906 117.785156 L 262.609375 147.519531 L 240.269531 147.519531 L 240.269531 128.207031 C 240.269531 127.019531 239.308594 126.0625 238.121094 126.0625 L 233.71875 126.0625 L 238.691406 115.964844 C 239.1875 114.957031 238.8125 113.757812 237.867188 113.1875 L 237.910156 113.1875 C 237.980469 113.195312 238.050781 113.207031 238.121094 113.207031 C 238.121094 113.207031 238.121094 113.207031 238.125 113.207031 L 256.699219 113.199219 C 256.761719 114.730469 257.285156 116.234375 258.203125 117.460938 C 258.207031 117.46875 258.210938 117.472656 258.214844 117.484375 C 259.675781 119.425781 261.902344 120.539062 264.332031 120.539062 C 266.757812 120.539062 268.988281 119.425781 270.445312 117.484375 C 271.367188 116.25 271.898438 114.738281 271.960938 113.199219 L 290.023438 113.1875 C 293.632812 113.1875 295.867188 116.214844 295.867188 119.019531 C 295.867188 119.855469 295.683594 120.679688 295.320312 121.464844 L 291.277344 130.230469 Z M 279.109375 156.582031 C 276.839844 161.503906 271.871094 164.683594 266.449219 164.683594 L 210.230469 164.683594 L 210.230469 151.808594 L 216.664062 151.808594 C 217.40625 151.808594 218.09375 151.429688 218.484375 150.800781 L 219.691406 148.875 L 221.804688 151.132812 C 222.210938 151.566406 222.777344 151.808594 223.371094 151.808594 L 263.871094 151.808594 C 264.652344 151.808594 265.367188 151.390625 265.746094 150.707031 L 278.71875 127.363281 L 289.457031 134.164062 Z M 287.632812 164.683594 L 278.179688 164.683594 C 280.199219 162.988281 281.867188 160.855469 283.007812 158.378906 L 289.140625 145.089844 Z M 191.777344 133.519531 L 192.726562 131.59375 C 193.992188 129.023438 196.183594 127.101562 198.894531 126.179688 C 201.609375 125.253906 204.519531 125.445312 207.089844 126.710938 C 212.398438 129.324219 214.589844 135.769531 211.972656 141.074219 L 211.027344 143 Z M 75.046875 138.9375 C 76.234375 138.9375 77.195312 139.894531 77.195312 141.082031 C 77.195312 142.269531 76.234375 143.226562 75.046875 143.226562 L 62.175781 143.226562 C 60.988281 143.226562 60.027344 142.269531 60.027344 141.082031 C 60.027344 135.054688 64.34375 129.960938 70.289062 128.972656 C 71.804688 128.71875 72.902344 127.417969 72.902344 125.882812 L 72.902344 125.242188 C 72.902344 124.707031 72.777344 124.167969 72.535156 123.691406 C 71.945312 122.507812 70.757812 121.773438 69.4375 121.773438 C 69.433594 121.773438 69.433594 121.773438 69.433594 121.773438 L 67.785156 121.777344 C 66.464844 121.777344 65.277344 122.511719 64.6875 123.691406 L 64.09375 124.878906 C 63.5625 125.9375 62.269531 126.367188 61.210938 125.832031 C 60.15625 125.304688 59.726562 124.015625 60.253906 122.953125 L 60.851562 121.765625 C 62.171875 119.128906 64.828125 117.488281 67.777344 117.484375 L 69.425781 117.484375 C 69.429688 117.484375 69.433594 117.484375 69.4375 117.484375 C 72.394531 117.484375 75.054688 119.125 76.375 121.773438 C 76.910156 122.84375 77.195312 124.042969 77.195312 125.242188 L 77.195312 125.882812 C 77.195312 129.527344 74.585938 132.605469 70.992188 133.203125 C 67.855469 133.726562 65.421875 136.003906 64.609375 138.9375 Z M 197.355469 259.097656 L 47.152344 259.097656 L 47.152344 53.105469 L 111.824219 53.105469 C 111.761719 53.199219 111.695312 53.292969 111.644531 53.398438 L 94.578125 88.046875 C 94.328125 88.558594 94.289062 89.148438 94.476562 89.683594 C 94.65625 90.222656 95.046875 90.667969 95.554688 90.917969 L 132.058594 108.894531 L 53.589844 108.894531 C 52.40625 108.894531 51.445312 109.855469 51.445312 111.042969 L 51.445312 149.664062 C 51.445312 150.851562 52.40625 151.808594 53.589844 151.808594 L 190.917969 151.808594 C 192.101562 151.808594 193.0625 150.851562 193.0625 149.664062 L 193.0625 138.941406 L 197.355469 141.050781 Z M 53.589844 40.234375 C 54.777344 40.234375 55.738281 41.191406 55.738281 42.378906 C 55.738281 43.566406 54.777344 44.523438 53.589844 44.523438 C 52.40625 44.523438 51.445312 43.566406 51.445312 42.378906 C 51.445312 41.191406 52.40625 40.234375 53.589844 40.234375 Z M 62.175781 40.234375 C 63.359375 40.234375 64.320312 41.191406 64.320312 42.378906 C 64.320312 43.566406 63.359375 44.523438 62.175781 44.523438 C 60.988281 44.523438 60.027344 43.566406 60.027344 42.378906 C 60.027344 41.191406 60.988281 40.234375 62.175781 40.234375 Z M 70.757812 40.234375 C 71.941406 40.234375 72.902344 41.191406 72.902344 42.378906 C 72.902344 43.566406 71.941406 44.523438 70.757812 44.523438 C 69.570312 44.523438 68.613281 43.566406 68.613281 42.378906 C 68.613281 41.191406 69.570312 40.234375 70.757812 40.234375 Z M 115.859375 71.816406 C 114.679688 71.972656 113.609375 71.144531 113.453125 69.96875 C 113.300781 68.792969 114.128906 67.714844 115.300781 67.5625 L 122.972656 66.554688 C 123.761719 66.449219 124.535156 66.789062 124.996094 67.433594 C 125.457031 68.074219 125.527344 68.921875 125.175781 69.632812 L 115.699219 88.878906 C 115.324219 89.640625 114.5625 90.078125 113.769531 90.078125 C 113.453125 90.078125 113.128906 90.007812 112.824219 89.855469 C 111.761719 89.332031 111.324219 88.046875 111.847656 86.984375 L 119.554688 71.332031 Z M 184.625 86.089844 L 185.191406 87.226562 L 164.765625 77.167969 L 177.082031 71.007812 L 181.445312 79.734375 C 181.882812 80.609375 182.859375 81.078125 183.816406 80.875 L 186.074219 80.386719 L 184.542969 84.359375 C 184.328125 84.925781 184.355469 85.550781 184.625 86.089844 Z M 130.953125 72.472656 C 131.472656 71.410156 132.761719 70.976562 133.824219 71.496094 L 160.773438 84.765625 C 161.835938 85.289062 162.273438 86.578125 161.75 87.640625 C 161.378906 88.398438 160.617188 88.839844 159.824219 88.839844 C 159.503906 88.839844 159.183594 88.769531 158.878906 88.617188 L 131.929688 75.347656 C 130.867188 74.820312 130.429688 73.539062 130.953125 72.472656 Z M 167.585938 100.082031 C 168.648438 100.605469 169.085938 101.890625 168.5625 102.953125 C 168.1875 103.710938 167.425781 104.152344 166.632812 104.152344 C 166.316406 104.152344 165.992188 104.082031 165.6875 103.929688 L 127.1875 84.972656 C 126.125 84.449219 125.6875 83.160156 126.210938 82.101562 C 126.738281 81.035156 128.023438 80.601562 129.085938 81.121094 Z M 118.140625 138.9375 L 148.003906 138.9375 C 149.1875 138.9375 150.148438 139.894531 150.148438 141.082031 C 150.148438 142.269531 149.1875 143.226562 148.003906 143.226562 L 118.140625 143.226562 C 116.957031 143.226562 115.996094 142.269531 115.996094 141.082031 C 115.996094 139.894531 116.957031 138.9375 118.140625 138.9375 Z M 105.089844 132.5 C 103.902344 132.5 102.941406 131.539062 102.941406 130.351562 C 102.941406 129.167969 103.902344 128.207031 105.089844 128.207031 L 139.421875 128.207031 C 140.605469 128.207031 141.566406 129.167969 141.566406 130.351562 C 141.566406 131.539062 140.605469 132.5 139.421875 132.5 Z M 83.632812 138.9375 L 109.378906 138.9375 C 110.566406 138.9375 111.527344 139.894531 111.527344 141.082031 C 111.527344 142.269531 110.566406 143.226562 109.378906 143.226562 L 83.632812 143.226562 C 82.445312 143.226562 81.484375 142.269531 81.484375 141.082031 C 81.484375 139.894531 82.445312 138.9375 83.632812 138.9375 Z M 81.84375 119.625 C 81.84375 118.4375 82.804688 117.480469 83.988281 117.480469 L 109.378906 117.480469 C 110.566406 117.480469 111.527344 118.4375 111.527344 119.625 C 111.527344 120.808594 110.566406 121.769531 109.378906 121.769531 L 83.988281 121.769531 C 82.804688 121.769531 81.84375 120.808594 81.84375 119.625 Z M 83.632812 128.207031 L 96.503906 128.207031 C 97.691406 128.207031 98.652344 129.167969 98.652344 130.351562 C 98.652344 131.539062 97.691406 132.5 96.503906 132.5 L 83.632812 132.5 C 82.445312 132.5 81.484375 131.539062 81.484375 130.351562 C 81.484375 129.167969 82.445312 128.207031 83.632812 128.207031 Z M 122.449219 94.597656 C 121.386719 94.074219 120.949219 92.785156 121.472656 91.722656 C 121.996094 90.660156 123.28125 90.222656 124.34375 90.746094 L 185.945312 121.082031 C 187.007812 121.605469 187.445312 122.890625 186.921875 123.953125 C 186.546875 124.710938 185.785156 125.152344 184.996094 125.152344 C 184.675781 125.152344 184.351562 125.082031 184.046875 124.933594 Z M 165.167969 126.0625 C 165.167969 125.78125 165.203125 125.511719 165.253906 125.246094 L 172.675781 128.898438 C 171.882812 129.800781 170.730469 130.351562 169.460938 130.351562 C 167.09375 130.351562 165.167969 128.425781 165.167969 126.0625 Z M 169.460938 134.644531 C 175.375 134.644531 180.1875 139.457031 180.1875 145.375 L 180.1875 147.519531 L 158.730469 147.519531 L 158.730469 145.375 C 158.730469 139.457031 163.542969 134.644531 169.460938 134.644531 Z M 197.355469 53.105469 L 197.355469 93.214844 L 191.558594 90.363281 L 188.890625 85.019531 L 190.796875 80.074219 C 191.222656 78.96875 191.007812 77.71875 190.234375 76.820312 C 189.464844 75.921875 188.265625 75.519531 187.113281 75.769531 L 184.539062 76.328125 L 180.921875 69.085938 C 180.410156 68.0625 179.527344 67.296875 178.441406 66.933594 C 177.355469 66.574219 176.191406 66.65625 175.164062 67.167969 L 161.832031 73.832031 C 161.253906 74.125 160.773438 74.53125 160.394531 75.015625 L 115.910156 53.105469 Z M 207.03125 117.113281 C 207.777344 115.597656 209.300781 114.71875 210.890625 114.71875 C 211.523438 114.71875 212.167969 114.863281 212.777344 115.160156 C 213.804688 115.667969 214.574219 116.542969 214.941406 117.628906 C 215.3125 118.714844 215.238281 119.878906 214.730469 120.90625 C 213.6875 123.03125 211.109375 123.90625 208.984375 122.859375 C 206.859375 121.816406 205.984375 119.238281 207.03125 117.113281 Z M 231.605469 130.351562 L 235.976562 130.351562 L 235.976562 147.519531 L 224.300781 147.519531 L 223.546875 146.714844 Z M 253.851562 100.199219 L 253.851562 94.820312 C 255.015625 94.972656 256.230469 94.816406 257.34375 94.351562 L 262.101562 92.359375 C 262.152344 92.589844 262.214844 92.824219 262.296875 93.050781 C 262.792969 94.445312 263.855469 95.585938 265.207031 96.179688 C 266.019531 96.539062 266.964844 96.363281 267.59375 95.738281 C 267.875 95.453125 268.261719 95.316406 268.648438 95.3125 C 269.046875 95.316406 269.417969 95.484375 269.6875 95.777344 C 270.183594 96.316406 270.1875 97.195312 269.695312 97.738281 C 269.527344 97.921875 269.332031 98.050781 269.105469 98.132812 C 268.246094 98.4375 267.671875 99.246094 267.671875 100.15625 L 267.679688 111.050781 C 267.679688 111.054688 267.679688 111.054688 267.679688 111.054688 L 267.679688 112.894531 C 267.679688 113.617188 267.445312 114.332031 267.011719 114.90625 C 266.371094 115.757812 265.394531 116.246094 264.332031 116.246094 C 263.269531 116.246094 262.296875 115.765625 261.660156 114.921875 C 261.65625 114.917969 261.652344 114.910156 261.648438 114.90625 C 261.214844 114.328125 260.976562 113.617188 260.976562 112.894531 L 260.976562 111.066406 C 260.976562 111.058594 260.980469 111.054688 260.980469 111.050781 C 260.980469 111.046875 260.976562 111.039062 260.976562 111.035156 L 260.976562 107.691406 C 262.332031 107.320312 263.628906 106.742188 264.8125 105.949219 C 265.796875 105.289062 266.0625 103.957031 265.402344 102.972656 C 264.742188 101.988281 263.410156 101.722656 262.425781 102.382812 C 260.972656 103.355469 259.277344 103.867188 257.523438 103.867188 C 255.5 103.867188 253.851562 102.222656 253.851562 100.199219 Z M 291.75 166.996094 L 291.757812 166.996094 L 294.308594 133.894531 L 299.21875 123.265625 C 299.84375 121.910156 300.160156 120.480469 300.160156 119.019531 C 300.160156 113.4375 295.613281 108.894531 290.019531 108.894531 L 271.96875 108.90625 L 271.964844 101.429688 C 272.289062 101.199219 272.59375 100.929688 272.863281 100.632812 C 273.855469 99.542969 274.351562 98.152344 274.351562 96.761719 L 274.363281 88.371094 C 274.363281 82.441406 270.050781 77.308594 264.332031 76.429688 C 262.8125 76.199219 261.289062 76.257812 259.796875 76.609375 C 258.898438 76.816406 258.03125 77.132812 257.214844 77.542969 L 256.523438 77.886719 C 255.476562 78.410156 254.308594 78.6875 253.136719 78.6875 L 248.234375 78.6875 C 247.046875 78.6875 246.085938 79.648438 246.085938 80.835938 L 246.085938 85.632812 C 246.085938 88.53125 247.417969 91.171875 249.5625 92.902344 L 249.5625 100.199219 C 249.5625 104.304688 252.6875 107.695312 256.6875 108.113281 L 256.6875 108.90625 L 238.121094 108.917969 L 238.121094 108.894531 L 229.195312 108.894531 L 201.644531 95.332031 L 201.644531 33.796875 C 201.644531 32.609375 200.6875 31.648438 199.5 31.648438 L 45.007812 31.648438 C 43.824219 31.648438 42.863281 32.609375 42.863281 33.796875 L 42.863281 261.242188 C 42.863281 262.425781 43.824219 263.386719 45.007812 263.386719 L 199.5 263.386719 C 200.6875 263.386719 201.644531 262.425781 201.644531 261.242188 L 201.644531 143.167969 L 210.484375 147.519531 L 208.082031 147.519531 C 206.898438 147.519531 205.9375 148.476562 205.9375 149.664062 L 205.9375 166.832031 C 205.9375 168.015625 206.898438 168.976562 208.082031 168.976562 L 235.433594 168.976562 L 225.835938 211.210938 C 225.445312 212.925781 225.25 214.6875 225.25 216.445312 L 225.25 272.96875 L 213.328125 280.914062 C 212.542969 281.4375 212.191406 282.414062 212.464844 283.320312 C 212.742188 284.226562 213.574219 284.84375 214.519531 284.84375 L 248.851562 284.84375 C 250.039062 284.84375 250.996094 283.886719 250.996094 282.699219 L 250.996094 214.382812 L 258.980469 190.433594 L 262.351562 190.433594 L 259.921875 210.992188 C 259.683594 213.03125 259.710938 215.09375 260.003906 217.125 L 268.054688 273.042969 L 256.246094 280.914062 C 255.457031 281.4375 255.105469 282.414062 255.382812 283.320312 C 255.65625 284.226562 256.488281 284.84375 257.433594 284.84375 L 292.839844 284.84375 C 293.453125 284.84375 294.039062 284.582031 294.449219 284.121094 C 294.855469 283.65625 295.042969 283.042969 294.96875 282.433594 L 293.894531 273.851562 C 293.894531 273.835938 293.886719 273.828125 293.886719 273.8125 L 293.890625 273.8125 L 285.351562 214.03125 L 291.746094 167.121094 C 291.75 167.078125 291.746094 167.039062 291.75 166.996094 " fill-opacity="1" fill-rule="nonzero"/></g></svg>